<svg version="1.1" viewBox="0.0 0.0 256.0 256.0" fill="none" stroke="none" stroke-linecap="square" stroke-miterlimit="10" xmlns:xlink="http://www.w3.org/1999/xlink" xmlns="http://www.w3.org/2000/svg"><clipPath id="p.0"><path d="m0 0l256.0 0l0 256.0l-256.0 0l0 -256.0z" clip-rule="nonzero"/></clipPath><g clip-path="url(#p.0)"><path fill="#999999" d="m0 0l256.0 0l0 256.0l-256.0 0z" fill-rule="evenodd"/><path fill="#b7b7b7" d="m31.64738 61.916653c-8.478956 -7.85524 -18.451614 -45.387753 -17.204182 -47.881382c1.2474327 -2.4936285 19.57653 33.418335 24.688782 32.91961c5.1122475 -0.4987259 2.9923515 -35.53761 5.984707 -35.911964c2.9923553 -0.3743534 7.605259 32.41903 11.969418 33.665844c4.3641586 1.2468147 12.843735 -28.927948 14.215538 -26.184958c1.3718033 2.7429924 0.62433624 35.410767 -5.9847107 42.642906c-6.6090393 7.2321434 -25.190598 8.605183 -33.66955 0.7499466z" fill-rule="evenodd"/><path fill="#b7b7b7" d="m201.82848 65.55183c-8.478943 -7.8552437 -18.451614 -45.387756 -17.204178 -47.881386c1.2474365 -2.4936275 19.576538 33.418335 24.688782 32.919613c5.1122437 -0.4987259 2.9923553 -35.537613 5.9847107 -35.911964c2.9923553 -0.3743534 7.605255 32.41903 11.969421 33.66584c4.364151 1.2468147 12.843735 -28.927948 14.21553 -26.184956c1.3718109 2.7429905 0.6243439 35.410763 -5.9847107 42.642906c-6.6090393 7.2321396 -25.190598 8.605186 -33.669556 0.7499466z" fill-rule="evenodd"/><path fill="#b7b7b7" d="m31.64738 240.95865c-8.478956 -7.85524 -18.451614 -45.387756 -17.204182 -47.88138c1.2474327 -2.493637 19.57653 33.418335 24.688782 32.9196c5.1122475 -0.49871826 2.9923515 -35.537613 5.984707 -35.911957c2.9923553 -0.37435913 7.605259 32.41902 11.969418 33.665833c4.3641586 1.2468262 12.843735 -28.927948 14.215538 -26.184952c1.3718033 2.7429962 0.62433624 35.410767 -5.9847107 42.642914c-6.6090393 7.232132 -25.190598 8.605179 -33.66955 0.74993896z" fill-rule="evenodd"/><path fill="#b7b7b7" d="m137.18544 111.43765c-8.478958 -7.85524 -18.451614 -45.387756 -17.204185 -47.881386c1.2474365 -2.4936256 19.57653 33.418335 24.68879 32.91961c5.1122437 -0.4987259 2.99234 -35.53761 5.9846954 -35.91196c2.9923553 -0.37435532 7.6052704 32.419025 11.969421 33.665844c4.3641663 1.2468109 12.843735 -28.927948 14.215546 -26.18496c1.3717957 2.7429886 0.6243286 35.410767 -5.9847107 42.642906c-6.6090393 7.2321396 -25.190598 8.605186 -33.669556 0.7499466z" fill-rule="evenodd"/><path fill="#b7b7b7" d="m206.87311 245.32216c-8.478958 -7.85524 -18.451614 -45.38774 -17.204193 -47.88138c1.2474365 -2.4936218 19.576538 33.418335 24.688782 32.919617c5.112259 -0.49873352 2.9923553 -35.537613 5.9847107 -35.911972c2.9923553 -0.37434387 7.605255 32.419037 11.969421 33.665848c4.364151 1.2468109 12.843735 -28.927948 14.21553 -26.184952c1.3718109 2.742981 0.6243439 35.41075 -5.9846954 42.6429c-6.6090546 7.232147 -25.190598 8.605179 -33.669556 0.74993896z" fill-rule="evenodd"/><path fill="#b7b7b7" d="m50.374416 151.43896c-8.478958 -7.85524 -18.451616 -45.387756 -17.204182 -47.881386c1.2474327 -2.4936295 19.57653 33.418343 24.688778 32.91961c5.1122475 -0.49871826 2.9923553 -35.537605 5.9847107 -35.911964c2.9923515 -0.3743515 7.605259 32.41903 11.969418 33.66584c4.3641586 1.2468262 12.843735 -28.92794 14.215538 -26.184952c1.3718033 2.7429886 0.62433624 35.410767 -5.9847107 42.6429c-6.6090393 7.232147 -25.190598 8.605194 -33.66955 0.7499542z" fill-rule="evenodd"/><path fill="#b7b7b7" d="m128.0647 203.00983c-8.4789505 -7.85524 -18.451607 -45.387756 -17.204178 -47.88138c1.2474365 -2.493637 19.576538 33.418335 24.688782 32.9196c5.1122437 -0.49871826 2.9923553 -35.537598 5.9847107 -35.911957c2.9923553 -0.37435913 7.605255 32.41902 11.969421 33.665848c4.364151 1.2468109 12.843735 -28.927948 14.21553 -26.184967c1.3718109 2.7429962 0.6243439 35.410767 -5.9847107 42.642914c-6.6090393 7.232132 -25.190598 8.605179 -33.669556 0.74993896z" fill-rule="evenodd"/></g></svg>