<svg version="1.1" viewBox="0.0 0.0 256.0 256.0" fill="none" stroke="none" stroke-linecap="square" stroke-miterlimit="10" xmlns:xlink="http://www.w3.org/1999/xlink" xmlns="http://www.w3.org/2000/svg"><clipPath id="p.0"><path d="m0 0l256.0 0l0 256.0l-256.0 0l0 -256.0z" clip-rule="nonzero"/></clipPath><g clip-path="url(#p.0)"><path fill="#000000" fill-opacity="0.0" d="m0 0l256.0 0l0 256.0l-256.0 0z" fill-rule="evenodd"/><path fill="#9a7608" d="m125.02473 34.765083l0 0c-1.0669022 0 -1.9308624 0.86489487 -1.929718 1.9317932l0.12181854 112.955315c5.569458E-4 0.51234436 0.20461273 1.0036926 0.56728363 1.365982c0.3626709 0.36227417 0.8542557 0.56581116 1.3666 0.56581116l7.726959 0c1.0668945 0 1.9308624 -0.8648987 1.9297028 -1.9317932l-0.12181091 -112.955315l0 0c-0.0011444092 -1.0668983 -0.8669739 -1.9317932 -1.9338837 -1.9317932z" fill-rule="evenodd"/><path stroke="#9a7608" stroke-width="1.0" stroke-linejoin="round" stroke-linecap="butt" d="m125.02473 34.765083l0 0c-1.0669022 0 -1.9308624 0.86489487 -1.929718 1.9317932l0.12181854 112.955315c5.569458E-4 0.51234436 0.20461273 1.0036926 0.56728363 1.365982c0.3626709 0.36227417 0.8542557 0.56581116 1.3666 0.56581116l7.726959 0c1.0668945 0 1.9308624 -0.8648987 1.9297028 -1.9317932l-0.12181091 -112.955315l0 0c-0.0011444092 -1.0668983 -0.8669739 -1.9317932 -1.9338837 -1.9317932z" fill-rule="evenodd"/><path fill="#5d5555" d="m123.039734 55.362385l0 0c13.027283 -0.0040359497 23.585266 -10.566929 23.583252 -23.594206c-0.002029419 -13.027273 -10.563278 -23.586895 -23.59056 -23.586895l0 23.59055z" fill-rule="evenodd"/><path stroke="#5d5555" stroke-width="1.0" stroke-linejoin="round" stroke-linecap="butt" d="m123.039734 55.362385l0 0c13.027283 -0.0040359497 23.585266 -10.566929 23.583252 -23.594206c-0.002029419 -13.027273 -10.563278 -23.586895 -23.59056 -23.586895l0 23.59055z" fill-rule="evenodd"/><path fill="#746767" d="m134.56322 29.185349l0 0c-1.6264191 -1.6264133 -4.2633514 -1.6264133 -5.8897705 0l0 0c-0.78102875 0.78103065 -1.2198105 1.8403358 -1.2198105 2.9448814c0 1.1045456 0.43878174 2.1638527 1.2198105 2.9448814l0 0c1.6264191 1.6264153 4.2633514 1.6264153 5.8897705 0l0 0c1.6264038 -1.6264114 1.6264038 -4.2633495 0 -5.889763z" fill-rule="evenodd"/><path fill="#746767" d="m132.14018 39.96976l0 0c-0.6871033 -0.6870918 -1.8011017 -0.6870918 -2.4881897 0l0 0c-0.32995605 0.32995605 -0.5153198 0.77746964 -0.5153198 1.2440948c0 0.46662903 0.18536377 0.9141426 0.5153198 1.2440948l0 0c0.687088 0.68709564 1.8010864 0.68709564 2.4881897 0l0 0c0.687088 -0.6870918 0.687088 -1.801094 0 -2.4881897z" fill-rule="evenodd"/><path fill="#9f7a0a" d="m129.90945 61.14443l2.6891632 16.382153l-2.6891632 13.4457855l4.155182 15.892036l-5.6233673 9.0455475l-2.6891556 -8.557587l0.9802246 -22.003365l-2.9363632 -14.1788025z" fill-rule="evenodd"/><path fill="#9a7608" d="m-127.73354 51.817387l0 0c-0.7537918 -0.753788 -1.9753494 -0.75320435 -2.7284164 0.0013008118l-79.79257 79.94485c-0.3616333 0.3623352 -0.56466675 0.85362244 -0.5644226 1.3657837c2.4414062E-4 0.51216125 0.20373535 1.0032501 0.5657196 1.3652344l5.4592743 5.459259c0.7537842 0.75379944 1.9753418 0.7532196 2.7284088 -0.0012969971l79.79257 -79.944855l0 0c0.753067 -0.75450516 0.7524872 -1.9772224 -0.0013046265 -2.7310143z" fill-rule="evenodd"/><path stroke="#9a7608" stroke-width="1.0" stroke-linejoin="round" stroke-linecap="butt" d="m-127.73354 51.817387l0 0c-0.7537918 -0.753788 -1.9753494 -0.75320435 -2.7284164 0.0013008118l-79.79257 79.94485c-0.3616333 0.3623352 -0.56466675 0.85362244 -0.5644226 1.3657837c2.4414062E-4 0.51216125 0.20373535 1.0032501 0.5657196 1.3652344l5.4592743 5.459259c0.7537842 0.75379944 1.9753418 0.7532196 2.7284088 -0.0012969971l79.79257 -79.944855l0 0c0.753067 -0.75450516 0.7524872 -1.9772224 -0.0013046265 -2.7310143z" fill-rule="evenodd"/><path fill="#f1c232" d="m-216.6822 131.28448l0 0c-0.9277344 -0.9277344 -2.4311829 -0.9270172 -3.3580475 0.0016021729l-79.16324 79.314316c-0.44509888 0.44595337 -0.6949768 1.0505981 -0.69467163 1.680954c3.0517578E-4 0.63035583 0.25076294 1.234787 0.69625854 1.6802979l6.719116 6.719101c0.9277344 0.9277344 2.4311829 0.9270172 3.3580322 -0.0016021729l79.16325 -79.314316c0.92684937 -0.92863464 0.9261322 -2.4335175 -0.0016021729 -3.3612518z" fill-rule="evenodd"/><path stroke="#f1c232" stroke-width="1.0" stroke-linejoin="round" stroke-linecap="butt" d="m-216.6822 131.28448l0 0c-0.9277344 -0.9277344 -2.4311829 -0.9270172 -3.3580475 0.0016021729l-79.16324 79.314316c-0.44509888 0.44595337 -0.6949768 1.0505981 -0.69467163 1.680954c3.0517578E-4 0.63035583 0.25076294 1.234787 0.69625854 1.6802979l6.719116 6.719101c0.9277344 0.9277344 2.4311829 0.9270172 3.3580322 -0.0016021729l79.16325 -79.314316c0.92684937 -0.92863464 0.9261322 -2.4335175 -0.0016021729 -3.3612518z" fill-rule="evenodd"/><path fill="#f1c232" d="m-104.07482 213.93225l0 0c0.927742 -0.9277344 0.927742 -2.4319 0 -3.3596497l-79.66398 -79.66397c-0.44551086 -0.44552612 -1.0497589 -0.6958008 -1.6798248 -0.6958008c-0.63005066 0 -1.2342987 0.25027466 -1.6798248 0.6958008l-6.7190857 6.7190857c-0.92774963 0.92774963 -0.92774963 2.4319153 0 3.3596497l79.66397 79.66397c0.927742 0.92774963 2.4319077 0.92774963 3.3596497 0z" fill-rule="evenodd"/><path stroke="#f1c232" stroke-width="1.0" stroke-linejoin="round" stroke-linecap="butt" d="m-104.07482 213.93225l0 0c0.927742 -0.9277344 0.927742 -2.4319 0 -3.3596497l-79.66398 -79.66397c-0.44551086 -0.44552612 -1.0497589 -0.6958008 -1.6798248 -0.6958008c-0.63005066 0 -1.2342987 0.25027466 -1.6798248 0.6958008l-6.7190857 6.7190857c-0.92774963 0.92774963 -0.92774963 2.4319153 0 3.3596497l79.66397 79.66397c0.927742 0.92774963 2.4319077 0.92774963 3.3596497 0z" fill-rule="evenodd"/><path fill="#bf9000" d="m-102.39519 206.85738l0 0c0 -1.3220367 -1.0717163 -2.393753 -2.3937454 -2.393753l-193.70068 0c-0.6348572 0 -1.2437134 0.25219727 -1.692627 0.70111084c-0.44891357 0.44891357 -0.70111084 1.0577698 -0.70111084 1.6926422l0 9.574707c0 1.3220215 1.0717163 2.3937378 2.3937378 2.3937378l193.70068 0c1.3220291 0 2.3937454 -1.0717163 2.3937454 -2.3937378z" fill-rule="evenodd"/><path stroke="#bf9000" stroke-width="1.0" stroke-linejoin="round" stroke-linecap="butt" d="m-102.39519 206.85738l0 0c0 -1.3220367 -1.0717163 -2.393753 -2.3937454 -2.393753l-193.70068 0c-0.6348572 0 -1.2437134 0.25219727 -1.692627 0.70111084c-0.44891357 0.44891357 -0.70111084 1.0577698 -0.70111084 1.6926422l0 9.574707c0 1.3220215 1.0717163 2.3937378 2.3937378 2.3937378l193.70068 0c1.3220291 0 2.3937454 -1.0717163 2.3937454 -2.3937378z" fill-rule="evenodd"/><path fill="#666666" d="m-82.10364 211.65672l0 0c0 -16.239609 -13.164803 -29.404404 -29.404404 -29.404404l0 0c-7.7985306 0 -15.277657 3.0979614 -20.792053 8.61235c-5.514389 5.514389 -8.61235 12.993515 -8.61235 20.792053l0 0c0 16.239609 13.164803 29.404404 29.404404 29.404404l0 0c16.239601 0 29.404404 -13.164795 29.404404 -29.404404z" fill-rule="evenodd"/><path stroke="#666666" stroke-width="1.0" stroke-linejoin="round" stroke-linecap="butt" d="m-82.10364 211.65672l0 0c0 -16.239609 -13.164803 -29.404404 -29.404404 -29.404404l0 0c-7.7985306 0 -15.277657 3.0979614 -20.792053 8.61235c-5.514389 5.514389 -8.61235 12.993515 -8.61235 20.792053l0 0c0 16.239609 13.164803 29.404404 29.404404 29.404404l0 0c16.239601 0 29.404404 -13.164795 29.404404 -29.404404z" fill-rule="evenodd"/><path fill="#434343" d="m-95.6749 211.65672l0 0c0 -8.7444 -7.088745 -15.833145 -15.833145 -15.833145l0 0c-4.199211 0 -8.226433 1.6681366 -11.195717 4.6374207c-2.9692917 2.9692993 -4.6374207 6.996521 -4.6374207 11.1957245l0 0c0 8.7444 7.0887375 15.833145 15.8331375 15.833145l0 0c8.7444 0 15.833145 -7.088745 15.833145 -15.833145z" fill-rule="evenodd"/><path stroke="#000000" stroke-width="3.0" stroke-linejoin="round" stroke-linecap="butt" d="m-95.6749 211.65672l0 0c0 -8.7444 -7.088745 -15.833145 -15.833145 -15.833145l0 0c-4.199211 0 -8.226433 1.6681366 -11.195717 4.6374207c-2.9692917 2.9692993 -4.6374207 6.996521 -4.6374207 11.1957245l0 0c0 8.7444 7.0887375 15.833145 15.8331375 15.833145l0 0c8.7444 0 15.833145 -7.088745 15.833145 -15.833145z" fill-rule="evenodd"/><path fill="#666666" d="m-262.3789 211.65672l0 0c0 -16.239609 -13.164795 -29.404404 -29.404388 -29.404404l0 0c-7.798523 0 -15.277649 3.0979614 -20.792053 8.61235c-5.5144043 5.514389 -8.612366 12.993515 -8.612366 20.792053l0 0c0 16.239609 13.164825 29.404404 29.404419 29.404404l0 0c16.239594 0 29.404388 -13.164795 29.404388 -29.404404z" fill-rule="evenodd"/><path stroke="#666666" stroke-width="1.0" stroke-linejoin="round" stroke-linecap="butt" d="m-262.3789 211.65672l0 0c0 -16.239609 -13.164795 -29.404404 -29.404388 -29.404404l0 0c-7.798523 0 -15.277649 3.0979614 -20.792053 8.61235c-5.5144043 5.514389 -8.612366 12.993515 -8.612366 20.792053l0 0c0 16.239609 13.164825 29.404404 29.404419 29.404404l0 0c16.239594 0 29.404388 -13.164795 29.404388 -29.404404z" fill-rule="evenodd"/><path fill="#434343" d="m-275.95016 211.65672l0 0c0 -8.7444 -7.088745 -15.833145 -15.83313 -15.833145l0 0c-4.1992188 0 -8.22644 1.6681366 -11.19574 4.6374207c-2.9692688 2.9692993 -4.63739 6.996521 -4.63739 11.1957245l0 0c0 8.7444 7.0887146 15.833145 15.83313 15.833145l0 0c8.744385 0 15.83313 -7.088745 15.83313 -15.833145z" fill-rule="evenodd"/><path stroke="#000000" stroke-width="3.0" stroke-linejoin="round" stroke-linecap="butt" d="m-275.95016 211.65672l0 0c0 -8.7444 -7.088745 -15.833145 -15.83313 -15.833145l0 0c-4.1992188 0 -8.22644 1.6681366 -11.19574 4.6374207c-2.9692688 2.9692993 -4.63739 6.996521 -4.63739 11.1957245l0 0c0 8.7444 7.0887146 15.833145 15.83313 15.833145l0 0c8.744385 0 15.83313 -7.088745 15.83313 -15.833145z" fill-rule="evenodd"/><path fill="#bf9000" d="m-195.32996 126.773964l0 0c0 -1.1683731 -0.9471588 -2.1155243 -2.1155243 -2.1155243l-8.461853 0l0 0c-0.56108093 0 -1.0991669 0.22288513 -1.4959106 0.6196213c-0.39674377 0.39674377 -0.6196289 0.93483734 -0.6196289 1.495903l0 100.36738c0 1.1683655 0.9471588 2.1155243 2.1155396 2.1155243l8.461853 0c1.1683655 0 2.1155243 -0.9471588 2.1155243 -2.1155243z" fill-rule="evenodd"/><path stroke="#bf9000" stroke-width="1.0" stroke-linejoin="round" stroke-linecap="butt" d="m-195.32996 126.773964l0 0c0 -1.1683731 -0.9471588 -2.1155243 -2.1155243 -2.1155243l-8.461853 0l0 0c-0.56108093 0 -1.0991669 0.22288513 -1.4959106 0.6196213c-0.39674377 0.39674377 -0.6196289 0.93483734 -0.6196289 1.495903l0 100.36738c0 1.1683655 0.9471588 2.1155243 2.1155396 2.1155243l8.461853 0c1.1683655 0 2.1155243 -0.9471588 2.1155243 -2.1155243z" fill-rule="evenodd"/><path fill="#999999" d="m-188.10677 219.42506l0 0c0 -0.32470703 -0.26322937 -0.5879364 -0.5879364 -0.5879364l-25.973724 0c-0.15592957 0 -0.30548096 0.061935425 -0.41574097 0.17219543c-0.11026001 0.11026001 -0.17219543 0.2598114 -0.17219543 0.41574097l0 2.3516846c0 0.32470703 0.26322937 0.5879364 0.5879364 0.5879364l25.973724 0c0.32470703 0 0.5879364 -0.26322937 0.5879364 -0.5879364z" fill-rule="evenodd"/><path stroke="#999999" stroke-width="1.0" stroke-linejoin="round" stroke-linecap="butt" d="m-188.10677 219.42506l0 0c0 -0.32470703 -0.26322937 -0.5879364 -0.5879364 -0.5879364l-25.973724 0c-0.15592957 0 -0.30548096 0.061935425 -0.41574097 0.17219543c-0.11026001 0.11026001 -0.17219543 0.2598114 -0.17219543 0.41574097l0 2.3516846c0 0.32470703 0.26322937 0.5879364 0.5879364 0.5879364l25.973724 0c0.32470703 0 0.5879364 -0.26322937 0.5879364 -0.5879364z" fill-rule="evenodd"/><path fill="#bf9000" d="m-185.58958 131.3038l0 0c0 -8.880035 -7.1987 -16.078735 -16.07875 -16.078735l0 0c-4.2643433 0 -8.354034 1.6940079 -11.369385 4.7093506c-3.0153503 3.0153503 -4.7093506 7.1050415 -4.7093506 11.369385l0 0c0 8.880051 7.1987 16.07875 16.078735 16.07875l0 0c8.880051 0 16.07875 -7.1987 16.07875 -16.07875z" fill-rule="evenodd"/><path stroke="#bf9000" stroke-width="1.0" stroke-linejoin="round" stroke-linecap="butt" d="m-185.58958 131.3038l0 0c0 -8.880035 -7.1987 -16.078735 -16.07875 -16.078735l0 0c-4.2643433 0 -8.354034 1.6940079 -11.369385 4.7093506c-3.0153503 3.0153503 -4.7093506 7.1050415 -4.7093506 11.369385l0 0c0 8.880051 7.1987 16.07875 16.078735 16.07875l0 0c8.880051 0 16.07875 -7.1987 16.07875 -16.07875z" fill-rule="evenodd"/><path fill="#b7b7b7" d="m-191.66364 131.30414l0 0c0 -5.505455 -4.4630585 -9.968506 -9.968506 -9.968506l0 0c-2.643814 0 -5.1793365 1.0502472 -7.0487976 2.9197083c-1.869461 1.8694534 -2.9197083 4.4049835 -2.9197083 7.0487976l0 0c0 5.5054474 4.4630585 9.968506 9.968506 9.968506l0 0c5.5054474 0 9.968506 -4.4630585 9.968506 -9.968506z" fill-rule="evenodd"/><path stroke="#b7b7b7" stroke-width="1.0" stroke-linejoin="round" stroke-linecap="butt" d="m-191.66364 131.30414l0 0c0 -5.505455 -4.4630585 -9.968506 -9.968506 -9.968506l0 0c-2.643814 0 -5.1793365 1.0502472 -7.0487976 2.9197083c-1.869461 1.8694534 -2.9197083 4.4049835 -2.9197083 7.0487976l0 0c0 5.5054474 4.4630585 9.968506 9.968506 9.968506l0 0c5.5054474 0 9.968506 -4.4630585 9.968506 -9.968506z" fill-rule="evenodd"/><path fill="#5d5555" d="m-143.68889 64.97554l0 0c9.212387 9.20668 24.143639 9.203209 33.351746 -0.007751465c9.208115 -9.210964 9.206955 -24.142212 -0.0025787354 -33.35175l-16.67717 16.677166z" fill-rule="evenodd"/><path stroke="#5d5555" stroke-width="1.0" stroke-linejoin="round" stroke-linecap="butt" d="m-143.68889 64.97554l0 0c9.212387 9.20668 24.143639 9.203209 33.351746 -0.007751465c9.208115 -9.210964 9.206955 -24.142212 -0.0025787354 -33.35175l-16.67717 16.677166z" fill-rule="evenodd"/><path fill="#746767" d="m-117.04222 54.61057l0 0c0 -2.296112 -1.8613663 -4.157482 -4.1574783 -4.157482l0 0c-1.1026306 0 -2.1601028 0.4380188 -2.9397812 1.217701c-0.77967834 0.77967834 -1.2176971 1.8371468 -1.2176971 2.9397812l0 0c0 2.296112 1.8613663 4.1574783 4.1574783 4.1574783l0 0c2.296112 0 4.1574783 -1.8613663 4.1574783 -4.1574783z" fill-rule="evenodd"/><path fill="#746767" d="m-126.381294 60.53453l0 0c0 -0.97410965 -0.78967285 -1.7637787 -1.7637863 -1.7637787l0 0c-0.46777344 0 -0.9163971 0.18582535 -1.2471771 0.51659775c-0.33076477 0.3307724 -0.51660156 0.7793999 -0.51660156 1.2471809l0 0c0 0.97410965 0.78967285 1.7637787 1.7637787 1.7637787l0 0c0.97411346 0 1.7637863 -0.78966904 1.7637863 -1.7637787z" fill-rule="evenodd"/><path fill="#9f7a0a" d="m-150.88637 211.19084l-15.212952 -3.456665l-10.0264435 3.456665l-13.483093 -2.7665558l-13.139557 2.4199677l-19.362762 -3.803238l-20.39946 4.496399l-10.373016 -4.149811l-3.1131287 3.803238l5.879669 4.4963837l13.4831085 0l19.709335 -2.0764313l12.792984 2.4199677l17.286331 0l19.362762 -2.0733795l5.533081 2.0733795l16.24965 -2.0733795z" fill-rule="evenodd"/><path fill="#9f7a0a" d="m-200.32788 150.68459l2.076416 15.212936l-1.7298431 10.0264435l1.7298431 6.5697784l-2.076416 12.102875l-4.149826 2.7665405l-1.3832703 -16.252686l3.1131287 -12.792984l-3.803238 -12.099823z" fill-rule="evenodd"/><path fill="#9f7a0a" d="m-142.93141 73.92556l-9.682892 13.486137l-11.409714 7.606476l-8.299637 14.176254l-10.373016 2.41996l4.149826 -7.9530487l16.25267 -14.866371l7.950012 -12.102867z" fill-rule="evenodd"/><path fill="#cda52b" d="m-136.36487 187.68033l-7.950012 -13.139572l-8.989746 -1.3832703l-10.02948 -19.706299l-12.792984 -5.533081l0.693161 7.606476l11.063126 8.299622l8.64621 13.829681l8.989746 2.4199677l5.8766327 10.0264435z" fill-rule="evenodd"/><path fill="#cda52b" d="m-221.76332 144.11496l-14.176254 20.746033l-10.719589 8.2966l-5.533081 8.299622l-5.8766327 1.0366974l-2.0733948 7.606476l-5.879669 -4.4933624l3.8032532 -8.989746l8.299622 -2.7665405l5.5330963 -10.373016l10.716553 -5.879669l6.5697784 -11.753235z" fill-rule="evenodd"/><path fill="#666666" d="m-104.553635 209.11508l-6.916359 -5.186508l-8.989746 5.879654l-0.69010925 6.5697784l5.5300446 2.0733948l6.226242 -3.456665l3.4566574 5.186508z" fill-rule="evenodd"/><path fill="#666666" d="m-285.38278 209.80817l-5.53006 -3.4566498l-7.9530334 0.69010925l-1.7298584 6.9163666l4.496399 5.5300446l7.950012 -3.1100922l4.2197266 3.803238z" fill-rule="evenodd"/><path fill="#a4a4a4" d="m-197.90797 128.55591l1.3832703 6.2231903l-5.186508 3.1131287l-5.5300446 -2.4199677l1.0366974 -4.842972l4.493347 -5.186508z" fill-rule="evenodd"/><path fill="#9f7a0a" d="m-198.38826 227.08188l-3.0067139 -2.298355l-3.7120361 1.7693787l1.5900116 2.1220245l3.0067139 -1.0610199z" fill-rule="evenodd"/><path fill="#9a7608" d="m746.87463 -68.31874l0 0c-0.64941406 -0.64941406 -1.7018433 -0.6489563 -2.350708 0.0010375977l-68.89441 69.01625c-0.31158447 0.31213725 -0.48651123 0.73537683 -0.48632812 1.1766107c1.8310547E-4 0.4412341 0.17553711 0.86431885 0.48736572 1.1761806l4.703369 4.7033653c0.64941406 0.64941835 1.7018433 0.6489539 2.350708 -0.0010380745l68.89441 -69.01625l0 0c0.64886475 -0.6499901 0.64837646 -1.703373 -0.0010375977 -2.3527908z" fill-rule="evenodd"/><path stroke="#9a7608" stroke-width="1.0" stroke-linejoin="round" stroke-linecap="butt" d="m746.87463 -68.31874l0 0c-0.64941406 -0.64941406 -1.7018433 -0.6489563 -2.350708 0.0010375977l-68.89441 69.01625c-0.31158447 0.31213725 -0.48651123 0.73537683 -0.48632812 1.1766107c1.8310547E-4 0.4412341 0.17553711 0.86431885 0.48736572 1.1761806l4.703369 4.7033653c0.64941406 0.64941835 1.7018433 0.6489539 2.350708 -0.0010380745l68.89441 -69.01625l0 0c0.64886475 -0.6499901 0.64837646 -1.703373 -0.0010375977 -2.3527908z" fill-rule="evenodd"/><path fill="#f1c232" d="m670.0862 0.29593197l0 0c-0.8031006 -0.8030758 -2.1045532 -0.80250096 -2.9069214 0.0012839735l-68.33844 68.45931c-0.38531494 0.38599396 -0.6016846 0.9093704 -0.6014404 1.4550095c2.4414062E-4 0.5456314 0.21704102 1.0688171 0.60272217 1.4544678l5.816162 5.8162155c0.8031006 0.8030777 2.1045532 0.8025055 2.9069214 -0.0012817383l68.3385 -68.45932c0.80236816 -0.8037853 0.8017578 -2.1064029 -0.0012817383 -2.9094787z" fill-rule="evenodd"/><path stroke="#f1c232" stroke-width="1.0" stroke-linejoin="round" stroke-linecap="butt" d="m670.0862 0.29593197l0 0c-0.8031006 -0.8030758 -2.1045532 -0.80250096 -2.9069214 0.0012839735l-68.33844 68.45931c-0.38531494 0.38599396 -0.6016846 0.9093704 -0.6014404 1.4550095c2.4414062E-4 0.5456314 0.21704102 1.0688171 0.60272217 1.4544678l5.816162 5.8162155c0.8031006 0.8030777 2.1045532 0.8025055 2.9069214 -0.0012817383l68.3385 -68.45932c0.80236816 -0.8037853 0.8017578 -2.1064029 -0.0012817383 -2.9094787z" fill-rule="evenodd"/><path fill="#f1c232" d="m767.2993 71.65035l0 0c0.8031006 -0.8030777 0.8031006 -2.1051178 0 -2.9081955l-68.776794 -68.77685c-0.38568115 -0.3856506 -0.90875244 -0.60230684 -1.4541016 -0.60230684c-0.54541016 0 -1.0684814 0.21665627 -1.4541016 0.60230684l-5.816223 5.816215c-0.8031006 0.8030758 -0.8031006 2.1051188 0 2.908194l68.776855 68.77685c0.80303955 0.8030777 2.1051025 0.8030777 2.9082031 0z" fill-rule="evenodd"/><path stroke="#f1c232" stroke-width="1.0" stroke-linejoin="round" stroke-linecap="butt" d="m767.2993 71.65035l0 0c0.8031006 -0.8030777 0.8031006 -2.1051178 0 -2.9081955l-68.776794 -68.77685c-0.38568115 -0.3856506 -0.90875244 -0.60230684 -1.4541016 -0.60230684c-0.54541016 0 -1.0684814 0.21665627 -1.4541016 0.60230684l-5.816223 5.816215c-0.8031006 0.8030758 -0.8031006 2.1051188 0 2.908194l68.776855 68.77685c0.80303955 0.8030777 2.1051025 0.8030777 2.9082031 0z" fill-rule="evenodd"/><path fill="#bf9000" d="m768.7533 65.54002l0 0c0 -1.1422806 -0.9260254 -2.0682793 -2.0682983 -2.0682793l-167.23352 0c-0.54852295 0 -1.074585 0.21790695 -1.4624634 0.60578537c-0.38787842 0.38787842 -0.60583496 0.9139557 -0.60583496 1.4624939l0 8.272888c0 1.1422806 0.9260254 2.068283 2.0682983 2.068283l167.23352 0c1.142273 0 2.0682983 -0.9260025 2.0682983 -2.068283z" fill-rule="evenodd"/><path stroke="#bf9000" stroke-width="1.0" stroke-linejoin="round" stroke-linecap="butt" d="m768.7533 65.54002l0 0c0 -1.1422806 -0.9260254 -2.0682793 -2.0682983 -2.0682793l-167.23352 0c-0.54852295 0 -1.074585 0.21790695 -1.4624634 0.60578537c-0.38787842 0.38787842 -0.60583496 0.9139557 -0.60583496 1.4624939l0 8.272888c0 1.1422806 0.9260254 2.068283 2.0682983 2.068283l167.23352 0c1.142273 0 2.0682983 -0.9260025 2.0682983 -2.068283z" fill-rule="evenodd"/><path fill="#666666" d="m786.27295 69.67647l0 0c0 -14.020206 -11.365601 -25.385826 -25.385803 -25.385826l0 0c-6.732727 0 -13.189758 2.674572 -17.9505 7.435337c-4.760742 4.760765 -7.4353027 11.217751 -7.4353027 17.950489l0 0c0 14.020203 11.365601 25.385826 25.385803 25.385826l0 0c14.020203 0 25.385803 -11.365623 25.385803 -25.385826z" fill-rule="evenodd"/><path stroke="#666666" stroke-width="1.0" stroke-linejoin="round" stroke-linecap="butt" d="m786.27295 69.67647l0 0c0 -14.020206 -11.365601 -25.385826 -25.385803 -25.385826l0 0c-6.732727 0 -13.189758 2.674572 -17.9505 7.435337c-4.760742 4.760765 -7.4353027 11.217751 -7.4353027 17.950489l0 0c0 14.020203 11.365601 25.385826 25.385803 25.385826l0 0c14.020203 0 25.385803 -11.365623 25.385803 -25.385826z" fill-rule="evenodd"/><path fill="#434343" d="m774.55646 69.67647l0 0c0 -7.5493393 -6.119995 -13.669292 -13.669312 -13.669292l0 0c-3.6253052 0 -7.102173 1.440155 -9.665649 4.003643c-2.5634766 2.5634918 -4.003662 6.040329 -4.003662 9.665649l0 0c0 7.5493393 6.119934 13.669289 13.669312 13.669289l0 0c7.5493164 0 13.669312 -6.1199493 13.669312 -13.669289z" fill-rule="evenodd"/><path stroke="#000000" stroke-width="3.0" stroke-linejoin="round" stroke-linecap="butt" d="m774.55646 69.67647l0 0c0 -7.5493393 -6.119995 -13.669292 -13.669312 -13.669292l0 0c-3.6253052 0 -7.102173 1.440155 -9.665649 4.003643c-2.5634766 2.5634918 -4.003662 6.040329 -4.003662 9.665649l0 0c0 7.5493393 6.119934 13.669289 13.669312 13.669289l0 0c7.5493164 0 13.669312 -6.1199493 13.669312 -13.669289z" fill-rule="evenodd"/><path fill="#666666" d="m630.6352 69.67647l0 0c0 -14.020206 -11.365662 -25.385826 -25.385864 -25.385826l0 0c-6.732727 0 -13.189697 2.674572 -17.9505 7.435337c-4.760742 4.760765 -7.4353027 11.217751 -7.4353027 17.950489l0 0c0 14.020203 11.365601 25.385826 25.385803 25.385826l0 0c14.020203 0 25.385864 -11.365623 25.385864 -25.385826z" fill-rule="evenodd"/><path stroke="#666666" stroke-width="1.0" stroke-linejoin="round" stroke-linecap="butt" d="m630.6352 69.67647l0 0c0 -14.020206 -11.365662 -25.385826 -25.385864 -25.385826l0 0c-6.732727 0 -13.189697 2.674572 -17.9505 7.435337c-4.760742 4.760765 -7.4353027 11.217751 -7.4353027 17.950489l0 0c0 14.020203 11.365601 25.385826 25.385803 25.385826l0 0c14.020203 0 25.385864 -11.365623 25.385864 -25.385826z" fill-rule="evenodd"/><path fill="#434343" d="m618.91864 69.67647l0 0c0 -7.5493393 -6.119934 -13.669292 -13.669312 -13.669292l0 0c-3.6253052 0 -7.102173 1.440155 -9.665649 4.003643c-2.5634766 2.5634918 -4.003601 6.040329 -4.003601 9.665649l0 0c0 7.5493393 6.119934 13.669289 13.6692505 13.669289l0 0c7.5493774 0 13.669312 -6.1199493 13.669312 -13.669289z" fill-rule="evenodd"/><path stroke="#000000" stroke-width="3.0" stroke-linejoin="round" stroke-linecap="butt" d="m618.91864 69.67647l0 0c0 -7.5493393 -6.119934 -13.669292 -13.669312 -13.669292l0 0c-3.6253052 0 -7.102173 1.440155 -9.665649 4.003643c-2.5634766 2.5634918 -4.003601 6.040329 -4.003601 9.665649l0 0c0 7.5493393 6.119934 13.669289 13.6692505 13.669289l0 0c7.5493774 0 13.669312 -6.1199493 13.669312 -13.669289z" fill-rule="evenodd"/><path fill="#bf9000" d="m688.5171 -3.6017106l0 0c0 -1.008918 -0.8179321 -1.8268082 -1.8268433 -1.8268082l-7.307007 0l0 0c-0.48449707 0 -0.9491577 0.19246674 -1.291748 0.5350599c-0.34259033 0.34259272 -0.5350342 0.8072486 -0.5350342 1.2917483l0 86.64559c0 1.0089188 0.8178711 1.8268127 1.8267822 1.8268127l7.307007 0c1.0089111 0 1.8268433 -0.817894 1.8268433 -1.8268127z" fill-rule="evenodd"/><path stroke="#bf9000" stroke-width="1.0" stroke-linejoin="round" stroke-linecap="butt" d="m688.5171 -3.6017106l0 0c0 -1.008918 -0.8179321 -1.8268082 -1.8268433 -1.8268082l-7.307007 0l0 0c-0.48449707 0 -0.9491577 0.19246674 -1.291748 0.5350599c-0.34259033 0.34259272 -0.5350342 0.8072486 -0.5350342 1.2917483l0 86.64559c0 1.0089188 0.8178711 1.8268127 1.8267822 1.8268127l7.307007 0c1.0089111 0 1.8268433 -0.817894 1.8268433 -1.8268127z" fill-rule="evenodd"/><path fill="#999999" d="m694.7533 76.39039l0 0c0 -0.28121948 -0.22796631 -0.5091934 -0.5092163 -0.5091934l-22.414673 0c-0.1350708 0 -0.2645874 0.053642273 -0.3600464 0.1491394c-0.09552002 0.0954895 -0.14916992 0.2250061 -0.14916992 0.36005402l0 2.036728c0 0.28121948 0.22796631 0.5091934 0.5092163 0.5091934l22.414673 0c0.28125 0 0.5092163 -0.22797394 0.5092163 -0.5091934z" fill-rule="evenodd"/><path stroke="#999999" stroke-width="1.0" stroke-linejoin="round" stroke-linecap="butt" d="m694.7533 76.39039l0 0c0 -0.28121948 -0.22796631 -0.5091934 -0.5092163 -0.5091934l-22.414673 0c-0.1350708 0 -0.2645874 0.053642273 -0.3600464 0.1491394c-0.09552002 0.0954895 -0.14916992 0.2250061 -0.14916992 0.36005402l0 2.036728c0 0.28121948 0.22796631 0.5091934 0.5092163 0.5091934l22.414673 0c0.28125 0 0.5092163 -0.22797394 0.5092163 -0.5091934z" fill-rule="evenodd"/><path fill="#bf9000" d="m696.9265 0.31688818l0 0c0 -7.671105 -6.218689 -13.889764 -13.8897705 -13.889764l0 0c-3.6837769 0 -7.216736 1.4633818 -9.821533 4.068218c-2.6048584 2.604836 -4.0682373 6.1377516 -4.0682373 9.821546l0 0c0 7.6711044 6.218689 13.889764 13.8897705 13.889764l0 0c7.6710815 0 13.8897705 -6.218659 13.8897705 -13.889764z" fill-rule="evenodd"/><path stroke="#bf9000" stroke-width="1.0" stroke-linejoin="round" stroke-linecap="butt" d="m696.9265 0.31688818l0 0c0 -7.671105 -6.218689 -13.889764 -13.8897705 -13.889764l0 0c-3.6837769 0 -7.216736 1.4633818 -9.821533 4.068218c-2.6048584 2.604836 -4.0682373 6.1377516 -4.0682373 9.821546l0 0c0 7.6711044 6.218689 13.889764 13.8897705 13.889764l0 0c7.6710815 0 13.8897705 -6.218659 13.8897705 -13.889764z" fill-rule="evenodd"/><path fill="#b7b7b7" d="m691.68243 0.31688818l0 0c0 -4.757477 -3.8566895 -8.614173 -8.614197 -8.614173l0 0c-2.284607 0 -4.475647 0.90756226 -6.0911255 2.5230331c-1.6154785 1.6154709 -2.5230713 3.8065195 -2.5230713 6.0911403l0 0c0 4.7574763 3.8567505 8.614174 8.614197 8.614174l0 0c4.7575073 0 8.614197 -3.856697 8.614197 -8.614174z" fill-rule="evenodd"/><path stroke="#b7b7b7" stroke-width="1.0" stroke-linejoin="round" stroke-linecap="butt" d="m691.68243 0.31688818l0 0c0 -4.757477 -3.8566895 -8.614173 -8.614197 -8.614173l0 0c-2.284607 0 -4.475647 0.90756226 -6.0911255 2.5230331c-1.6154785 1.6154709 -2.5230713 3.8065195 -2.5230713 6.0911403l0 0c0 4.7574763 3.8567505 8.614174 8.614197 8.614174l0 0c4.7575073 0 8.614197 -3.856697 8.614197 -8.614174z" fill-rule="evenodd"/><path fill="#5d5555" d="m733.116 -56.960724l0 0c7.95105 7.946087 20.83789 7.9430923 28.785217 -0.0066871643c7.9472656 -7.9497795 7.946289 -20.83662 -0.0022583008 -28.785175l-14.393677 14.3937z" fill-rule="evenodd"/><path stroke="#5d5555" stroke-width="1.0" stroke-linejoin="round" stroke-linecap="butt" d="m733.116 -56.960724l0 0c7.95105 7.946087 20.83789 7.9430923 28.785217 -0.0066871643c7.9472656 -7.9497795 7.946289 -20.83662 -0.0022583008 -28.785175l-14.393677 14.3937z" fill-rule="evenodd"/><path fill="#746767" d="m756.1076 -65.90359l0 0c0 -1.9830017 -1.607544 -3.5905457 -3.5905151 -3.5905457l0 0c-0.95233154 0 -1.8656006 0.37828827 -2.5389404 1.0516434c-0.67333984 0.67336273 -1.0516357 1.5866318 -1.0516357 2.5389023l0 0c0 1.9830093 1.607544 3.5905533 3.5905762 3.5905533l0 0c1.9829712 0 3.5905151 -1.607544 3.5905151 -3.5905533z" fill-rule="evenodd"/><path fill="#746767" d="m748.0446 -60.785473l0 0c0 -0.843647 -0.6838989 -1.5275612 -1.5275269 -1.5275612l0 0c-0.40515137 0 -0.7937012 0.16093826 -1.0802002 0.4474144c-0.286438 0.28647232 -0.4473877 0.6750107 -0.4473877 1.0801468l0 0c0 0.843647 0.6838989 1.5275574 1.5275879 1.5275574l0 0c0.8436279 0 1.5275269 -0.68391037 1.5275269 -1.5275574z" fill-rule="evenodd"/><path fill="#9f7a0a" d="m726.88806 69.27963l-13.13385 -2.984253l-8.656189 2.984253l-11.640442 -2.3884506l-11.343811 2.089241l-16.716553 -3.2834625l-17.611511 3.8818893l-8.955383 -3.5826797l-2.687683 3.2834625l5.076111 3.8818893l11.640442 0l17.015747 -1.7926483l11.044617 2.089241l14.923889 0l16.716492 -1.7900314l4.7769165 1.7900314l14.02887 -1.7900314z" fill-rule="evenodd"/><path fill="#9f7a0a" d="m684.2021 17.041298l1.7926636 13.133858l-1.4934082 8.65617l1.4934082 5.671913l-1.7926636 10.448822l-3.5826416 2.3884506l-1.1942749 -14.031498l2.687683 -11.0446205l-3.2834473 -10.446192z" fill-rule="evenodd"/><path fill="#9f7a0a" d="m733.7559 -49.229042l-8.359619 11.6430435l-9.850342 6.566929l-7.1654053 12.238846l-8.955383 2.0892372l3.5827026 -6.8661404l14.031494 -12.834646l6.8635254 -10.448818z" fill-rule="evenodd"/><path fill="#cda52b" d="m739.4252 48.98093l-6.8634644 -11.343834l-7.7611694 -1.1942253l-8.658813 -17.013123l-11.044617 -4.776902l0.5984497 6.56693l9.551147 7.165354l7.4645996 11.9396305l7.7611084 2.089241l5.0735474 8.656166z" fill-rule="evenodd"/><path fill="#cda52b" d="m665.69556 11.369382l-12.238892 17.910759l-9.254578 7.1627293l-4.7769165 7.1653557l-5.0734863 0.8950119l-1.789978 6.566929l-5.076172 -3.8792648l3.2835083 -7.761154l7.165344 -2.3884506l4.7769165 -8.955381l9.251953 -5.0761147l5.671936 -10.146982z" fill-rule="evenodd"/><path fill="#666666" d="m766.8898 67.487495l-5.9711304 -4.4776955l-7.7611694 5.0761147l-0.59576416 5.671921l4.774231 1.7900238l5.375366 -2.984253l2.984253 4.4776917z" fill-rule="evenodd"/><path fill="#666666" d="m610.76904 68.085915l-4.774292 -2.984253l-6.86615 0.5958023l-1.4934082 5.9711304l3.881897 4.7742767l6.8634644 -2.6850357l3.6430664 3.2834625z" fill-rule="evenodd"/><path fill="#a4a4a4" d="m686.2913 -2.0636892l1.1942139 5.3727036l-4.477661 2.6876643l-4.774292 -2.089239l0.89501953 -4.1811023l3.8792725 -4.47769z" fill-rule="evenodd"/><path fill="#9f7a0a" d="m685.87665 82.999306l-2.5958252 -1.9842529l-3.204712 1.5275574l1.3726807 1.8320236l2.5958252 -0.9160156z" fill-rule="evenodd"/><path fill="#9a7608" d="m397.17645 31.10104l0 0c-1.0668945 0 -1.9308472 0.86489487 -1.9296875 1.931797l0.121795654 112.95531c5.493164E-4 0.51234436 0.20462036 1.0037079 0.56729126 1.365982c0.3626709 0.36228943 0.85424805 0.56581116 1.3666077 0.56581116l7.726959 0c1.0668945 0 1.9308472 -0.8648987 1.929718 -1.9317932l-0.12182617 -112.95531l0 0c-0.001159668 -1.0669022 -0.8669739 -1.931797 -1.9338989 -1.931797z" fill-rule="evenodd"/><path stroke="#9a7608" stroke-width="1.0" stroke-linejoin="round" stroke-linecap="butt" d="m397.17645 31.10104l0 0c-1.0668945 0 -1.9308472 0.86489487 -1.9296875 1.931797l0.121795654 112.95531c5.493164E-4 0.51234436 0.20462036 1.0037079 0.56729126 1.365982c0.3626709 0.36228943 0.85424805 0.56581116 1.3666077 0.56581116l7.726959 0c1.0668945 0 1.9308472 -0.8648987 1.929718 -1.9317932l-0.12182617 -112.95531l0 0c-0.001159668 -1.0669022 -0.8669739 -1.931797 -1.9338989 -1.931797z" fill-rule="evenodd"/><path fill="#f1c232" d="m384.3178 131.28448l0 0c-0.9277649 -0.9277344 -2.4312134 -0.9270172 -3.3580627 0.0016021729l-79.16324 79.314316c-0.44509888 0.44595337 -0.6949768 1.0505981 -0.69467163 1.680954c3.0517578E-4 0.63035583 0.25076294 1.234787 0.69625854 1.6802979l6.719116 6.719101c0.9277344 0.9277344 2.4311829 0.9270172 3.3580322 -0.0016021729l79.16324 -79.314316c0.92684937 -0.92863464 0.92614746 -2.4335175 -0.0015869141 -3.3612518z" fill-rule="evenodd"/><path stroke="#f1c232" stroke-width="1.0" stroke-linejoin="round" stroke-linecap="butt" d="m384.3178 131.28448l0 0c-0.9277649 -0.9277344 -2.4312134 -0.9270172 -3.3580627 0.0016021729l-79.16324 79.314316c-0.44509888 0.44595337 -0.6949768 1.0505981 -0.69467163 1.680954c3.0517578E-4 0.63035583 0.25076294 1.234787 0.69625854 1.6802979l6.719116 6.719101c0.9277344 0.9277344 2.4311829 0.9270172 3.3580322 -0.0016021729l79.16324 -79.314316c0.92684937 -0.92863464 0.92614746 -2.4335175 -0.0015869141 -3.3612518z" fill-rule="evenodd"/><path fill="#f1c232" d="m496.92517 213.93225l0 0c0.9277344 -0.9277344 0.9277344 -2.4319 0 -3.3596497l-79.66397 -79.66397c-0.44552612 -0.44552612 -1.0497742 -0.6958008 -1.6798096 -0.6958008c-0.6300659 0 -1.234314 0.25027466 -1.6798401 0.6958008l-6.7190857 6.7190857c-0.9277344 0.92774963 -0.9277344 2.4319153 0 3.3596497l79.66397 79.66397c0.9277344 0.92774963 2.4319153 0.92774963 3.3596497 0z" fill-rule="evenodd"/><path stroke="#f1c232" stroke-width="1.0" stroke-linejoin="round" stroke-linecap="butt" d="m496.92517 213.93225l0 0c0.9277344 -0.9277344 0.9277344 -2.4319 0 -3.3596497l-79.66397 -79.66397c-0.44552612 -0.44552612 -1.0497742 -0.6958008 -1.6798096 -0.6958008c-0.6300659 0 -1.234314 0.25027466 -1.6798401 0.6958008l-6.7190857 6.7190857c-0.9277344 0.92774963 -0.9277344 2.4319153 0 3.3596497l79.66397 79.66397c0.9277344 0.92774963 2.4319153 0.92774963 3.3596497 0z" fill-rule="evenodd"/><path fill="#bf9000" d="m498.60483 206.85738l0 0c0 -1.3220367 -1.0717468 -2.393753 -2.3937683 -2.393753l-193.70068 0c-0.6348572 0 -1.2437134 0.25219727 -1.692627 0.70111084c-0.44891357 0.44891357 -0.70111084 1.0577698 -0.70111084 1.6926422l0 9.574707c0 1.3220215 1.0717163 2.3937378 2.3937378 2.3937378l193.70068 0c1.3220215 0 2.3937683 -1.0717163 2.3937683 -2.3937378z" fill-rule="evenodd"/><path stroke="#bf9000" stroke-width="1.0" stroke-linejoin="round" stroke-linecap="butt" d="m498.60483 206.85738l0 0c0 -1.3220367 -1.0717468 -2.393753 -2.3937683 -2.393753l-193.70068 0c-0.6348572 0 -1.2437134 0.25219727 -1.692627 0.70111084c-0.44891357 0.44891357 -0.70111084 1.0577698 -0.70111084 1.6926422l0 9.574707c0 1.3220215 1.0717163 2.3937378 2.3937378 2.3937378l193.70068 0c1.3220215 0 2.3937683 -1.0717163 2.3937683 -2.3937378z" fill-rule="evenodd"/><path fill="#666666" d="m518.89636 211.65672l0 0c0 -16.239609 -13.164795 -29.404404 -29.404388 -29.404404l0 0c-7.7985535 0 -15.277679 3.0979614 -20.792053 8.61235c-5.5144043 5.514389 -8.612366 12.993515 -8.612366 20.792053l0 0c0 16.239609 13.164795 29.404404 29.404419 29.404404l0 0c16.239594 0 29.404388 -13.164795 29.404388 -29.404404z" fill-rule="evenodd"/><path stroke="#666666" stroke-width="1.0" stroke-linejoin="round" stroke-linecap="butt" d="m518.89636 211.65672l0 0c0 -16.239609 -13.164795 -29.404404 -29.404388 -29.404404l0 0c-7.7985535 0 -15.277679 3.0979614 -20.792053 8.61235c-5.5144043 5.514389 -8.612366 12.993515 -8.612366 20.792053l0 0c0 16.239609 13.164795 29.404404 29.404419 29.404404l0 0c16.239594 0 29.404388 -13.164795 29.404388 -29.404404z" fill-rule="evenodd"/><path fill="#434343" d="m505.3251 211.65672l0 0c0 -8.7444 -7.088745 -15.833145 -15.83313 -15.833145l0 0c-4.1992188 0 -8.22644 1.6681366 -11.19574 4.6374207c-2.9692993 2.9692993 -4.6374207 6.996521 -4.6374207 11.1957245l0 0c0 8.7444 7.088745 15.833145 15.83316 15.833145l0 0c8.744385 0 15.83313 -7.088745 15.83313 -15.833145z" fill-rule="evenodd"/><path stroke="#000000" stroke-width="3.0" stroke-linejoin="round" stroke-linecap="butt" d="m505.3251 211.65672l0 0c0 -8.7444 -7.088745 -15.833145 -15.83313 -15.833145l0 0c-4.1992188 0 -8.22644 1.6681366 -11.19574 4.6374207c-2.9692993 2.9692993 -4.6374207 6.996521 -4.6374207 11.1957245l0 0c0 8.7444 7.088745 15.833145 15.83316 15.833145l0 0c8.744385 0 15.83313 -7.088745 15.83313 -15.833145z" fill-rule="evenodd"/><path fill="#666666" d="m338.6211 211.65672l0 0c0 -16.239609 -13.164795 -29.404404 -29.404388 -29.404404l0 0c-7.798523 0 -15.277649 3.0979614 -20.792053 8.61235c-5.5144043 5.514389 -8.612366 12.993515 -8.612366 20.792053l0 0c0 16.239609 13.164825 29.404404 29.404419 29.404404l0 0c16.239594 0 29.404388 -13.164795 29.404388 -29.404404z" fill-rule="evenodd"/><path stroke="#666666" stroke-width="1.0" stroke-linejoin="round" stroke-linecap="butt" d="m338.6211 211.65672l0 0c0 -16.239609 -13.164795 -29.404404 -29.404388 -29.404404l0 0c-7.798523 0 -15.277649 3.0979614 -20.792053 8.61235c-5.5144043 5.514389 -8.612366 12.993515 -8.612366 20.792053l0 0c0 16.239609 13.164825 29.404404 29.404419 29.404404l0 0c16.239594 0 29.404388 -13.164795 29.404388 -29.404404z" fill-rule="evenodd"/><path fill="#434343" d="m325.04984 211.65672l0 0c0 -8.7444 -7.088745 -15.833145 -15.83313 -15.833145l0 0c-4.1992188 0 -8.22644 1.6681366 -11.19574 4.6374207c-2.9692688 2.9692993 -4.63739 6.996521 -4.63739 11.1957245l0 0c0 8.7444 7.0887146 15.833145 15.83313 15.833145l0 0c8.744385 0 15.83313 -7.088745 15.83313 -15.833145z" fill-rule="evenodd"/><path stroke="#000000" stroke-width="3.0" stroke-linejoin="round" stroke-linecap="butt" d="m325.04984 211.65672l0 0c0 -8.7444 -7.088745 -15.833145 -15.83313 -15.833145l0 0c-4.1992188 0 -8.22644 1.6681366 -11.19574 4.6374207c-2.9692688 2.9692993 -4.63739 6.996521 -4.63739 11.1957245l0 0c0 8.7444 7.0887146 15.833145 15.83313 15.833145l0 0c8.744385 0 15.83313 -7.088745 15.83313 -15.833145z" fill-rule="evenodd"/><path fill="#bf9000" d="m405.67004 126.773964l0 0c0 -1.1683731 -0.94714355 -2.1155243 -2.1155396 -2.1155243l-8.461853 0l0 0c-0.5610657 0 -1.0991516 0.22288513 -1.4959106 0.6196213c-0.39672852 0.39674377 -0.6195984 0.93483734 -0.6195984 1.495903l0 100.36738c0 1.1683655 0.94714355 2.1155243 2.115509 2.1155243l8.461853 0c1.168396 0 2.1155396 -0.9471588 2.1155396 -2.1155243z" fill-rule="evenodd"/><path stroke="#bf9000" stroke-width="1.0" stroke-linejoin="round" stroke-linecap="butt" d="m405.67004 126.773964l0 0c0 -1.1683731 -0.94714355 -2.1155243 -2.1155396 -2.1155243l-8.461853 0l0 0c-0.5610657 0 -1.0991516 0.22288513 -1.4959106 0.6196213c-0.39672852 0.39674377 -0.6195984 0.93483734 -0.6195984 1.495903l0 100.36738c0 1.1683655 0.94714355 2.1155243 2.115509 2.1155243l8.461853 0c1.168396 0 2.1155396 -0.9471588 2.1155396 -2.1155243z" fill-rule="evenodd"/><path fill="#999999" d="m412.89325 219.42506l0 0c0 -0.32470703 -0.26324463 -0.5879364 -0.58795166 -0.5879364l-25.973724 0c-0.15594482 0 -0.30548096 0.061935425 -0.41574097 0.17219543c-0.11026001 0.11026001 -0.1722107 0.2598114 -0.1722107 0.41574097l0 2.3516846c0 0.32470703 0.26324463 0.5879364 0.58795166 0.5879364l25.973724 0c0.32470703 0 0.58795166 -0.26322937 0.58795166 -0.5879364z" fill-rule="evenodd"/><path stroke="#999999" stroke-width="1.0" stroke-linejoin="round" stroke-linecap="butt" d="m412.89325 219.42506l0 0c0 -0.32470703 -0.26324463 -0.5879364 -0.58795166 -0.5879364l-25.973724 0c-0.15594482 0 -0.30548096 0.061935425 -0.41574097 0.17219543c-0.11026001 0.11026001 -0.1722107 0.2598114 -0.1722107 0.41574097l0 2.3516846c0 0.32470703 0.26324463 0.5879364 0.58795166 0.5879364l25.973724 0c0.32470703 0 0.58795166 -0.26322937 0.58795166 -0.5879364z" fill-rule="evenodd"/><path fill="#bf9000" d="m415.4104 131.3038l0 0c0 -8.880035 -7.1987 -16.078735 -16.078735 -16.078735l0 0c-4.2643433 0 -8.354034 1.6940079 -11.369385 4.7093506c-3.0153503 3.0153503 -4.7093506 7.1050415 -4.7093506 11.369385l0 0c0 8.880051 7.1987 16.07875 16.078735 16.07875l0 0c8.880035 0 16.078735 -7.1987 16.078735 -16.07875z" fill-rule="evenodd"/><path stroke="#bf9000" stroke-width="1.0" stroke-linejoin="round" stroke-linecap="butt" d="m415.4104 131.3038l0 0c0 -8.880035 -7.1987 -16.078735 -16.078735 -16.078735l0 0c-4.2643433 0 -8.354034 1.6940079 -11.369385 4.7093506c-3.0153503 3.0153503 -4.7093506 7.1050415 -4.7093506 11.369385l0 0c0 8.880051 7.1987 16.07875 16.078735 16.07875l0 0c8.880035 0 16.078735 -7.1987 16.078735 -16.07875z" fill-rule="evenodd"/><path fill="#b7b7b7" d="m409.33636 131.30414l0 0c0 -5.505455 -4.463043 -9.968506 -9.968506 -9.968506l0 0c-2.6437988 0 -5.179352 1.0502472 -7.0487976 2.9197083c-1.8694458 1.8694534 -2.9197083 4.4049835 -2.9197083 7.0487976l0 0c0 5.5054474 4.463043 9.968506 9.968506 9.968506l0 0c5.5054626 0 9.968506 -4.4630585 9.968506 -9.968506z" fill-rule="evenodd"/><path stroke="#b7b7b7" stroke-width="1.0" stroke-linejoin="round" stroke-linecap="butt" d="m409.33636 131.30414l0 0c0 -5.505455 -4.463043 -9.968506 -9.968506 -9.968506l0 0c-2.6437988 0 -5.179352 1.0502472 -7.0487976 2.9197083c-1.8694458 1.8694534 -2.9197083 4.4049835 -2.9197083 7.0487976l0 0c0 5.5054474 4.463043 9.968506 9.968506 9.968506l0 0c5.5054626 0 9.968506 -4.4630585 9.968506 -9.968506z" fill-rule="evenodd"/><path fill="#5d5555" d="m395.19147 51.69834l0 0c13.027283 -0.0040359497 23.585266 -10.566929 23.583252 -23.594204c-0.0020141602 -13.027274 -10.563263 -23.586897 -23.590546 -23.586897l0 23.590551z" fill-rule="evenodd"/><path stroke="#5d5555" stroke-width="1.0" stroke-linejoin="round" stroke-linecap="butt" d="m395.19147 51.69834l0 0c13.027283 -0.0040359497 23.585266 -10.566929 23.583252 -23.594204c-0.0020141602 -13.027274 -10.563263 -23.586897 -23.590546 -23.586897l0 23.590551z" fill-rule="evenodd"/><path fill="#746767" d="m406.71497 25.521307l0 0c-1.6264343 -1.6264133 -4.2633667 -1.6264133 -5.8897705 0l0 0c-0.7810364 0.78103065 -1.2198181 1.8403358 -1.2198181 2.9448814c0 1.1045456 0.43878174 2.1638508 1.2198181 2.9448814l0 0c1.6264038 1.6264133 4.263336 1.6264133 5.8897705 0l0 0c1.6264038 -1.6264133 1.6264038 -4.2633495 0 -5.889763z" fill-rule="evenodd"/><path fill="#746767" d="m404.29193 36.30572l0 0c-0.6871033 -0.68709564 -1.801117 -0.68709564 -2.4881897 0l0 0c-0.32995605 0.32995224 -0.5153198 0.77746964 -0.5153198 1.2440948c0 0.4666252 0.18536377 0.9141388 0.5153198 1.2440948l0 0c0.68707275 0.6870918 1.8010864 0.6870918 2.4881897 0l0 0c0.68707275 -0.68709564 0.68707275 -1.8010979 0 -2.4881897z" fill-rule="evenodd"/><path fill="#9f7a0a" d="m450.11362 211.19084l-15.212921 -3.456665l-10.026459 3.456665l-13.483093 -2.7665558l-13.139557 2.4199677l-19.362762 -3.803238l-20.399445 4.496399l-10.373047 -4.149811l-3.1130981 3.803238l5.879669 4.4963837l13.483093 0l19.70932 -2.0764313l12.792999 2.4199677l17.286346 0l19.362762 -2.0733795l5.533081 2.0733795l16.249634 -2.0733795z" fill-rule="evenodd"/><path fill="#9f7a0a" d="m400.67212 150.68459l2.076416 15.212936l-1.7298279 10.0264435l1.7298279 6.5697784l-2.076416 12.102875l-4.149811 2.7665405l-1.3832703 -16.252686l3.1130981 -12.792984l-3.8032227 -12.099823z" fill-rule="evenodd"/><path fill="#9f7a0a" d="m402.0612 57.48039l2.6891785 16.382145l-2.6891785 13.445793l4.155182 15.892036l-5.623352 9.0455475l-2.689148 -8.557587l0.9801941 -22.003372l-2.9363403 -14.1788025z" fill-rule="evenodd"/><path fill="#cda52b" d="m464.63513 187.68033l-7.950012 -13.139572l-8.989746 -1.3832703l-10.02948 -19.706299l-12.792969 -5.533081l0.69314575 7.606476l11.063141 8.299622l8.64621 13.829681l8.989746 2.4199677l5.8766174 10.0264435z" fill-rule="evenodd"/><path fill="#cda52b" d="m379.2367 144.11496l-14.17627 20.746033l-10.7196045 8.2966l-5.533081 8.299622l-5.8766174 1.0366974l-2.0733948 7.606476l-5.879669 -4.4933624l3.8032532 -8.989746l8.299622 -2.7665405l5.533081 -10.373016l10.716553 -5.879669l6.5697937 -11.753235z" fill-rule="evenodd"/><path fill="#666666" d="m496.44638 209.11508l-6.916382 -5.186508l-8.989746 5.879654l-0.690094 6.5697784l5.5300293 2.0733948l6.2262573 -3.456665l3.456665 5.186508z" fill-rule="evenodd"/><path fill="#666666" d="m315.61722 209.80817l-5.53006 -3.4566498l-7.9530334 0.69010925l-1.7298584 6.9163666l4.496399 5.5300446l7.950012 -3.1100922l4.2197266 3.803238z" fill-rule="evenodd"/><path fill="#a4a4a4" d="m403.09204 128.55591l1.3832703 6.2231903l-5.1865234 3.1131287l-5.5300293 -2.4199677l1.0366821 -4.842972l4.493347 -5.186508z" fill-rule="evenodd"/><path fill="#9f7a0a" d="m402.61172 227.08188l-3.0067139 -2.298355l-3.7120056 1.7693787l1.5899963 2.1220245l3.0067139 -1.0610199z" fill-rule="evenodd"/><path fill="#f1c232" d="m112.96346 131.28448l0 0c-0.927742 -0.9277344 -2.4311905 -0.9270172 -3.3580399 0.0016021729l-79.163246 79.314316c-0.44509315 0.44595337 -0.6949749 1.0505981 -0.69467354 1.680954c2.9945374E-4 0.63035583 0.25075722 1.234787 0.6962757 1.6802979l6.7190914 6.719101c0.927742 0.9277344 2.4311905 0.9270172 3.3580475 -0.0016021729l79.16324 -79.314316c0.926857 -0.92863464 0.92613983 -2.4335175 -0.0016021729 -3.3612518z" fill-rule="evenodd"/><path stroke="#f1c232" stroke-width="1.0" stroke-linejoin="round" stroke-linecap="butt" d="m112.96346 131.28448l0 0c-0.927742 -0.9277344 -2.4311905 -0.9270172 -3.3580399 0.0016021729l-79.163246 79.314316c-0.44509315 0.44595337 -0.6949749 1.0505981 -0.69467354 1.680954c2.9945374E-4 0.63035583 0.25075722 1.234787 0.6962757 1.6802979l6.7190914 6.719101c0.927742 0.9277344 2.4311905 0.9270172 3.3580475 -0.0016021729l79.16324 -79.314316c0.926857 -0.92863464 0.92613983 -2.4335175 -0.0016021729 -3.3612518z" fill-rule="evenodd"/><path fill="#f1c232" d="m225.57085 213.93225l0 0c0.9277344 -0.9277344 0.9277344 -2.4319 0 -3.3596497l-79.66397 -79.66397c-0.44552612 -0.44551086 -1.0497742 -0.6958008 -1.6798248 -0.6958008c-0.63005066 0 -1.234314 0.25028992 -1.6798248 0.6958008l-6.719101 6.7190857c-0.9277344 0.92774963 -0.9277344 2.4319153 0 3.3596497l79.66399 79.66397c0.9277344 0.92774963 2.4319 0.92774963 3.3596497 0z" fill-rule="evenodd"/><path stroke="#f1c232" stroke-width="1.0" stroke-linejoin="round" stroke-linecap="butt" d="m225.57085 213.93225l0 0c0.9277344 -0.9277344 0.9277344 -2.4319 0 -3.3596497l-79.66397 -79.66397c-0.44552612 -0.44551086 -1.0497742 -0.6958008 -1.6798248 -0.6958008c-0.63005066 0 -1.234314 0.25028992 -1.6798248 0.6958008l-6.719101 6.7190857c-0.9277344 0.92774963 -0.9277344 2.4319153 0 3.3596497l79.66399 79.66397c0.9277344 0.92774963 2.4319 0.92774963 3.3596497 0z" fill-rule="evenodd"/><path fill="#bf9000" d="m227.25049 206.85738l0 0c0 -1.3220367 -1.0717163 -2.393753 -2.393753 -2.393753l-193.7007 0c-0.634861 0 -1.243721 0.25219727 -1.6926365 0.70111084c-0.44891548 0.44891357 -0.70111275 1.0577698 -0.70111275 1.6926422l0 9.574707c0 1.3220215 1.0717182 2.3937378 2.3937492 2.3937378l193.7007 0c1.3220367 0 2.393753 -1.0717163 2.393753 -2.3937378z" fill-rule="evenodd"/><path stroke="#bf9000" stroke-width="1.0" stroke-linejoin="round" stroke-linecap="butt" d="m227.25049 206.85738l0 0c0 -1.3220367 -1.0717163 -2.393753 -2.393753 -2.393753l-193.7007 0c-0.634861 0 -1.243721 0.25219727 -1.6926365 0.70111084c-0.44891548 0.44891357 -0.70111275 1.0577698 -0.70111275 1.6926422l0 9.574707c0 1.3220215 1.0717182 2.3937378 2.3937492 2.3937378l193.7007 0c1.3220367 0 2.393753 -1.0717163 2.393753 -2.3937378z" fill-rule="evenodd"/><path fill="#666666" d="m247.54204 211.65672l0 0c0 -16.239609 -13.16481 -29.404404 -29.404404 -29.404404l0 0c-7.798538 0 -15.277664 3.0979614 -20.792053 8.61235c-5.5144043 5.514389 -8.61235 12.993515 -8.61235 20.792053l0 0c0 16.239609 13.164795 29.404404 29.404404 29.404404l0 0c16.239594 0 29.404404 -13.164795 29.404404 -29.404404z" fill-rule="evenodd"/><path stroke="#666666" stroke-width="1.0" stroke-linejoin="round" stroke-linecap="butt" d="m247.54204 211.65672l0 0c0 -16.239609 -13.16481 -29.404404 -29.404404 -29.404404l0 0c-7.798538 0 -15.277664 3.0979614 -20.792053 8.61235c-5.5144043 5.514389 -8.61235 12.993515 -8.61235 20.792053l0 0c0 16.239609 13.164795 29.404404 29.404404 29.404404l0 0c16.239594 0 29.404404 -13.164795 29.404404 -29.404404z" fill-rule="evenodd"/><path fill="#434343" d="m233.97076 211.65672l0 0c0 -8.7444 -7.08873 -15.833145 -15.83313 -15.833145l0 0c-4.1992188 0 -8.22644 1.6681366 -11.1957245 4.6374207c-2.969284 2.9692993 -4.6374207 6.996521 -4.6374207 11.1957245l0 0c0 8.7444 7.088745 15.833145 15.833145 15.833145l0 0c8.7444 0 15.83313 -7.088745 15.83313 -15.833145z" fill-rule="evenodd"/><path stroke="#000000" stroke-width="3.0" stroke-linejoin="round" stroke-linecap="butt" d="m233.97076 211.65672l0 0c0 -8.7444 -7.08873 -15.833145 -15.83313 -15.833145l0 0c-4.1992188 0 -8.22644 1.6681366 -11.1957245 4.6374207c-2.969284 2.9692993 -4.6374207 6.996521 -4.6374207 11.1957245l0 0c0 8.7444 7.088745 15.833145 15.833145 15.833145l0 0c8.7444 0 15.83313 -7.088745 15.83313 -15.833145z" fill-rule="evenodd"/><path fill="#666666" d="m67.26678 211.65672l0 0c0 -16.239609 -13.164803 -29.404404 -29.404408 -29.404404l0 0c-7.7985306 0 -15.277657 3.0979614 -20.792051 8.61235c-5.5143957 5.514389 -8.61235 12.993515 -8.61235 20.792053l0 0c0 16.239609 13.164799 29.404404 29.404402 29.404404l0 0c16.239605 0 29.404408 -13.164795 29.404408 -29.404404z" fill-rule="evenodd"/><path stroke="#666666" stroke-width="1.0" stroke-linejoin="round" stroke-linecap="butt" d="m67.26678 211.65672l0 0c0 -16.239609 -13.164803 -29.404404 -29.404408 -29.404404l0 0c-7.7985306 0 -15.277657 3.0979614 -20.792051 8.61235c-5.5143957 5.514389 -8.61235 12.993515 -8.61235 20.792053l0 0c0 16.239609 13.164799 29.404404 29.404402 29.404404l0 0c16.239605 0 29.404408 -13.164795 29.404408 -29.404404z" fill-rule="evenodd"/><path fill="#434343" d="m53.69551 211.65672l0 0c0 -8.7444 -7.0887375 -15.833145 -15.833141 -15.833145l0 0c-4.1992073 0 -8.226429 1.6681366 -11.195719 4.6374207c-2.9692898 2.9692993 -4.6374207 6.996521 -4.6374207 11.1957245l0 0c0 8.7444 7.0887394 15.833145 15.833139 15.833145l0 0c8.744404 0 15.833141 -7.088745 15.833141 -15.833145z" fill-rule="evenodd"/><path stroke="#000000" stroke-width="3.0" stroke-linejoin="round" stroke-linecap="butt" d="m53.69551 211.65672l0 0c0 -8.7444 -7.0887375 -15.833145 -15.833141 -15.833145l0 0c-4.1992073 0 -8.226429 1.6681366 -11.195719 4.6374207c-2.9692898 2.9692993 -4.6374207 6.996521 -4.6374207 11.1957245l0 0c0 8.7444 7.0887394 15.833145 15.833139 15.833145l0 0c8.744404 0 15.833141 -7.088745 15.833141 -15.833145z" fill-rule="evenodd"/><path fill="#bf9000" d="m134.31572 126.77397l0 0c0 -1.1683807 -0.9471588 -2.115532 -2.1155396 -2.115532l-8.461853 0l0 0c-0.5610733 0 -1.0991669 0.22288513 -1.495903 0.6196213c-0.39673615 0.39674377 -0.6196213 0.93483734 -0.6196213 1.4959106l0 100.36737c0 1.1683655 0.9471512 2.1155243 2.1155243 2.1155243l8.461853 0c1.1683807 0 2.1155396 -0.9471588 2.1155396 -2.1155243z" fill-rule="evenodd"/><path stroke="#bf9000" stroke-width="1.0" stroke-linejoin="round" stroke-linecap="butt" d="m134.31572 126.77397l0 0c0 -1.1683807 -0.9471588 -2.115532 -2.1155396 -2.115532l-8.461853 0l0 0c-0.5610733 0 -1.0991669 0.22288513 -1.495903 0.6196213c-0.39673615 0.39674377 -0.6196213 0.93483734 -0.6196213 1.4959106l0 100.36737c0 1.1683655 0.9471512 2.1155243 2.1155243 2.1155243l8.461853 0c1.1683807 0 2.1155396 -0.9471588 2.1155396 -2.1155243z" fill-rule="evenodd"/><path fill="#999999" d="m141.53891 219.42506l0 0c0 -0.32470703 -0.26322937 -0.5879364 -0.5879364 -0.5879364l-25.973732 0c-0.1559372 0 -0.30548096 0.061950684 -0.41574097 0.17219543c-0.11026001 0.11026001 -0.17220306 0.2598114 -0.17220306 0.41574097l0 2.3516846c0 0.32470703 0.26322937 0.5879364 0.58794403 0.5879364l25.973732 0c0.32470703 0 0.5879364 -0.26322937 0.5879364 -0.5879364z" fill-rule="evenodd"/><path stroke="#999999" stroke-width="1.0" stroke-linejoin="round" stroke-linecap="butt" d="m141.53891 219.42506l0 0c0 -0.32470703 -0.26322937 -0.5879364 -0.5879364 -0.5879364l-25.973732 0c-0.1559372 0 -0.30548096 0.061950684 -0.41574097 0.17219543c-0.11026001 0.11026001 -0.17220306 0.2598114 -0.17220306 0.41574097l0 2.3516846c0 0.32470703 0.26322937 0.5879364 0.58794403 0.5879364l25.973732 0c0.32470703 0 0.5879364 -0.26322937 0.5879364 -0.5879364z" fill-rule="evenodd"/><path fill="#bf9000" d="m144.05608 131.3038l0 0c0 -8.880035 -7.1987 -16.078735 -16.078735 -16.078735l0 0c-4.264351 0 -8.354042 1.6940079 -11.369385 4.7093506c-3.0153503 3.0153503 -4.709358 7.1050415 -4.709358 11.369385l0 0c0 8.880051 7.1987 16.07875 16.078743 16.07875l0 0c8.880035 0 16.078735 -7.1987 16.078735 -16.07875z" fill-rule="evenodd"/><path stroke="#bf9000" stroke-width="1.0" stroke-linejoin="round" stroke-linecap="butt" d="m144.05608 131.3038l0 0c0 -8.880035 -7.1987 -16.078735 -16.078735 -16.078735l0 0c-4.264351 0 -8.354042 1.6940079 -11.369385 4.7093506c-3.0153503 3.0153503 -4.709358 7.1050415 -4.709358 11.369385l0 0c0 8.880051 7.1987 16.07875 16.078743 16.07875l0 0c8.880035 0 16.078735 -7.1987 16.078735 -16.07875z" fill-rule="evenodd"/><path fill="#b7b7b7" d="m137.98203 131.30414l0 0c0 -5.505455 -4.463043 -9.968506 -9.968491 -9.968506l0 0c-2.6438217 0 -5.179344 1.0502472 -7.048805 2.9197083c-1.8694534 1.8694534 -2.9197083 4.4049835 -2.9197083 7.0487976l0 0c0 5.5054474 4.463051 9.968506 9.9685135 9.968506l0 0c5.5054474 0 9.968491 -4.4630585 9.968491 -9.968506z" fill-rule="evenodd"/><path stroke="#b7b7b7" stroke-width="1.0" stroke-linejoin="round" stroke-linecap="butt" d="m137.98203 131.30414l0 0c0 -5.505455 -4.463043 -9.968506 -9.968491 -9.968506l0 0c-2.6438217 0 -5.179344 1.0502472 -7.048805 2.9197083c-1.8694534 1.8694534 -2.9197083 4.4049835 -2.9197083 7.0487976l0 0c0 5.5054474 4.463051 9.968506 9.9685135 9.968506l0 0c5.5054474 0 9.968491 -4.4630585 9.968491 -9.968506z" fill-rule="evenodd"/><path fill="#9f7a0a" d="m178.75931 211.19084l-15.212952 -3.456665l-10.0264435 3.456665l-13.483093 -2.7665558l-13.1395645 2.4199677l-19.362762 -3.803238l-20.39946 4.496399l-10.373016 -4.149811l-3.113121 3.803238l5.8796616 4.4963837l13.483101 0l19.709343 -2.0764313l12.792984 2.4199677l17.286339 0l19.362762 -2.0733795l5.533081 2.0733795l16.24965 -2.0733795z" fill-rule="evenodd"/><path fill="#9f7a0a" d="m129.31778 150.68459l2.0764313 15.212936l-1.7298431 10.0264435l1.7298431 6.5697784l-2.0764313 12.102875l-4.149811 2.7665405l-1.3832703 -16.252686l3.113121 -12.792984l-3.803238 -12.099823z" fill-rule="evenodd"/><path fill="#cda52b" d="m193.2808 187.68033l-7.950012 -13.139572l-8.989746 -1.3832703l-10.02948 -19.706299l-12.792984 -5.533081l0.693161 7.606476l11.063126 8.299622l8.64621 13.829681l8.989746 2.4199677l5.8766174 10.0264435z" fill-rule="evenodd"/><path fill="#cda52b" d="m107.882355 144.11496l-14.176254 20.746033l-10.719597 8.2966l-5.5330887 8.299622l-5.876625 1.0366974l-2.0733871 7.606476l-5.8796616 -4.4933624l3.803238 -8.989746l8.299629 -2.7665405l5.5330887 -10.373016l10.716553 -5.879654l6.5697784 -11.75325z" fill-rule="evenodd"/><path fill="#666666" d="m225.09204 209.11508l-6.9163666 -5.186508l-8.989746 5.879654l-0.69010925 6.5697784l5.5300446 2.0733948l6.226242 -3.456665l3.456665 5.186508z" fill-rule="evenodd"/><path fill="#666666" d="m44.262882 209.80817l-5.5300446 -3.4566498l-7.9530544 0.69010925l-1.7298489 6.9163666l4.4963913 5.5300446l7.950012 -3.1100922l4.219738 3.803238z" fill-rule="evenodd"/><path fill="#a4a4a4" d="m131.7377 128.55591l1.3832703 6.2231903l-5.186508 3.1131287l-5.530052 -2.4199677l1.0366974 -4.842972l4.493355 -5.186508z" fill-rule="evenodd"/><path fill="#9f7a0a" d="m131.25742 227.08188l-3.0067291 -2.298355l-3.7120285 1.7693787l1.590004 2.1220245l3.0067139 -1.0610199z" fill-rule="evenodd"/></g></svg>