<svg version="1.1" viewBox="0.0 0.0 256.0 256.0" fill="none" stroke="none" stroke-linecap="square" stroke-miterlimit="10" xmlns:xlink="http://www.w3.org/1999/xlink" xmlns="http://www.w3.org/2000/svg"><clipPath id="p.0"><path d="m0 0l256.0 0l0 256.0l-256.0 0l0 -256.0z" clip-rule="nonzero"/></clipPath><g clip-path="url(#p.0)"><path fill="#ffe599" d="m0 0l256.0 0l0 256.0l-256.0 0z" fill-rule="evenodd"/><path fill="#ffd966" d="m43.436653 238.61192c-5.9943123 -5.55336 -13.044619 -32.087494 -12.162729 -33.850388c0.88189125 -1.7629089 13.839895 23.62555 17.45407 23.272964c3.614174 -0.35258484 2.1154861 -25.123795 4.2309723 -25.388458c2.1154823 -0.26464844 5.3766403 22.919083 8.461941 23.800522c3.0853043 0.88145447 9.080055 -20.451004 10.049866 -18.51181c0.9698181 1.9391937 0.44138336 25.034134 -4.2309647 30.146988c-4.6723557 5.112854 -17.808842 6.083557 -23.803154 0.5301819z" fill-rule="evenodd"/><path fill="#ffd966" d="m129.84872 227.10799c-5.9943085 -5.55336 -13.044617 -32.087494 -12.162727 -33.850388c0.88188934 -1.7629089 13.839897 23.62555 17.454063 23.272964c3.6141815 -0.35258484 2.1154938 -25.123795 4.2309723 -25.388458c2.1154938 -0.26464844 5.376648 22.919083 8.461945 23.800522c3.0852966 0.88145447 9.080048 -20.451004 10.049866 -18.51181c0.9698181 1.9391937 0.441391 25.034134 -4.2309723 30.146988c-4.672348 5.112854 -17.808823 6.083557 -23.803146 0.5301819z" fill-rule="evenodd"/><path fill="#ffd966" d="m206.01408 242.51219c-5.9943085 -5.5533752 -13.044617 -32.087494 -12.162735 -33.850403c0.881897 -1.7628937 13.839905 23.62555 17.454071 23.272964c3.6141663 -0.35256958 2.1154785 -25.123795 4.2309723 -25.388443c2.1154785 -0.2646637 5.3766327 22.919067 8.461945 23.800522c3.0852966 0.88145447 9.080048 -20.451004 10.049866 -18.51181c0.9698181 1.9391937 0.44137573 25.034119 -4.2309723 30.146988c-4.672348 5.112854 -17.808838 6.083542 -23.803146 0.5301819z" fill-rule="evenodd"/><path fill="#ffd966" d="m24.528517 160.19722c-5.9943123 -5.55336 -13.044619 -32.08748 -12.162729 -33.850388c0.8818903 -1.7629013 13.839895 23.62555 17.45407 23.272964c3.614172 -0.35258484 2.1154842 -25.123795 4.2309704 -25.38845c2.1154861 -0.26465607 5.3766403 22.919075 8.461941 23.80053c3.0853043 0.88145447 9.080055 -20.451012 10.04987 -18.51181c0.9698181 1.9391937 0.44138336 25.034119 -4.2309723 30.146973c-4.672352 5.1128693 -17.808834 6.083557 -23.803148 0.5301819z" fill-rule="evenodd"/><path fill="#ffd966" d="m101.28705 161.71954c-5.994316 -5.5533752 -13.044617 -32.087494 -12.162727 -33.850403c0.88188934 -1.7629013 13.83989 23.62555 17.454063 23.272964c3.614174 -0.35258484 2.1154861 -25.123795 4.2309723 -25.38845c2.1154861 -0.26464844 5.3766403 22.919075 8.461945 23.80053c3.0852966 0.88145447 9.080048 -20.451004 10.049866 -18.51181c0.9698181 1.9391937 0.441391 25.034119 -4.2309723 30.146973c-4.672348 5.1128693 -17.80883 6.083557 -23.803146 0.53019714z" fill-rule="evenodd"/><path fill="#ffd966" d="m26.575762 47.00825c-5.994314 -5.5533676 -13.04462 -32.08749 -12.16273 -33.850395c0.8818903 -1.7629042 13.839894 23.625546 17.454067 23.272964c3.614174 -0.3525772 2.1154861 -25.123795 4.2309723 -25.38845c2.1154861 -0.26465416 5.3766403 22.919075 8.461941 23.800526c3.0853043 0.88145447 9.080051 -20.451006 10.04987 -18.51181c0.9698143 1.9391937 0.44138336 25.034119 -4.2309723 30.14698c-4.672352 5.1128616 -17.808834 6.0835533 -23.803148 0.5301857z" fill-rule="evenodd"/><path fill="#ffd966" d="m127.90122 48.331085c-5.994316 -5.5533676 -13.044624 -32.08749 -12.162727 -33.850395c0.88188934 -1.7629042 13.83989 23.62555 17.454071 23.272968c3.6141663 -0.35258102 2.1154785 -25.123798 4.230957 -25.388453c2.1154938 -0.2646551 5.376648 22.919073 8.461945 23.800524c3.085312 0.88145447 9.080063 -20.451004 10.049881 -18.51181c0.96980286 1.9391956 0.44137573 25.034122 -4.2309723 30.14698c-4.6723633 5.1128616 -17.808838 6.0835533 -23.803154 0.5301857z" fill-rule="evenodd"/><path fill="#ffd966" d="m199.90121 50.64342c-5.9943085 -5.5533676 -13.044617 -32.08749 -12.16272 -33.850395c0.8818817 -1.7629051 13.83989 23.625547 17.454071 23.272966c3.6141663 -0.35258102 2.1154785 -25.123798 4.230957 -25.388453c2.1154938 -0.2646551 5.376648 22.919073 8.461945 23.800524c3.085312 0.88145447 9.080063 -20.451006 10.049881 -18.51181c0.96980286 1.9391956 0.44137573 25.034122 -4.2309723 30.14698c-4.6723633 5.1128616 -17.808838 6.0835533 -23.803162 0.5301857z" fill-rule="evenodd"/><path fill="#ffd966" d="m198.01408 118.942635c-5.9943085 -5.5533676 -13.044617 -32.087494 -12.162735 -33.850395c0.881897 -1.7629013 13.839905 23.62555 17.454071 23.272964c3.6141663 -0.3525772 2.1154785 -25.123795 4.2309723 -25.38845c2.1154785 -0.26465607 5.3766327 22.919075 8.461945 23.80053c3.0852966 0.88144684 9.080048 -20.451012 10.049866 -18.511818c0.9698181 1.9392014 0.44137573 25.034126 -4.2309723 30.146988c-4.672348 5.112854 -17.808838 6.0835495 -23.803146 0.5301819z" fill-rule="evenodd"/><path fill="#ffd966" d="m186.84085 178.64604c-5.9943085 -5.55336 -13.044617 -32.08748 -12.16272 -33.850388c0.8818817 -1.7629089 13.83989 23.62555 17.454056 23.272964c3.6141815 -0.35258484 2.1154938 -25.123795 4.2309723 -25.388458c2.1154938 -0.26464844 5.376648 22.919083 8.461945 23.800537c3.0852966 0.8814392 9.080048 -20.45102 10.049866 -18.51181c0.9698181 1.9391937 0.441391 25.034119 -4.2309723 30.146973c-4.672348 5.1128693 -17.808838 6.083557 -23.803146 0.5301819z" fill-rule="evenodd"/><path fill="#ffd966" d="m77.65188 95.53844c-5.994316 -5.5533676 -13.044624 -32.087494 -12.162727 -33.850395c0.88188934 -1.7629051 13.83989 23.625542 17.454063 23.272964c3.614174 -0.35258484 2.1154861 -25.123798 4.2309723 -25.38845c2.1154861 -0.26465607 5.3766403 22.919075 8.461945 23.800522c3.0852966 0.88145447 9.080048 -20.451004 10.049866 -18.51181c0.9698181 1.9391937 0.44138336 25.034119 -4.2309723 30.14698c-4.672348 5.1128616 -17.808838 6.083557 -23.803146 0.5301895z" fill-rule="evenodd"/></g></svg>