<svg version="1.1" viewBox="0.0 0.0 256.0 256.0" fill="none" stroke="none" stroke-linecap="square" stroke-miterlimit="10" xmlns:xlink="http://www.w3.org/1999/xlink" xmlns="http://www.w3.org/2000/svg"><clipPath id="p.0"><path d="m0 0l256.0 0l0 256.0l-256.0 0l0 -256.0z" clip-rule="nonzero"/></clipPath><g clip-path="url(#p.0)"><path fill="#000000" fill-opacity="0.0" d="m0 0l256.0 0l0 256.0l-256.0 0z" fill-rule="evenodd"/><path fill="#9a7608" d="m201.91212 51.817387l0 0c-0.7537842 -0.753788 -1.9753418 -0.75320435 -2.7284088 0.0013008118l-79.79258 79.94485c-0.3616333 0.3623352 -0.56466675 0.85362244 -0.5644226 1.3657837c2.4414062E-4 0.51216125 0.20374298 1.0032501 0.56572723 1.3652344l5.459259 5.459259c0.7537918 0.75379944 1.9753418 0.7532196 2.7284164 -0.0012969971l79.79258 -79.944855l0 0c0.753067 -0.75450516 0.7524872 -1.9772224 -0.0013122559 -2.7310143z" fill-rule="evenodd"/><path stroke="#9a7608" stroke-width="1.0" stroke-linejoin="round" stroke-linecap="butt" d="m201.91212 51.817387l0 0c-0.7537842 -0.753788 -1.9753418 -0.75320435 -2.7284088 0.0013008118l-79.79258 79.94485c-0.3616333 0.3623352 -0.56466675 0.85362244 -0.5644226 1.3657837c2.4414062E-4 0.51216125 0.20374298 1.0032501 0.56572723 1.3652344l5.459259 5.459259c0.7537918 0.75379944 1.9753418 0.7532196 2.7284164 -0.0012969971l79.79258 -79.944855l0 0c0.753067 -0.75450516 0.7524872 -1.9772224 -0.0013122559 -2.7310143z" fill-rule="evenodd"/><path fill="#f1c232" d="m112.96346 131.28448l0 0c-0.927742 -0.9277344 -2.4311905 -0.9270172 -3.3580399 0.0016021729l-79.163246 79.314316c-0.44509315 0.44595337 -0.6949749 1.0505981 -0.69467354 1.680954c2.9945374E-4 0.63035583 0.25075722 1.234787 0.6962757 1.6802979l6.7190914 6.719101c0.927742 0.9277344 2.4311905 0.9270172 3.3580475 -0.0016021729l79.16324 -79.314316c0.926857 -0.92863464 0.92613983 -2.4335175 -0.0016021729 -3.3612518z" fill-rule="evenodd"/><path stroke="#f1c232" stroke-width="1.0" stroke-linejoin="round" stroke-linecap="butt" d="m112.96346 131.28448l0 0c-0.927742 -0.9277344 -2.4311905 -0.9270172 -3.3580399 0.0016021729l-79.163246 79.314316c-0.44509315 0.44595337 -0.6949749 1.0505981 -0.69467354 1.680954c2.9945374E-4 0.63035583 0.25075722 1.234787 0.6962757 1.6802979l6.7190914 6.719101c0.927742 0.9277344 2.4311905 0.9270172 3.3580475 -0.0016021729l79.16324 -79.314316c0.926857 -0.92863464 0.92613983 -2.4335175 -0.0016021729 -3.3612518z" fill-rule="evenodd"/><path fill="#f1c232" d="m225.57085 213.93225l0 0c0.9277344 -0.9277344 0.9277344 -2.4319 0 -3.3596497l-79.66397 -79.66397c-0.44552612 -0.44552612 -1.0497742 -0.6958008 -1.6798248 -0.6958008c-0.63005066 0 -1.234314 0.25027466 -1.6798248 0.6958008l-6.719101 6.7190857c-0.9277344 0.92774963 -0.9277344 2.4319153 0 3.3596497l79.66399 79.66397c0.9277344 0.92774963 2.4319 0.92774963 3.3596497 0z" fill-rule="evenodd"/><path stroke="#f1c232" stroke-width="1.0" stroke-linejoin="round" stroke-linecap="butt" d="m225.57085 213.93225l0 0c0.9277344 -0.9277344 0.9277344 -2.4319 0 -3.3596497l-79.66397 -79.66397c-0.44552612 -0.44552612 -1.0497742 -0.6958008 -1.6798248 -0.6958008c-0.63005066 0 -1.234314 0.25027466 -1.6798248 0.6958008l-6.719101 6.7190857c-0.9277344 0.92774963 -0.9277344 2.4319153 0 3.3596497l79.66399 79.66397c0.9277344 0.92774963 2.4319 0.92774963 3.3596497 0z" fill-rule="evenodd"/><path fill="#bf9000" d="m227.25049 206.85738l0 0c0 -1.3220367 -1.0717163 -2.393753 -2.393753 -2.393753l-193.7007 0c-0.634861 0 -1.243721 0.25219727 -1.6926365 0.70111084c-0.44891548 0.44891357 -0.70111275 1.0577698 -0.70111275 1.6926422l0 9.574707c0 1.3220215 1.0717182 2.3937378 2.3937492 2.3937378l193.7007 0c1.3220367 0 2.393753 -1.0717163 2.393753 -2.3937378z" fill-rule="evenodd"/><path stroke="#bf9000" stroke-width="1.0" stroke-linejoin="round" stroke-linecap="butt" d="m227.25049 206.85738l0 0c0 -1.3220367 -1.0717163 -2.393753 -2.393753 -2.393753l-193.7007 0c-0.634861 0 -1.243721 0.25219727 -1.6926365 0.70111084c-0.44891548 0.44891357 -0.70111275 1.0577698 -0.70111275 1.6926422l0 9.574707c0 1.3220215 1.0717182 2.3937378 2.3937492 2.3937378l193.7007 0c1.3220367 0 2.393753 -1.0717163 2.393753 -2.3937378z" fill-rule="evenodd"/><path fill="#666666" d="m247.54204 211.65672l0 0c0 -16.239609 -13.16481 -29.404404 -29.404404 -29.404404l0 0c-7.798538 0 -15.277664 3.0979614 -20.792053 8.61235c-5.5144043 5.514389 -8.61235 12.993515 -8.61235 20.792053l0 0c0 16.239609 13.164795 29.404404 29.404404 29.404404l0 0c16.239594 0 29.404404 -13.164795 29.404404 -29.404404z" fill-rule="evenodd"/><path stroke="#666666" stroke-width="1.0" stroke-linejoin="round" stroke-linecap="butt" d="m247.54204 211.65672l0 0c0 -16.239609 -13.16481 -29.404404 -29.404404 -29.404404l0 0c-7.798538 0 -15.277664 3.0979614 -20.792053 8.61235c-5.5144043 5.514389 -8.61235 12.993515 -8.61235 20.792053l0 0c0 16.239609 13.164795 29.404404 29.404404 29.404404l0 0c16.239594 0 29.404404 -13.164795 29.404404 -29.404404z" fill-rule="evenodd"/><path fill="#434343" d="m233.97076 211.65672l0 0c0 -8.7444 -7.08873 -15.833145 -15.83313 -15.833145l0 0c-4.1992188 0 -8.22644 1.6681366 -11.1957245 4.6374207c-2.969284 2.9692993 -4.6374207 6.996521 -4.6374207 11.1957245l0 0c0 8.7444 7.088745 15.833145 15.833145 15.833145l0 0c8.7444 0 15.83313 -7.088745 15.83313 -15.833145z" fill-rule="evenodd"/><path stroke="#000000" stroke-width="3.0" stroke-linejoin="round" stroke-linecap="butt" d="m233.97076 211.65672l0 0c0 -8.7444 -7.08873 -15.833145 -15.83313 -15.833145l0 0c-4.1992188 0 -8.22644 1.6681366 -11.1957245 4.6374207c-2.969284 2.9692993 -4.6374207 6.996521 -4.6374207 11.1957245l0 0c0 8.7444 7.088745 15.833145 15.833145 15.833145l0 0c8.7444 0 15.83313 -7.088745 15.83313 -15.833145z" fill-rule="evenodd"/><path fill="#666666" d="m67.26678 211.65672l0 0c0 -16.239609 -13.164803 -29.404404 -29.404408 -29.404404l0 0c-7.7985306 0 -15.277657 3.0979614 -20.792051 8.61235c-5.5143957 5.514389 -8.61235 12.993515 -8.61235 20.792053l0 0c0 16.239609 13.164799 29.404404 29.404402 29.404404l0 0c16.239605 0 29.404408 -13.164795 29.404408 -29.404404z" fill-rule="evenodd"/><path stroke="#666666" stroke-width="1.0" stroke-linejoin="round" stroke-linecap="butt" d="m67.26678 211.65672l0 0c0 -16.239609 -13.164803 -29.404404 -29.404408 -29.404404l0 0c-7.7985306 0 -15.277657 3.0979614 -20.792051 8.61235c-5.5143957 5.514389 -8.61235 12.993515 -8.61235 20.792053l0 0c0 16.239609 13.164799 29.404404 29.404402 29.404404l0 0c16.239605 0 29.404408 -13.164795 29.404408 -29.404404z" fill-rule="evenodd"/><path fill="#434343" d="m53.69551 211.65672l0 0c0 -8.7444 -7.0887375 -15.833145 -15.833141 -15.833145l0 0c-4.1992073 0 -8.226429 1.6681366 -11.195719 4.6374207c-2.9692898 2.9692993 -4.6374207 6.996521 -4.6374207 11.1957245l0 0c0 8.7444 7.0887394 15.833145 15.833139 15.833145l0 0c8.744404 0 15.833141 -7.088745 15.833141 -15.833145z" fill-rule="evenodd"/><path stroke="#000000" stroke-width="3.0" stroke-linejoin="round" stroke-linecap="butt" d="m53.69551 211.65672l0 0c0 -8.7444 -7.0887375 -15.833145 -15.833141 -15.833145l0 0c-4.1992073 0 -8.226429 1.6681366 -11.195719 4.6374207c-2.9692898 2.9692993 -4.6374207 6.996521 -4.6374207 11.1957245l0 0c0 8.7444 7.0887394 15.833145 15.833139 15.833145l0 0c8.744404 0 15.833141 -7.088745 15.833141 -15.833145z" fill-rule="evenodd"/><path fill="#bf9000" d="m134.31572 126.773964l0 0c0 -1.1683731 -0.9471588 -2.1155243 -2.1155396 -2.1155243l-8.461853 0l0 0c-0.5610733 0 -1.0991669 0.22288513 -1.495903 0.6196213c-0.39673615 0.39674377 -0.6196213 0.93483734 -0.6196213 1.495903l0 100.36738c0 1.1683655 0.9471512 2.1155243 2.1155243 2.1155243l8.461853 0c1.1683807 0 2.1155396 -0.9471588 2.1155396 -2.1155243z" fill-rule="evenodd"/><path stroke="#bf9000" stroke-width="1.0" stroke-linejoin="round" stroke-linecap="butt" d="m134.31572 126.773964l0 0c0 -1.1683731 -0.9471588 -2.1155243 -2.1155396 -2.1155243l-8.461853 0l0 0c-0.5610733 0 -1.0991669 0.22288513 -1.495903 0.6196213c-0.39673615 0.39674377 -0.6196213 0.93483734 -0.6196213 1.495903l0 100.36738c0 1.1683655 0.9471512 2.1155243 2.1155243 2.1155243l8.461853 0c1.1683807 0 2.1155396 -0.9471588 2.1155396 -2.1155243z" fill-rule="evenodd"/><path fill="#999999" d="m141.53891 219.42506l0 0c0 -0.32470703 -0.26322937 -0.5879364 -0.5879364 -0.5879364l-25.973732 0c-0.1559372 0 -0.30548096 0.061935425 -0.41574097 0.17219543c-0.11026001 0.11026001 -0.17220306 0.2598114 -0.17220306 0.41574097l0 2.3516846c0 0.32470703 0.26322937 0.5879364 0.58794403 0.5879364l25.973732 0c0.32470703 0 0.5879364 -0.26322937 0.5879364 -0.5879364z" fill-rule="evenodd"/><path stroke="#999999" stroke-width="1.0" stroke-linejoin="round" stroke-linecap="butt" d="m141.53891 219.42506l0 0c0 -0.32470703 -0.26322937 -0.5879364 -0.5879364 -0.5879364l-25.973732 0c-0.1559372 0 -0.30548096 0.061935425 -0.41574097 0.17219543c-0.11026001 0.11026001 -0.17220306 0.2598114 -0.17220306 0.41574097l0 2.3516846c0 0.32470703 0.26322937 0.5879364 0.58794403 0.5879364l25.973732 0c0.32470703 0 0.5879364 -0.26322937 0.5879364 -0.5879364z" fill-rule="evenodd"/><path fill="#bf9000" d="m144.05608 131.3038l0 0c0 -8.880035 -7.1987 -16.078735 -16.078735 -16.078735l0 0c-4.264351 0 -8.354042 1.6940079 -11.369385 4.7093506c-3.0153503 3.0153503 -4.709358 7.1050415 -4.709358 11.369385l0 0c0 8.880051 7.1987 16.07875 16.078743 16.07875l0 0c8.880035 0 16.078735 -7.1987 16.078735 -16.07875z" fill-rule="evenodd"/><path stroke="#bf9000" stroke-width="1.0" stroke-linejoin="round" stroke-linecap="butt" d="m144.05608 131.3038l0 0c0 -8.880035 -7.1987 -16.078735 -16.078735 -16.078735l0 0c-4.264351 0 -8.354042 1.6940079 -11.369385 4.7093506c-3.0153503 3.0153503 -4.709358 7.1050415 -4.709358 11.369385l0 0c0 8.880051 7.1987 16.07875 16.078743 16.07875l0 0c8.880035 0 16.078735 -7.1987 16.078735 -16.07875z" fill-rule="evenodd"/><path fill="#b7b7b7" d="m137.98203 131.30414l0 0c0 -5.505455 -4.463043 -9.968506 -9.968491 -9.968506l0 0c-2.6438217 0 -5.179344 1.0502472 -7.048805 2.9197083c-1.8694534 1.8694534 -2.9197083 4.4049835 -2.9197083 7.0487976l0 0c0 5.5054474 4.463051 9.968506 9.9685135 9.968506l0 0c5.5054474 0 9.968491 -4.4630585 9.968491 -9.968506z" fill-rule="evenodd"/><path stroke="#b7b7b7" stroke-width="1.0" stroke-linejoin="round" stroke-linecap="butt" d="m137.98203 131.30414l0 0c0 -5.505455 -4.463043 -9.968506 -9.968491 -9.968506l0 0c-2.6438217 0 -5.179344 1.0502472 -7.048805 2.9197083c-1.8694534 1.8694534 -2.9197083 4.4049835 -2.9197083 7.0487976l0 0c0 5.5054474 4.463051 9.968506 9.9685135 9.968506l0 0c5.5054474 0 9.968491 -4.4630585 9.968491 -9.968506z" fill-rule="evenodd"/><path fill="#5d5555" d="m185.95679 64.97554l0 0c9.212387 9.20668 24.143631 9.203209 33.351746 -0.007751465c9.208099 -9.210964 9.206955 -24.142212 -0.0025939941 -33.35175l-16.677155 16.677166z" fill-rule="evenodd"/><path stroke="#5d5555" stroke-width="1.0" stroke-linejoin="round" stroke-linecap="butt" d="m185.95679 64.97554l0 0c9.212387 9.20668 24.143631 9.203209 33.351746 -0.007751465c9.208099 -9.210964 9.206955 -24.142212 -0.0025939941 -33.35175l-16.677155 16.677166z" fill-rule="evenodd"/><path fill="#746767" d="m212.60345 54.61057l0 0c0 -2.296112 -1.8613739 -4.157482 -4.157486 -4.157482l0 0c-1.1026306 0 -2.1600952 0.4380188 -2.9397736 1.217701c-0.77967834 0.77967834 -1.2176971 1.8371468 -1.2176971 2.9397812l0 0c0 2.296112 1.8613586 4.1574783 4.1574707 4.1574783l0 0c2.296112 0 4.157486 -1.8613663 4.157486 -4.1574783z" fill-rule="evenodd"/><path fill="#746767" d="m203.26437 60.53453l0 0c0 -0.97410965 -0.78967285 -1.7637787 -1.7637787 -1.7637787l0 0c-0.4677887 0 -0.91641235 0.18582535 -1.2471771 0.51659775c-0.33078003 0.3307724 -0.51660156 0.7793999 -0.51660156 1.2471809l0 0c0 0.97410965 0.78967285 1.7637787 1.7637787 1.7637787l0 0c0.97410583 0 1.7637787 -0.78966904 1.7637787 -1.7637787z" fill-rule="evenodd"/><path fill="#9f7a0a" d="m178.75931 211.19084l-15.212952 -3.456665l-10.0264435 3.456665l-13.483093 -2.7665558l-13.1395645 2.4199677l-19.362762 -3.803238l-20.39946 4.496399l-10.373016 -4.149811l-3.113121 3.803238l5.8796616 4.4963837l13.483101 0l19.709343 -2.0764313l12.792984 2.4199677l17.286339 0l19.362762 -2.0733795l5.533081 2.0733795l16.24965 -2.0733795z" fill-rule="evenodd"/><path fill="#9f7a0a" d="m129.31778 150.68459l2.0764313 15.212936l-1.7298431 10.0264435l1.7298431 6.5697784l-2.0764313 12.102875l-4.149811 2.7665405l-1.3832703 -16.252686l3.113121 -12.792984l-3.803238 -12.099823z" fill-rule="evenodd"/><path fill="#9f7a0a" d="m186.71426 73.92556l-9.682907 13.486137l-11.4096985 7.606476l-8.299637 14.176254l-10.373016 2.41996l4.149811 -7.9530487l16.252686 -14.866371l7.950012 -12.102867z" fill-rule="evenodd"/><path fill="#cda52b" d="m193.2808 187.68033l-7.950012 -13.139572l-8.989746 -1.3832703l-10.02948 -19.706299l-12.792984 -5.533081l0.693161 7.606476l11.063126 8.299622l8.64621 13.829681l8.989746 2.4199677l5.8766174 10.0264435z" fill-rule="evenodd"/><path fill="#cda52b" d="m107.882355 144.11496l-14.176254 20.746033l-10.719597 8.2966l-5.5330887 8.299622l-5.876625 1.0366974l-2.0733871 7.606476l-5.8796616 -4.4933624l3.803238 -8.989746l8.299629 -2.7665405l5.5330887 -10.373016l10.716553 -5.879669l6.5697784 -11.753235z" fill-rule="evenodd"/><path fill="#666666" d="m225.09204 209.11508l-6.9163666 -5.186508l-8.989746 5.879654l-0.69010925 6.5697784l5.5300446 2.0733948l6.226242 -3.456665l3.456665 5.186508z" fill-rule="evenodd"/><path fill="#666666" d="m44.262882 209.80817l-5.5300446 -3.4566498l-7.9530544 0.69010925l-1.7298489 6.9163666l4.4963913 5.5300446l7.950012 -3.1100922l4.219738 3.803238z" fill-rule="evenodd"/><path fill="#a4a4a4" d="m131.7377 128.55591l1.3832703 6.2231903l-5.186508 3.1131287l-5.530052 -2.4199677l1.0366974 -4.842972l4.493355 -5.186508z" fill-rule="evenodd"/><path fill="#9f7a0a" d="m131.25742 227.08188l-3.0067291 -2.298355l-3.7120285 1.7693787l1.590004 2.1220245l3.0067139 -1.0610199z" fill-rule="evenodd"/><path fill="#9a7608" d="m529.34973 48.174698l0 0c-0.64941406 -0.6494179 -1.7019043 -0.6489525 -2.350708 0.0010375977l-68.89444 69.01625c-0.31158447 0.3121338 -0.48651123 0.73537445 -0.48632812 1.1766129c1.8310547E-4 0.44123077 0.17550659 0.86431885 0.48736572 1.176178l4.703369 4.703369c0.64941406 0.64941406 1.7018738 0.64894867 2.350708 -0.001045227l68.89444 -69.01625l0 0c0.6488037 -0.6499901 0.64837646 -1.703373 -0.0010375977 -2.3527908z" fill-rule="evenodd"/><path stroke="#9a7608" stroke-width="1.0" stroke-linejoin="round" stroke-linecap="butt" d="m529.34973 48.174698l0 0c-0.64941406 -0.6494179 -1.7019043 -0.6489525 -2.350708 0.0010375977l-68.89444 69.01625c-0.31158447 0.3121338 -0.48651123 0.73537445 -0.48632812 1.1766129c1.8310547E-4 0.44123077 0.17550659 0.86431885 0.48736572 1.176178l4.703369 4.703369c0.64941406 0.64941406 1.7018738 0.64894867 2.350708 -0.001045227l68.89444 -69.01625l0 0c0.6488037 -0.6499901 0.64837646 -1.703373 -0.0010375977 -2.3527908z" fill-rule="evenodd"/><path fill="#f1c232" d="m452.56125 116.78937l0 0c-0.8031006 -0.80307007 -2.1045532 -0.80249786 -2.9069214 0.0012893677l-68.33847 68.45931c-0.38531494 0.38598633 -0.60162354 0.90937805 -0.6014099 1.4550018c2.4414062E-4 0.54563904 0.21704102 1.0688324 0.60269165 1.454483l5.816223 5.816208c0.80307007 0.80307007 2.1045532 0.8025055 2.9069214 -0.0012817383l68.33847 -68.45932c0.80233765 -0.8037796 0.80178833 -2.1063995 -0.0013122559 -2.9094772z" fill-rule="evenodd"/><path stroke="#f1c232" stroke-width="1.0" stroke-linejoin="round" stroke-linecap="butt" d="m452.56125 116.78937l0 0c-0.8031006 -0.80307007 -2.1045532 -0.80249786 -2.9069214 0.0012893677l-68.33847 68.45931c-0.38531494 0.38598633 -0.60162354 0.90937805 -0.6014099 1.4550018c2.4414062E-4 0.54563904 0.21704102 1.0688324 0.60269165 1.454483l5.816223 5.816208c0.80307007 0.80307007 2.1045532 0.8025055 2.9069214 -0.0012817383l68.33847 -68.45932c0.80233765 -0.8037796 0.80178833 -2.1063995 -0.0013122559 -2.9094772z" fill-rule="evenodd"/><path fill="#f1c232" d="m549.7744 188.14378l0 0c0.8031006 -0.80307007 0.8031006 -2.1051178 0 -2.9081879l-68.776855 -68.77685c-0.38565063 -0.38565063 -0.9086914 -0.60230255 -1.4541016 -0.60230255c-0.54537964 0 -1.0684204 0.21665192 -1.454071 0.60230255l-5.816223 5.8162155c-0.80307007 0.8030777 -0.80307007 2.1051178 0 2.9081955l68.776825 68.77685c0.8031006 0.80307007 2.1051636 0.80307007 2.9082031 0z" fill-rule="evenodd"/><path stroke="#f1c232" stroke-width="1.0" stroke-linejoin="round" stroke-linecap="butt" d="m549.7744 188.14378l0 0c0.8031006 -0.80307007 0.8031006 -2.1051178 0 -2.9081879l-68.776855 -68.77685c-0.38565063 -0.38565063 -0.9086914 -0.60230255 -1.4541016 -0.60230255c-0.54537964 0 -1.0684204 0.21665192 -1.454071 0.60230255l-5.816223 5.8162155c-0.80307007 0.8030777 -0.80307007 2.1051178 0 2.9081955l68.776825 68.77685c0.8031006 0.80307007 2.1051636 0.80307007 2.9082031 0z" fill-rule="evenodd"/><path fill="#bf9000" d="m551.22833 182.03346l0 0c0 -1.142273 -0.92596436 -2.068283 -2.0682983 -2.068283l-167.23349 0c-0.54852295 0 -1.0746155 0.21791077 -1.4624939 0.6057892c-0.38787842 0.38787842 -0.6057739 0.9139557 -0.6057739 1.4624939l0 8.272888c0 1.142273 0.9259949 2.068283 2.0682678 2.068283l167.23349 0c1.142334 0 2.0682983 -0.92601013 2.0682983 -2.068283z" fill-rule="evenodd"/><path stroke="#bf9000" stroke-width="1.0" stroke-linejoin="round" stroke-linecap="butt" d="m551.22833 182.03346l0 0c0 -1.142273 -0.92596436 -2.068283 -2.0682983 -2.068283l-167.23349 0c-0.54852295 0 -1.0746155 0.21791077 -1.4624939 0.6057892c-0.38787842 0.38787842 -0.6057739 0.9139557 -0.6057739 1.4624939l0 8.272888c0 1.142273 0.9259949 2.068283 2.0682678 2.068283l167.23349 0c1.142334 0 2.0682983 -0.92601013 2.0682983 -2.068283z" fill-rule="evenodd"/><path fill="#666666" d="m568.74805 186.1699l0 0c0 -14.020203 -11.365662 -25.385834 -25.385864 -25.385834l0 0c-6.732727 0 -13.189697 2.6745758 -17.95044 7.4353485c-4.760803 4.7607574 -7.435364 11.217743 -7.435364 17.950485l0 0c0 14.020203 11.365601 25.385834 25.385803 25.385834l0 0c14.020203 0 25.385864 -11.365631 25.385864 -25.385834z" fill-rule="evenodd"/><path stroke="#666666" stroke-width="1.0" stroke-linejoin="round" stroke-linecap="butt" d="m568.74805 186.1699l0 0c0 -14.020203 -11.365662 -25.385834 -25.385864 -25.385834l0 0c-6.732727 0 -13.189697 2.6745758 -17.95044 7.4353485c-4.760803 4.7607574 -7.435364 11.217743 -7.435364 17.950485l0 0c0 14.020203 11.365601 25.385834 25.385803 25.385834l0 0c14.020203 0 25.385864 -11.365631 25.385864 -25.385834z" fill-rule="evenodd"/><path fill="#434343" d="m557.0315 186.1699l0 0c0 -7.549347 -6.119934 -13.669296 -13.669312 -13.669296l0 0c-3.6253052 0 -7.102112 1.440155 -9.665649 4.003647c-2.5634766 2.5634918 -4.003601 6.040329 -4.003601 9.665649l0 0c0 7.549347 6.119934 13.669296 13.6692505 13.669296l0 0c7.5493774 0 13.669312 -6.1199493 13.669312 -13.669296z" fill-rule="evenodd"/><path stroke="#000000" stroke-width="3.0" stroke-linejoin="round" stroke-linecap="butt" d="m557.0315 186.1699l0 0c0 -7.549347 -6.119934 -13.669296 -13.669312 -13.669296l0 0c-3.6253052 0 -7.102112 1.440155 -9.665649 4.003647c-2.5634766 2.5634918 -4.003601 6.040329 -4.003601 9.665649l0 0c0 7.549347 6.119934 13.669296 13.6692505 13.669296l0 0c7.5493774 0 13.669312 -6.1199493 13.669312 -13.669296z" fill-rule="evenodd"/><path fill="#666666" d="m413.11023 186.1699l0 0c0 -14.020203 -11.365601 -25.385834 -25.385834 -25.385834l0 0c-6.732727 0 -13.189697 2.6745758 -17.95047 7.4353485c-4.7607727 4.7607574 -7.4353333 11.217743 -7.4353333 17.950485l0 0c0 14.020203 11.365601 25.385834 25.385803 25.385834l0 0c14.020233 0 25.385834 -11.365631 25.385834 -25.385834z" fill-rule="evenodd"/><path stroke="#666666" stroke-width="1.0" stroke-linejoin="round" stroke-linecap="butt" d="m413.11023 186.1699l0 0c0 -14.020203 -11.365601 -25.385834 -25.385834 -25.385834l0 0c-6.732727 0 -13.189697 2.6745758 -17.95047 7.4353485c-4.7607727 4.7607574 -7.4353333 11.217743 -7.4353333 17.950485l0 0c0 14.020203 11.365601 25.385834 25.385803 25.385834l0 0c14.020233 0 25.385834 -11.365631 25.385834 -25.385834z" fill-rule="evenodd"/><path fill="#434343" d="m401.3937 186.1699l0 0c0 -7.549347 -6.1199646 -13.669296 -13.669312 -13.669296l0 0c-3.6253052 0 -7.1021423 1.440155 -9.665649 4.003647c-2.5634766 2.5634918 -4.0036316 6.040329 -4.0036316 9.665649l0 0c0 7.549347 6.1199646 13.669296 13.669281 13.669296l0 0c7.549347 0 13.669312 -6.1199493 13.669312 -13.669296z" fill-rule="evenodd"/><path stroke="#000000" stroke-width="3.0" stroke-linejoin="round" stroke-linecap="butt" d="m401.3937 186.1699l0 0c0 -7.549347 -6.1199646 -13.669296 -13.669312 -13.669296l0 0c-3.6253052 0 -7.1021423 1.440155 -9.665649 4.003647c-2.5634766 2.5634918 -4.0036316 6.040329 -4.0036316 9.665649l0 0c0 7.549347 6.1199646 13.669296 13.669281 13.669296l0 0c7.549347 0 13.669312 -6.1199493 13.669312 -13.669296z" fill-rule="evenodd"/><path fill="#bf9000" d="m470.99213 112.89173l0 0c0 -1.0089188 -0.8179016 -1.8268127 -1.8268127 -1.8268127l-7.307007 0l0 0c-0.48449707 0 -0.9491577 0.19246674 -1.291748 0.5350647c-0.34259033 0.34259033 -0.5350647 0.80724335 -0.5350647 1.291748l0 86.64559c0 1.0089264 0.8179016 1.8268127 1.8268127 1.8268127l7.307007 0c1.0089111 0 1.8268127 -0.81788635 1.8268127 -1.8268127z" fill-rule="evenodd"/><path stroke="#bf9000" stroke-width="1.0" stroke-linejoin="round" stroke-linecap="butt" d="m470.99213 112.89173l0 0c0 -1.0089188 -0.8179016 -1.8268127 -1.8268127 -1.8268127l-7.307007 0l0 0c-0.48449707 0 -0.9491577 0.19246674 -1.291748 0.5350647c-0.34259033 0.34259033 -0.5350647 0.80724335 -0.5350647 1.291748l0 86.64559c0 1.0089264 0.8179016 1.8268127 1.8268127 1.8268127l7.307007 0c1.0089111 0 1.8268127 -0.81788635 1.8268127 -1.8268127z" fill-rule="evenodd"/><path fill="#999999" d="m477.22833 192.88383l0 0c0 -0.28123474 -0.22796631 -0.50920105 -0.5091858 -0.50920105l-22.414673 0c-0.13504028 0 -0.26455688 0.053649902 -0.3600464 0.1491394c-0.0954895 0.0954895 -0.1491394 0.2250061 -0.1491394 0.36006165l0 2.0367126c0 0.28121948 0.22796631 0.50920105 0.5091858 0.50920105l22.414673 0c0.28121948 0 0.5091858 -0.22798157 0.5091858 -0.50920105z" fill-rule="evenodd"/><path stroke="#999999" stroke-width="1.0" stroke-linejoin="round" stroke-linecap="butt" d="m477.22833 192.88383l0 0c0 -0.28123474 -0.22796631 -0.50920105 -0.5091858 -0.50920105l-22.414673 0c-0.13504028 0 -0.26455688 0.053649902 -0.3600464 0.1491394c-0.0954895 0.0954895 -0.1491394 0.2250061 -0.1491394 0.36006165l0 2.0367126c0 0.28121948 0.22796631 0.50920105 0.5091858 0.50920105l22.414673 0c0.28121948 0 0.5091858 -0.22798157 0.5091858 -0.50920105z" fill-rule="evenodd"/><path fill="#bf9000" d="m479.40158 116.810326l0 0c0 -7.6711044 -6.2186584 -13.889763 -13.8897705 -13.889763l0 0c-3.6838074 0 -7.2167053 1.4633789 -9.821533 4.0682144c-2.6048584 2.6048355 -4.0682373 6.1377563 -4.0682373 9.821548l0 0c0 7.6711044 6.2186584 13.889763 13.8897705 13.889763l0 0c7.671112 0 13.8897705 -6.2186584 13.8897705 -13.889763z" fill-rule="evenodd"/><path stroke="#bf9000" stroke-width="1.0" stroke-linejoin="round" stroke-linecap="butt" d="m479.40158 116.810326l0 0c0 -7.6711044 -6.2186584 -13.889763 -13.8897705 -13.889763l0 0c-3.6838074 0 -7.2167053 1.4633789 -9.821533 4.0682144c-2.6048584 2.6048355 -4.0682373 6.1377563 -4.0682373 9.821548l0 0c0 7.6711044 6.2186584 13.889763 13.8897705 13.889763l0 0c7.671112 0 13.8897705 -6.2186584 13.8897705 -13.889763z" fill-rule="evenodd"/><path fill="#b7b7b7" d="m474.15747 116.810326l0 0c0 -4.757477 -3.8566895 -8.614174 -8.614166 -8.614174l0 0c-2.284607 0 -4.4756775 0.90756226 -6.0911255 2.5230331c-1.6154785 1.6154709 -2.5230408 3.8065186 -2.5230408 6.0911407l0 0c0 4.757477 3.8566895 8.614174 8.614166 8.614174l0 0c4.757477 0 8.614166 -3.856697 8.614166 -8.614174z" fill-rule="evenodd"/><path stroke="#b7b7b7" stroke-width="1.0" stroke-linejoin="round" stroke-linecap="butt" d="m474.15747 116.810326l0 0c0 -4.757477 -3.8566895 -8.614174 -8.614166 -8.614174l0 0c-2.284607 0 -4.4756775 0.90756226 -6.0911255 2.5230331c-1.6154785 1.6154709 -2.5230408 3.8065186 -2.5230408 6.0911407l0 0c0 4.757477 3.8566895 8.614174 8.614166 8.614174l0 0c4.757477 0 8.614166 -3.856697 8.614166 -8.614174z" fill-rule="evenodd"/><path fill="#5d5555" d="m515.5911 59.532715l0 0c7.950989 7.9460907 20.83783 7.9430923 28.785156 -0.0066871643c7.9473267 -7.9497833 7.94635 -20.836624 -0.0021972656 -28.785173l-14.393738 14.393702z" fill-rule="evenodd"/><path stroke="#5d5555" stroke-width="1.0" stroke-linejoin="round" stroke-linecap="butt" d="m515.5911 59.532715l0 0c7.950989 7.9460907 20.83783 7.9430923 28.785156 -0.0066871643c7.9473267 -7.9497833 7.94635 -20.836624 -0.0021972656 -28.785173l-14.393738 14.393702z" fill-rule="evenodd"/><path fill="#746767" d="m538.5827 50.589855l0 0c0 -1.9830093 -1.607544 -3.5905533 -3.5905762 -3.5905533l0 0c-0.9522705 0 -1.8655396 0.37828827 -2.5388794 1.0516472c-0.6734009 0.67336273 -1.0516968 1.5866318 -1.0516968 2.538906l0 0c0 1.9830055 1.607544 3.5905495 3.5905762 3.5905495l0 0c1.9830322 0 3.5905762 -1.607544 3.5905762 -3.5905495z" fill-rule="evenodd"/><path fill="#746767" d="m530.5197 55.707966l0 0c0 -0.8436508 -0.68395996 -1.5275612 -1.5275879 -1.5275612l0 0c-0.40515137 0 -0.7937012 0.16093826 -1.0801392 0.44741058c-0.28649902 0.28647614 -0.44744873 0.6750145 -0.44744873 1.0801506l0 0c0 0.843647 0.68395996 1.5275574 1.5275879 1.5275574l0 0c0.8436279 0 1.5275879 -0.68391037 1.5275879 -1.5275574z" fill-rule="evenodd"/><path fill="#9f7a0a" d="m509.3631 185.77307l-13.13385 -2.984253l-8.656158 2.984253l-11.640442 -2.388443l-11.343811 2.0892334l-16.716553 -3.2834625l-17.611542 3.8818817l-8.955383 -3.582672l-2.6876526 3.2834625l5.076111 3.881897l11.640411 0l17.015747 -1.7926636l11.044617 2.0892487l14.923889 0l16.716553 -1.7900238l4.776886 1.7900238l14.0289 -1.7900238z" fill-rule="evenodd"/><path fill="#9f7a0a" d="m466.67715 133.53473l1.7926636 13.133865l-1.4934387 8.656174l1.4934387 5.6719055l-1.7926636 10.448822l-3.582672 2.3884583l-1.1942139 -14.031494l2.6876526 -11.044632l-3.2834473 -10.446182z" fill-rule="evenodd"/><path fill="#9f7a0a" d="m516.23096 67.2644l-8.359558 11.6430435l-9.850403 6.566925l-7.165344 12.238846l-8.955383 2.089241l3.582672 -6.8661423l14.031494 -12.834648l6.8635254 -10.448814z" fill-rule="evenodd"/><path fill="#cda52b" d="m521.90027 165.47437l-6.8635254 -11.343826l-7.761139 -1.1942291l-8.658813 -17.013123l-11.044617 -4.7769012l0.5984192 6.566925l9.551178 7.1653595l7.464569 11.939636l7.7611694 2.0892334l5.0734863 8.656174z" fill-rule="evenodd"/><path fill="#cda52b" d="m448.1706 127.86282l-12.238831 17.910751l-9.254608 7.162735l-4.776886 7.1653595l-5.0734863 0.8950043l-1.7900391 6.5669403l-5.076111 -3.8792725l3.2834473 -7.761154l7.1653748 -2.3884583l4.776886 -8.955368l9.251984 -5.076126l5.6719055 -10.146973z" fill-rule="evenodd"/><path fill="#666666" d="m549.3648 183.98093l-5.9711304 -4.4776917l-7.7611084 5.076126l-0.5958252 5.6719055l4.774292 1.7900238l5.375305 -2.9842377l2.984253 4.4776764z" fill-rule="evenodd"/><path fill="#666666" d="m393.24408 184.57936l-4.7742615 -2.984253l-6.86615 0.5957947l-1.4934387 5.9711304l3.881897 4.7742767l6.8635254 -2.6850433l3.643036 3.2834625z" fill-rule="evenodd"/><path fill="#a4a4a4" d="m468.76642 114.42975l1.1942139 5.3727036l-4.4776917 2.6876678l-4.774292 -2.089241l0.89501953 -4.1811066l3.8792725 -4.477684z" fill-rule="evenodd"/><path fill="#9f7a0a" d="m468.3517 199.49274l-2.5957947 -1.9842529l-3.2047424 1.5275574l1.3727112 1.8320312l2.5957947 -0.9160156z" fill-rule="evenodd"/></g></svg>