<svg version="1.1" viewBox="0.0 0.0 256.0 256.0" fill="none" stroke="none" stroke-linecap="square" stroke-miterlimit="10" xmlns:xlink="http://www.w3.org/1999/xlink" xmlns="http://www.w3.org/2000/svg"><clipPath id="p.0"><path d="m0 0l256.0 0l0 256.0l-256.0 0l0 -256.0z" clip-rule="nonzero"/></clipPath><g clip-path="url(#p.0)"><path fill="#3c78d8" d="m0 0l256.0 0l0 256.0l-256.0 0z" fill-rule="evenodd"/><path fill="#1155cc" d="m34.419373 228.16641c-0.31179428 -8.165375 13.465214 -31.912918 15.335346 -32.53589c1.8701324 -0.6229553 -6.9194336 26.491821 -4.114544 28.798096c2.8048935 2.3062744 19.260895 -16.26918 20.943893 -14.9604645c1.6829987 1.3087311 -12.404251 20.007904 -10.845909 22.81279c1.558342 2.8049011 20.881409 -8.04039 20.195961 -5.983429c-0.6854477 2.056961 -17.389523 18.013718 -24.308647 18.32521c-6.9191246 0.31147766 -16.89431 -8.290955 -17.2061 -16.456314z" fill-rule="evenodd"/><path fill="#1155cc" d="m120.83144 216.66248c-0.31179047 -8.165375 13.465218 -31.912918 15.33535 -32.53589c1.8701324 -0.6229553 -6.9194336 26.491821 -4.1145477 28.798096c2.8049011 2.3062592 19.260895 -16.26918 20.943893 -14.9604645c1.6829987 1.3087311 -12.404251 20.007904 -10.8459015 22.81279c1.5583344 2.8049011 20.881409 -8.04039 20.195953 -5.983429c-0.68544006 2.056961 -17.389526 18.013718 -24.30864 18.32521c-6.9191284 0.31147766 -16.894318 -8.290955 -17.206108 -16.456314z" fill-rule="evenodd"/><path fill="#1155cc" d="m196.9968 232.06667c-0.31178284 -8.1653595 13.46521 -31.912903 15.335358 -32.535873c1.8701324 -0.6229706 -6.9194336 26.491806 -4.1145477 28.79808c2.8048859 2.3062744 19.260895 -16.26918 20.943893 -14.960449c1.6829987 1.3087158 -12.404251 20.007904 -10.845917 22.81279c1.5583496 2.8048859 20.881409 -8.040405 20.195969 -5.983444c-0.6854553 2.056961 -17.389526 18.013733 -24.308655 18.32521c-6.9191284 0.31149292 -16.894302 -8.290939 -17.2061 -16.456314z" fill-rule="evenodd"/><path fill="#1155cc" d="m15.511235 149.75171c-0.31179237 -8.1653595 13.465213 -31.91291 15.335347 -32.53588c1.8701344 -0.62296295 -6.9194336 26.491814 -4.114542 28.798088c2.8048916 2.3062744 19.260895 -16.26918 20.943893 -14.960449c1.6829948 1.3087158 -12.404255 20.007889 -10.845913 22.81279c1.558342 2.8048859 20.881413 -8.040405 20.195965 -5.983444c-0.6854477 2.056961 -17.389526 18.013733 -24.308651 18.32521c-6.9191246 0.31147766 -16.894306 -8.290955 -17.2061 -16.456314z" fill-rule="evenodd"/><path fill="#1155cc" d="m92.26977 151.27402c-0.3117981 -8.1653595 13.46521 -31.91291 15.335342 -32.535873c1.8701401 -0.6229706 -6.9194336 26.491806 -4.11454 28.79808c2.8048935 2.3062744 19.260895 -16.26918 20.943893 -14.960449c1.6829987 1.3087158 -12.404251 20.007889 -10.845909 22.81279c1.558342 2.8048859 20.881416 -8.040405 20.195961 -5.983444c-0.68544006 2.056961 -17.389526 18.013733 -24.308647 18.32521c-6.9191284 0.31147766 -16.89431 -8.290939 -17.2061 -16.456314z" fill-rule="evenodd"/><path fill="#1155cc" d="m17.55848 36.562733c-0.31179237 -8.165365 13.465214 -31.912912 15.335346 -32.535877c1.8701363 -0.6229656 -6.9194336 26.491814 -4.114542 28.798086c2.8048916 2.3062706 19.260897 -16.269176 20.943895 -14.960455c1.6829948 1.3087234 -12.404255 20.007898 -10.845913 22.812792c1.558342 2.8048897 20.881413 -8.040401 20.195965 -5.9834404c-0.6854477 2.056961 -17.389526 18.01373 -24.308651 18.32521c-6.9191265 0.3114853 -16.894308 -8.290947 -17.2061 -16.456314z" fill-rule="evenodd"/><path fill="#1155cc" d="m118.88394 37.885567c-0.3117981 -8.165363 13.46521 -31.912912 15.335342 -32.535877c1.8701324 -0.62296534 -6.9194336 26.491814 -4.1145477 28.798084c2.8049011 2.3062744 19.26091 -16.269176 20.943893 -14.960453c1.6829987 1.3087215 -12.404251 20.007896 -10.8459015 22.81279c1.5583344 2.8048935 20.881409 -8.040401 20.195953 -5.9834404c-0.68544006 2.0569649 -17.389511 18.01373 -24.30864 18.32521c-6.9191284 0.3114853 -16.89431 -8.290947 -17.2061 -16.456314z" fill-rule="evenodd"/><path fill="#1155cc" d="m190.88394 40.197903c-0.3117981 -8.165363 13.46521 -31.912912 15.335342 -32.535877c1.8701324 -0.62296534 -6.9194336 26.491814 -4.1145477 28.798084c2.8049011 2.3062744 19.26091 -16.269176 20.943893 -14.960453c1.6829987 1.3087215 -12.404251 20.007896 -10.8459015 22.81279c1.5583344 2.8048935 20.881409 -8.040401 20.195953 -5.9834404c-0.68544006 2.0569649 -17.389511 18.01373 -24.30864 18.32521c-6.9191284 0.3114853 -16.894318 -8.290947 -17.2061 -16.456314z" fill-rule="evenodd"/><path fill="#1155cc" d="m188.9968 108.497116c-0.31178284 -8.165367 13.46521 -31.91291 15.335358 -32.53588c1.8701324 -0.62296295 -6.9194336 26.491814 -4.1145477 28.798088c2.8048859 2.3062744 19.260895 -16.26918 20.943893 -14.960457c1.6829987 1.3087234 -12.404251 20.007904 -10.845917 22.81279c1.5583496 2.8048935 20.881409 -8.040398 20.195969 -5.9834366c-0.6854553 2.056961 -17.389526 18.013725 -24.308655 18.32521c-6.9191284 0.3114853 -16.894302 -8.290947 -17.2061 -16.456314z" fill-rule="evenodd"/><path fill="#1155cc" d="m177.82358 168.20053c-0.3117981 -8.165375 13.46521 -31.912918 15.335342 -32.53589c1.8701324 -0.6229553 -6.9194336 26.491821 -4.1145477 28.798096c2.8049011 2.3062744 19.260895 -16.26918 20.943893 -14.9604645c1.6829987 1.3087311 -12.404251 20.007904 -10.8459015 22.812805c1.5583344 2.8048859 20.881409 -8.040405 20.195953 -5.983444c-0.68544006 2.056961 -17.389526 18.013733 -24.30864 18.32521c-6.9191284 0.31147766 -16.894318 -8.290955 -17.2061 -16.456314z" fill-rule="evenodd"/><path fill="#1155cc" d="m68.6346 85.09292c-0.3117981 -8.165367 13.46521 -31.912914 15.335342 -32.53588c1.8701324 -0.62296677 -6.9194336 26.491814 -4.11454 28.798088c2.8048935 2.3062668 19.260895 -16.26918 20.943893 -14.960457c1.6829987 1.3087234 -12.404251 20.007896 -10.845909 22.81279c1.558342 2.8048935 20.881409 -8.040398 20.195961 -5.9834366c-0.6854477 2.056961 -17.389526 18.013725 -24.308647 18.32521c-6.9191284 0.3114853 -16.89431 -8.290947 -17.2061 -16.456314z" fill-rule="evenodd"/></g></svg>