<svg version="1.1" viewBox="0.0 0.0 256.0 256.0" fill="none" stroke="none" stroke-linecap="square" stroke-miterlimit="10" xmlns:xlink="http://www.w3.org/1999/xlink" xmlns="http://www.w3.org/2000/svg"><clipPath id="p.0"><path d="m0 0l256.0 0l0 256.0l-256.0 0l0 -256.0z" clip-rule="nonzero"/></clipPath><g clip-path="url(#p.0)"><path fill="#000000" fill-opacity="0.0" d="m0 0l256.0 0l0 256.0l-256.0 0z" fill-rule="evenodd"/><path fill="#7f6000" d="m0 65.05728l0 0c0 -35.930145 29.127136 -65.05728 65.05728 -65.05728l125.88544 0l0 0c17.254272 0 33.801834 6.8542295 46.00244 19.054836c12.200607 12.200607 19.05484 28.74818 19.05484 46.002445l0 125.88544c0 35.930145 -29.127136 65.05728 -65.05728 65.05728l-125.88544 0l0 0c-35.930145 0 -65.05728 -29.127136 -65.05728 -65.05728z" fill-rule="evenodd"/><path fill="#856502" d="m35.43832 79.86877l43.3727 -42.845146l32.262474 9.522312l49.719154 -20.627298l35.968506 13.223097l26.446198 -5.291336l14.280838 36.496063l-13.753281 49.719162l19.572174 65.58793l-37.026245 42.312332l-26.973755 -18.51181l-29.091858 33.32283l-39.669296 -17.454071l-53.42257 14.280838l-18.51181 -44.957993l-21.15748 -22.215225l16.396326 -25.91864l-13.750658 -32.79265z" fill-rule="evenodd"/><path fill="#bf9000" d="m-212.7506 44.66863l0 0c1.6174622 -1.617466 4.2398987 -1.617466 5.857361 0l11.714355 11.714359l0 0c0.7767334 0.7767334 1.2131042 1.8302078 1.2131042 2.9286766c0 1.098465 -0.43637085 2.1519432 -1.2131042 2.9286766l-154.55971 154.5597c-1.6174622 1.6174622 -4.239868 1.6174622 -5.8573303 0l-11.714355 -11.714355c-1.6174622 -1.6174622 -1.6174622 -4.2398987 0 -5.857361z" fill-rule="evenodd"/><path fill="#b28600" d="m-208.48938 55.73348l-21.689957 14.960453l-28.050156 35.529457l-18.700104 11.220802l-12.716675 18.700111l-26.55429 18.32521l-14.212524 20.195953l-20.570862 17.579147l-5.235504 13.464584l6.7313538 3.7396545l12.343628 -19.822922l21.691833 -12.716675l6.3583374 -13.837631l28.798096 -22.814636l4.4875793 -11.966888l19.82106 -13.837631l23.562576 -26.55429l21.69368 -17.952179z" fill-rule="evenodd"/><path fill="#999999" d="m-240.92398 31.69103l58.722702 58.722702l-37.030884 37.030884l-58.722702 -58.722702z" fill-rule="evenodd"/><path fill="#adadad" d="m-240.92398 19.347403l71.06633 71.06633l-12.343628 0l-58.722702 -58.722702z" fill-rule="evenodd"/><path fill="#7a7a7a" d="m-290.2985 68.72192l12.343628 0l58.722702 58.722702l0 12.343636z" fill-rule="evenodd"/><path fill="#c1c1c1" d="m-240.92398 19.347403l0 12.343628l-37.030884 37.030884l-12.343628 0z" fill-rule="evenodd"/><path fill="#5b5b5b" d="m-169.85765 90.413734l-49.37451 49.37452l0 -12.343636l37.030884 -37.030884z" fill-rule="evenodd"/><path fill="#000000" fill-opacity="0.0" d="m-240.92398 19.347403l71.06633 71.06633l-49.37451 49.37452l-71.06633 -71.06634zm0 12.343628l58.722702 58.722702l-37.030884 37.030884l-58.722702 -58.722702zm0 -12.343628l0 12.343628m-49.37451 37.030884l12.343628 0m108.09721 21.691818l-12.343628 0m-37.030884 49.37452l0 -12.343636" fill-rule="evenodd"/><path fill="#909090" d="m-252.82841 49.380318l22.35376 4.30011l12.893936 18.913246l17.19191 5.15757l2.1500702 19.341972l-21.489899 8.598099l-18.915375 -28.368797l-21.063293 -1.2904663z" fill-rule="evenodd"/><path fill="#bf9000" d="m-392.98386 62.24034l0 0c-1.6174622 -1.6174622 -1.6174622 -4.239891 0 -5.857353l11.714355 -11.714359l0 0c0.7767334 -0.7767334 1.8302307 -1.2131004 2.9286804 -1.2131004c1.0984802 0 2.151947 0.43636703 2.9286804 1.2131004l154.5597 154.5597c1.6174622 1.6174622 1.6174622 4.2398987 0 5.857361l-11.714355 11.714355c-1.6174622 1.6174622 -4.2398987 1.6174622 -5.857361 0z" fill-rule="evenodd"/><path fill="#b28600" d="m-381.919 57.979122l14.960449 21.689968l35.52948 28.050156l11.220795 18.700104l18.700104 12.716667l18.325195 26.55429l20.195984 14.212524l17.579132 20.570862l13.464584 5.235504l3.7396545 -6.731369l-19.822922 -12.343628l-12.716675 -21.691818l-13.837616 -6.3583374l-22.814667 -28.79808l-11.966858 -4.4875793l-13.8376465 -19.821075l-26.55429 -23.562576l-17.952179 -21.693676z" fill-rule="evenodd"/><path fill="#999999" d="m-405.96146 90.413734l58.722717 -58.722702l37.030884 37.030884l-58.722717 58.722702z" fill-rule="evenodd"/><path fill="#adadad" d="m-418.30508 90.413734l71.066345 -71.06633l0 12.343628l-58.722717 58.722702z" fill-rule="evenodd"/><path fill="#7a7a7a" d="m-368.93057 139.78825l0 -12.343636l58.722717 -58.722702l12.343628 0z" fill-rule="evenodd"/><path fill="#c1c1c1" d="m-418.30508 90.413734l12.343628 0l37.030884 37.030884l0 12.343636z" fill-rule="evenodd"/><path fill="#5b5b5b" d="m-347.23874 19.347403l49.37451 49.37451l-12.343628 0l-37.030884 -37.030884z" fill-rule="evenodd"/><path fill="#000000" fill-opacity="0.0" d="m-418.30508 90.413734l71.066345 -71.06633l49.37451 49.37451l-71.066345 71.06634zm12.343628 0l58.722717 -58.722702l37.030884 37.030884l-58.722717 58.722702zm-12.343628 0l12.343628 0m37.030884 49.37452l0 -12.343636m21.691833 -108.09721l0 12.343628m49.37451 37.030884l-12.343628 0" fill-rule="evenodd"/><path fill="#909090" d="m-388.27216 102.31817l4.30011 -22.35376l18.913239 -12.893936l5.1575623 -17.191921l19.34198 -2.150055l8.5980835 21.489895l-28.368774 18.915375l-1.2904663 21.063301z" fill-rule="evenodd"/><path fill="#cc0000" d="m191.6965 38.14877l0 0c2.4063263 -2.4063263 6.3077545 -2.4063263 8.714081 0l17.427643 17.42765l0 0c1.1555634 1.1555595 1.8047485 2.7228317 1.8047485 4.3570404c0 1.6342087 -0.6491852 3.2014847 -1.8047485 4.357044l-153.55362 153.55362c-2.40633 2.4063263 -6.3077583 2.4063263 -8.714085 0l-17.427647 -17.427643c-2.40633 -2.4063263 -2.40633 -6.3077545 0 -8.714081z" fill-rule="evenodd"/><path fill="#cc0000" d="m38.140846 64.2976l0 0c-2.4063263 -2.40633 -2.4063263 -6.3077583 0 -8.714088l17.427647 -17.427647l0 0c1.1555595 -1.1555595 2.7228355 -1.8047447 4.357044 -1.8047447c1.6342087 0 3.2014847 0.6491852 4.3570404 1.8047447l153.55363 153.55363c2.4063263 2.4063263 2.4063263 6.3077545 0 8.714081l-17.427643 17.427643c-2.4063263 2.4063263 -6.30777 2.4063263 -8.714096 0z" fill-rule="evenodd"/><path fill="#d91515" d="m51.593937 54.94257l13.529369 23.54417l37.72483 26.594208l9.567574 20.698196l20.343643 11.439148l16.575592 28.822037l21.856857 12.952362l17.069656 21.521896l15.5828705 3.3364258l6.279709 -9.303162l-21.836151 -10.705536l-10.724121 -24.080872l-15.781448 -4.650818l-21.652542 -30.557045l-13.889008 -2.7583847l-12.571419 -21.475914l-27.575577 -23.12333l-17.268242 -22.836319z" fill-rule="evenodd"/><path fill="#d91515" d="m201.05351 51.600777l-23.542068 13.529846l-26.589172 37.724304l-20.696625 9.5681l-11.436493 20.343224l-28.81945 16.576172l-12.949493 21.85643l-21.51942 17.06987l-3.3345146 15.582291l9.303692 6.2789764l10.702732 -21.835632l24.079063 -10.724747l4.6488724 -15.78093l30.553818 -21.65297l2.7566833 -13.8884735l21.473969 -12.571838l23.119568 -27.57537l22.83377 -17.268501z" fill-rule="evenodd"/></g></svg>