<svg version="1.1" viewBox="0.0 0.0 16.0 256.0" fill="none" stroke="none" stroke-linecap="square" stroke-miterlimit="10" xmlns:xlink="http://www.w3.org/1999/xlink" xmlns="http://www.w3.org/2000/svg"><clipPath id="p.0"><path d="m0 0l16.0 0l0 256.0l-16.0 0l0 -256.0z" clip-rule="nonzero"/></clipPath><g clip-path="url(#p.0)"><path fill="#666666" d="m0 0l16.0 0l0 256.0l-16.0 0z" fill-rule="evenodd"/><path fill="#848484" d="m2.66672 256.0092l0 0c-1.4727887 0 -2.66672 -1.193924 -2.66672 -2.6667175l0 -10.666565l0 0c0 -0.70726013 0.2809572 -1.3855438 0.7810642 -1.8856506c0.500107 -0.5001068 1.1783977 -0.7810669 1.8856556 -0.7810669l10.666559 0c1.4727888 0 2.6667204 1.193924 2.6667204 2.6667175l0 10.666565c0 1.4727936 -1.1939316 2.6667175 -2.6667204 2.6667175z" fill-rule="evenodd"/><path stroke="#666666" stroke-width="1.0" stroke-linejoin="round" stroke-linecap="butt" d="m2.66672 256.0092l0 0c-1.4727887 0 -2.66672 -1.193924 -2.66672 -2.6667175l0 -10.666565l0 0c0 -0.70726013 0.2809572 -1.3855438 0.7810642 -1.8856506c0.500107 -0.5001068 1.1783977 -0.7810669 1.8856556 -0.7810669l10.666559 0c1.4727888 0 2.6667204 1.193924 2.6667204 2.6667175l0 10.666565c0 1.4727936 -1.1939316 2.6667175 -2.6667204 2.6667175z" fill-rule="evenodd"/><path fill="#999999" d="m2.66672 240.00832l0 0c-1.4727887 0 -2.66672 -1.1939392 -2.66672 -2.6667175l0 -10.666565l0 0c0 -0.70726013 0.2809572 -1.3855438 0.7810642 -1.8856506c0.500107 -0.5001221 1.1783977 -0.7810669 1.8856556 -0.7810669l10.666559 0c1.4727888 0 2.6667204 1.193924 2.6667204 2.6667175l0 10.666565c0 1.4727783 -1.1939316 2.6667175 -2.6667204 2.6667175z" fill-rule="evenodd"/><path stroke="#666666" stroke-width="1.0" stroke-linejoin="round" stroke-linecap="butt" d="m2.66672 240.00832l0 0c-1.4727887 0 -2.66672 -1.1939392 -2.66672 -2.6667175l0 -10.666565l0 0c0 -0.70726013 0.2809572 -1.3855438 0.7810642 -1.8856506c0.500107 -0.5001221 1.1783977 -0.7810669 1.8856556 -0.7810669l10.666559 0c1.4727888 0 2.6667204 1.193924 2.6667204 2.6667175l0 10.666565c0 1.4727783 -1.1939316 2.6667175 -2.6667204 2.6667175z" fill-rule="evenodd"/><path fill="#b7b7b7" d="m2.66672 224.00743l0 0c-1.4727887 0 -2.66672 -1.193924 -2.66672 -2.6667175l0 -10.66655l0 0c0 -0.70726013 0.2809572 -1.3855591 0.7810642 -1.8856659c0.500107 -0.5001068 1.1783977 -0.7810669 1.8856556 -0.7810669l10.666559 0c1.4727888 0 2.6667204 1.1939392 2.6667204 2.6667328l0 10.66655c0 1.4727936 -1.1939316 2.6667175 -2.6667204 2.6667175z" fill-rule="evenodd"/><path stroke="#666666" stroke-width="1.0" stroke-linejoin="round" stroke-linecap="butt" d="m2.66672 224.00743l0 0c-1.4727887 0 -2.66672 -1.193924 -2.66672 -2.6667175l0 -10.66655l0 0c0 -0.70726013 0.2809572 -1.3855591 0.7810642 -1.8856659c0.500107 -0.5001068 1.1783977 -0.7810669 1.8856556 -0.7810669l10.666559 0c1.4727888 0 2.6667204 1.1939392 2.6667204 2.6667328l0 10.66655c0 1.4727936 -1.1939316 2.6667175 -2.6667204 2.6667175z" fill-rule="evenodd"/><path fill="#999999" d="m2.66672 208.00656l0 0c-1.4727887 0 -2.66672 -1.193924 -2.66672 -2.6667175l0 -10.666565l0 0c0 -0.70726013 0.2809572 -1.3855438 0.7810642 -1.8856506c0.500107 -0.5001068 1.1783977 -0.7810669 1.8856556 -0.7810669l10.666559 0c1.4727888 0 2.6667204 1.1939392 2.6667204 2.6667175l0 10.666565c0 1.4727936 -1.1939316 2.6667175 -2.6667204 2.6667175z" fill-rule="evenodd"/><path stroke="#666666" stroke-width="1.0" stroke-linejoin="round" stroke-linecap="butt" d="m2.66672 208.00656l0 0c-1.4727887 0 -2.66672 -1.193924 -2.66672 -2.6667175l0 -10.666565l0 0c0 -0.70726013 0.2809572 -1.3855438 0.7810642 -1.8856506c0.500107 -0.5001068 1.1783977 -0.7810669 1.8856556 -0.7810669l10.666559 0c1.4727888 0 2.6667204 1.1939392 2.6667204 2.6667175l0 10.666565c0 1.4727936 -1.1939316 2.6667175 -2.6667204 2.6667175z" fill-rule="evenodd"/><path fill="#848484" d="m2.66672 192.00394l0 0c-1.4727887 0 -2.66672 -1.193924 -2.66672 -2.6667175l0 -10.666565l0 0c0 -0.70726013 0.2809572 -1.3855438 0.7810642 -1.8856506c0.500107 -0.5001068 1.1783977 -0.7810669 1.8856556 -0.7810669l10.666559 0c1.4727888 0 2.6667204 1.193924 2.6667204 2.6667175l0 10.666565c0 1.4727936 -1.1939316 2.6667175 -2.6667204 2.6667175z" fill-rule="evenodd"/><path stroke="#666666" stroke-width="1.0" stroke-linejoin="round" stroke-linecap="butt" d="m2.66672 192.00394l0 0c-1.4727887 0 -2.66672 -1.193924 -2.66672 -2.6667175l0 -10.666565l0 0c0 -0.70726013 0.2809572 -1.3855438 0.7810642 -1.8856506c0.500107 -0.5001068 1.1783977 -0.7810669 1.8856556 -0.7810669l10.666559 0c1.4727888 0 2.6667204 1.193924 2.6667204 2.6667175l0 10.666565c0 1.4727936 -1.1939316 2.6667175 -2.6667204 2.6667175z" fill-rule="evenodd"/><path fill="#999999" d="m2.66672 176.00307l0 0c-1.4727887 0 -2.66672 -1.1939392 -2.66672 -2.6667175l0 -10.666565l0 0c0 -0.70726013 0.2809572 -1.3855438 0.7810642 -1.8856659c0.500107 -0.5001068 1.1783977 -0.78105164 1.8856556 -0.78105164l10.666559 0c1.4727888 0 2.6667204 1.193924 2.6667204 2.6667175l0 10.666565c0 1.4727783 -1.1939316 2.6667175 -2.6667204 2.6667175z" fill-rule="evenodd"/><path stroke="#666666" stroke-width="1.0" stroke-linejoin="round" stroke-linecap="butt" d="m2.66672 176.00307l0 0c-1.4727887 0 -2.66672 -1.1939392 -2.66672 -2.6667175l0 -10.666565l0 0c0 -0.70726013 0.2809572 -1.3855438 0.7810642 -1.8856659c0.500107 -0.5001068 1.1783977 -0.78105164 1.8856556 -0.78105164l10.666559 0c1.4727888 0 2.6667204 1.193924 2.6667204 2.6667175l0 10.666565c0 1.4727783 -1.1939316 2.6667175 -2.6667204 2.6667175z" fill-rule="evenodd"/><path fill="#b7b7b7" d="m2.66672 160.00218l0 0c-1.4727887 0 -2.66672 -1.193924 -2.66672 -2.6667175l0 -10.66655l0 0c0 -0.70726013 0.2809572 -1.3855591 0.7810642 -1.8856659c0.500107 -0.5001068 1.1783977 -0.7810669 1.8856556 -0.7810669l10.666559 0c1.4727888 0 2.6667204 1.1939392 2.6667204 2.6667328l0 10.66655c0 1.4727936 -1.1939316 2.6667175 -2.6667204 2.6667175z" fill-rule="evenodd"/><path stroke="#666666" stroke-width="1.0" stroke-linejoin="round" stroke-linecap="butt" d="m2.66672 160.00218l0 0c-1.4727887 0 -2.66672 -1.193924 -2.66672 -2.6667175l0 -10.66655l0 0c0 -0.70726013 0.2809572 -1.3855591 0.7810642 -1.8856659c0.500107 -0.5001068 1.1783977 -0.7810669 1.8856556 -0.7810669l10.666559 0c1.4727888 0 2.6667204 1.1939392 2.6667204 2.6667328l0 10.66655c0 1.4727936 -1.1939316 2.6667175 -2.6667204 2.6667175z" fill-rule="evenodd"/><path fill="#999999" d="m2.66672 144.00131l0 0c-1.4727887 0 -2.66672 -1.193924 -2.66672 -2.6667175l0 -10.666565l0 0c0 -0.70726013 0.2809572 -1.3855438 0.7810642 -1.8856506c0.500107 -0.5001068 1.1783977 -0.7810669 1.8856556 -0.7810669l10.666559 0c1.4727888 0 2.6667204 1.193924 2.6667204 2.6667175l0 10.666565c0 1.4727936 -1.1939316 2.6667175 -2.6667204 2.6667175z" fill-rule="evenodd"/><path stroke="#666666" stroke-width="1.0" stroke-linejoin="round" stroke-linecap="butt" d="m2.66672 144.00131l0 0c-1.4727887 0 -2.66672 -1.193924 -2.66672 -2.6667175l0 -10.666565l0 0c0 -0.70726013 0.2809572 -1.3855438 0.7810642 -1.8856506c0.500107 -0.5001068 1.1783977 -0.7810669 1.8856556 -0.7810669l10.666559 0c1.4727888 0 2.6667204 1.193924 2.6667204 2.6667175l0 10.666565c0 1.4727936 -1.1939316 2.6667175 -2.6667204 2.6667175z" fill-rule="evenodd"/><path fill="#848484" d="m2.66672 127.99869l0 0c-1.4727887 0 -2.66672 -1.1939316 -2.66672 -2.6667175l0 -10.666565l0 0c0 -0.7072525 0.2809572 -1.3855438 0.7810642 -1.8856506c0.500107 -0.5001068 1.1783977 -0.7810669 1.8856556 -0.7810669l10.666559 0c1.4727888 0 2.6667204 1.1939316 2.6667204 2.6667175l0 10.666565c0 1.472786 -1.1939316 2.6667175 -2.6667204 2.6667175z" fill-rule="evenodd"/><path stroke="#666666" stroke-width="1.0" stroke-linejoin="round" stroke-linecap="butt" d="m2.66672 127.99869l0 0c-1.4727887 0 -2.66672 -1.1939316 -2.66672 -2.6667175l0 -10.666565l0 0c0 -0.7072525 0.2809572 -1.3855438 0.7810642 -1.8856506c0.500107 -0.5001068 1.1783977 -0.7810669 1.8856556 -0.7810669l10.666559 0c1.4727888 0 2.6667204 1.1939316 2.6667204 2.6667175l0 10.666565c0 1.472786 -1.1939316 2.6667175 -2.6667204 2.6667175z" fill-rule="evenodd"/><path fill="#999999" d="m2.66672 111.99781l0 0c-1.4727887 0 -2.66672 -1.1939316 -2.66672 -2.6667175l0 -10.666557l0 0c0 -0.70726013 0.2809572 -1.3855515 0.7810642 -1.8856583c0.500107 -0.5001068 1.1783977 -0.7810669 1.8856556 -0.7810669l10.666559 0c1.4727888 0 2.6667204 1.1939316 2.6667204 2.6667252l0 10.666557c0 1.472786 -1.1939316 2.6667175 -2.6667204 2.6667175z" fill-rule="evenodd"/><path stroke="#666666" stroke-width="1.0" stroke-linejoin="round" stroke-linecap="butt" d="m2.66672 111.99781l0 0c-1.4727887 0 -2.66672 -1.1939316 -2.66672 -2.6667175l0 -10.666557l0 0c0 -0.70726013 0.2809572 -1.3855515 0.7810642 -1.8856583c0.500107 -0.5001068 1.1783977 -0.7810669 1.8856556 -0.7810669l10.666559 0c1.4727888 0 2.6667204 1.1939316 2.6667204 2.6667252l0 10.666557c0 1.472786 -1.1939316 2.6667175 -2.6667204 2.6667175z" fill-rule="evenodd"/><path fill="#b7b7b7" d="m2.66672 95.99694l0 0c-1.4727887 0 -2.66672 -1.1939316 -2.66672 -2.6667252l0 -10.666557l0 0c0 -0.70726013 0.2809572 -1.3855515 0.7810642 -1.8856583c0.500107 -0.5001068 1.1783977 -0.78105927 1.8856556 -0.78105927l10.666559 0c1.4727888 0 2.6667204 1.1939316 2.6667204 2.6667175l0 10.666557c0 1.4727936 -1.1939316 2.6667252 -2.6667204 2.6667252z" fill-rule="evenodd"/><path stroke="#666666" stroke-width="1.0" stroke-linejoin="round" stroke-linecap="butt" d="m2.66672 95.99694l0 0c-1.4727887 0 -2.66672 -1.1939316 -2.66672 -2.6667252l0 -10.666557l0 0c0 -0.70726013 0.2809572 -1.3855515 0.7810642 -1.8856583c0.500107 -0.5001068 1.1783977 -0.78105927 1.8856556 -0.78105927l10.666559 0c1.4727888 0 2.6667204 1.1939316 2.6667204 2.6667175l0 10.666557c0 1.4727936 -1.1939316 2.6667252 -2.6667204 2.6667252z" fill-rule="evenodd"/><path fill="#999999" d="m2.66672 79.99606l0 0c-1.4727887 0 -2.66672 -1.1939316 -2.66672 -2.6667175l0 -10.666565l0 0c0 -0.7072525 0.2809572 -1.3855438 0.7810642 -1.8856506c0.500107 -0.5001068 1.1783977 -0.7810669 1.8856556 -0.7810669l10.666559 0c1.4727888 0 2.6667204 1.1939316 2.6667204 2.6667175l0 10.666565c0 1.472786 -1.1939316 2.6667175 -2.6667204 2.6667175z" fill-rule="evenodd"/><path stroke="#666666" stroke-width="1.0" stroke-linejoin="round" stroke-linecap="butt" d="m2.66672 79.99606l0 0c-1.4727887 0 -2.66672 -1.1939316 -2.66672 -2.6667175l0 -10.666565l0 0c0 -0.7072525 0.2809572 -1.3855438 0.7810642 -1.8856506c0.500107 -0.5001068 1.1783977 -0.7810669 1.8856556 -0.7810669l10.666559 0c1.4727888 0 2.6667204 1.1939316 2.6667204 2.6667175l0 10.666565c0 1.472786 -1.1939316 2.6667175 -2.6667204 2.6667175z" fill-rule="evenodd"/><path fill="#848484" d="m2.66672 63.99344l0 0c-1.4727887 0 -2.66672 -1.1939316 -2.66672 -2.6667213l0 -10.666561l0 0c0 -0.7072563 0.2809572 -1.3855476 0.7810642 -1.8856544c0.500107 -0.5001068 1.1783977 -0.7810631 1.8856556 -0.7810631l10.666559 0c1.4727888 0 2.6667204 1.1939316 2.6667204 2.6667175l0 10.666561c0 1.4727898 -1.1939316 2.6667213 -2.6667204 2.6667213z" fill-rule="evenodd"/><path stroke="#666666" stroke-width="1.0" stroke-linejoin="round" stroke-linecap="butt" d="m2.66672 63.99344l0 0c-1.4727887 0 -2.66672 -1.1939316 -2.66672 -2.6667213l0 -10.666561l0 0c0 -0.7072563 0.2809572 -1.3855476 0.7810642 -1.8856544c0.500107 -0.5001068 1.1783977 -0.7810631 1.8856556 -0.7810631l10.666559 0c1.4727888 0 2.6667204 1.1939316 2.6667204 2.6667175l0 10.666561c0 1.4727898 -1.1939316 2.6667213 -2.6667204 2.6667213z" fill-rule="evenodd"/><path fill="#999999" d="m2.66672 47.992565l0 0c-1.4727887 0 -2.66672 -1.1939316 -2.66672 -2.6667213l0 -10.666561l0 0c0 -0.7072563 0.2809572 -1.3855476 0.7810642 -1.8856544c0.500107 -0.5001068 1.1783977 -0.781065 1.8856556 -0.781065l10.666559 0c1.4727888 0 2.6667204 1.1939297 2.6667204 2.6667194l0 10.666561c0 1.4727898 -1.1939316 2.6667213 -2.6667204 2.6667213z" fill-rule="evenodd"/><path stroke="#666666" stroke-width="1.0" stroke-linejoin="round" stroke-linecap="butt" d="m2.66672 47.992565l0 0c-1.4727887 0 -2.66672 -1.1939316 -2.66672 -2.6667213l0 -10.666561l0 0c0 -0.7072563 0.2809572 -1.3855476 0.7810642 -1.8856544c0.500107 -0.5001068 1.1783977 -0.781065 1.8856556 -0.781065l10.666559 0c1.4727888 0 2.6667204 1.1939297 2.6667204 2.6667194l0 10.666561c0 1.4727898 -1.1939316 2.6667213 -2.6667204 2.6667213z" fill-rule="evenodd"/><path fill="#b7b7b7" d="m2.66672 31.991688l0 0c-1.4727887 0 -2.66672 -1.1939297 -2.66672 -2.6667194l0 -10.666559l0 0c0 -0.7072582 0.2809572 -1.3855495 0.7810642 -1.8856564c0.500107 -0.5001068 1.1783977 -0.78106403 1.8856556 -0.78106403l10.666559 0c1.4727888 0 2.6667204 1.1939306 2.6667204 2.6667204l0 10.666559c0 1.4727898 -1.1939316 2.6667194 -2.6667204 2.6667194z" fill-rule="evenodd"/><path stroke="#666666" stroke-width="1.0" stroke-linejoin="round" stroke-linecap="butt" d="m2.66672 31.991688l0 0c-1.4727887 0 -2.66672 -1.1939297 -2.66672 -2.6667194l0 -10.666559l0 0c0 -0.7072582 0.2809572 -1.3855495 0.7810642 -1.8856564c0.500107 -0.5001068 1.1783977 -0.78106403 1.8856556 -0.78106403l10.666559 0c1.4727888 0 2.6667204 1.1939306 2.6667204 2.6667204l0 10.666559c0 1.4727898 -1.1939316 2.6667194 -2.6667204 2.6667194z" fill-rule="evenodd"/><path fill="#999999" d="m2.66672 15.990814l0 0c-1.4727887 0 -2.66672 -1.1939316 -2.66672 -2.6667204l0 -10.66656l0 0c0 -0.7072581 0.2809572 -1.3855487 0.7810642 -1.8856558c0.500107 -0.50010705 1.1783977 -0.7810642 1.8856556 -0.7810642l10.666559 0c1.4727888 0 2.6667204 1.1939311 2.6667204 2.66672l0 10.66656c0 1.4727888 -1.1939316 2.6667204 -2.6667204 2.6667204z" fill-rule="evenodd"/><path stroke="#666666" stroke-width="1.0" stroke-linejoin="round" stroke-linecap="butt" d="m2.66672 15.990814l0 0c-1.4727887 0 -2.66672 -1.1939316 -2.66672 -2.6667204l0 -10.66656l0 0c0 -0.7072581 0.2809572 -1.3855487 0.7810642 -1.8856558c0.500107 -0.50010705 1.1783977 -0.7810642 1.8856556 -0.7810642l10.666559 0c1.4727888 0 2.6667204 1.1939311 2.6667204 2.66672l0 10.66656c0 1.4727888 -1.1939316 2.6667204 -2.6667204 2.6667204z" fill-rule="evenodd"/></g></svg>