<svg version="1.1" viewBox="0.0 0.0 1024.0 512.0" fill="none" stroke="none" stroke-linecap="square" stroke-miterlimit="10" xmlns:xlink="http://www.w3.org/1999/xlink" xmlns="http://www.w3.org/2000/svg"><clipPath id="p.0"><path d="m0 0l1024.0 0l0 512.0l-1024.0 0l0 -512.0z" clip-rule="nonzero"/></clipPath><g clip-path="url(#p.0)"><path fill="#60a9de" d="m0 0l1024.0 0l0 512.0l-1024.0 0z" fill-rule="evenodd"/><path fill="#64abe0" d="m25.257217 129.65092l96.26509 -80.39633l81.45407 30.677162l92.03412 -44.42782l57.123352 28.561684l116.36484 -8.464569l59.23886 46.54593l-3.1732178 66.64567l-77.223114 47.603683l59.23883 103.66928l-95.20734 25.388458l-98.380585 -19.041992l-98.37796 45.48819l-85.68765 -42.314972l34.91075 -41.254578l-90.97637 -45.488205l10.580055 -56.065613l-64.53019 -21.157486z" fill-rule="evenodd"/><path fill="#64abe0" d="m687.6037 303.9008l53.3161 -17.77301l47.38983 -11.846741l41.46936 -28.435059l61.608826 -23.696365l59.239502 21.327026l33.173706 61.60881l0 43.838745l-30.804382 29.619751l27.250366 73.455536l-58.05475 36.727753l-58.05481 -34.35843l-66.347534 21.327057l-77.01251 -30.804413l51.48181 -36.886505l-49.327026 -24.663513l0.21459961 -29.678558l-29.466919 -12.190643z" fill-rule="evenodd"/><path fill="#64abe0" d="m677.7533 99.63517l81.45404 -47.601048l96.26245 21.154858l66.64569 -41.254597l58.18109 24.330708l-10.577393 58.181107l-53.950134 19.041992l-53.950134 21.157486l-60.299194 -9.522324l-13.750671 32.795288l-69.81891 -14.811035l-33.850403 39.139114l-40.199463 -17.981628l24.330688 -32.795273l-33.850403 -29.619423l-7.404175 -44.427826z" fill-rule="evenodd"/><path fill="#64abe0" d="m60.29659 464.39633l46.545933 -25.388458l55.007866 15.868774l31.737534 -22.21524l46.54332 13.750671l15.868759 -7.4042053l25.388458 16.926514l63.46982 3.1732178l-1.0577393 26.446198l-61.35434 13.753296l-66.645676 -4.233612l-42.312332 11.637787l-77.2231 -12.695526l-60.299213 7.40683z" fill-rule="evenodd"/></g></svg>