<svg version="1.1" viewBox="0.0 0.0 256.0 256.0" fill="none" stroke="none" stroke-linecap="square" stroke-miterlimit="10" xmlns:xlink="http://www.w3.org/1999/xlink" xmlns="http://www.w3.org/2000/svg"><clipPath id="p.0"><path d="m0 0l256.0 0l0 256.0l-256.0 0l0 -256.0z" clip-rule="nonzero"/></clipPath><g clip-path="url(#p.0)"><path fill="#666666" d="m0 0l256.0 0l0 256.0l-256.0 0z" fill-rule="evenodd"/><path fill="#000000" fill-opacity="0.0" d="m0 0l256.0 0l0 256.0l-256.0 0z" fill-rule="evenodd"/><path stroke="#000000" stroke-width="1.0" stroke-linejoin="round" stroke-linecap="butt" d="m0 0l256.0 0l0 256.0l-256.0 0z" fill-rule="evenodd"/><path fill="#ffff00" d="m121.659 152.5q-0.078125 -2.34375 -0.078125 -3.515625q0 -6.90625 1.953125 -11.921875q1.4375 -3.765625 4.625 -7.609375q2.34375 -2.796875 8.421875 -8.171875q6.09375 -5.375 7.921875 -8.5625q1.828125 -3.1875 1.828125 -6.96875q0 -6.828125 -5.34375 -12.0q-5.34375 -5.1875 -13.078125 -5.1875q-7.5 0 -12.515625 4.6875q-5.0 4.6875 -6.5625 14.65625l-12.046875 -1.4375q1.625 -13.34375 9.65625 -20.4375q8.046875 -7.09375 21.265625 -7.09375q14.0 0 22.328125 7.625q8.328125 7.609375 8.328125 18.40625q0 6.25 -2.921875 11.53125q-2.921875 5.265625 -11.453125 12.828125q-5.734375 5.078125 -7.5 7.484375q-1.75 2.40625 -2.59375 5.53125q-0.84375 3.125 -0.984375 10.15625l-11.25 0zm-0.71875 23.5l0 -13.34375l13.34375 0l0 13.34375l-13.34375 0z" fill-rule="nonzero"/></g></svg>