<svg version="1.1" viewBox="0.0 0.0 256.0 256.0" fill="none" stroke="none" stroke-linecap="square" stroke-miterlimit="10" xmlns:xlink="http://www.w3.org/1999/xlink" xmlns="http://www.w3.org/2000/svg"><clipPath id="p.0"><path d="m0 0l256.0 0l0 256.0l-256.0 0l0 -256.0z" clip-rule="nonzero"/></clipPath><g clip-path="url(#p.0)"><path fill="#a4c2f4" d="m0 0l256.0 0l0 256.0l-256.0 0z" fill-rule="evenodd"/><path fill="#cfe2f3" d="m312.791 230.67754c-5.9943237 -5.55336 -13.044617 -32.08748 -12.16272 -33.850388c0.88186646 -1.7629089 13.839874 23.62555 17.454071 23.272964c3.6141663 -0.35258484 2.1154785 -25.123795 4.230957 -25.388458c2.1154785 -0.26464844 5.376648 22.919083 8.461945 23.800537c3.0852966 0.88145447 9.080048 -20.451004 10.049866 -18.51181c0.9698181 1.9391937 0.44137573 25.034119 -4.230957 30.146973c-4.6723633 5.1128693 -17.808838 6.083557 -23.803162 0.5301819z" fill-rule="evenodd"/><path fill="#cfe2f3" d="m399.20306 219.1736c-5.9943237 -5.55336 -13.044617 -32.08748 -12.16275 -33.850388c0.881897 -1.7629089 13.839905 23.62555 17.454071 23.272964c3.6141968 -0.35258484 2.115509 -25.123795 4.2309875 -25.388458c2.1154785 -0.26464844 5.376648 22.919083 8.461945 23.800537c3.0852966 0.88145447 9.080048 -20.451004 10.049866 -18.51181c0.9698181 1.9391937 0.44137573 25.034119 -4.2309875 30.146973c-4.672333 5.1128693 -17.808838 6.083557 -23.803131 0.5301819z" fill-rule="evenodd"/><path fill="#cfe2f3" d="m475.3684 234.5778c-5.9943237 -5.5533752 -13.044617 -32.087494 -12.16272 -33.850388c0.881897 -1.7629089 13.839874 23.625534 17.454071 23.272964c3.6141663 -0.35258484 2.1154785 -25.12381 4.230957 -25.388458c2.1154785 -0.26464844 5.376648 22.919067 8.461945 23.800522c3.0852966 0.88145447 9.080048 -20.451004 10.049866 -18.51181c0.9698181 1.9391937 0.44137573 25.034119 -4.230957 30.146988c-4.6723633 5.112854 -17.808838 6.083557 -23.803162 0.5301819z" fill-rule="evenodd"/><path fill="#cfe2f3" d="m293.88284 152.26285c-5.994293 -5.5533752 -13.044617 -32.087494 -12.16272 -33.850395c0.881897 -1.7629089 13.839905 23.625542 17.454071 23.272957c3.6141663 -0.35256958 2.1154785 -25.123795 4.230957 -25.388443c2.1154785 -0.26465607 5.376648 22.919067 8.461945 23.800522c3.0852966 0.88145447 9.080048 -20.451004 10.049866 -18.51181c0.9698181 1.9391937 0.44137573 25.034119 -4.230957 30.146988c-4.6723633 5.112854 -17.808838 6.083542 -23.803162 0.5301819z" fill-rule="evenodd"/><path fill="#cfe2f3" d="m378.02847 172.1753c-6.539215 -6.058182 -14.230377 -35.004242 -13.268341 -36.9274c0.96206665 -1.9231567 15.097961 25.773102 19.04065 25.388474c3.9427185 -0.3846283 2.3078003 -27.407547 4.61557 -27.696259c2.3078003 -0.28871155 5.865387 25.00241 9.23114 25.96399c3.3657532 0.96157837 9.905426 -22.309998 10.963409 -20.194534c1.0579529 2.1154633 0.48150635 27.309723 -4.61557 32.887344c-5.0970764 5.5776215 -19.427673 6.636551 -25.966858 0.5783844z" fill-rule="evenodd"/><path fill="#cfe2f3" d="m119.90122 61.026623c-5.994316 -5.5533676 -13.044624 -32.087486 -12.162727 -33.850395c0.88188934 -1.7629051 13.83989 23.625547 17.454063 23.272966c3.614174 -0.35258102 2.1154861 -25.123798 4.2309647 -25.388453c2.1154938 -0.26465416 5.376648 22.919073 8.461945 23.800524c3.085312 0.88145447 9.080063 -20.451004 10.049881 -18.51181c0.96980286 1.9391975 0.44137573 25.034122 -4.2309723 30.146984c-4.6723633 5.112858 -17.808846 6.0835533 -23.803154 0.5301819z" fill-rule="evenodd"/><path fill="#cfe2f3" d="m469.25555 42.709038c-5.9943237 -5.5533676 -13.044617 -32.08749 -12.16272 -33.850395c0.88186646 -1.7629042 13.839874 23.62555 17.45404 23.272968c3.6141968 -0.35258293 2.115509 -25.123798 4.2309875 -25.388453c2.1154785 -0.26465464 5.376648 22.919073 8.461945 23.800526c3.0852966 0.88145065 9.080048 -20.451008 10.049866 -18.511812c0.9698181 1.9391956 0.44137573 25.034122 -4.230957 30.14698c-4.6723633 5.1128616 -17.808838 6.0835533 -23.803162 0.5301857z" fill-rule="evenodd"/><path fill="#cfe2f3" d="m467.3684 111.00825c-5.9943237 -5.5533676 -13.044617 -32.087486 -12.16272 -33.850388c0.881897 -1.7629089 13.839874 23.625542 17.454071 23.272964c3.6141663 -0.35258484 2.1154785 -25.123802 4.230957 -25.38845c2.1154785 -0.26465607 5.376648 22.919067 8.461945 23.800522c3.0852966 0.88145447 9.080048 -20.451004 10.049866 -18.51181c0.9698181 1.9391937 0.44137573 25.034119 -4.230957 30.14698c-4.6723633 5.1128616 -17.808838 6.0835495 -23.803162 0.5301819z" fill-rule="evenodd"/><path fill="#cfe2f3" d="m456.1952 170.71165c-5.9943237 -5.55336 -13.044617 -32.08748 -12.16275 -33.850388c0.881897 -1.7629089 13.839905 23.62555 17.454071 23.272964c3.6141968 -0.35258484 2.115509 -25.123795 4.2309875 -25.388443c2.1154785 -0.2646637 5.376648 22.919067 8.461945 23.800522c3.0852966 0.88145447 9.080048 -20.451004 10.049866 -18.51181c0.9698181 1.9391937 0.44137573 25.034119 -4.2309875 30.146973c-4.672333 5.1128693 -17.808838 6.083557 -23.803131 0.5301819z" fill-rule="evenodd"/><path fill="#cfe2f3" d="m347.0062 87.60405c-5.994293 -5.5533676 -13.044617 -32.087486 -12.16272 -33.85039c0.881897 -1.7629051 13.839905 23.625546 17.454071 23.272968c3.6141663 -0.35258484 2.1154785 -25.123802 4.230957 -25.388454c2.115509 -0.26465607 5.376648 22.919071 8.461945 23.800526c3.0853271 0.88145447 9.080078 -20.451008 10.049866 -18.511814c0.9698181 1.9391975 0.44140625 25.034122 -4.230957 30.146984c-4.6723633 5.1128616 -17.808838 6.0835495 -23.803162 0.5301819z" fill-rule="evenodd"/><path fill="#cfe2f3" d="m39.029205 40.351257c2.6993713 -0.62107086 0.16775131 -14.164726 1.290596 -17.055155c1.1228409 -2.8904266 4.5148582 -3.106081 5.4464607 -0.28741455c0.9316025 2.8186665 -1.6244316 16.626066 0.14315414 17.199415c1.7675858 0.5733528 8.049847 -11.848202 10.462357 -13.75931c2.4125137 -1.911108 5.087658 -0.5498619 4.012718 2.2926636c-1.0749397 2.8425255 -11.818428 12.555826 -10.46236 14.762487c1.3560677 2.2066612 15.414074 -2.1175117 18.598759 -1.522522c3.1846924 0.5949898 3.8627243 4.116287 0.50936127 5.0924644c-3.353363 0.9761772 -20.07782 -1.2306709 -20.629532 0.7645912c-0.55171204 1.9952621 14.814644 8.702541 17.31926 11.206974c2.5046234 2.5044327 0.8496704 4.92342 -2.2915497 3.8196259c-3.141224 -1.1037903 -13.923733 -11.800854 -16.555782 -10.442383c-2.6320496 1.3584709 1.4002686 15.494343 0.76348114 18.593212c-0.6367912 3.0988693 -3.4364052 3.271614 -4.584217 0c-1.1478119 -3.271614 0.07434845 -19.290112 -2.3026505 -19.62968c-2.3770027 -0.3395729 -9.164553 15.084118 -11.95936 17.59225c-2.7948074 2.508133 -5.942873 0.77069855 -4.8094883 -2.543457c1.1333847 -3.3141518 13.019131 -14.714031 11.609798 -17.341457c-1.4093323 -2.6274261 -16.64012 2.16819 -20.0658 1.5768967c-3.4256792 -0.5912895 -3.880291 -4.1212807 -0.48827267 -5.124645c3.3920174 -1.0033646 19.994593 1.4513168 20.840376 -0.89553833c0.84578705 -2.3468513 -13.806841 -10.247627 -15.765667 -13.185589c-1.9588242 -2.9379597 0.8596573 -5.9232674 4.0127163 -4.442173c3.153059 1.4810944 12.20627 13.94981 14.905642 13.328743z" fill-rule="evenodd"/><path fill="#cfe2f3" d="m-77.718956 19.74575c2.6993713 -0.62106895 0.16775513 -14.164726 1.290596 -17.055153c1.1228409 -2.890428 4.514862 -3.106082 5.4464645 -0.28741527c0.9316025 2.818667 -1.6244354 16.626064 0.14315033 17.199415c1.7675858 0.5733509 8.049847 -11.848202 10.46236 -13.75931c2.41251 -1.9111078 5.087654 -0.5498619 4.0127144 2.2926636c-1.0749397 2.8425255 -11.818428 12.555828 -10.462357 14.762489c1.3560638 2.2066612 15.414074 -2.1175137 18.598759 -1.5225239c3.1846886 0.5949898 3.8627205 4.116289 0.50935745 5.0924644c-3.353363 0.9761772 -20.07782 -1.230669 -20.629532 0.7645912c-0.55171204 1.9952621 14.814648 8.702541 17.319263 11.206974c2.5046196 2.5044327 0.8496704 4.92342 -2.2915535 3.8196259c-3.141224 -1.1037903 -13.923729 -11.800854 -16.555779 -10.442383c-2.6320572 1.3584709 1.4002686 15.494343 0.76348114 18.593212c-0.63679504 3.0988693 -3.436409 3.271614 -4.584221 0c-1.1478119 -3.271614 0.07434845 -19.29011 -2.3026505 -19.629683c-2.376999 -0.339571 -9.164551 15.08412 -11.959358 17.592253c-2.7948074 2.508133 -5.942871 0.77069473 -4.8094864 -2.543457c1.1333847 -3.3141518 13.019127 -14.714031 11.609795 -17.34146c-1.4093323 -2.6274261 -16.640121 2.168192 -20.065796 1.5769005c-3.425682 -0.5912914 -3.8802948 -4.1212826 -0.48827362 -5.124647c3.3920135 -1.0033627 19.99459 1.4513187 20.840378 -0.8955364c0.84578705 -2.3468552 -13.806847 -10.247629 -15.765671 -13.18559c-1.9588242 -2.9379606 0.8596573 -5.923269 4.012718 -4.442174c3.153061 1.4810944 12.206268 13.94981 14.90564 13.328743z" fill-rule="evenodd"/><path fill="#cfe2f3" d="m217.31056 27.671112c2.0462494 -0.47079659 0.12716675 -10.737452 0.9783325 -12.928516c0.8511658 -2.1910648 3.4224548 -2.3545399 4.128647 -0.21787262c0.706192 2.1366673 -1.2313843 12.603249 0.10850525 13.037872c1.3399048 0.43462372 6.102127 -8.98143 7.930908 -10.43013c1.8287811 -1.448699 3.856659 -0.41681862 3.041809 1.7379341c-0.81484985 2.1547527 -8.958862 9.517841 -7.930908 11.190582c1.0279541 1.6727409 11.684509 -1.6051636 14.098633 -1.1541367c2.4141235 0.45102692 2.9281006 3.1203194 0.38612366 3.860302c-2.5419922 0.7399788 -15.219833 -0.9329014 -15.638046 0.57958984c-0.41822815 1.5124893 11.230118 6.5968895 13.128723 8.495354c1.8986053 1.8984642 0.64408875 3.7321548 -1.7370911 2.8954353c-2.3811798 -0.8367195 -10.554779 -8.945538 -12.549973 -7.91576c-1.9952087 1.0297775 1.0614624 11.7453575 0.5787506 14.094429c-0.4827118 2.3490715 -2.60495 2.4800186 -3.4750366 0c-0.87008667 -2.4800186 0.056365967 -14.622707 -1.7454987 -14.880119c-1.8018646 -0.25740814 -6.947113 11.434391 -9.065689 13.335663c-2.1185913 1.901268 -4.504944 0.5842171 -3.6457977 -1.9280472c0.8591461 -2.512268 9.869049 -11.153851 8.800705 -13.14555c-1.0683289 -1.9916954 -12.613892 1.6435814 -15.210709 1.1953583c-2.5968018 -0.4482231 -2.9414215 -3.1241035 -0.37013245 -3.884697c2.571289 -0.7605915 15.156738 1.1001587 15.797882 -0.678854c0.6411438 -1.7790127 -10.466171 -7.7681293 -11.951035 -9.995226c-1.4848785 -2.2270966 0.6516571 -4.4900837 3.041809 -3.3673534c2.390152 1.1227322 9.252853 10.574537 11.299088 10.103743z" fill-rule="evenodd"/><path fill="#cfe2f3" d="m-103.90303 124.514534c2.424202 -0.5577545 0.15065765 -12.720779 1.1590347 -15.316559c1.0083847 -2.5957794 4.054619 -2.7894516 4.8912506 -0.25811768c0.8366394 2.531334 -1.4588318 14.931213 0.12856293 15.446121c1.5874023 0.5149002 7.229248 -10.640404 9.395828 -12.356697c2.1665878 -1.7162933 4.569023 -0.49380493 3.6036682 2.0589523c-0.96536255 2.5527573 -10.613663 11.275894 -9.395836 13.2576065c1.2178345 1.98172 13.842773 -1.9016571 16.702812 -1.3673172c2.8600464 0.5343399 3.468956 3.6966782 0.4574356 4.5733414c-3.0115204 0.8766632 -18.031097 -1.1052094 -18.526566 0.6866455c-0.49547577 1.7918701 13.304443 7.8154144 15.553741 10.064545c2.2493057 2.2491302 0.7630615 4.421524 -2.057953 3.430252c-2.8210068 -0.991272 -12.504349 -10.59787 -14.868095 -9.377884c-2.363739 1.219986 1.2575302 13.914856 0.6856537 16.69783c-0.5718765 2.7829742 -3.0860977 2.9381104 -4.116905 0c-1.0307999 -2.9381104 0.06677246 -17.323685 -2.0679169 -17.628647c-2.1346893 -0.30496216 -8.230324 13.546448 -10.740227 15.798904c-2.5099106 2.2524567 -5.3370667 0.6921387 -4.319214 -2.2841797c1.0178452 -2.976303 11.691971 -13.214081 10.4263 -15.573669c-1.2656631 -2.3595886 -14.943832 1.9471588 -18.020302 1.416153c-3.0764694 -0.5310211 -3.4847336 -3.7011719 -0.43849945 -4.602249c3.0462418 -0.9010773 17.95636 1.3033752 18.71592 -0.804245c0.75956726 -2.1076202 -12.399376 -9.202995 -14.158524 -11.841461c-1.75914 -2.638466 0.77202606 -5.3194504 3.6036606 -3.9893417c2.8316422 1.3301163 10.961975 12.527779 13.386169 11.9700165z" fill-rule="evenodd"/><path fill="#cfe2f3" d="m203.59618 117.443115c2.6993713 -0.62106323 0.16773987 -14.164726 1.2905884 -17.055153c1.1228485 -2.8904266 4.514862 -3.106079 5.446457 -0.28741455c0.9316101 2.8186646 -1.6244202 16.626068 0.14315796 17.199417c1.7675934 0.573349 8.04985 -11.848206 10.462357 -13.759308c2.4125214 -1.9111099 5.0876617 -0.5498657 4.012726 2.2926636c-1.0749512 2.8425217 -11.818436 12.555824 -10.462357 14.762489c1.3560638 2.2066574 15.4140625 -2.1175156 18.598755 -1.5225296c3.1846924 0.5949936 3.8627167 4.116295 0.50935364 5.0924683c-3.353363 0.9761734 -20.07782 -1.2306671 -20.629532 0.7645874c-0.55171204 1.9952621 14.8146515 8.702538 17.31926 11.206978c2.5046234 2.5044403 0.8496704 4.923416 -2.2915497 3.8196259c-3.14122 -1.1037903 -13.923737 -11.800858 -16.555786 -10.442383c-2.6320496 1.3584747 1.4002686 15.494339 0.76348877 18.593216c-0.63679504 3.0988617 -3.4364014 3.2716064 -4.5842133 0c-1.1478119 -3.2716217 0.07434082 -19.290115 -2.302658 -19.629684c-2.376999 -0.3395691 -9.164551 15.084122 -11.959351 17.592255c-2.794815 2.508133 -5.9428864 0.7706909 -4.809494 -2.543457c1.1333771 -3.3141632 13.0191345 -14.714035 11.609802 -17.341461c-1.4093323 -2.6274261 -16.640121 2.1681824 -20.065811 1.5768967c-3.4256744 -0.59129333 -3.8802795 -4.1212845 -0.488266 -5.124649c3.3920135 -1.0033569 19.994598 1.4513245 20.840378 -0.8955307c0.8457794 -2.3468552 -13.806839 -10.247635 -15.765671 -13.185593c-1.9588165 -2.9379578 0.8596649 -5.923271 4.012726 -4.442177c3.1530457 1.4810944 12.206268 13.949814 14.90564 13.328743z" fill-rule="evenodd"/><path fill="#cfe2f3" d="m45.32007 213.3085c2.424202 -0.5577545 0.15065384 -12.720779 1.1590347 -15.316559c1.0083809 -2.5957794 4.054615 -2.7894592 4.8912506 -0.25811768c0.8366356 2.5313263 -1.4588356 14.931213 0.12856293 15.446121c1.5873985 0.5148926 7.229248 -10.640411 9.395828 -12.356705c2.166584 -1.7162933 4.569023 -0.49380493 3.6036606 2.05896c-0.96535873 2.5527496 -10.613659 11.275894 -9.395828 13.257599c1.2178307 1.98172 13.842773 -1.9016571 16.702812 -1.3673096c2.8600464 0.5343323 3.468956 3.6966705 0.4574356 4.5733337c-3.0115204 0.8766632 -18.031101 -1.1052094 -18.52657 0.6866455c-0.49547195 1.7918701 13.304447 7.8154144 15.553745 10.064545c2.249298 2.2491302 0.7630539 4.4215393 -2.057953 3.430252c-2.8210068 -0.991272 -12.504353 -10.59787 -14.868095 -9.377884c-2.363739 1.219986 1.2575302 13.914856 0.6856537 16.69783c-0.5718765 2.7829742 -3.0861015 2.9381104 -4.116905 0c-1.0308037 -2.9381104 0.06677246 -17.323685 -2.0679207 -17.628647c-2.1346893 -0.3049469 -8.23032 13.546463 -10.740227 15.798904c-2.5099068 2.2524567 -5.337061 0.6921387 -4.319212 -2.2841797c1.0178471 -2.976303 11.691969 -13.214081 10.426302 -15.573669c-1.265667 -2.3595886 -14.943836 1.9471588 -18.020302 1.416153c-3.0764675 -0.5310211 -3.4847355 -3.7011719 -0.43849945 -4.602249c3.046238 -0.9010773 17.956356 1.3033752 18.71592 -0.804245c0.75956726 -2.1076202 -12.39938 -9.202988 -14.158524 -11.841461c-1.7591438 -2.6384583 0.77202415 -5.319458 3.6036625 -3.989334c2.8316402 1.3301086 10.961969 12.527771 13.386168 11.9700165z" fill-rule="evenodd"/><path fill="#cfe2f3" d="m134.19388 203.36395c2.1835175 -0.5023804 0.13569641 -11.457748 1.0439606 -13.795807c0.90826416 -2.3380432 3.6520386 -2.5124817 4.405609 -0.23248291c0.75357056 2.2799988 -1.3139954 13.448715 0.11579895 13.912491c1.429779 0.46377563 6.5114594 -9.583939 8.462921 -11.129822c1.9514618 -1.5458679 4.1153717 -0.44477844 3.2458649 1.8545227c-0.8695221 2.2993011 -9.559845 10.156326 -8.462936 11.941284c1.0969086 1.7849426 12.468338 -1.7128448 15.044418 -1.2315674c2.576065 0.48129272 3.124527 3.3296356 0.41200256 4.1192627c-2.7125092 0.7896271 -16.240799 -0.9954834 -16.687088 0.61846924c-0.4462738 1.6139526 11.983475 7.0394287 14.009445 9.065247c2.0259705 2.0258179 0.6872864 3.9825287 -1.8536224 3.089676c-2.540924 -0.8928528 -11.262817 -9.545639 -13.391861 -8.446777c-2.1290436 1.0988617 1.1326752 12.533264 0.61756897 15.039917c-0.51509094 2.5066528 -2.7796783 2.6463928 -3.70813 0c-0.9284668 -2.6463776 0.060134888 -15.603638 -1.8626099 -15.878311c-1.9227295 -0.27467346 -7.4131317 12.201447 -9.673836 14.230255c-2.260704 2.0288086 -4.807152 0.6234131 -3.8903656 -2.0573883c0.9167862 -2.6808014 10.53109 -11.902084 9.39109 -14.02739c-1.1399994 -2.1253052 -13.460083 1.7538452 -16.231087 1.2755432c-2.7710114 -0.47828674 -3.1387405 -3.3336792 -0.39496613 -4.145294c2.743782 -0.81159973 16.173492 1.1739655 16.857635 -0.7243805c0.6841583 -1.8983612 -11.168259 -8.289246 -12.752739 -10.665741c-1.5844803 -2.3764954 0.69537354 -4.7912903 3.2458649 -3.5932465c2.5504837 1.1980591 9.873558 11.283905 12.05706 10.78154z" fill-rule="evenodd"/><path fill="#cfe2f3" d="m-56.324287 215.98172c2.424202 -0.5577545 0.15065002 -12.720779 1.1590309 -15.316559c1.0083809 -2.5957794 4.054619 -2.789444 4.8912544 -0.25810242c0.8366356 2.5313263 -1.4588394 14.931198 0.12855911 15.446106c1.5873985 0.51490784 7.229252 -10.640396 9.395832 -12.356689c2.166584 -1.7162933 4.569023 -0.49380493 3.6036606 2.0589447c-0.96535873 2.552765 -10.613659 11.275894 -9.395828 13.257614c1.2178307 1.98172 13.84277 -1.9016571 16.702812 -1.3673248c2.8600407 0.53434753 3.468956 3.6966858 0.4574337 4.573349c-3.0115223 0.8766632 -18.0311 -1.1052246 -18.526567 0.6866455c-0.49547195 1.7918701 13.304447 7.8154144 15.553745 10.064545c2.2493 2.2491302 0.7630558 4.421524 -2.057953 3.430252c-2.8210068 -0.991272 -12.504356 -10.597885 -14.868095 -9.377884c-2.363739 1.219986 1.2575264 13.914856 0.6856537 16.69783c-0.5718765 2.7829742 -3.0861015 2.938095 -4.116905 0c-1.0308037 -2.9381104 0.066768646 -17.3237 -2.0679207 -17.628647c-2.1346931 -0.30496216 -8.23032 13.546448 -10.740231 15.798904c-2.509903 2.2524567 -5.337059 0.6921387 -4.319206 -2.2841797c1.0178452 -2.976303 11.691967 -13.214096 10.4263 -15.573685c-1.265667 -2.3595734 -14.94384 1.9471741 -18.020302 1.416153c-3.0764694 -0.53100586 -3.4847412 -3.7011566 -0.43849945 -4.602234c3.0462341 -0.9010925 17.956352 1.30336 18.71592 -0.804245c0.75956726 -2.1076202 -12.399384 -9.203003 -14.158524 -11.841461c-1.7591476 -2.6384735 0.77202606 -5.319458 3.6036606 -3.9893494c2.8316422 1.3301239 10.961971 12.527786 13.386169 11.9700165z" fill-rule="evenodd"/><path fill="#cfe2f3" d="m127.78654 131.8159c2.699379 -0.62106323 0.1677475 -14.164719 1.290596 -17.055145c1.1228333 -2.8904266 4.514862 -3.1060867 5.446457 -0.28741455c0.9316101 2.8186646 -1.6244354 16.626068 0.14315796 17.199417c1.7675781 0.573349 8.04985 -11.848206 10.462357 -13.7593155c2.412506 -1.9111099 5.0876617 -0.5498581 4.0127106 2.2926636c-1.0749359 2.8425293 -11.81842 12.555824 -10.462357 14.762489c1.3560638 2.206665 15.414078 -2.117508 18.59877 -1.522522c3.1846771 0.59498596 3.8627167 4.116287 0.50935364 5.0924683c-3.353363 0.9761658 -20.07782 -1.2306671 -20.629532 0.7645874c-0.55171204 1.9952545 14.814636 8.702545 17.31926 11.20697c2.5046234 2.5044403 0.8496704 4.923416 -2.2915497 3.8196259c-3.14122 -1.1037903 -13.923737 -11.800858 -16.555786 -10.442383c-2.6320496 1.3584747 1.4002686 15.494354 0.76348877 18.593216c-0.63679504 3.0988617 -3.4364166 3.2716217 -4.5842285 0c-1.1478119 -3.2716064 0.07435608 -19.290115 -2.3026428 -19.629684c-2.3770065 -0.3395691 -9.164551 15.084122 -11.959358 17.592255c-2.794815 2.508133 -5.9428787 0.7706909 -4.809494 -2.543457c1.1333847 -3.314148 13.0191345 -14.714035 11.609802 -17.341461c-1.4093323 -2.6274261 -16.640121 2.1681976 -20.065804 1.5769043c-3.4256744 -0.59129333 -3.8802872 -4.121292 -0.48827362 -5.124649c3.3920212 -1.0033569 19.994598 1.4513245 20.840378 -0.89553833c0.84578705 -2.3468475 -13.806839 -10.247627 -15.765663 -13.185585c-1.9588242 -2.9379654 0.8596573 -5.923271 4.012718 -4.442177c3.1530533 1.4810944 12.206268 13.949814 14.90564 13.328735z" fill-rule="evenodd"/><path fill="#89a8d7" d="m-2.7480314E-4 153.9175c17.807087 27.06343 68.937004 12.6058655 86.215225 4.2309723c17.278214 -8.374893 6.2585297 -43.284782 17.454063 -54.480316c11.195541 -11.195541 39.846016 4.8499527 49.71917 -12.692917c9.873138 -17.54287 38.52231 -76.69641 9.519684 -92.5643c-29.002625 -15.867891 -156.38408 -28.560806 -183.53543 -2.6430445c-27.151356 25.91776 2.8202095 131.08618 20.627296 158.14961z" fill-rule="evenodd"/><path fill="#3c78d8" d="m-152.57564 216.33109c-6.977371 -6.4641266 -15.183929 -37.34984 -14.15741 -39.40187c1.0265198 -2.0520172 16.109634 27.500137 20.316528 27.089737c4.206909 -0.4104004 2.4624329 -29.244095 4.9248505 -29.552155c2.4624329 -0.3080597 6.258423 26.677795 9.849701 27.703812c3.5912933 1.026001 10.569191 -23.804977 11.698051 -21.547745c1.1288681 2.2572174 0.51377106 29.13971 -4.9248505 35.09108c-5.4386215 5.9513702 -20.729485 7.081253 -27.706871 0.6171417z" fill-rule="evenodd"/><path fill="#89a8d7" d="m263.40393 181.95087c-12.527115 -15.547256 -52.80446 -5.0236206 -65.05774 1.5879211c-12.253281 6.6115417 0.441391 28.208221 -8.461929 38.08136c-8.903336 9.873138 -36.158356 12.17804 -44.958008 21.157486c-8.799652 8.979446 -29.270348 27.04506 -7.839905 32.719162c21.43045 5.674103 115.369644 16.916443 136.42259 1.32547c21.052917 -15.591003 2.4221191 -79.32416 -10.105011 -94.8714z" fill-rule="evenodd"/><path fill="#f3f3f3" d="m124.51713 29.578884c3.187149 -0.73329544 0.19805908 -16.724293 1.5238037 -20.13702c1.325737 -3.4127288 5.330696 -3.6673512 6.430641 -0.3393507c1.0999451 3.327999 -1.9179688 19.630394 0.1690216 20.30735c2.086975 0.67695427 9.504456 -13.989174 12.352905 -16.245619c2.8484497 -2.256446 6.0069885 -0.6492224 4.737808 2.7069473c-1.2691803 3.3561707 -13.95401 14.824669 -12.352905 17.430073c1.6011047 2.605404 18.199402 -2.5001488 21.959564 -1.7976437c3.7601624 0.7025051 4.5607147 4.8601017 0.60139465 6.0126743c-3.95932 1.1525688 -23.705887 -1.4530525 -24.3573 0.9027519c-0.6513977 2.3558044 17.491653 10.275089 20.448868 13.232075c2.957199 2.9569855 1.0032043 5.8130836 -2.7056427 4.5098343c-3.708847 -1.3032494 -16.439758 -13.9332695 -19.54741 -12.329323c-3.107666 1.6039467 1.6532898 18.294174 0.9014435 21.95301c-0.7518616 3.6588287 -4.057373 3.862793 -5.4125977 0c-1.355217 -3.8627968 0.08779907 -22.77584 -2.7187347 -23.176773c-2.8065262 -0.4009323 -10.820587 17.809826 -14.120415 20.771175c-3.2998276 2.9613533 -7.016754 0.9099617 -5.678566 -3.0030594c1.3381882 -3.913021 15.371696 -17.37286 13.707695 -20.475063c-1.6640015 -3.1022034 -19.646996 2.5599823 -23.691689 1.8618469c-4.0447006 -0.6981392 -4.5814667 -4.866001 -0.57650757 -6.0506706c4.004959 -1.1846733 23.60762 1.7135696 24.60624 -1.0573616c0.9986191 -2.7709312 -16.301743 -12.099377 -18.614532 -15.568226c-2.3127823 -3.468851 1.0149994 -6.9936047 4.737816 -5.244876c3.7228165 1.7487278 14.411942 16.470543 17.599098 15.7372465z" fill-rule="evenodd"/><path fill="#f3f3f3" d="m45.020233 88.044785c2.6993713 -0.62106323 0.16775131 -14.164726 1.2905922 -17.055153c1.1228447 -2.8904266 4.514862 -3.106079 5.4464645 -0.28741455c0.9316025 2.8186646 -1.6244316 16.626068 0.14315414 17.199417c1.7675858 0.573349 8.049843 -11.848206 10.462357 -13.759308c2.4125137 -1.9111099 5.087654 -0.5498657 4.012718 2.2926636c-1.0749435 2.8425217 -11.818428 12.555824 -10.46236 14.762489c1.3560677 2.2066574 15.414074 -2.1175156 18.598759 -1.5225296c3.1846924 0.5949936 3.8627243 4.116295 0.50936127 5.0924683c-3.353363 0.9761734 -20.077824 -1.2306671 -20.629532 0.7645874c-0.55171204 1.9952621 14.814644 8.702545 17.31926 11.206978c2.5046234 2.5044327 0.8496704 4.923416 -2.2915497 3.8196259c-3.1412277 -1.1037903 -13.923733 -11.800858 -16.555786 -10.442383c-2.6320496 1.3584747 1.4002724 15.494347 0.76348495 18.593216c-0.6367912 3.0988617 -3.436409 3.271614 -4.584221 0c-1.1478081 -3.271614 0.074352264 -19.290115 -2.3026505 -19.629684c-2.376999 -0.33957672 -9.164551 15.084122 -11.959358 17.592255c-2.7948074 2.5081253 -5.942873 0.7706909 -4.8094883 -2.5434647c1.1333866 -3.314148 13.019133 -14.714027 11.6098 -17.341454c-1.4093323 -2.6274261 -16.640121 2.16819 -20.0658 1.5768967c-3.4256783 -0.59129333 -3.880291 -4.1212845 -0.48827362 -5.124649c3.3920174 -1.0033569 19.994595 1.4513245 20.840378 -0.8955307c0.84578705 -2.3468552 -13.806843 -10.247635 -15.765667 -13.185593c-1.9588261 -2.9379578 0.8596554 -5.923271 4.0127163 -4.442177c3.153059 1.4810944 12.20627 13.949814 14.905642 13.328743z" fill-rule="evenodd"/><path fill="#f3f3f3" d="m229.92345 190.0225c1.415451 -0.32565308 0.08796692 -7.427429 0.67674255 -8.943054c0.58877563 -1.5156403 2.3674164 -1.6287079 2.8559113 -0.15071106c0.48849487 1.4779968 -0.8517914 8.718063 0.07507324 9.018707c0.92684937 0.30064392 4.2210236 -6.212738 5.4860535 -7.2148438c1.2650299 -1.002121 2.6677704 -0.28833008 2.1041107 1.202179c-0.56365967 1.490509 -6.1971283 6.583786 -5.4860535 7.7408752c0.7110748 1.1570892 8.08255 -1.1103363 9.752472 -0.7983551c1.6699219 0.31199646 2.025467 2.158432 0.26708984 2.6703033c-1.7583771 0.5118561 -10.52803 -0.6453247 -10.817337 0.40090942c-0.28929138 1.0462494 7.7682343 4.563278 9.081558 5.8765106c1.313324 1.3132324 0.44552612 2.5816498 -1.2015991 2.0028687c-1.6471405 -0.5787964 -7.301071 -6.187912 -8.681213 -5.475586c-1.3801575 0.71232605 0.7342377 8.124634 0.4003296 9.7495575c-0.33390808 1.624939 -1.8019104 1.7155151 -2.403778 0c-0.6018677 -1.7154999 0.038986206 -10.11499 -1.207428 -10.293045c-1.2463989 -0.17805481 -4.8055267 7.9095306 -6.2710266 9.224701c-1.4654846 1.3151703 -3.116211 0.40412903 -2.5219116 -1.3336945c0.5943146 -1.7378082 6.8267365 -7.7154694 6.087738 -9.093185c-0.7389984 -1.3777313 -8.725433 1.1369171 -10.5217285 0.8268585c-1.7962952 -0.31004333 -2.0346832 -2.1610413 -0.25604248 -2.6871643c1.778656 -0.52612305 10.4844055 0.76101685 10.927902 -0.46958923c0.4434967 -1.2305908 -7.2397766 -5.373459 -8.266907 -6.9140167c-1.0271454 -1.5405426 0.4507599 -3.1059265 2.1041107 -2.3293c1.6533356 0.7766266 6.4004974 7.314743 7.815933 6.9890747z" fill-rule="evenodd"/><path fill="#f3f3f3" d="m207.23055 230.84404c1.4154358 -0.32566833 0.08795166 -7.4274445 0.6767273 -8.943069c0.58877563 -1.515625 2.3674164 -1.6287079 2.8559265 -0.15071106c0.48849487 1.4779968 -0.8517914 8.718063 0.07505798 9.018707c0.92684937 0.30064392 4.2210236 -6.212738 5.4860535 -7.2148438c1.2650299 -1.002121 2.6677704 -0.28833008 2.1041107 1.202179c-0.5636444 1.490509 -6.197113 6.5838013 -5.4860535 7.7408752c0.7110748 1.1570892 8.08255 -1.1103363 9.752472 -0.79833984c1.6699219 0.3119812 2.025467 2.1584167 0.26708984 2.670288c-1.7583771 0.51187134 -10.52803 -0.6453247 -10.817337 0.40092468c-0.28929138 1.0462341 7.7682343 4.563278 9.081558 5.8764954c1.313324 1.3132324 0.44554138 2.5816498 -1.2015991 2.0028687c-1.6471405 -0.5787811 -7.301071 -6.187912 -8.681213 -5.475586c-1.3801422 0.71232605 0.7342529 8.124634 0.40034485 9.749573c-0.33390808 1.6249237 -1.8019257 1.7154999 -2.4037933 0c-0.6018677 -1.7155151 0.038986206 -10.11499 -1.207428 -10.29306c-1.2463989 -0.17805481 -4.8055267 7.9095306 -6.2710114 9.224701c-1.4654999 1.3151703 -3.1162262 0.40412903 -2.5219116 -1.3336945c0.5942993 -1.7378082 6.826721 -7.7154694 6.087723 -9.093185c-0.7389984 -1.3777161 -8.725433 1.1369171 -10.5217285 0.8268585c-1.7962952 -0.31004333 -2.034668 -2.1610413 -0.25602722 -2.6871643c1.7786407 -0.52612305 10.48439 0.76101685 10.927887 -0.46957397c0.4434967 -1.2306061 -7.2397766 -5.373474 -8.266907 -6.9140167c-1.0271301 -1.5405579 0.45077515 -3.1059418 2.1041107 -2.3293152c1.6533356 0.77664185 6.4004974 7.314743 7.8159485 6.98909z" fill-rule="evenodd"/><path fill="#f3f3f3" d="m48.857635 32.154438c1.8757706 -0.43157768 0.11656952 -9.842945 0.8968239 -11.851477c0.78025436 -2.0085335 3.1373367 -2.15839 3.7846985 -0.19972229c0.64736176 1.9586658 -1.1288033 11.553305 0.09947586 11.951723c1.2282791 0.3984146 5.593769 -8.233213 7.2702026 -9.561226c1.6764336 -1.3280106 3.5353622 -0.38209343 2.7883987 1.593153c-0.7469673 1.9752445 -8.212521 8.724936 -7.270199 10.258322c0.94231796 1.53339 10.711102 -1.4714394 12.924114 -1.0579872c2.2130127 0.41345215 2.6841736 2.8603745 0.3539505 3.5387077c-2.330223 0.6783371 -13.951904 -0.85517883 -14.335281 0.53131104c-0.3833809 1.386486 10.294563 6.0473175 12.035004 7.7876244c1.7404327 1.7403107 0.5904236 3.4212418 -1.5923843 2.6542282c-2.182804 -0.76701736 -9.675476 -8.200314 -11.504467 -7.256321c-1.8289871 0.9439888 0.9730377 10.766884 0.53053665 12.920258c-0.44249725 2.1533775 -2.387928 2.2734184 -3.1855316 0c-0.7976036 -2.2734146 0.05166626 -13.404526 -1.60009 -13.6404915c-1.6517601 -0.23596573 -6.3683662 10.481823 -8.310455 12.224701c-1.9420853 1.742878 -4.12965 0.53554916 -3.3420715 -1.7674255c0.7875824 -2.3029785 9.046883 -10.224651 8.067551 -12.0504265c-0.9793358 -1.825779 -11.563076 1.5066566 -13.94355 1.0957718c-2.3804722 -0.41088104 -2.6963787 -2.863842 -0.33929443 -3.5610733c2.3570824 -0.6972275 13.894066 1.0085106 14.481792 -0.6222992c0.5877304 -1.6308098 -9.594254 -7.120987 -10.955421 -9.16255c-1.3611717 -2.041563 0.59736633 -4.116028 2.7883987 -3.0868282c2.1910362 1.0291996 8.482029 9.6936 10.3578 9.262028z" fill-rule="evenodd"/></g></svg>