<svg version="1.1" viewBox="0.0 0.0 256.0 256.0" fill="none" stroke="none" stroke-linecap="square" stroke-miterlimit="10" xmlns:xlink="http://www.w3.org/1999/xlink" xmlns="http://www.w3.org/2000/svg"><clipPath id="p.0"><path d="m0 0l256.0 0l0 256.0l-256.0 0l0 -256.0z" clip-rule="nonzero"/></clipPath><g clip-path="url(#p.0)"><path fill="#000000" fill-opacity="0.0" d="m0 0l256.0 0l0 256.0l-256.0 0z" fill-rule="evenodd"/><path fill="#783f04" d="m9.464567 36.809017l0 0c0 -17.041443 13.814817 -30.856262 30.85626 -30.856262l175.35834 0c8.183594 0 16.031998 3.2509184 21.81868 9.037589c5.786667 5.7866707 9.037582 13.635082 9.037582 21.818672l0 123.421326c0 17.041443 -13.814819 30.856262 -30.856262 30.856262l-175.35834 0l0 0c-17.041443 0 -30.85626 -13.814819 -30.85626 -30.856262z" fill-rule="evenodd"/><path stroke="#783f04" stroke-width="1.0" stroke-linejoin="round" stroke-linecap="butt" d="m9.464567 36.809017l0 0c0 -17.041443 13.814817 -30.856262 30.85626 -30.856262l175.35834 0c8.183594 0 16.031998 3.2509184 21.81868 9.037589c5.786667 5.7866707 9.037582 13.635082 9.037582 21.818672l0 123.421326c0 17.041443 -13.814819 30.856262 -30.856262 30.856262l-175.35834 0l0 0c-17.041443 0 -30.85626 -13.814819 -30.85626 -30.856262z" fill-rule="evenodd"/><path fill="#82b1d9" d="m60.181587 40.59932l67.81102 82.078735l67.81103 -82.078735z" fill-rule="evenodd"/><path stroke="#82b1d9" stroke-width="1.0" stroke-linejoin="round" stroke-linecap="butt" d="m60.181587 40.59932l67.81102 82.078735l67.81103 -82.078735z" fill-rule="evenodd"/><path fill="#67a0d4" d="m23.334425 80.94399l104.661415 107.496056l104.661415 -107.496056z" fill-rule="evenodd"/><path stroke="#67a0d4" stroke-width="1.0" stroke-linejoin="round" stroke-linecap="butt" d="m23.334425 80.94399l104.661415 107.496056l104.661415 -107.496056z" fill-rule="evenodd"/><path fill="#c0d0ed" d="m97.07066 80.94399l30.929138 107.496056l30.929138 -107.496056z" fill-rule="evenodd"/><path stroke="#c0d0ed" stroke-width="1.0" stroke-linejoin="round" stroke-linecap="butt" d="m97.07066 80.94399l30.929138 107.496056l30.929138 -107.496056z" fill-rule="evenodd"/><path fill="#6fa8dc" d="m23.334425 80.95127l36.88189 -40.346455l36.88189 40.346455z" fill-rule="evenodd"/><path stroke="#6fa8dc" stroke-width="1.0" stroke-linejoin="round" stroke-linecap="butt" d="m23.334425 80.95127l36.88189 -40.346455l36.88189 40.346455z" fill-rule="evenodd"/><path fill="#6fa8dc" d="m158.9018 80.95127l36.881897 -40.346455l36.88188 40.346455z" fill-rule="evenodd"/><path stroke="#6fa8dc" stroke-width="1.0" stroke-linejoin="round" stroke-linecap="butt" d="m158.9018 80.95127l36.881897 -40.346455l36.88188 40.346455z" fill-rule="evenodd"/><path fill="#cedcf4" d="m97.07066 80.95127l30.929138 -40.346455l30.929138 40.346455z" fill-rule="evenodd"/><path stroke="#cedcf4" stroke-width="1.0" stroke-linejoin="round" stroke-linecap="butt" d="m97.07066 80.95127l30.929138 -40.346455l30.929138 40.346455z" fill-rule="evenodd"/><path fill="#783f04" d="m181.29134 191.08661l-53.291336 58.960632l-53.291336 -58.960632z" fill-rule="evenodd"/><path stroke="#783f04" stroke-width="1.0" stroke-linejoin="round" stroke-linecap="butt" d="m181.29134 191.08661l-53.291336 58.960632l-53.291336 -58.960632z" fill-rule="evenodd"/></g></svg>