<svg version="1.1" viewBox="0.0 0.0 256.0 256.0" fill="none" stroke="none" stroke-linecap="square" stroke-miterlimit="10" xmlns:xlink="http://www.w3.org/1999/xlink" xmlns="http://www.w3.org/2000/svg"><clipPath id="p.0"><path d="m0 0l256.0 0l0 256.0l-256.0 0l0 -256.0z" clip-rule="nonzero"/></clipPath><g clip-path="url(#p.0)"><path fill="#000000" fill-opacity="0.0" d="m0 0l256.0 0l0 256.0l-256.0 0z" fill-rule="evenodd"/><path fill="#9a7608" d="m64.19359 62.223255l0 0c0.6494217 -0.6494179 1.7018661 -0.6489525 2.3507156 0.0010375977l68.89442 69.01625c0.31158447 0.3121338 0.4865265 0.7353821 0.48632812 1.1766205c-1.9836426E-4 0.44122314 -0.17550659 0.86431885 -0.48736572 1.176178l-4.703369 4.703354c-0.64941406 0.6494293 -1.7018585 0.6489563 -2.350708 -0.0010375977l-68.894424 -69.01624l0 0c-0.6488457 -0.6499939 -0.6483803 -1.7033691 0.0010375977 -2.3527908z" fill-rule="evenodd"/><path stroke="#9a7608" stroke-width="1.0" stroke-linejoin="round" stroke-linecap="butt" d="m64.19359 62.223255l0 0c0.6494217 -0.6494179 1.7018661 -0.6489525 2.3507156 0.0010375977l68.89442 69.01625c0.31158447 0.3121338 0.4865265 0.7353821 0.48632812 1.1766205c-1.9836426E-4 0.44122314 -0.17550659 0.86431885 -0.48736572 1.176178l-4.703369 4.703354c-0.64941406 0.6494293 -1.7018585 0.6489563 -2.350708 -0.0010375977l-68.894424 -69.01624l0 0c-0.6488457 -0.6499939 -0.6483803 -1.7033691 0.0010375977 -2.3527908z" fill-rule="evenodd"/><path fill="#f1c232" d="m140.98207 130.83792l0 0c0.80307007 -0.80307007 2.104538 -0.80249023 2.9069061 0.0012969971l68.33847 68.459305c0.38531494 0.3860016 0.6016388 0.90937805 0.60139465 1.4550018c-2.4414062E-4 0.54563904 -0.21702576 1.0688324 -0.6026764 1.454483l-5.816223 5.816208c-0.80307007 0.8030853 -2.104538 0.8025055 -2.9069061 -0.0012817383l-68.33847 -68.45932c-0.80236816 -0.803772 -0.80178833 -2.1063995 0.0012817383 -2.9094696z" fill-rule="evenodd"/><path stroke="#f1c232" stroke-width="1.0" stroke-linejoin="round" stroke-linecap="butt" d="m140.98207 130.83792l0 0c0.80307007 -0.80307007 2.104538 -0.80249023 2.9069061 0.0012969971l68.33847 68.459305c0.38531494 0.3860016 0.6016388 0.90937805 0.60139465 1.4550018c-2.4414062E-4 0.54563904 -0.21702576 1.0688324 -0.6026764 1.454483l-5.816223 5.816208c-0.80307007 0.8030853 -2.104538 0.8025055 -2.9069061 -0.0012817383l-68.33847 -68.45932c-0.80236816 -0.803772 -0.80178833 -2.1063995 0.0012817383 -2.9094696z" fill-rule="evenodd"/><path fill="#f1c232" d="m43.768894 202.19235l0 0c-0.8030739 -0.8030853 -0.8030739 -2.1051178 0 -2.9082031l68.77684 -68.77684c0.38565063 -0.38565063 0.90870667 -0.6023102 1.4541016 -0.6023102c0.54538727 0 1.0684433 0.21665955 1.4540939 0.6023102l5.8162155 5.816208c0.8030777 0.8030853 0.8030777 2.1051178 0 2.9082031l-68.77684 68.77684c-0.8030777 0.80307007 -2.1051178 0.80307007 -2.9081955 0z" fill-rule="evenodd"/><path stroke="#f1c232" stroke-width="1.0" stroke-linejoin="round" stroke-linecap="butt" d="m43.768894 202.19235l0 0c-0.8030739 -0.8030853 -0.8030739 -2.1051178 0 -2.9082031l68.77684 -68.77684c0.38565063 -0.38565063 0.90870667 -0.6023102 1.4541016 -0.6023102c0.54538727 0 1.0684433 0.21665955 1.4540939 0.6023102l5.8162155 5.816208c0.8030777 0.8030853 0.8030777 2.1051178 0 2.9082031l-68.77684 68.77684c-0.8030777 0.80307007 -2.1051178 0.80307007 -2.9081955 0z" fill-rule="evenodd"/><path fill="#bf9000" d="m42.31496 196.08202l0 0c0 -1.142273 0.9260025 -2.068283 2.068283 -2.068283l167.23352 0c0.5485382 0 1.0746155 0.21791077 1.4624939 0.6057892c0.38787842 0.38787842 0.6057892 0.9139557 0.6057892 1.4624939l0 8.272888c0 1.1422882 -0.92601013 2.068283 -2.068283 2.068283l-167.23352 0c-1.1422806 0 -2.068283 -0.9259949 -2.068283 -2.068283z" fill-rule="evenodd"/><path stroke="#bf9000" stroke-width="1.0" stroke-linejoin="round" stroke-linecap="butt" d="m42.31496 196.08202l0 0c0 -1.142273 0.9260025 -2.068283 2.068283 -2.068283l167.23352 0c0.5485382 0 1.0746155 0.21791077 1.4624939 0.6057892c0.38787842 0.38787842 0.6057892 0.9139557 0.6057892 1.4624939l0 8.272888c0 1.1422882 -0.92601013 2.068283 -2.068283 2.068283l-167.23352 0c-1.1422806 0 -2.068283 -0.9259949 -2.068283 -2.068283z" fill-rule="evenodd"/><path fill="#666666" d="m24.795275 200.21846l0 0c0 -14.020203 11.365622 -25.385818 25.385828 -25.385818l0 0c6.7327385 0 13.189724 2.6745605 17.950489 7.4353333c4.760765 4.7607574 7.435341 11.217743 7.435341 17.950485l0 0c0 14.020203 -11.365623 25.385834 -25.38583 25.385834l0 0c-14.020206 0 -25.385828 -11.365631 -25.385828 -25.385834z" fill-rule="evenodd"/><path stroke="#666666" stroke-width="1.0" stroke-linejoin="round" stroke-linecap="butt" d="m24.795275 200.21846l0 0c0 -14.020203 11.365622 -25.385818 25.385828 -25.385818l0 0c6.7327385 0 13.189724 2.6745605 17.950489 7.4353333c4.760765 4.7607574 7.435341 11.217743 7.435341 17.950485l0 0c0 14.020203 -11.365623 25.385834 -25.38583 25.385834l0 0c-14.020206 0 -25.385828 -11.365631 -25.385828 -25.385834z" fill-rule="evenodd"/><path fill="#434343" d="m36.51181 200.21846l0 0c0 -7.5493317 6.1199493 -13.669281 13.669292 -13.669281l0 0c3.6253204 0 7.1021576 1.4401398 9.665649 4.0036316c2.563488 2.5634918 4.003643 6.040329 4.003643 9.665649l0 0c0 7.549347 -6.119953 13.669296 -13.669292 13.669296l0 0c-7.549343 0 -13.669292 -6.1199493 -13.669292 -13.669296z" fill-rule="evenodd"/><path stroke="#000000" stroke-width="3.0" stroke-linejoin="round" stroke-linecap="butt" d="m36.51181 200.21846l0 0c0 -7.5493317 6.1199493 -13.669281 13.669292 -13.669281l0 0c3.6253204 0 7.1021576 1.4401398 9.665649 4.0036316c2.563488 2.5634918 4.003643 6.040329 4.003643 9.665649l0 0c0 7.549347 -6.119953 13.669296 -13.669292 13.669296l0 0c-7.549343 0 -13.669292 -6.1199493 -13.669292 -13.669296z" fill-rule="evenodd"/><path fill="#666666" d="m180.43307 200.21846l0 0c0 -14.020203 11.365616 -25.385818 25.385818 -25.385818l0 0c6.7327423 0 13.189728 2.6745605 17.9505 7.4353333c4.7607574 4.7607574 7.4353333 11.217743 7.4353333 17.950485l0 0c0 14.020203 -11.365631 25.385834 -25.385834 25.385834l0 0c-14.020203 0 -25.385818 -11.365631 -25.385818 -25.385834z" fill-rule="evenodd"/><path stroke="#666666" stroke-width="1.0" stroke-linejoin="round" stroke-linecap="butt" d="m180.43307 200.21846l0 0c0 -14.020203 11.365616 -25.385818 25.385818 -25.385818l0 0c6.7327423 0 13.189728 2.6745605 17.9505 7.4353333c4.7607574 4.7607574 7.4353333 11.217743 7.4353333 17.950485l0 0c0 14.020203 -11.365631 25.385834 -25.385834 25.385834l0 0c-14.020203 0 -25.385818 -11.365631 -25.385818 -25.385834z" fill-rule="evenodd"/><path fill="#434343" d="m192.14961 200.21846l0 0c0 -7.5493317 6.1199493 -13.669281 13.669281 -13.669281l0 0c3.6253204 0 7.1021576 1.4401398 9.665649 4.0036316c2.5634918 2.5634918 4.003647 6.040329 4.003647 9.665649l0 0c0 7.549347 -6.1199493 13.669296 -13.669296 13.669296l0 0c-7.5493317 0 -13.669281 -6.1199493 -13.669281 -13.669296z" fill-rule="evenodd"/><path stroke="#000000" stroke-width="3.0" stroke-linejoin="round" stroke-linecap="butt" d="m192.14961 200.21846l0 0c0 -7.5493317 6.1199493 -13.669281 13.669281 -13.669281l0 0c3.6253204 0 7.1021576 1.4401398 9.665649 4.0036316c2.5634918 2.5634918 4.003647 6.040329 4.003647 9.665649l0 0c0 7.549347 -6.1199493 13.669296 -13.669296 13.669296l0 0c-7.5493317 0 -13.669281 -6.1199493 -13.669281 -13.669296z" fill-rule="evenodd"/><path fill="#bf9000" d="m122.55118 126.940285l0 0c0 -1.0089188 0.817894 -1.8268051 1.8268127 -1.8268051l7.307007 0l0 0c0.48451233 0 0.9491577 0.19246674 1.291748 0.53505707c0.3426056 0.34259033 0.5350647 0.807251 0.5350647 1.291748l0 86.64559c0 1.0089264 -0.81788635 1.8268127 -1.8268127 1.8268127l-7.307007 0c-1.0089188 0 -1.8268127 -0.81788635 -1.8268127 -1.8268127z" fill-rule="evenodd"/><path stroke="#bf9000" stroke-width="1.0" stroke-linejoin="round" stroke-linecap="butt" d="m122.55118 126.940285l0 0c0 -1.0089188 0.817894 -1.8268051 1.8268127 -1.8268051l7.307007 0l0 0c0.48451233 0 0.9491577 0.19246674 1.291748 0.53505707c0.3426056 0.34259033 0.5350647 0.807251 0.5350647 1.291748l0 86.64559c0 1.0089264 -0.81788635 1.8268127 -1.8268127 1.8268127l-7.307007 0c-1.0089188 0 -1.8268127 -0.81788635 -1.8268127 -1.8268127z" fill-rule="evenodd"/><path fill="#999999" d="m116.314964 206.93239l0 0c0 -0.28121948 0.22797394 -0.50920105 0.5091934 -0.50920105l22.414673 0c0.13505554 0 0.26457214 0.053649902 0.36006165 0.1491394c0.0954895 0.0954895 0.1491394 0.2250061 0.1491394 0.36006165l0 2.036728c0 0.28121948 -0.22798157 0.5091858 -0.50920105 0.5091858l-22.414673 0c-0.28121948 0 -0.5091934 -0.22796631 -0.5091934 -0.5091858z" fill-rule="evenodd"/><path stroke="#999999" stroke-width="1.0" stroke-linejoin="round" stroke-linecap="butt" d="m116.314964 206.93239l0 0c0 -0.28121948 0.22797394 -0.50920105 0.5091934 -0.50920105l22.414673 0c0.13505554 0 0.26457214 0.053649902 0.36006165 0.1491394c0.0954895 0.0954895 0.1491394 0.2250061 0.1491394 0.36006165l0 2.036728c0 0.28121948 -0.22798157 0.5091858 -0.50920105 0.5091858l-22.414673 0c-0.28121948 0 -0.5091934 -0.22796631 -0.5091934 -0.5091858z" fill-rule="evenodd"/><path fill="#bf9000" d="m114.14173 130.85889l0 0c0 -7.671112 6.2186584 -13.8897705 13.889763 -13.8897705l0 0c3.683792 0 7.2167053 1.4633865 9.821548 4.068222c2.6048431 2.6048355 4.068222 6.1377487 4.068222 9.821548l0 0c0 7.671097 -6.2186584 13.889755 -13.8897705 13.889755l0 0c-7.6711044 0 -13.889763 -6.2186584 -13.889763 -13.889755z" fill-rule="evenodd"/><path stroke="#bf9000" stroke-width="1.0" stroke-linejoin="round" stroke-linecap="butt" d="m114.14173 130.85889l0 0c0 -7.671112 6.2186584 -13.8897705 13.889763 -13.8897705l0 0c3.683792 0 7.2167053 1.4633865 9.821548 4.068222c2.6048431 2.6048355 4.068222 6.1377487 4.068222 9.821548l0 0c0 7.671097 -6.2186584 13.889755 -13.8897705 13.889755l0 0c-7.6711044 0 -13.889763 -6.2186584 -13.889763 -13.889755z" fill-rule="evenodd"/><path fill="#b7b7b7" d="m119.385826 130.85889l0 0c0 -4.757477 3.856697 -8.614174 8.614174 -8.614174l0 0c2.2846222 0 4.475662 0.90756226 6.0911407 2.5230331c1.6154633 1.6154709 2.5230255 3.8065186 2.5230255 6.0911407l0 0c0 4.757477 -3.8566895 8.614166 -8.614166 8.614166l0 0c-4.757477 0 -8.614174 -3.8566895 -8.614174 -8.614166z" fill-rule="evenodd"/><path stroke="#b7b7b7" stroke-width="1.0" stroke-linejoin="round" stroke-linecap="butt" d="m119.385826 130.85889l0 0c0 -4.757477 3.856697 -8.614174 8.614174 -8.614174l0 0c2.2846222 0 4.475662 0.90756226 6.0911407 2.5230331c1.6154633 1.6154709 2.5230255 3.8065186 2.5230255 6.0911407l0 0c0 4.757477 -3.8566895 8.614166 -8.614166 8.614166l0 0c-4.757477 0 -8.614174 -3.8566895 -8.614174 -8.614166z" fill-rule="evenodd"/><path fill="#5d5555" d="m77.952194 73.58127l0 0c-7.9510117 7.9460907 -20.837852 7.9431 -28.785172 -0.0066833496c-7.947319 -7.9497833 -7.9463196 -20.836624 0.002231598 -28.785175l14.3937 14.393703z" fill-rule="evenodd"/><path stroke="#5d5555" stroke-width="1.0" stroke-linejoin="round" stroke-linecap="butt" d="m77.952194 73.58127l0 0c-7.9510117 7.9460907 -20.837852 7.9431 -28.785172 -0.0066833496c-7.947319 -7.9497833 -7.9463196 -20.836624 0.002231598 -28.785175l14.3937 14.393703z" fill-rule="evenodd"/><path fill="#746767" d="m54.96063 64.63841l0 0c0 -1.9830093 1.6075478 -3.5905533 3.5905533 -3.5905533l0 0c0.9522743 0 1.8655434 0.37828827 2.5389023 1.0516472c0.6733589 0.6733589 1.0516472 1.5866318 1.0516472 2.538906l0 0c0 1.9830017 -1.607544 3.5905457 -3.5905495 3.5905457l0 0c-1.9830055 0 -3.5905533 -1.607544 -3.5905533 -3.5905457z" fill-rule="evenodd"/><path fill="#746767" d="m63.02362 69.75652l0 0c0 -0.8436508 0.6839142 -1.527565 1.5275574 -1.527565l0 0c0.4051361 0 0.7936783 0.16094208 1.0801468 0.4474182c0.28647614 0.2864685 0.4474182 0.6750107 0.4474182 1.0801468l0 0c0 0.8436432 -0.6839142 1.5275574 -1.527565 1.5275574l0 0c-0.8436432 0 -1.5275574 -0.6839142 -1.5275574 -1.5275574z" fill-rule="evenodd"/><path fill="#9f7a0a" d="m84.1802 199.82162l13.133858 -2.984253l8.656174 2.984253l11.640419 -2.388443l11.343834 2.0892334l16.716537 -3.2834625l17.611542 3.8818817l8.955383 -3.582672l2.6876678 3.2834625l-5.076126 3.881897l-11.640411 0l-17.015747 -1.7926483l-11.044617 2.0892334l-14.923889 0l-16.716537 -1.7900238l-4.7769012 1.7900238l-14.028877 -1.7900238z" fill-rule="evenodd"/><path fill="#9f7a0a" d="m126.86614 147.5833l-1.7926483 13.13385l1.4934387 8.656174l-1.4934387 5.6719055l1.7926483 10.448822l3.5826797 2.3884583l1.1942291 -14.031494l-2.6876678 -11.044617l3.2834625 -10.4461975z" fill-rule="evenodd"/><path fill="#9f7a0a" d="m77.31233 81.31295l8.359581 11.6430435l9.850395 6.5669327l7.1653595 12.238846l8.955376 2.0892334l-3.5826797 -6.8661346l-14.031494 -12.834648l-6.8635178 -10.448822z" fill-rule="evenodd"/><path fill="#cda52b" d="m71.64304 179.52292l6.8635178 -11.343826l7.761154 -1.1942291l8.658791 -17.013123l11.044624 -4.7769012l-0.5984268 6.566925l-9.551178 7.1653595l-7.464569 11.939636l-7.761154 2.0892334l-5.073494 8.656174z" fill-rule="evenodd"/><path fill="#cda52b" d="m145.3727 141.91138l12.238846 17.910767l9.254593 7.1627197l4.7769165 7.1653595l5.0734863 0.8950043l1.7900238 6.5669403l5.076111 -3.8792725l-3.2834625 -7.761154l-7.165344 -2.388443l-4.7769165 -8.955383l-9.251968 -5.076111l-5.6719055 -10.146988z" fill-rule="evenodd"/><path fill="#666666" d="m44.17848 198.02948l5.9711266 -4.4776764l7.761158 5.076111l0.5957985 5.671921l-4.7742767 1.7900238l-5.375328 -2.984253l-2.984253 4.4776917z" fill-rule="evenodd"/><path fill="#666666" d="m200.29921 198.62791l4.7742767 -2.984253l6.86615 0.5957947l1.4934387 5.9711304l-3.881897 4.7742767l-6.86351 -2.685028l-3.6430511 3.2834625z" fill-rule="evenodd"/><path fill="#a4a4a4" d="m124.7769 128.4783l-1.1942215 5.372711l4.477684 2.6876526l4.7742767 -2.0892334l-0.8950043 -4.1811066l-3.8792725 -4.477684z" fill-rule="evenodd"/><path fill="#9f7a0a" d="m125.191605 213.54129l2.5957947 -1.9842377l3.2047272 1.5275574l-1.3727112 1.832016l-2.5957947 -0.9160156z" fill-rule="evenodd"/></g></svg>