<svg version="1.1" viewBox="0.0 0.0 256.0 256.0" fill="none" stroke="none" stroke-linecap="square" stroke-miterlimit="10" xmlns:xlink="http://www.w3.org/1999/xlink" xmlns="http://www.w3.org/2000/svg"><clipPath id="p.0"><path d="m0 0l256.0 0l0 256.0l-256.0 0l0 -256.0z" clip-rule="nonzero"/></clipPath><g clip-path="url(#p.0)"><path fill="#000000" fill-opacity="0.0" d="m0 0l256.0 0l0 256.0l-256.0 0z" fill-rule="evenodd"/><path fill="#7f6000" d="m0 65.05728l0 0c0 -35.930145 29.127136 -65.05728 65.05728 -65.05728l125.88544 0l0 0c17.254272 0 33.801834 6.8542295 46.00244 19.054836c12.200607 12.200607 19.05484 28.74818 19.05484 46.002445l0 125.88544c0 35.930145 -29.127136 65.05728 -65.05728 65.05728l-125.88544 0l0 0c-35.930145 0 -65.05728 -29.127136 -65.05728 -65.05728z" fill-rule="evenodd"/><path fill="#bf9000" d="m32.062992 38.3937l95.93701 89.6063l-95.93701 89.60629z" fill-rule="evenodd"/><path fill="#bf9000" d="m144.0 38.3937l95.93701 89.6063l-95.93701 89.60629z" fill-rule="evenodd"/></g></svg>