<svg version="1.1" viewBox="0.0 0.0 256.0 256.0" fill="none" stroke="none" stroke-linecap="square" stroke-miterlimit="10" xmlns:xlink="http://www.w3.org/1999/xlink" xmlns="http://www.w3.org/2000/svg"><clipPath id="p.0"><path d="m0 0l256.0 0l0 256.0l-256.0 0l0 -256.0z" clip-rule="nonzero"/></clipPath><g clip-path="url(#p.0)"><path fill="#000000" fill-opacity="0.0" d="m0 0l256.0 0l0 256.0l-256.0 0z" fill-rule="evenodd"/><path fill="#bf9000" d="m-317.53217 174.90062l119.43309 0l0 100.535446l-119.43309 0z" fill-rule="evenodd"/><path stroke="#bf9000" stroke-width="1.0" stroke-linejoin="round" stroke-linecap="butt" d="m-317.53217 174.90062l119.43309 0l0 100.535446l-119.43309 0z" fill-rule="evenodd"/><path fill="#bf9000" d="m-317.53217 174.90683l59.716553 -42.07875l59.716537 42.07875z" fill-rule="evenodd"/><path stroke="#bf9000" stroke-width="1.0" stroke-linejoin="round" stroke-linecap="butt" d="m-317.53217 174.90683l59.716553 -42.07875l59.716537 42.07875z" fill-rule="evenodd"/><path fill="#7f6000" d="m-257.89435 35.670605l-80.66144 37.188946l0 115.724434l80.66144 -37.188934z" fill-rule="evenodd"/><path stroke="#7f6000" stroke-width="3.0" stroke-linejoin="round" stroke-linecap="butt" d="m-257.89435 35.670605l-80.66144 37.188946l0 115.724434l80.66144 -37.188934z" fill-rule="evenodd"/><path fill="#7f6000" d="m-257.8156 35.670605l80.66141 37.188946l0 115.724434l-80.66141 -37.188934z" fill-rule="evenodd"/><path stroke="#7f6000" stroke-width="3.0" stroke-linejoin="round" stroke-linecap="butt" d="m-257.8156 35.670605l80.66141 37.188946l0 115.724434l-80.66141 -37.188934z" fill-rule="evenodd"/><path fill="#9a7917" fill-opacity="0.75" d="m-272.7446 216.36613l29.857971 0l0 0c1.9797668 0 3.8784332 0.7864685 5.278351 2.1863708c1.3999023 1.3999023 2.1863556 3.298584 2.1863556 5.278351l0 51.621902c0 2.1362305E-4 -1.6784668E-4 3.6621094E-4 -3.6621094E-4 3.6621094E-4l-44.787033 -3.6621094E-4l0 0c-2.1362305E-4 0 -3.6621094E-4 -1.8310547E-4 -3.6621094E-4 -3.6621094E-4l3.6621094E-4 -51.621536l0 0c0 -4.12265 3.3420715 -7.4647217 7.4647217 -7.4647217z" fill-rule="evenodd"/><path fill="#d0a213" fill-opacity="0.6" d="m-280.20932 275.437l5.173218 -20.692917l34.440964 0l5.173218 20.692917z" fill-rule="evenodd"/><path fill="#785a00" d="m-257.86548 140.72665l-80.66144 34.440613l0 7.638138l80.66144 -34.440613z" fill-rule="evenodd"/><path stroke="#785a00" stroke-width="3.0" stroke-linejoin="round" stroke-linecap="butt" d="m-257.86548 140.72665l-80.66144 34.440613l0 7.638138l80.66144 -34.440613z" fill-rule="evenodd"/><path fill="#785a00" d="m-257.8261 140.72534l80.66141 34.440613l0 7.638138l-80.66141 -34.440613z" fill-rule="evenodd"/><path stroke="#785a00" stroke-width="3.0" stroke-linejoin="round" stroke-linecap="butt" d="m-257.8261 140.72534l80.66141 34.440613l0 7.638138l-80.66141 -34.440613z" fill-rule="evenodd"/><path fill="#7b5e06" fill-opacity="0.15" d="m-317.9344 180.71654l60.0 -27.732285l6.795273 26.855637l-33.871384 4.6666718l-7.91864 15.97113l10.695557 11.388443l-1.2493591 10.834656l-13.194214 1.5275574l-6.0866394 9.83989l-8.24408 -0.86613464l2.1679688 -4.771652l-2.005249 -9.341217l-4.2834473 -10.8346405l1.3018188 -12.362198z" fill-rule="evenodd"/><path fill="#a28017" d="m-287.1542 186.53252l0 0c0 -1.6206512 1.3138123 -2.9344482 2.9344482 -2.9344482l52.80829 0c0.7782593 0 1.524643 0.30915833 2.0749512 0.8594818c0.5503235 0.5503082 0.8594818 1.2966919 0.8594818 2.0749664l0 11.7374115c0 1.6206512 -1.313797 2.934433 -2.934433 2.934433l-52.80829 0c-1.620636 0 -2.9344482 -1.3137817 -2.9344482 -2.934433z" fill-rule="evenodd"/><path fill="#7b5e06" fill-opacity="0.15" d="m-197.6507 275.75592l-8.472443 -40.13913l-5.9711304 -1.2493439l-2.3621979 13.750656l-11.527573 -9.307083l-4.4435577 14.585312l6.1102295 17.637787l14.167984 4.165344z" fill-rule="evenodd"/><path fill="#7b5e06" fill-opacity="0.15" d="m-317.79004 275.6168l5.973755 -18.055115l5.5538025 0.27822876l8.750671 6.9448853l12.362213 0.83200073l0 6.3884583l-9.860901 1.3910828l-9.863525 -1.8057861z" fill-rule="evenodd"/><path fill="#7b5e06" fill-opacity="0.15" d="m-197.65092 180.7559l-6.94487 25.695541l-6.3884583 -0.83465576l-10.417328 6.1128693l-0.6929016 -9.167984l-4.0288696 -13.889755l3.0551147 -8.887146l7.362198 -1.6666718l3.4724426 11.110245l4.7217865 -6.249344z" fill-rule="evenodd"/><path fill="#8c6d10" fill-opacity="0.45" d="m-326.90552 105.708664l29.1391 -45.034122l32.451447 25.82677l-16.556427 13.908134l5.2966003 25.826775l-23.839905 27.816269l-11.257202 -13.246719l3.973755 -21.191597z" fill-rule="evenodd"/><path fill="#8c6d10" fill-opacity="0.45" d="m-246.11023 93.7874l14.56955 -29.803146l21.191605 32.45144l18.543304 -12.582672l8.608917 32.45144l-19.204727 23.839905l-25.826767 4.6351624l9.27034 -26.48819l-19.204727 -7.286087z" fill-rule="evenodd"/><path fill="#b7b7b7" d="m-257.8353 108.829735l-80.66141 34.440605l0 7.638138l80.66141 -34.440605z" fill-rule="evenodd"/><path stroke="#b7b7b7" stroke-width="3.0" stroke-linejoin="round" stroke-linecap="butt" d="m-257.8353 108.829735l-80.66141 34.440605l0 7.638138l80.66141 -34.440605z" fill-rule="evenodd"/><path fill="#b7b7b7" d="m-257.79593 108.82842l80.66141 34.440605l0 7.638138l-80.66141 -34.440605z" fill-rule="evenodd"/><path stroke="#b7b7b7" stroke-width="3.0" stroke-linejoin="round" stroke-linecap="butt" d="m-257.79593 108.82842l80.66141 34.440605l0 7.638138l-80.66141 -34.440605z" fill-rule="evenodd"/><path fill="#b7b7b7" d="m-257.85498 57.813988l-80.66144 34.440613l0 7.63813l80.66144 -34.440605z" fill-rule="evenodd"/><path stroke="#b7b7b7" stroke-width="3.0" stroke-linejoin="round" stroke-linecap="butt" d="m-257.85498 57.813988l-80.66144 34.440613l0 7.63813l80.66144 -34.440605z" fill-rule="evenodd"/><path fill="#b7b7b7" d="m-257.8156 57.812675l80.66141 34.440605l0 7.638138l-80.66141 -34.440605z" fill-rule="evenodd"/><path stroke="#b7b7b7" stroke-width="3.0" stroke-linejoin="round" stroke-linecap="butt" d="m-257.8156 57.812675l80.66141 34.440605l0 7.638138l-80.66141 -34.440605z" fill-rule="evenodd"/><path fill="#000000" fill-opacity="0.0" d="m-339.2362 190.27296l80.509186 -36.86351l82.20471 36.86351l0.4225769 -117.79527l-81.35434 -38.559055l-82.834656 38.92126z" fill-rule="evenodd"/><path stroke="#666666" stroke-width="2.0" stroke-linejoin="round" stroke-linecap="butt" d="m-339.2362 190.27296l80.509186 -36.86351l82.20471 36.86351l0.4225769 -117.79527l-81.35434 -38.559055l-82.834656 38.92126z" fill-rule="evenodd"/><path fill="#8c6d10" fill-opacity="0.45" d="m-273.8294 246.79265l3.2546082 -19.086609l6.7243958 0.86613464l7.8084106 8.026245l7.5905457 -4.989502l6.076111 18.005249l0.6509247 5.855652l-31.238846 -0.8661499l-2.3858337 -5.2073364z" fill-rule="evenodd"/><path fill="#bf9000" d="m68.66207 148.06335l119.43307 0l0 100.53543l-119.43307 0z" fill-rule="evenodd"/><path stroke="#bf9000" stroke-width="1.0" stroke-linejoin="round" stroke-linecap="butt" d="m68.66207 148.06335l119.43307 0l0 100.53543l-119.43307 0z" fill-rule="evenodd"/><path fill="#bf9000" d="m68.66207 148.06955l59.716545 -42.078735l59.716522 42.078735z" fill-rule="evenodd"/><path stroke="#bf9000" stroke-width="1.0" stroke-linejoin="round" stroke-linecap="butt" d="m68.66207 148.06955l59.716545 -42.078735l59.716522 42.078735z" fill-rule="evenodd"/><path fill="#7f6000" d="m128.29987 8.833333l-80.661415 37.18895l0 115.72444l80.661415 -37.18895z" fill-rule="evenodd"/><path stroke="#7f6000" stroke-width="3.0" stroke-linejoin="round" stroke-linecap="butt" d="m128.29987 8.833333l-80.661415 37.18895l0 115.72444l80.661415 -37.18895z" fill-rule="evenodd"/><path fill="#7f6000" d="m128.37862 8.833333l80.66141 37.18895l0 115.72444l-80.66141 -37.18895z" fill-rule="evenodd"/><path stroke="#7f6000" stroke-width="3.0" stroke-linejoin="round" stroke-linecap="butt" d="m128.37862 8.833333l80.66141 37.18895l0 115.72444l-80.66141 -37.18895z" fill-rule="evenodd"/><path fill="#9a7917" fill-opacity="0.75" d="m113.44962 189.52887l29.857964 0l0 0c1.9797668 0 3.8784485 0.78645325 5.278351 2.1863708c1.3999176 1.3999023 2.1863708 3.298584 2.1863708 5.278351l0 51.621887c0 2.1362305E-4 -1.6784668E-4 3.8146973E-4 -3.6621094E-4 3.8146973E-4l-44.787033 -3.8146973E-4l0 0c-2.0599365E-4 0 -3.7384033E-4 -1.5258789E-4 -3.7384033E-4 -3.6621094E-4l3.7384033E-4 -51.62152l0 0c0 -4.12265 3.342064 -7.4647217 7.464714 -7.4647217z" fill-rule="evenodd"/><path fill="#d0a213" fill-opacity="0.6" d="m105.98491 248.59973l5.1732254 -20.692902l34.44094 0l5.173233 20.692902z" fill-rule="evenodd"/><path fill="#785a00" d="m128.32874 113.88939l-80.66141 34.440613l0 7.6381226l80.66141 -34.440598z" fill-rule="evenodd"/><path stroke="#785a00" stroke-width="3.0" stroke-linejoin="round" stroke-linecap="butt" d="m128.32874 113.88939l-80.66141 34.440613l0 7.6381226l80.66141 -34.440598z" fill-rule="evenodd"/><path fill="#785a00" d="m128.3681 113.88808l80.66142 34.440613l0 7.6381226l-80.66142 -34.440598z" fill-rule="evenodd"/><path stroke="#785a00" stroke-width="3.0" stroke-linejoin="round" stroke-linecap="butt" d="m128.3681 113.88808l80.66142 34.440613l0 7.6381226l-80.66142 -34.440598z" fill-rule="evenodd"/><path fill="#7b5e06" fill-opacity="0.15" d="m68.25984 153.87927l60.0 -27.732292l6.795273 26.855644l-33.87139 4.6666718l-7.9186325 15.97113l10.695541 11.388443l-1.2493439 10.8346405l-13.194229 1.5275726l-6.0866165 9.83989l-8.244095 -0.8661499l2.167984 -4.771652l-2.005249 -9.341202l-4.2834625 -10.8346405l1.3018341 -12.362213z" fill-rule="evenodd"/><path fill="#a28017" d="m110.83838 154.89885l4.5068436 -7.8052216l7.805214 -4.506836l9.013687 0l7.8052063 4.506836l4.506836 7.8052216l0 9.013687l-4.506836 7.8052063l-7.8052063 4.506851l-9.013687 0l-7.805214 -4.506851l-4.5068436 -7.8052063z" fill-rule="evenodd"/><path fill="#7b5e06" fill-opacity="0.15" d="m188.54353 248.91864l-8.472443 -40.139114l-5.9711304 -1.2493439l-2.3622131 13.750656l-11.527557 -9.307083l-4.443573 14.585297l6.1102448 17.637802l14.167984 4.165344z" fill-rule="evenodd"/><path fill="#7b5e06" fill-opacity="0.15" d="m68.4042 248.77953l5.973755 -18.055115l5.5538025 0.2782135l8.750656 6.9448853l12.3622055 0.832016l0 6.3884583l-9.860893 1.3910675l-9.86351 -1.8057709z" fill-rule="evenodd"/><path fill="#7b5e06" fill-opacity="0.15" d="m188.5433 153.91864l-6.9448853 25.695526l-6.388443 -0.8346405l-10.417328 6.1128693l-0.69291687 -9.167984l-4.0288696 -13.8897705l3.05513 -8.887131l7.362198 -1.6666718l3.4724426 11.110245l4.7217865 -6.249344z" fill-rule="evenodd"/><path fill="#8c6d10" fill-opacity="0.45" d="m59.288715 78.87139l29.139103 -45.034122l32.451447 25.826775l-16.556427 13.908138l5.296585 25.826767l-23.839897 27.816277l-11.257217 -13.246719l3.973755 -21.191605z" fill-rule="evenodd"/><path fill="#8c6d10" fill-opacity="0.45" d="m140.08398 66.950134l14.569565 -29.803154l21.19159 32.451447l18.54332 -12.58268l8.608917 32.451447l-19.204727 23.83989l-25.826767 4.6351776l9.27034 -26.48819l-19.204727 -7.2860947z" fill-rule="evenodd"/><path fill="#b7b7b7" d="m128.35892 81.99247l-80.66141 34.440605l0 7.63813l80.66141 -34.440605z" fill-rule="evenodd"/><path stroke="#b7b7b7" stroke-width="3.0" stroke-linejoin="round" stroke-linecap="butt" d="m128.35892 81.99247l-80.66141 34.440605l0 7.63813l80.66141 -34.440605z" fill-rule="evenodd"/><path fill="#b7b7b7" d="m128.3983 81.99116l80.66141 34.440605l0 7.63813l-80.66141 -34.440605z" fill-rule="evenodd"/><path stroke="#b7b7b7" stroke-width="3.0" stroke-linejoin="round" stroke-linecap="butt" d="m128.3983 81.99116l80.66141 34.440605l0 7.63813l-80.66141 -34.440605z" fill-rule="evenodd"/><path fill="#b7b7b7" d="m128.33923 30.976719l-80.66141 34.44061l0 7.63813l80.66141 -34.440605z" fill-rule="evenodd"/><path stroke="#b7b7b7" stroke-width="3.0" stroke-linejoin="round" stroke-linecap="butt" d="m128.33923 30.976719l-80.66141 34.44061l0 7.63813l80.66141 -34.440605z" fill-rule="evenodd"/><path fill="#b7b7b7" d="m128.37862 30.975407l80.66141 34.44061l0 7.63813l-80.66141 -34.440605z" fill-rule="evenodd"/><path stroke="#b7b7b7" stroke-width="3.0" stroke-linejoin="round" stroke-linecap="butt" d="m128.37862 30.975407l80.66141 34.44061l0 7.63813l-80.66141 -34.440605z" fill-rule="evenodd"/><path fill="#000000" fill-opacity="0.0" d="m46.958004 163.4357l80.509186 -36.863518l82.20473 36.863518l0.42256165 -117.79528l-81.354324 -38.559055l-82.83465 38.92126z" fill-rule="evenodd"/><path stroke="#666666" stroke-width="2.0" stroke-linejoin="round" stroke-linecap="butt" d="m46.958004 163.4357l80.509186 -36.863518l82.20473 36.863518l0.42256165 -117.79528l-81.354324 -38.559055l-82.83465 38.92126z" fill-rule="evenodd"/><path fill="#8c6d10" fill-opacity="0.45" d="m112.36483 219.95538l3.254593 -19.086624l6.724411 0.8661499l7.808403 8.026245l7.5905457 -4.989502l6.076111 18.005249l0.6509247 5.855652l-31.238846 -0.8661499l-2.385826 -5.2073517z" fill-rule="evenodd"/></g></svg>