<svg version="1.1" viewBox="0.0 0.0 256.0 64.0" fill="none" stroke="none" stroke-linecap="square" stroke-miterlimit="10" xmlns:xlink="http://www.w3.org/1999/xlink" xmlns="http://www.w3.org/2000/svg"><clipPath id="p.0"><path d="m0 0l256.0 0l0 64.0l-256.0 0l0 -64.0z" clip-rule="nonzero"/></clipPath><g clip-path="url(#p.0)"><path fill="#000000" fill-opacity="0.0" d="m0 0l256.0 0l0 64.0l-256.0 0z" fill-rule="evenodd"/><path fill="#ffffff" d="m162.56563 13.7009735l0 0c0 -7.565303 -6.132904 -13.698193 -13.698196 -13.698193l0 0c-3.6329956 0 -7.1171722 1.4431982 -9.686081 4.012108c-2.5689087 2.5689092 -4.0121155 6.0530977 -4.0121155 9.686085l0 0c0 7.565302 6.132889 13.698193 13.698196 13.698193l0 0c7.5652924 0 13.698196 -6.1328907 13.698196 -13.698193z" fill-rule="evenodd"/><path fill="#ffffff" d="m146.0703 19.266926l0 0c0 -6.692383 -5.4252625 -12.117632 -12.117645 -12.117632l0 0c-3.213791 0 -6.2959595 1.2766757 -8.568451 3.549172c-2.272499 2.2724972 -3.5491714 5.354665 -3.5491714 8.5684595l0 0c0 6.692383 5.425247 12.117632 12.117622 12.117632l0 0c6.692383 0 12.117645 -5.425249 12.117645 -12.117632z" fill-rule="evenodd"/><path fill="#ffffff" d="m131.00398 12.120413l0 0c0 -6.6923833 -5.425255 -12.117632 -12.117638 -12.117632l0 0c-3.213791 0 -6.2959595 1.2766753 -8.568459 3.549172c-2.272499 2.272497 -3.5491714 5.354664 -3.5491714 8.5684595l0 0c0 6.692383 5.425247 12.117632 12.11763 12.117632l0 0c6.692383 0 12.117638 -5.425249 12.117638 -12.117632z" fill-rule="evenodd"/><path fill="#ffffff" d="m112.36441 12.120413l0 0c0 -6.6923833 -5.425247 -12.117632 -12.11763 -12.117632l0 0c-3.2137985 0 -6.295967 1.2766753 -8.568459 3.549172c-2.272499 2.272497 -3.549179 5.354664 -3.549179 8.5684595l0 0c0 6.692383 5.425255 12.117632 12.117638 12.117632l0 0c6.692383 0 12.11763 -5.425249 12.11763 -12.117632z" fill-rule="evenodd"/><path fill="#ffffff" d="m175.5585 26.157093l0 0c0 -6.692383 -5.425247 -12.117631 -12.11763 -12.117631l0 0c-3.213791 0 -6.2959595 1.2766762 -8.568451 3.5491724c-2.2725067 2.2724972 -3.549179 5.354664 -3.549179 8.568459l0 0c0 6.692383 5.425247 12.117634 12.11763 12.117634l0 0c6.692383 0 12.11763 -5.425251 12.11763 -12.117634z" fill-rule="evenodd"/><path fill="#ffffff" d="m166.88242 46.032234l0 0c0 -6.692383 -5.425247 -12.11763 -12.11763 -12.11763l0 0c-3.213791 0 -6.2959595 1.2766724 -8.568451 3.5491714c-2.2725067 2.2724953 -3.549179 5.354664 -3.549179 8.568459l0 0c0 6.692383 5.425247 12.11763 12.11763 12.11763l0 0c6.692383 0 12.11763 -5.425247 12.11763 -12.11763z" fill-rule="evenodd"/><path fill="#ffffff" d="m146.0703 49.143204l0 0c0 -6.002495 -4.8659973 -10.868477 -10.8684845 -10.868477l0 0c-2.8825073 0 -5.646942 1.1450653 -7.685173 3.1833038c-2.0382385 2.0382347 -3.1833038 4.8026733 -3.1833038 7.685173l0 0c0 6.002495 4.8659744 10.868481 10.868477 10.868481l0 0c6.002487 0 10.8684845 -4.865986 10.8684845 -10.868481z" fill-rule="evenodd"/><path fill="#ffffff" d="m128.11336 51.879444l0 0c0 -6.692383 -5.4252396 -12.117634 -12.117622 -12.117634l0 0c-3.2137985 0 -6.295967 1.2766762 -8.568459 3.5491753c-2.272499 2.2724953 -3.5491714 5.354664 -3.5491714 8.568459l0 0c0 6.692383 5.425247 12.11763 12.11763 12.11763l0 0c6.692383 0 12.117622 -5.425247 12.117622 -12.11763z" fill-rule="evenodd"/><path fill="#ffffff" d="m106.768715 47.78358l0 0c0 -7.447975 -6.04158 -13.485748 -13.494247 -13.485748l0 0c-3.5788956 0 -7.011215 1.4208145 -9.541878 3.9498825c-2.5306625 2.5290718 -3.9523697 5.9592247 -3.9523697 9.535866l0 0c0 7.447975 6.04158 13.485752 13.494247 13.485752l0 0c7.452667 0 13.494247 -6.037777 13.494247 -13.485752z" fill-rule="evenodd"/><path fill="#ffffff" d="m104.02398 27.64418l0 0c0 -6.692383 -5.425247 -12.117631 -12.11763 -12.117631l0 0c-3.2137985 0 -6.295967 1.2766752 -8.568459 3.5491724c-2.272499 2.2724953 -3.549179 5.354664 -3.549179 8.568459l0 0c0 6.692383 5.425255 12.11763 12.117638 12.11763l0 0c6.692383 0 12.11763 -5.425247 12.11763 -12.11763z" fill-rule="evenodd"/><path fill="#ffffff" d="m157.98398 15.526549l-59.262527 0l0 30.574501l59.262527 0z" fill-rule="evenodd"/><path fill="#ffffff" d="m175.84773 15.018809l0 0c0 -6.8378696 5.5431824 -12.381058 12.381058 -12.381058l0 0c3.283661 0 6.432831 1.304429 8.75473 3.626328c2.3218994 2.3218985 3.6263275 5.4710693 3.6263275 8.75473l0 0c0 6.8378687 -5.5431976 12.381059 -12.381058 12.381059l0 0c-6.8378754 0 -12.381058 -5.54319 -12.381058 -12.381059z" fill-rule="evenodd"/><path fill="#ffffff" d="m189.70938 19.266926l0 0c0 -6.692383 5.425247 -12.117632 12.11763 -12.117632l0 0c3.213791 0 6.2959595 1.2766757 8.568466 3.549172c2.2724915 2.2724972 3.5491638 5.354665 3.5491638 8.5684595l0 0c0 6.692383 -5.425247 12.117632 -12.11763 12.117632l0 0c-6.692383 0 -12.11763 -5.425249 -12.11763 -12.117632z" fill-rule="evenodd"/><path fill="#ffffff" d="m204.7757 12.120413l0 0c0 -6.6923833 5.425247 -12.117632 12.11763 -12.117632l0 0c3.213791 0 6.2959595 1.2766753 8.568451 3.549172c2.2725067 2.272497 3.549179 5.354664 3.549179 8.5684595l0 0c0 6.692383 -5.425247 12.117632 -12.11763 12.117632l0 0c-6.692383 0 -12.11763 -5.425249 -12.11763 -12.117632z" fill-rule="evenodd"/><path fill="#ffffff" d="m223.41527 12.120413l0 0c0 -6.6923833 5.425247 -12.117632 12.11763 -12.117632l0 0c3.213791 0 6.2959595 1.2766753 8.568451 3.549172c2.2725067 2.272497 3.549179 5.354664 3.549179 8.5684595l0 0c0 6.692383 -5.425247 12.117632 -12.11763 12.117632l0 0c-6.692383 0 -12.11763 -5.425249 -12.11763 -12.117632z" fill-rule="evenodd"/><path fill="#ffffff" d="m154.5877 28.06176l0 0c0 -10.855177 8.799866 -19.655037 19.655045 -19.655037l0 0c5.212845 0 10.212173 2.0707922 13.898209 5.7568264c3.6860352 3.6860342 5.7568207 8.68537 5.7568207 13.89821l0 0c0 10.855175 -8.79985 19.655037 -19.65503 19.655037l0 0c-10.855179 0 -19.655045 -8.799862 -19.655045 -19.655037z" fill-rule="evenodd"/><path fill="#ffffff" d="m168.89725 46.032234l0 0c0 -6.692383 5.425247 -12.11763 12.11763 -12.11763l0 0c3.2138062 0 6.2959747 1.2766724 8.568466 3.5491714c2.2724915 2.2724953 3.5491638 5.354664 3.5491638 8.568459l0 0c0 6.692383 -5.425247 12.11763 -12.11763 12.11763l0 0c-6.692383 0 -12.11763 -5.425247 -12.11763 -12.11763z" fill-rule="evenodd"/><path fill="#ffffff" d="m189.70938 49.143204l0 0c0 -6.002495 4.865982 -10.868477 10.8684845 -10.868477l0 0c2.882492 0 5.646942 1.1450653 7.6851654 3.1833038c2.0382385 2.0382347 3.1833038 4.8026733 3.1833038 7.685173l0 0c0 6.002495 -4.865982 10.868481 -10.868469 10.868481l0 0c-6.0025024 0 -10.8684845 -4.865986 -10.8684845 -10.868481z" fill-rule="evenodd"/><path fill="#ffffff" d="m207.6663 51.879444l0 0c0 -6.692383 5.425247 -12.117634 12.11763 -12.117634l0 0c3.213791 0 6.2959595 1.2766762 8.568466 3.5491753c2.2724915 2.2724953 3.5491638 5.354664 3.5491638 8.568459l0 0c0 6.692383 -5.425247 12.11763 -12.11763 12.11763l0 0c-6.692383 0 -12.11763 -5.425247 -12.11763 -12.11763z" fill-rule="evenodd"/><path fill="#ffffff" d="m231.75569 27.64418l0 0c0 -6.692383 5.425247 -12.117631 12.11763 -12.117631l0 0c3.2138062 0 6.2959595 1.2766752 8.568466 3.5491724c2.2724915 2.2724953 3.5491638 5.354664 3.5491638 8.568459l0 0c0 6.692383 -5.425247 12.11763 -12.11763 12.11763l0 0c-6.692383 0 -12.11763 -5.425247 -12.11763 -12.11763z" fill-rule="evenodd"/><path fill="#ffffff" d="m177.79541 15.527487l49.320282 0l0 30.574503l-49.320282 0z" fill-rule="evenodd"/><path fill="#ffffff" d="m29.488909 19.266926l0 0c0 -6.692383 5.425249 -12.117632 12.117632 -12.117632l0 0c3.2137947 0 6.2959633 1.2766757 8.568459 3.549172c2.272499 2.2724972 3.5491714 5.354665 3.5491714 8.5684595l0 0c0 6.692383 -5.425247 12.117632 -12.11763 12.117632l0 0c-6.692383 0 -12.117632 -5.425249 -12.117632 -12.117632z" fill-rule="evenodd"/><path fill="#ffffff" d="m44.55522 12.120413l0 0c0 -6.6923833 5.425247 -12.117632 12.11763 -12.117632l0 0c3.2137985 0 6.2959633 1.2766753 8.568459 3.549172c2.272499 2.272497 3.5491714 5.354664 3.5491714 8.5684595l0 0c0 6.692383 -5.425247 12.117632 -12.11763 12.117632l0 0c-6.692383 0 -12.11763 -5.425249 -12.11763 -12.117632z" fill-rule="evenodd"/><path fill="#ffffff" d="m63.19479 12.120413l0 0c0 -6.6923833 5.425251 -12.117632 12.117634 -12.117632l0 0c3.213791 0 6.2959595 1.2766753 8.568459 3.549172c2.2724915 2.272497 3.5491714 5.354664 3.5491714 8.5684595l0 0c0 6.692383 -5.425247 12.117632 -12.11763 12.117632l0 0c-6.692383 0 -12.117634 -5.425249 -12.117634 -12.117632z" fill-rule="evenodd"/><path fill="#ffffff" d="m0.30449617 33.154327l0 0c0 -11.967445 9.701531 -21.668976 21.668976 -21.668976l0 0c5.746969 0 11.25856 2.2829742 15.322281 6.346696c4.0637207 4.0637207 6.346695 9.57531 6.346695 15.322281l0 0c0 11.967445 -9.70153 21.668976 -21.668976 21.668976l0 0c-11.967445 0 -21.668976 -9.70153 -21.668976 -21.668976z" fill-rule="evenodd"/><path fill="#ffffff" d="m29.488909 49.143204l0 0c0 -6.002495 4.865984 -10.868477 10.868479 -10.868477l0 0c2.8824997 0 5.646942 1.1450653 7.685177 3.1833038c2.0382347 2.0382347 3.1833038 4.8026733 3.1833038 7.685173l0 0c0 6.002495 -4.865986 10.868481 -10.868481 10.868481l0 0c-6.002495 0 -10.868479 -4.865986 -10.868479 -10.868481z" fill-rule="evenodd"/><path fill="#ffffff" d="m47.445835 51.879444l0 0c0 -6.692383 5.425247 -12.117634 12.11763 -12.117634l0 0c3.2137947 0 6.2959633 1.2766762 8.568462 3.5491753c2.2724915 2.2724953 3.5491714 5.354664 3.5491714 8.568459l0 0c0 6.692383 -5.425247 12.11763 -12.117634 12.11763l0 0c-6.692383 0 -12.11763 -5.425247 -12.11763 -12.11763z" fill-rule="evenodd"/><path fill="#ffffff" d="m71.53505 24.338184l0 0c0 -8.513312 6.9014053 -15.414716 15.414711 -15.414716l0 0c4.0882416 0 8.009033 1.6240454 10.899849 4.514866c2.8908234 2.8908186 4.5148697 6.811612 4.5148697 10.89985l0 0c0 8.5133095 -6.9014053 15.414715 -15.414719 15.414715l0 0c-8.513306 0 -15.414711 -6.9014053 -15.414711 -15.414715z" fill-rule="evenodd"/><path fill="#ffffff" d="m17.57522 15.526549l59.262527 0l0 30.574501l-59.262527 0z" fill-rule="evenodd"/><path fill="#ffffff" d="m68.78983 45.260757l0 0c0 -6.054123 4.9116364 -10.961956 10.970444 -10.961956l0 0c2.909546 0 5.6999207 1.1549187 7.757286 3.210682c2.0573578 2.055767 3.2131653 4.8439827 3.2131653 7.751274l0 0c0 6.054119 -4.9116364 10.961952 -10.970451 10.961952l0 0c-6.0588074 0 -10.970444 -4.907833 -10.970444 -10.961952z" fill-rule="evenodd"/><path fill="#ffffff" d="m216.53546 33.259747l0 0c0 -7.3840904 5.985977 -13.370079 13.370071 -13.370079l0 0c3.5459595 0 6.946701 1.4086304 9.454071 3.916006c2.5073853 2.5073757 3.9160004 5.9081078 3.9160004 9.454073l0 0c0 7.3840904 -5.985977 13.370079 -13.370071 13.370079l0 0c-7.384094 0 -13.370071 -5.9859886 -13.370071 -13.370079z" fill-rule="evenodd"/><path fill="#ffffff" d="m231.77931 44.109226l0 0c0 -6.6882973 5.421936 -12.110237 12.110245 -12.110237l0 0c3.2118225 0 6.2921143 1.275898 8.563232 3.5470085c2.271103 2.2711067 3.546997 5.3513947 3.546997 8.563229l0 0c0 6.6882973 -5.421936 12.110237 -12.1102295 12.110237l0 0c-6.6883087 0 -12.110245 -5.42194 -12.110245 -12.110237z" fill-rule="evenodd"/><path fill="#ffffff" d="m217.79506 44.109226l0 0c0 -6.6882973 5.421936 -12.110237 12.110245 -12.110237l0 0c3.2118378 0 6.2921143 1.275898 8.563232 3.5470085c2.271103 2.2711067 3.546997 5.3513947 3.546997 8.563229l0 0c0 6.6882973 -5.421936 12.110237 -12.1102295 12.110237l0 0c-6.6883087 0 -12.110245 -5.42194 -12.110245 -12.110237z" fill-rule="evenodd"/><path fill="#ffffff" d="m0.30518243 29.186039l0 0c0 -6.6882973 5.4219375 -12.110235 12.110236 -12.110235l0 0c3.211834 0 6.29212 1.2758961 8.5632305 3.5470066c2.2711086 2.2711086 3.5470066 5.3513947 3.5470066 8.563229l0 0c0 6.688301 -5.421938 12.110237 -12.110237 12.110237l0 0c-6.6882987 0 -12.110236 -5.421936 -12.110236 -12.110237z" fill-rule="evenodd"/><path fill="#ffffff" d="m8.305182 15.831709l0 0c0 -6.688298 5.421937 -12.110236 12.110236 -12.110236l0 0c3.211834 0 6.29212 1.2758963 8.5632305 3.547006c2.2711086 2.27111 3.5470047 5.351396 3.5470047 8.5632305l0 0c0 6.688299 -5.421936 12.110237 -12.110235 12.110237l0 0c-6.688299 0 -12.110236 -5.421938 -12.110236 -12.110237z" fill-rule="evenodd"/><path fill="#ffffff" d="m2.1207349E-4 48.840687l0 0c0 -5.2445297 4.251532 -9.496063 9.496063 -9.496063l0 0c2.5185127 0 4.933873 1.0004768 6.714731 2.781334c1.7808571 1.7808571 2.781332 4.1962166 2.781332 6.7147293l0 0c0 5.2445335 -4.2515326 9.496063 -9.496063 9.496063l0 0c-5.2445307 0 -9.496063 -4.2515297 -9.496063 -9.496063z" fill-rule="evenodd"/></g></svg>