<svg version="1.1" viewBox="0.0 0.0 256.0 256.0" fill="none" stroke="none" stroke-linecap="square" stroke-miterlimit="10" xmlns:xlink="http://www.w3.org/1999/xlink" xmlns="http://www.w3.org/2000/svg"><clipPath id="p.0"><path d="m0 0l256.0 0l0 256.0l-256.0 0l0 -256.0z" clip-rule="nonzero"/></clipPath><g clip-path="url(#p.0)"><path fill="#000000" fill-opacity="0.0" d="m0 0l256.0 0l0 256.0l-256.0 0z" fill-rule="evenodd"/><path fill="#7f6000" d="m0 65.05728l0 0c0 -35.930145 29.127136 -65.05728 65.05728 -65.05728l125.88544 0l0 0c17.254272 0 33.801834 6.8542295 46.00244 19.054836c12.200607 12.200607 19.05484 28.74818 19.05484 46.002445l0 125.88544c0 35.930145 -29.127136 65.05728 -65.05728 65.05728l-125.88544 0l0 0c-35.930145 0 -65.05728 -29.127136 -65.05728 -65.05728z" fill-rule="evenodd"/><path fill="#856502" d="m35.43832 79.86877l43.3727 -42.845146l32.262474 9.522312l49.719154 -20.627298l35.968506 13.223097l26.446198 -5.291336l14.280838 36.496063l-13.753281 49.719162l19.572174 65.58793l-37.026245 42.312332l-26.973755 -18.51181l-29.091858 33.32283l-39.669296 -17.454071l-53.42257 14.280838l-18.51181 -44.957993l-21.15748 -22.215225l16.396326 -25.91864l-13.750658 -32.79265z" fill-rule="evenodd"/><path fill="#bf9000" d="m-193.18365 33.030834l0 0c1.6174622 -1.617466 4.2398834 -1.617466 5.8573456 0l11.714355 11.714355l0 0c0.7767334 0.7767334 1.2131042 1.8302116 1.2131042 2.9286804c0 1.098465 -0.43637085 2.1519432 -1.2131042 2.9286766l-154.55968 154.5597c-1.6174622 1.6174622 -4.2398987 1.6174622 -5.857361 0l-11.714355 -11.714371c-1.6174622 -1.6174622 -1.6174622 -4.2398834 0 -5.8573456z" fill-rule="evenodd"/><path fill="#b28600" d="m-188.92244 44.095684l-21.689972 14.960453l-28.050156 35.529457l-18.700104 11.220802l-12.716675 18.700104l-26.55429 18.32521l-14.212524 20.195969l-20.570862 17.579132l-5.235504 13.4646l6.7313843 3.7396393l12.343628 -19.822922l21.691803 -12.71666l6.3583374 -13.837631l28.798096 -22.814651l4.4875793 -11.966881l19.82106 -13.837631l23.562576 -26.55429l21.69368 -17.952175z" fill-rule="evenodd"/><path fill="#999999" d="m-221.35706 20.053236l58.722702 58.722702l-37.030884 37.030884l-58.722702 -58.722706z" fill-rule="evenodd"/><path fill="#adadad" d="m-221.35706 7.709608l71.06633 71.06633l-12.343628 0l-58.722702 -58.722702z" fill-rule="evenodd"/><path fill="#7a7a7a" d="m-270.73157 57.084118l12.343628 0l58.722702 58.722706l0 12.343628z" fill-rule="evenodd"/><path fill="#c1c1c1" d="m-221.35706 7.709608l0 12.343628l-37.030884 37.030884l-12.343628 0z" fill-rule="evenodd"/><path fill="#5b5b5b" d="m-150.29073 78.77594l-49.37451 49.37451l0 -12.343628l37.030884 -37.030884z" fill-rule="evenodd"/><path fill="#000000" fill-opacity="0.0" d="m-221.35706 7.709608l71.06633 71.06633l-49.37451 49.37451l-71.06633 -71.06633zm0 12.343628l58.722702 58.722702l-37.030884 37.030884l-58.722702 -58.722706zm0 -12.343628l0 12.343628m-49.37451 37.030884l12.343628 0m108.09721 21.691822l-12.343628 0m-37.030884 49.37451l0 -12.343628" fill-rule="evenodd"/><path fill="#909090" d="m-233.26149 37.742523l22.35376 4.30011l12.893936 18.913242l17.191925 5.1575737l2.150055 19.341972l-21.489899 8.598091l-18.915375 -28.36879l-21.063293 -1.2904663z" fill-rule="evenodd"/><path fill="#bf9000" d="m-373.41693 50.602547l0 0c-1.6174622 -1.617466 -1.6174622 -4.239891 0 -5.857357l11.714355 -11.714355l0 0c0.7767334 -0.7767334 1.8302307 -1.2131004 2.9286804 -1.2131004c1.0984802 0 2.151947 0.43636703 2.9286804 1.2131004l154.5597 154.5597c1.6174774 1.6174622 1.6174774 4.2398834 0 5.8573456l-11.714355 11.714371c-1.6174622 1.6174622 -4.2398834 1.6174622 -5.8573456 0z" fill-rule="evenodd"/><path fill="#b28600" d="m-362.35208 46.341328l14.960449 21.689968l35.52948 28.050156l11.220795 18.700104l18.700104 12.716667l18.325195 26.554298l20.195984 14.212524l17.579132 20.570847l13.4646 5.2355194l3.7396393 -6.731369l-19.822922 -12.343628l-12.71666 -21.691833l-13.837631 -6.358322l-22.814667 -28.798088l-11.966858 -4.4875793l-13.8376465 -19.821075l-26.55429 -23.562576l-17.952179 -21.693676z" fill-rule="evenodd"/><path fill="#999999" d="m-386.39453 78.77594l58.722717 -58.722702l37.030884 37.030884l-58.722717 58.722706z" fill-rule="evenodd"/><path fill="#adadad" d="m-398.73816 78.77594l71.066345 -71.06633l0 12.343628l-58.722717 58.722702z" fill-rule="evenodd"/><path fill="#7a7a7a" d="m-349.36365 128.15045l0 -12.343628l58.722717 -58.722706l12.343628 0z" fill-rule="evenodd"/><path fill="#c1c1c1" d="m-398.73816 78.77594l12.343628 0l37.030884 37.030884l0 12.343628z" fill-rule="evenodd"/><path fill="#5b5b5b" d="m-327.6718 7.709608l49.37451 49.37451l-12.343628 0l-37.030884 -37.030884z" fill-rule="evenodd"/><path fill="#000000" fill-opacity="0.0" d="m-398.73816 78.77594l71.066345 -71.06633l49.37451 49.37451l-71.066345 71.06633zm12.343628 0l58.722717 -58.722702l37.030884 37.030884l-58.722717 58.722706zm-12.343628 0l12.343628 0m37.030884 49.37451l0 -12.343628m21.691833 -108.09721l0 12.343628m49.37451 37.030884l-12.343628 0" fill-rule="evenodd"/><path fill="#909090" d="m-368.70523 90.680374l4.30011 -22.35376l18.913239 -12.89394l5.157593 -17.191917l19.34195 -2.150055l8.598114 21.489895l-28.368805 18.915375l-1.2904663 21.063301z" fill-rule="evenodd"/><path fill="#cccccc" d="m104.99475 43.034184l0 0c0 -8.616257 6.9848557 -15.601112 15.601112 -15.601112l19.56942 0l0 0c4.13768 0 8.105881 1.6436844 11.031662 4.569462c2.9257812 2.9257736 4.569458 6.893978 4.569458 11.031651l0 19.569427c0 8.616261 -6.984848 15.601116 -15.60112 15.601116l-19.56942 0c-8.616257 0 -15.601112 -6.9848557 -15.601112 -15.601116z" fill-rule="evenodd"/><path fill="#cccccc" d="m104.99475 193.3964l0 0c0 -8.616257 6.9848557 -15.60112 15.601112 -15.60112l19.56942 0l0 0c4.13768 0 8.105881 1.643692 11.031662 4.569458c2.9257812 2.9257812 4.569458 6.893982 4.569458 11.031662l0 19.569427c0 8.616257 -6.984848 15.601105 -15.60112 15.601105l-19.56942 0c-8.616257 0 -15.601112 -6.984848 -15.601112 -15.601105z" fill-rule="evenodd"/><path fill="#cccccc" d="m212.96582 102.614174l0 0c8.616257 0 15.601105 6.9848557 15.601105 15.601112l0 19.569427l0 0c0 4.137665 -1.6436768 8.105881 -4.569458 11.031647c-2.9257812 2.9257812 -6.893982 4.5694733 -11.031647 4.5694733l-19.569427 0c-8.616257 0 -15.60112 -6.9848633 -15.60112 -15.60112l0 -19.569427c0 -8.616257 6.9848633 -15.601112 15.60112 -15.601112z" fill-rule="evenodd"/><path fill="#cccccc" d="m62.60361 102.614174l0 0c8.616261 0 15.601116 6.9848557 15.601116 15.601112l0 19.569427l0 0c0 4.137665 -1.6436844 8.105881 -4.5694656 11.031647c-2.9257736 2.9257812 -6.893982 4.5694733 -11.031651 4.5694733l-19.569427 0c-8.616257 0 -15.601112 -6.9848633 -15.601112 -15.60112l0 -19.569427c0 -8.616257 6.9848557 -15.601112 15.601112 -15.601112z" fill-rule="evenodd"/><path fill="#cccccc" d="m171.9425 49.839832l0 0c6.093384 -6.093384 15.972717 -6.093384 22.066101 0l13.8394165 13.83942l0 0c2.9261475 2.9261475 4.570038 6.8948517 4.570038 11.033043c0 4.138199 -1.6438904 8.106903 -4.570038 11.033051l-13.8394165 13.8394165c-6.093384 6.093384 -15.972717 6.093384 -22.066101 0l-13.8394165 -13.8394165c-6.093384 -6.093384 -6.093384 -15.97271 0 -22.066093z" fill-rule="evenodd"/><path fill="#cccccc" d="m63.679253 158.10309l0 0c6.093384 -6.093384 15.97271 -6.093384 22.066093 0l13.8394165 13.8394165l0 0c2.9261475 2.9261475 4.570038 6.8948517 4.570038 11.033051c0 4.138199 -1.6438904 8.106903 -4.570038 11.033051l-13.8394165 13.8394165c-6.093384 6.093384 -15.97271 6.093384 -22.066093 0l-13.83942 -13.8394165c-6.093384 -6.093384 -6.093384 -15.972717 0 -22.066101z" fill-rule="evenodd"/><path fill="#cccccc" d="m206.16017 170.25465l0 0c6.093384 6.093384 6.093384 15.972717 0 22.066101l-13.8394165 13.8394165l0 0c-2.9261475 2.9261475 -6.8948517 4.570038 -11.033051 4.570038c-4.138199 0 -8.106903 -1.6438904 -11.033051 -4.570038l-13.8394165 -13.8394165c-6.093384 -6.093384 -6.093384 -15.972717 0 -22.066101l13.8394165 -13.8394165c6.093384 -6.093384 15.972717 -6.093384 22.066101 0z" fill-rule="evenodd"/><path fill="#cccccc" d="m97.89691 61.991398l0 0c6.093384 6.09338 6.093384 15.972706 0 22.06609l-13.839424 13.839424l0 0c-2.9261475 2.9261398 -6.8948517 4.570038 -11.033043 4.570038c-4.138199 0 -8.106903 -1.643898 -11.033047 -4.570038l-13.83942 -13.839424c-6.093384 -6.093384 -6.093384 -15.97271 0 -22.06609l13.83942 -13.83942c6.09338 -6.093384 15.972706 -6.093384 22.06609 0z" fill-rule="evenodd"/><path fill="#b7b7b7" d="m54.204723 128.0l0 0c0 -40.756004 33.039272 -73.79527 73.79527 -73.79527l0 0c19.571732 0 38.341843 7.7748375 52.181137 21.61414c13.839294 13.839294 21.614136 32.609413 21.614136 52.181137l0 0c0 40.756012 -33.03926 73.79527 -73.79527 73.79527l0 0c-40.756004 0 -73.79527 -33.03926 -73.79527 -73.79527zm46.45265 0c0 15.100922 12.2417145 27.34262 27.342628 27.34262c15.100922 0 27.34262 -12.241699 27.34262 -27.34262c0 -15.100914 -12.241699 -27.342628 -27.34262 -27.342628l0 0c-15.100914 0 -27.342628 12.2417145 -27.342628 27.342628z" fill-rule="evenodd"/><path fill="#bcbcbc" d="m80.79527 84.76903l-13.908134 27.15223l5.9606323 34.43569l16.556427 22.51706l8.608925 19.868774l36.4252 4.6351776l17.21785 -13.246719l23.83989 -9.270355l9.934387 -33.774277l7.286087 -19.20472l-13.908142 -27.816269l-27.152222 -17.21785l-33.11287 -7.2860947l-31.125984 13.908142l10.595802 19.868767l17.88189 -14.569557l26.488197 10.595802l21.855637 5.296585l3.3097076 29.139107l-14.56955 24.503937l-17.879272 16.556427l-27.152222 -9.27034l-13.908142 -17.881882l-0.6614151 -33.774284z" fill-rule="evenodd"/><path fill="#bcbcbc" d="m80.71129 85.154854l6.755905 -5.509186l11.020996 0.35433197l6.845146 5.5118103l-3.8215256 9.776901l-9.779526 17.955383l-12.532806 -4.1784744l0 -11.288719z" fill-rule="evenodd"/></g></svg>