<svg version="1.1" viewBox="0.0 0.0 256.0 256.0" fill="none" stroke="none" stroke-linecap="square" stroke-miterlimit="10" xmlns:xlink="http://www.w3.org/1999/xlink" xmlns="http://www.w3.org/2000/svg"><clipPath id="p.0"><path d="m0 0l256.0 0l0 256.0l-256.0 0l0 -256.0z" clip-rule="nonzero"/></clipPath><g clip-path="url(#p.0)"><path fill="#7f6000" d="m0 0l256.0 0l0 256.0l-256.0 0z" fill-rule="evenodd"/><path fill="#bf9000" d="m334.3474 230.14735c-5.9943237 -5.55336 -13.044617 -32.08748 -12.16272 -33.850388c0.881897 -1.7629089 13.839874 23.62555 17.454071 23.272964c3.6141663 -0.35258484 2.1154785 -25.123795 4.230957 -25.388458c2.1154785 -0.26464844 5.376648 22.919083 8.461945 23.800537c3.0852966 0.8814392 9.080048 -20.45102 10.049866 -18.51181c0.9698181 1.9391937 0.44137573 25.034119 -4.230957 30.146973c-4.6723633 5.1128693 -17.808838 6.083557 -23.803162 0.5301819z" fill-rule="evenodd"/><path fill="#bf9000" d="m420.7595 218.64342c-5.9943237 -5.55336 -13.044617 -32.08748 -12.16272 -33.850388c0.88186646 -1.7629089 13.839874 23.62555 17.454071 23.272964c3.6141663 -0.35258484 2.1154785 -25.123795 4.230957 -25.388458c2.1154785 -0.26464844 5.376648 22.919083 8.461945 23.800537c3.0852966 0.8814392 9.080048 -20.45102 10.049866 -18.51181c0.9698181 1.9391937 0.44137573 25.034119 -4.230957 30.146973c-4.6723633 5.1128693 -17.808838 6.083557 -23.803162 0.5301819z" fill-rule="evenodd"/><path fill="#bf9000" d="m496.92484 234.04762c-5.994293 -5.5533752 -13.044617 -32.087494 -12.16272 -33.850403c0.881897 -1.7628937 13.839905 23.62555 17.454071 23.27298c3.6141663 -0.35258484 2.1154785 -25.12381 4.230957 -25.388458c2.115509 -0.26464844 5.376648 22.919067 8.461975 23.800522c3.085266 0.88145447 9.080017 -20.451004 10.049866 -18.51181c0.9697876 1.9391937 0.4413452 25.034119 -4.231018 30.146988c-4.6723022 5.112854 -17.808807 6.083542 -23.803131 0.5301819z" fill-rule="evenodd"/><path fill="#bf9000" d="m315.43927 151.73267c-5.994293 -5.5533752 -13.044617 -32.087494 -12.16272 -33.850403c0.881897 -1.7629013 13.839905 23.62555 17.454071 23.272964c3.6141663 -0.35256958 2.1154785 -25.123795 4.230957 -25.38845c2.115509 -0.26464844 5.376648 22.919075 8.461945 23.80053c3.0852966 0.88145447 9.080048 -20.451004 10.049866 -18.51181c0.9698181 1.9391937 0.44140625 25.034119 -4.230957 30.146973c-4.6723633 5.1128693 -17.808838 6.083557 -23.803162 0.53019714z" fill-rule="evenodd"/><path fill="#bf9000" d="m392.1978 153.25497c-5.9943237 -5.5533752 -13.044617 -32.087494 -12.16275 -33.850395c0.881897 -1.7629089 13.839905 23.625542 17.454071 23.272957c3.6141968 -0.35256958 2.115509 -25.123795 4.2309875 -25.388443c2.1154785 -0.26465607 5.376648 22.919067 8.461945 23.800522c3.0852966 0.88145447 9.080048 -20.451004 10.049866 -18.51181c0.9698181 1.9391937 0.44137573 25.034119 -4.2309875 30.146988c-4.672333 5.112854 -17.808838 6.083542 -23.803131 0.5301819z" fill-rule="evenodd"/><path fill="#93720e" d="m201.5915 60.399326c-5.9943085 -5.5533676 -13.044617 -32.08749 -12.16272 -33.850395c0.8818817 -1.7629051 13.83989 23.625547 17.454056 23.272966c3.6141815 -0.35258102 2.1154938 -25.123798 4.2309723 -25.388453c2.1154938 -0.26465416 5.376648 22.919073 8.461945 23.800524c3.0852966 0.88145447 9.080048 -20.451004 10.049866 -18.51181c0.9698181 1.9391956 0.441391 25.034122 -4.2309723 30.14698c-4.672348 5.1128616 -17.808838 6.083557 -23.803146 0.5301857z" fill-rule="evenodd"/><path fill="#bf9000" d="m418.81198 39.866516c-5.9943237 -5.5533676 -13.044617 -32.087486 -12.16272 -33.85039c0.88186646 -1.7629046 13.839874 23.625546 17.454071 23.272964c3.6141663 -0.35258102 2.1154785 -25.123796 4.230957 -25.38845c2.1154785 -0.2646544 5.376648 22.919073 8.461945 23.800526c3.0852966 0.88145065 9.080048 -20.451008 10.049866 -18.511812c0.9698181 1.9391956 0.44137573 25.03412 -4.230957 30.146982c-4.6723633 5.1128616 -17.808838 6.0835533 -23.803162 0.5301819z" fill-rule="evenodd"/><path fill="#bf9000" d="m490.81198 42.178852c-5.9943237 -5.5533676 -13.044617 -32.087486 -12.16272 -33.85039c0.88186646 -1.7629042 13.839874 23.625546 17.454071 23.272964c3.6141663 -0.35258102 2.1154785 -25.123796 4.230957 -25.38845c2.1154785 -0.26465464 5.376648 22.919073 8.461945 23.800526c3.0852966 0.88145065 9.080048 -20.451008 10.049896 -18.511812c0.9697876 1.9391956 0.4413452 25.03412 -4.231018 30.146982c-4.672333 5.1128616 -17.808807 6.0835533 -23.803131 0.5301819z" fill-rule="evenodd"/><path fill="#bf9000" d="m488.92484 110.478065c-5.994293 -5.5533676 -13.044617 -32.087486 -12.16272 -33.850395c0.881897 -1.7629013 13.839905 23.62555 17.454071 23.272972c3.6141663 -0.35258484 2.1154785 -25.123802 4.230957 -25.388458c2.115509 -0.26464844 5.376648 22.919075 8.461945 23.80053c3.0852966 0.88145447 9.080048 -20.451004 10.049896 -18.51181c0.9697876 1.9391937 0.4413452 25.034119 -4.231018 30.14698c-4.672333 5.1128616 -17.808807 6.0835495 -23.803131 0.5301819z" fill-rule="evenodd"/><path fill="#bf9000" d="m477.75162 170.18147c-5.9943237 -5.55336 -13.044617 -32.08748 -12.16272 -33.850388c0.88186646 -1.7629089 13.839874 23.62555 17.45404 23.272964c3.6141968 -0.35258484 2.115509 -25.123795 4.2309875 -25.388443c2.1154785 -0.2646637 5.376648 22.919067 8.461945 23.800522c3.0852966 0.88145447 9.080048 -20.451004 10.049866 -18.51181c0.9698181 1.9391937 0.44137573 25.034119 -4.230957 30.146973c-4.6723633 5.1128693 -17.808838 6.083557 -23.803162 0.5301819z" fill-rule="evenodd"/><path fill="#bf9000" d="m368.56265 87.07387c-5.9943237 -5.5533676 -13.044647 -32.08749 -12.16275 -33.850395c0.881897 -1.7629051 13.839905 23.62555 17.454071 23.272964c3.6141663 -0.3525772 2.1154785 -25.123795 4.2309875 -25.38845c2.1154785 -0.26465225 5.3766174 22.919075 8.461914 23.80053c3.0853271 0.88144684 9.080078 -20.451008 10.049896 -18.511814c0.9698181 1.9391937 0.44137573 25.034122 -4.2309875 30.146984c-4.6723633 5.1128616 -17.808838 6.0835495 -23.803131 0.5301819z" fill-rule="evenodd"/><path fill="#93720e" d="m28.958963 54.682793c-5.9943123 -5.5533714 -13.04462 -32.08749 -12.162729 -33.850395c0.88188934 -1.7629051 13.839895 23.625546 17.454067 23.272964c3.614174 -0.35258102 2.1154861 -25.123796 4.2309723 -25.38845c2.1154861 -0.26465416 5.3766403 22.919071 8.461941 23.800526c3.0853043 0.88145065 9.080055 -20.451006 10.04987 -18.511812c0.9698181 1.9391956 0.44138336 25.03412 -4.2309723 30.146982c-4.672352 5.1128616 -17.808834 6.0835533 -23.803148 0.5301857z" fill-rule="evenodd"/><path fill="#93720e" d="m46.10288 153.29698c-4.5047264 -4.173355 -9.803032 -24.113739 -9.140289 -25.438568c0.6627388 -1.3248215 10.400681 17.754593 13.11673 17.48964c2.716053 -0.26496887 1.5897903 -18.880539 3.1795769 -19.07943c1.5897865 -0.19888306 4.0405426 17.223686 6.35915 17.8861c2.3186035 0.66241455 6.823658 -15.368927 7.552479 -13.911636c0.7288132 1.4573059 0.33169556 18.813156 -3.1795769 22.655472c-3.5112762 3.8423004 -13.383343 4.5717773 -17.88807 0.39842224z" fill-rule="evenodd"/><path fill="#93720e" d="m174.707 234.04762c-5.9943237 -5.5533752 -13.044632 -32.087494 -12.162735 -33.850403c0.881897 -1.7628937 13.83989 23.62555 17.454071 23.27298c3.6141663 -0.35258484 2.1154785 -25.12381 4.2309723 -25.388458c2.1154785 -0.26464844 5.3766327 22.919067 8.461945 23.800522c3.0852966 0.88145447 9.080048 -20.451004 10.049866 -18.51181c0.9698181 1.9391937 0.44137573 25.034119 -4.2309723 30.146988c-4.6723633 5.112854 -17.808838 6.083542 -23.803146 0.5301819z" fill-rule="evenodd"/><path fill="#93720e" d="m194.35425 142.11148c-3.862732 -3.578598 -8.405945 -20.677177 -7.8376617 -21.813194c0.56829834 -1.1360168 8.9184265 15.224297 11.247406 14.997093c2.3289642 -0.22720337 1.3632202 -16.189774 2.7264404 -16.360313c1.3632202 -0.17054749 3.4647064 14.769051 5.4528656 15.337059c1.9881744 0.5680084 5.8511963 -13.178627 6.4761353 -11.929016c0.6249542 1.2496185 0.28442383 16.131989 -2.7264404 19.426712c-3.0108643 3.2947388 -11.476013 3.9202423 -15.338745 0.34165955z" fill-rule="evenodd"/><path fill="#93720e" d="m129.08232 64.73464c-4.920128 -4.5576515 -10.707016 -26.334202 -9.983162 -27.781017c0.72385406 -1.4468155 11.359779 19.389484 14.326302 19.10012c2.966507 -0.28936005 1.7363892 -20.619099 3.4727783 -20.8363c1.7363892 -0.21720123 4.413147 18.80968 6.9455566 19.533089c2.532425 0.72340775 7.4529114 -16.784138 8.248932 -15.192642c0.79603577 1.5914993 0.36228943 20.545502 -3.4727783 24.74163c-3.8350677 4.196121 -14.617493 4.9927673 -19.537628 0.43511963z" fill-rule="evenodd"/><path fill="#93720e" d="m114.511734 228.91463c-3.8627396 -3.5785828 -8.405952 -20.67717 -7.8376694 -21.813187c0.5682907 -1.1360168 8.918434 15.224289 11.247406 14.997086c2.3289719 -0.22720337 1.3632202 -16.189774 2.7264404 -16.360306c1.3632126 -0.17054749 3.4647064 14.769043 5.452873 15.337051c1.9881744 0.5680084 5.851181 -13.178619 6.4761353 -11.929016c0.6249542 1.2496185 0.28442383 16.131989 -2.7264404 19.426727c-3.0108643 3.2947235 -11.476013 3.9202423 -15.338745 0.3416443z" fill-rule="evenodd"/><path fill="#434343" d="m161.54694 179.76657c-15.019318 -2.134552 -47.87819 -19.889374 -64.0408 -32.020416c-16.16262 -12.131027 -32.11496 -28.587128 -32.93489 -40.765823c-0.8199272 -12.178688 15.054504 -30.02806 28.015305 -32.30632c12.9608 -2.2782593 34.749092 10.117523 49.74951 18.63678c15.000412 8.519257 32.705322 21.271675 40.25299 32.478783c7.5476685 11.2071 8.54007 25.767677 5.0330505 34.763847c-3.507019 8.996155 -11.055832 21.347687 -26.075165 19.21315z" fill-rule="evenodd"/><path fill="#4a4a4a" d="m148.9063 154.66396c-10.368637 -2.896988 -31.79235 -12.273987 -43.457077 -19.66925c-11.664719 -7.395256 -25.387589 -17.230644 -26.531258 -24.702301c-1.1436691 -7.471649 11.816757 -19.212769 19.669258 -20.127625c7.852501 -0.9148636 15.857407 7.3956375 27.44574 14.638481c11.588318 7.2428436 35.146194 20.889694 42.084213 28.818596c6.938019 7.928894 2.7457123 15.247757 -0.45610046 18.754776c-3.2018127 3.507019 -8.386139 5.184311 -18.754776 2.287323z" fill-rule="evenodd"/><path fill="#a98517" d="m133.6751 138.84058l0 0c0 -0.46369934 -0.37591553 -0.83961487 -0.83961487 -0.83961487l-3.3583527 0l0 0c-0.22268677 0 -0.43624878 0.08847046 -0.5937042 0.2459259c-0.15745544 0.15745544 -0.24591064 0.37101746 -0.24591064 0.59368896l0 51.882507c0 0.4637146 0.37590027 0.83961487 0.83961487 0.83961487l3.3583527 0c0.46369934 0 0.83961487 -0.37590027 0.83961487 -0.83961487z" fill-rule="evenodd"/><path fill="#a98517" d="m105.2144 162.26372l0 0c-0.46370697 0 -0.83961487 0.37590027 -0.83961487 0.83961487l0 3.3583527l0 0c0 0.22267151 0.08846283 0.43623352 0.24591827 0.59368896c0.15746307 0.1574707 0.37101746 0.2459259 0.5936966 0.2459259l51.882507 0c0.4637146 0 0.83961487 -0.37591553 0.83961487 -0.83961487l0 -3.3583527c0 -0.4637146 -0.37590027 -0.83961487 -0.83961487 -0.83961487z" fill-rule="evenodd"/><path fill="#b59121" d="m114.5925 144.65453l0 0c-0.32835388 -0.32835388 -0.8607178 -0.32835388 -1.1890717 0l-2.3780746 2.3780823l0 0c-0.15768433 0.15768433 -0.24626923 0.37153625 -0.24626923 0.5945282c0 0.2230072 0.0885849 0.43685913 0.24626923 0.59454346l36.688087 36.68808c0.32835388 0.32835388 0.8607178 0.32835388 1.1890717 0l2.3780823 -2.378067c0.32835388 -0.32835388 0.32835388 -0.8607178 0 -1.1890717z" fill-rule="evenodd"/><path fill="#b59121" d="m111.03041 181.34026l0 0c-0.32835388 0.32835388 -0.32835388 0.8607178 0 1.1890717l2.3780823 2.378067l0 0c0.1576767 0.15768433 0.37153625 0.24627686 0.5945358 0.24627686c0.22299194 0 0.4368515 -0.08859253 0.5945358 -0.24627686l36.68808 -36.68808c0.32835388 -0.32835388 0.32835388 -0.8607178 0 -1.1890717l-2.378067 -2.3780823c-0.32835388 -0.32835388 -0.8607178 -0.32835388 -1.1890717 0z" fill-rule="evenodd"/><path fill="#93720e" d="m164.30902 164.78183l0 0c0 -18.309738 -14.842972 -33.152725 -33.152725 -33.152725l0 0c-8.792648 0 -17.225174 3.4928741 -23.442513 9.71022c-6.217346 6.217331 -9.710213 14.649857 -9.710213 23.442505l0 0c0 18.309753 14.842987 33.15274 33.152725 33.15274l0 0c18.309753 0 33.152725 -14.842987 33.152725 -33.15274zm-8.231812 0l0 0c0 13.763443 -11.157471 24.920914 -24.920914 24.920914c-13.763428 0 -24.920898 -11.157471 -24.920898 -24.920914l0 0c0 -13.763428 11.157471 -24.920898 24.920898 -24.920898l0 0c13.763443 0 24.920914 11.157471 24.920914 24.920898z" fill-rule="evenodd"/><path fill="#c3a13b" d="m139.8291 164.78183l0 0c0 -4.789856 -3.8829346 -8.672806 -8.672806 -8.672806l0 0c-2.300171 0 -4.5061264 0.91374207 -6.132599 2.540207c-1.6264648 1.6264648 -2.540207 3.832428 -2.540207 6.132599l0 0c0 4.789871 3.8829498 8.672821 8.672806 8.672821l0 0c4.789871 0 8.672806 -3.8829498 8.672806 -8.672821z" fill-rule="evenodd"/><path fill="#666666" d="m95.230125 73.38196l0 0c1.7517166 -2.3279648 1.2845154 -5.635132 -1.0435181 -7.386757l-0.33229065 -0.25001526l0 0c-1.1179657 -0.841156 -2.5243073 -1.2037735 -3.909645 -1.0080643c-1.3853455 0.19570923 -2.6362 0.93370056 -3.4774094 2.051628l-30.603714 40.67119c-1.7517204 2.3279648 -1.2845192 5.635132 1.0435181 7.386757l0.33228683 0.25001526c2.3280373 1.7516251 5.635334 1.2844009 7.3870506 -1.0435638z" fill-rule="evenodd"/><path fill="#b09133" d="m-248.64284 78.89643c-0.41688538 -2.570427 -1.2777863 -12.6347275 -0.17060852 -15.711285c1.1071777 -3.0765533 4.7300873 -3.2585297 6.8136444 -2.7480316c2.0835571 0.51049805 4.8753357 4.6028023 5.687668 5.8110237c0.81233215 1.2082214 -0.3346405 1.6776047 -0.8136444 1.438324c-0.4790039 -0.23928833 -0.8937073 -1.8635178 -2.060379 -2.8740158c-1.1666565 -1.0105019 -3.6062927 -3.271656 -4.939621 -3.18898c-1.3333435 0.08267975 -2.695984 0.854332 -3.060379 3.6850433c-0.36437988 2.8307037 1.116806 11.034554 0.87402344 13.29921c-0.2427826 2.264656 -1.9138184 2.859146 -2.3307037 0.28871155z" fill-rule="evenodd"/><path fill="#c3a13b" d="m-271.4567 103.89895l0 0c0 -14.020203 11.365631 -25.385826 25.385834 -25.385826l0 0c6.7327423 0 13.189713 2.6745682 17.950485 7.435341c4.7607727 4.760765 7.4353333 11.217751 7.4353333 17.950485l0 0c0 14.020203 -11.365616 25.385826 -25.385818 25.385826l0 0c-14.020203 0 -25.385834 -11.365623 -25.385834 -25.385826z" fill-rule="evenodd"/><path fill="#c3a13b" d="m-256.1811 73.300575l0 0c0 -1.472786 1.193924 -2.6667175 2.6667023 -2.6667175l14.887039 0c0.70726013 0 1.3855438 0.28096008 1.8856506 0.7810669c0.5001068 0.5001068 0.7810669 1.1783981 0.7810669 1.8856506l0 10.666565c0 1.472786 -1.193924 2.6667175 -2.6667175 2.6667175l-14.887039 0l0 0c-1.4727783 0 -2.6667023 -1.1939316 -2.6667023 -2.6667175z" fill-rule="evenodd"/><path fill="#cfac43" d="m-256.4908 109.55323l0 0c0 -7.731987 6.2680206 -14.0 14.0 -14.0l0 0c3.713028 0 7.273987 1.4749985 9.89949 4.1005096c2.6255188 2.6255035 4.1005096 6.1864624 4.1005096 9.89949l0 0c0 7.731987 -6.2680054 14.0 -14.0 14.0l0 0c-7.7319794 0 -14.0 -6.268013 -14.0 -14.0z" fill-rule="evenodd"/><path fill="#b09133" d="m34.485764 198.18253c-0.41688538 -2.5704346 -1.2777786 -12.634735 -0.17060089 -15.711288c1.1071739 -3.0765533 4.730095 -3.2585297 6.813648 -2.7480316c2.0835495 0.51049805 4.875328 4.6027985 5.687664 5.81102c0.81233597 1.2082214 -0.33464813 1.6776123 -0.8136482 1.438324c-0.4790039 -0.23928833 -0.89370346 -1.8635101 -2.0603676 -2.8740234c-1.1666679 -1.010498 -3.6063004 -3.2716522 -4.9396324 -3.1889648c-1.3333359 0.08267212 -2.6959763 0.85432434 -3.0603676 3.685028c-0.36439514 2.830719 1.1167946 11.034561 0.8740158 13.299225c-0.2427826 2.2646484 -1.913826 2.8591309 -2.3307114 0.28871155z" fill-rule="evenodd"/><path fill="#c3a13b" d="m11.671916 223.18504l0 0c0 -14.020203 11.3656225 -25.385834 25.385826 -25.385834l0 0c6.7327385 0 13.189724 2.6745758 17.950489 7.4353333c4.760765 4.7607727 7.435337 11.217758 7.435337 17.9505l0 0c0 14.020203 -11.36562 25.385818 -25.385826 25.385818l0 0c-14.020205 0 -25.385826 -11.365616 -25.385826 -25.385818z" fill-rule="evenodd"/><path fill="#c3a13b" d="m26.947506 192.58667l0 0c0 -1.4727936 1.1939316 -2.6667175 2.6667213 -2.6667175l14.887032 0c0.70726013 0 1.3855476 0.28094482 1.8856544 0.7810669c0.5001068 0.5001068 0.7810669 1.1783905 0.7810669 1.8856506l0 10.666565c0 1.4727783 -1.1939316 2.6667175 -2.6667213 2.6667175l-14.887032 0l0 0c-1.4727898 0 -2.6667213 -1.1939392 -2.6667213 -2.6667175z" fill-rule="evenodd"/><path fill="#cfac43" d="m26.637794 228.83932l0 0c0 -7.7319946 6.268013 -14.0 14.0 -14.0l0 0c3.7130318 0 7.273987 1.4749908 9.899494 4.1004944c2.6255112 2.6255188 4.100506 6.1864777 4.100506 9.899506l0 0c0 7.7319794 -6.268013 14.0 -14.0 14.0l0 0c-7.731987 0 -14.0 -6.2680206 -14.0 -14.0z" fill-rule="evenodd"/><path fill="#b09133" d="m231.2603 216.9204c-0.21524048 -1.3271179 -0.65971375 -6.5233154 -0.08808899 -8.11174c0.57164 -1.5884247 2.442154 -1.6823883 3.5178833 -1.418808c1.0757446 0.26356506 2.5171356 2.376419 2.936554 3.000229c0.41940308 0.6238098 -0.17279053 0.8661499 -0.42008972 0.7425995c-0.24731445 -0.123535156 -0.46142578 -0.9621277 -1.0637665 -1.4838562c-0.60235596 -0.52171326 -1.8619385 -1.689148 -2.5503387 -1.6464691c-0.68840027 0.04269409 -1.391922 0.44110107 -1.5800629 1.9025879c-0.18814087 1.4615021 0.5765991 5.6971436 0.45124817 6.866394c-0.12535095 1.1692352 -0.98809814 1.4761658 -1.2033386 0.14906311z" fill-rule="evenodd"/><path fill="#c3a13b" d="m219.4815 229.8292l0 0c0 -7.238632 5.8680725 -13.106705 13.106705 -13.106705l0 0c3.4761047 0 6.80986 1.3808746 9.267838 3.8388672c2.4579773 2.4579773 3.8388672 5.7917175 3.8388672 9.267838l0 0c0 7.238632 -5.8680725 13.106705 -13.106705 13.106705l0 0c-7.238632 0 -13.106705 -5.8680725 -13.106705 -13.106705z" fill-rule="evenodd"/><path fill="#c3a13b" d="m227.3683 214.03125l0 0c0 -0.7604065 0.61642456 -1.376831 1.3768158 -1.376831l7.6861725 0c0.36515808 0 0.71536255 0.14506531 0.9735718 0.40325928c0.25820923 0.25820923 0.40325928 0.6084137 0.40325928 0.9735718l0 5.507141c0 0.7604065 -0.61642456 1.376831 -1.376831 1.376831l-7.6861725 0l0 0c-0.76039124 0 -1.3768158 -0.61642456 -1.3768158 -1.376831z" fill-rule="evenodd"/><path fill="#cfac43" d="m227.20839 232.74849l0 0c0 -3.9920197 3.2361755 -7.228195 7.228195 -7.228195l0 0c1.917038 0 3.7555695 0.76153564 5.1111145 2.117096c1.355545 1.355545 2.117096 3.1940613 2.117096 5.1110992l0 0c0 3.992035 -3.2361755 7.2282104 -7.2282104 7.2282104l0 0c-3.9920197 0 -7.228195 -3.2361755 -7.228195 -7.2282104z" fill-rule="evenodd"/><path fill="#b09133" d="m201.47472 209.79546c-0.27415466 -1.6903076 -0.840271 -8.308594 -0.112197876 -10.331741c0.7280884 -2.0231476 3.1105194 -2.142807 4.480667 -1.8071136c1.3701324 0.33570862 3.206009 3.0268097 3.7402039 3.8213348c0.53419495 0.79452515 -0.22006226 1.1031952 -0.5350647 0.94584656c-0.31498718 -0.15736389 -0.58769226 -1.2254486 -1.3548889 -1.8899536c-0.76719666 -0.664505 -2.3715057 -2.1514435 -3.2483063 -2.0970764c-0.87680054 0.054367065 -1.7728729 0.56181335 -2.012497 2.4232788c-0.23962402 1.8614807 0.7344055 7.2563324 0.5747528 8.74556c-0.15965271 1.4892426 -1.2585297 1.8801727 -1.5326691 0.18986511z" fill-rule="evenodd"/><path fill="#c3a13b" d="m186.47232 226.2371l0 0c0 -9.219681 7.474045 -16.69371 16.693726 -16.69371l0 0c4.4274445 0 8.673569 1.7587891 11.804245 4.8894653c3.1306763 3.1306915 4.8894806 7.3768005 4.8894806 11.804245l0 0c0 9.219696 -7.474045 16.693726 -16.693726 16.693726l0 0c-9.219681 0 -16.693726 -7.4740295 -16.693726 -16.693726z" fill-rule="evenodd"/><path fill="#c3a13b" d="m196.51755 206.11562l0 0c0 -0.96850586 0.785141 -1.7536316 1.7536469 -1.7536316l9.789703 0c0.46510315 0 0.9111328 0.18475342 1.2400055 0.5136261c0.32887268 0.32887268 0.5136261 0.7749176 0.5136261 1.2400055l0 7.014328c0 0.96850586 -0.78512573 1.7536469 -1.7536316 1.7536469l-9.789703 0l0 0c-0.96850586 0 -1.7536469 -0.785141 -1.7536469 -1.7536469z" fill-rule="evenodd"/><path fill="#cfac43" d="m196.31389 229.95537l0 0c0 -5.084549 4.1218414 -9.206406 9.206406 -9.206406l0 0c2.441681 0 4.783371 0.96995544 6.509903 2.6965027c1.726532 1.726532 2.6964874 4.068207 2.6964874 6.509903l0 0c0 5.084549 -4.1218414 9.206406 -9.20639 9.206406l0 0c-5.084564 0 -9.206406 -4.1218567 -9.206406 -9.206406z" fill-rule="evenodd"/><path fill="#b09133" d="m214.92435 199.3797c-0.21524048 -1.3271027 -0.659729 -6.5233 -0.08808899 -8.111725c0.57164 -1.5884247 2.442154 -1.6823883 3.5178833 -1.418808c1.0757446 0.26356506 2.5171356 2.376419 2.9365387 3.000229c0.41941833 0.6238098 -0.17277527 0.8661499 -0.42008972 0.7425995c-0.2472992 -0.123535156 -0.46141052 -0.9621277 -1.0637665 -1.4838562c-0.6023407 -0.52171326 -1.8619232 -1.689148 -2.5503235 -1.6464691c-0.68840027 0.04269409 -1.3919373 0.44110107 -1.5800629 1.9025879c-0.18814087 1.4615021 0.5765991 5.6971436 0.45124817 6.866379c-0.12535095 1.1692505 -0.9881134 1.476181 -1.2033386 0.14906311z" fill-rule="evenodd"/><path fill="#c3a13b" d="m203.14555 212.28851l0 0c0 -7.238632 5.8680725 -13.106705 13.106705 -13.106705l0 0c3.4761047 0 6.809845 1.3808746 9.267838 3.8388672c2.4579773 2.4579773 3.838852 5.7917175 3.838852 9.267838l0 0c0 7.238632 -5.8680573 13.106689 -13.106689 13.106689l0 0c-7.238632 0 -13.106705 -5.8680573 -13.106705 -13.106689z" fill-rule="evenodd"/><path fill="#c3a13b" d="m211.03233 196.49057l0 0c0 -0.7604065 0.61642456 -1.376831 1.376831 -1.376831l7.6861725 0c0.36515808 0 0.71536255 0.14506531 0.9735718 0.40325928c0.25819397 0.25820923 0.40325928 0.6084137 0.40325928 0.9735718l0 5.507141c0 0.7604065 -0.61642456 1.376831 -1.376831 1.376831l-7.6861725 0l0 0c-0.7604065 0 -1.376831 -0.61642456 -1.376831 -1.376831z" fill-rule="evenodd"/><path fill="#cfac43" d="m210.87244 215.20781l0 0c0 -3.9920197 3.2361755 -7.228195 7.228195 -7.228195l0 0c1.917038 0 3.7555542 0.76153564 5.1111145 2.117096c1.355545 1.355545 2.1170807 3.1940613 2.1170807 5.1110992l0 0c0 3.992035 -3.2361755 7.228195 -7.228195 7.228195l0 0c-3.9920197 0 -7.228195 -3.2361603 -7.228195 -7.228195z" fill-rule="evenodd"/></g></svg>