<svg version="1.1" viewBox="0.0 0.0 256.0 256.0" fill="none" stroke="none" stroke-linecap="square" stroke-miterlimit="10" xmlns:xlink="http://www.w3.org/1999/xlink" xmlns="http://www.w3.org/2000/svg"><clipPath id="p.0"><path d="m0 0l256.0 0l0 256.0l-256.0 0l0 -256.0z" clip-rule="nonzero"/></clipPath><g clip-path="url(#p.0)"><path fill="#000000" fill-opacity="0.0" d="m0 0l256.0 0l0 256.0l-256.0 0z" fill-rule="evenodd"/><path fill="#7f6000" d="m0 65.05728l0 0c0 -35.930145 29.127136 -65.05728 65.05728 -65.05728l125.88544 0l0 0c17.254272 0 33.801834 6.8542295 46.00244 19.054836c12.200607 12.200607 19.05484 28.74818 19.05484 46.002445l0 125.88544c0 35.930145 -29.127136 65.05728 -65.05728 65.05728l-125.88544 0l0 0c-35.930145 0 -65.05728 -29.127136 -65.05728 -65.05728z" fill-rule="evenodd"/><path fill="#856502" d="m35.43832 79.86877l43.3727 -42.845146l32.262474 9.522312l49.719154 -20.627298l35.968506 13.223097l26.446198 -5.291336l14.280838 36.496063l-13.753281 49.719162l19.572174 65.58793l-37.026245 42.312332l-26.973755 -18.51181l-29.091858 33.32283l-39.669296 -17.454071l-53.42257 14.280838l-18.51181 -44.957993l-21.15748 -22.215225l16.396326 -25.91864l-13.750658 -32.79265z" fill-rule="evenodd"/><path fill="#efefef" d="m-140.16011 2.6509187l-53.425323 0l-26.448685 26.448683l0 78.81116l79.87401 0z" fill-rule="evenodd"/><path stroke="#000000" stroke-width="3.0" stroke-linejoin="round" stroke-linecap="butt" d="m-140.16011 2.6509187l-53.425323 0l-26.448685 26.448683l0 78.81116l79.87401 0z" fill-rule="evenodd"/><path fill="#d9d9d9" d="m-204.16011 65.414825l0 0c0 -3.4094505 2.763916 -6.173355 6.173355 -6.173355l35.77928 0c1.6372833 0 3.207489 0.6504059 4.365219 1.8081322c1.1577301 1.1577301 1.808136 2.7279434 1.808136 4.365223l0 24.692665c0 3.4094467 -2.7639008 6.1733475 -6.173355 6.1733475l-35.77928 0l0 0c-3.409439 0 -6.173355 -2.7639008 -6.173355 -6.1733475z" fill-rule="evenodd"/><path stroke="#000000" stroke-width="3.0" stroke-linejoin="round" stroke-linecap="butt" d="m-204.16011 65.414825l0 0c0 -3.4094505 2.763916 -6.173355 6.173355 -6.173355l35.77928 0c1.6372833 0 3.207489 0.6504059 4.365219 1.8081322c1.1577301 1.1577301 1.808136 2.7279434 1.808136 4.365223l0 24.692665c0 3.4094467 -2.7639008 6.1733475 -6.173355 6.1733475l-35.77928 0l0 0c-3.409439 0 -6.173355 -2.7639008 -6.173355 -6.1733475z" fill-rule="evenodd"/><path fill="#434343" d="m-154.30496 16.042187l0 0c0 -0.5711403 0.46299744 -1.0341415 1.0341492 -1.0341415l4.136444 0l0 0c0.27426147 0 0.53730774 0.10895443 0.73124695 0.30289364c0.19393921 0.19393826 0.30288696 0.4569769 0.30288696 0.7312479l0 21.207306c0 0.5711441 -0.46299744 1.0341415 -1.0341339 1.0341415l-4.136444 0c-0.57115173 0 -1.0341492 -0.46299744 -1.0341492 -1.0341415z" fill-rule="evenodd"/><path stroke="#434343" stroke-width="1.0" stroke-linejoin="round" stroke-linecap="butt" d="m-154.30496 16.042187l0 0c0 -0.5711403 0.46299744 -1.0341415 1.0341492 -1.0341415l4.136444 0l0 0c0.27426147 0 0.53730774 0.10895443 0.73124695 0.30289364c0.19393921 0.19393826 0.30288696 0.4569769 0.30288696 0.7312479l0 21.207306c0 0.5711441 -0.46299744 1.0341415 -1.0341339 1.0341415l-4.136444 0c-0.57115173 0 -1.0341492 -0.46299744 -1.0341492 -1.0341415z" fill-rule="evenodd"/><path fill="#434343" d="m-171.09909 16.042187l0 0c0 -0.5711403 0.4630127 -1.0341415 1.0341492 -1.0341415l4.136444 0l0 0c0.27426147 0 0.53730774 0.10895443 0.73124695 0.30289364c0.19393921 0.19393826 0.30288696 0.4569769 0.30288696 0.7312479l0 21.207306c0 0.5711441 -0.46299744 1.0341415 -1.0341339 1.0341415l-4.136444 0c-0.5711365 0 -1.0341492 -0.46299744 -1.0341492 -1.0341415z" fill-rule="evenodd"/><path stroke="#434343" stroke-width="1.0" stroke-linejoin="round" stroke-linecap="butt" d="m-171.09909 16.042187l0 0c0 -0.5711403 0.4630127 -1.0341415 1.0341492 -1.0341415l4.136444 0l0 0c0.27426147 0 0.53730774 0.10895443 0.73124695 0.30289364c0.19393921 0.19393826 0.30288696 0.4569769 0.30288696 0.7312479l0 21.207306c0 0.5711441 -0.46299744 1.0341415 -1.0341339 1.0341415l-4.136444 0c-0.5711365 0 -1.0341492 -0.46299744 -1.0341492 -1.0341415z" fill-rule="evenodd"/><path fill="#434343" d="m-187.89322 16.042187l0 0c0 -0.5711403 0.4630127 -1.0341415 1.0341492 -1.0341415l4.136444 0l0 0c0.27426147 0 0.53730774 0.10895443 0.73124695 0.30289364c0.19393921 0.19393826 0.30288696 0.4569769 0.30288696 0.7312479l0 21.207306c0 0.5711441 -0.46299744 1.0341415 -1.0341339 1.0341415l-4.136444 0c-0.5711365 0 -1.0341492 -0.46299744 -1.0341492 -1.0341415z" fill-rule="evenodd"/><path stroke="#434343" stroke-width="1.0" stroke-linejoin="round" stroke-linecap="butt" d="m-187.89322 16.042187l0 0c0 -0.5711403 0.4630127 -1.0341415 1.0341492 -1.0341415l4.136444 0l0 0c0.27426147 0 0.53730774 0.10895443 0.73124695 0.30289364c0.19393921 0.19393826 0.30288696 0.4569769 0.30288696 0.7312479l0 21.207306c0 0.5711441 -0.46299744 1.0341415 -1.0341339 1.0341415l-4.136444 0c-0.5711365 0 -1.0341492 -0.46299744 -1.0341492 -1.0341415z" fill-rule="evenodd"/><path fill="#efefef" d="m184.60672 16.333448l-75.725075 0l-37.488358 37.488365l0 111.70694l113.21343 0z" fill-rule="evenodd"/><path fill="#d9d9d9" d="m93.89311 105.295006l0 0c0 -4.8325577 3.9175568 -8.750114 8.750114 -8.750114l50.713554 0c2.3206635 0 4.546295 0.92189026 6.187256 2.562851c1.6409607 1.6409607 2.562851 3.8665848 2.562851 6.1872635l0 34.999382c0 4.83255 -3.9175568 8.750107 -8.750107 8.750107l-50.713554 0l0 0c-4.8325577 0 -8.750114 -3.9175568 -8.750114 -8.750107z" fill-rule="evenodd"/><path fill="#434343" d="m164.5578 35.31423l0 0c0 -0.809536 0.65625 -1.4657936 1.4657898 -1.4657936l5.8629913 0l0 0c0.38874817 0 0.7615814 0.15443039 1.0364685 0.4293213c0.27488708 0.2748909 0.4293213 0.64772034 0.4293213 1.0364723l0 30.059235c0 0.8095398 -0.65625 1.4657974 -1.4657898 1.4657974l-5.8629913 0c-0.8095398 0 -1.4657898 -0.6562576 -1.4657898 -1.4657974z" fill-rule="evenodd"/><path stroke="#434343" stroke-width="1.0" stroke-linejoin="round" stroke-linecap="butt" d="m164.5578 35.31423l0 0c0 -0.809536 0.65625 -1.4657936 1.4657898 -1.4657936l5.8629913 0l0 0c0.38874817 0 0.7615814 0.15443039 1.0364685 0.4293213c0.27488708 0.2748909 0.4293213 0.64772034 0.4293213 1.0364723l0 30.059235c0 0.8095398 -0.65625 1.4657974 -1.4657898 1.4657974l-5.8629913 0c-0.8095398 0 -1.4657898 -0.6562576 -1.4657898 -1.4657974z" fill-rule="evenodd"/><path fill="#434343" d="m140.7538 35.31423l0 0c0 -0.809536 0.65626526 -1.4657936 1.4657898 -1.4657936l5.8630066 0l0 0c0.38874817 0 0.7615814 0.15443039 1.0364685 0.4293213c0.27488708 0.2748909 0.4293213 0.64772034 0.4293213 1.0364723l0 30.059235c0 0.8095398 -0.65626526 1.4657974 -1.4657898 1.4657974l-5.8630066 0c-0.80952454 0 -1.4657898 -0.6562576 -1.4657898 -1.4657974z" fill-rule="evenodd"/><path stroke="#434343" stroke-width="1.0" stroke-linejoin="round" stroke-linecap="butt" d="m140.7538 35.31423l0 0c0 -0.809536 0.65626526 -1.4657936 1.4657898 -1.4657936l5.8630066 0l0 0c0.38874817 0 0.7615814 0.15443039 1.0364685 0.4293213c0.27488708 0.2748909 0.4293213 0.64772034 0.4293213 1.0364723l0 30.059235c0 0.8095398 -0.65626526 1.4657974 -1.4657898 1.4657974l-5.8630066 0c-0.80952454 0 -1.4657898 -0.6562576 -1.4657898 -1.4657974z" fill-rule="evenodd"/><path fill="#434343" d="m116.94981 35.31423l0 0c0 -0.809536 0.6562576 -1.4657936 1.4657974 -1.4657936l5.8629913 0l0 0c0.38874817 0 0.7615814 0.15443039 1.0364685 0.4293213c0.2748947 0.2748909 0.4293213 0.64772034 0.4293213 1.0364723l0 30.059235c0 0.8095398 -0.6562576 1.4657974 -1.4657898 1.4657974l-5.8629913 0c-0.8095398 0 -1.4657974 -0.6562576 -1.4657974 -1.4657974z" fill-rule="evenodd"/><path stroke="#434343" stroke-width="1.0" stroke-linejoin="round" stroke-linecap="butt" d="m116.94981 35.31423l0 0c0 -0.809536 0.6562576 -1.4657936 1.4657974 -1.4657936l5.8629913 0l0 0c0.38874817 0 0.7615814 0.15443039 1.0364685 0.4293213c0.2748947 0.2748909 0.4293213 0.64772034 0.4293213 1.0364723l0 30.059235c0 0.8095398 -0.6562576 1.4657974 -1.4657898 1.4657974l-5.8629913 0c-0.8095398 0 -1.4657974 -0.6562576 -1.4657974 -1.4657974z" fill-rule="evenodd"/><path fill="#434343" d="m95.1601 210.51207l21.204613 0l0 -33.396698l23.26007 0l0 33.396698l21.204605 0l-32.83464 29.15448z" fill-rule="evenodd"/><path stroke="#434343" stroke-width="1.0" stroke-linejoin="round" stroke-linecap="butt" d="m95.1601 210.51207l21.204613 0l0 -33.396698l23.26007 0l0 33.396698l21.204605 0l-32.83464 29.15448z" fill-rule="evenodd"/></g></svg>