<svg version="1.1" viewBox="0.0 0.0 1024.0 512.0" fill="none" stroke="none" stroke-linecap="square" stroke-miterlimit="10" xmlns:xlink="http://www.w3.org/1999/xlink" xmlns="http://www.w3.org/2000/svg"><clipPath id="p.0"><path d="m0 0l1024.0 0l0 512.0l-1024.0 0l0 -512.0z" clip-rule="nonzero"/></clipPath><g clip-path="url(#p.0)"><path fill="#f4f4f4" d="m0 0l1024.0 0l0 512.0l-1024.0 0z" fill-rule="evenodd"/><path fill="#efefef" d="m25.257217 129.65092l96.26509 -80.39633l81.45407 30.677162l92.03412 -44.42782l57.123352 28.561684l116.36484 -8.464569l59.23886 46.54593l-3.1732178 66.64567l-77.223114 47.603683l59.23883 103.66928l-95.20734 25.388458l-98.380585 -19.041992l-98.37796 45.48819l-85.68765 -42.314972l34.91075 -41.254578l-90.97637 -45.488205l10.580055 -56.065613l-64.53019 -21.157486z" fill-rule="evenodd"/><path fill="#efefef" d="m687.6037 303.9008l53.3161 -17.77301l47.38983 -11.846741l41.46936 -28.435059l61.608826 -23.696365l59.239502 21.327026l33.173706 61.60881l0 43.838745l-30.804382 29.619751l27.250366 73.455536l-58.05475 36.727753l-58.05481 -34.35843l-66.347534 21.327057l-77.01251 -30.804413l51.48181 -36.886505l-49.327026 -24.663513l0.21459961 -29.678558l-29.466919 -12.190643z" fill-rule="evenodd"/><path fill="#efefef" d="m677.7533 99.63517l81.45404 -47.601048l96.26245 21.154858l66.64569 -41.254597l58.18109 24.330708l-10.577393 58.181107l-53.950134 19.041992l-53.950134 21.157486l-60.299194 -9.522324l-13.750671 32.795288l-69.81891 -14.811035l-33.850403 39.139114l-40.199463 -17.981628l24.330688 -32.795273l-33.850403 -29.619423l-7.404175 -44.427826z" fill-rule="evenodd"/><path fill="#efefef" d="m60.29659 464.39633l46.545933 -25.388458l55.007866 15.868774l31.737534 -22.21524l46.54332 13.750671l15.868759 -7.4042053l25.388458 16.926514l63.46982 3.1732178l-1.0577393 26.446198l-61.35434 13.753296l-66.645676 -4.233612l-42.312332 11.637787l-77.2231 -12.695526l-60.299213 7.40683z" fill-rule="evenodd"/><path fill="#cccccc" d="m-161.86984 113.831696c-1.9391937 5.1128616 3.1745453 23.185043 1.5879364 30.149597c-1.5866241 6.964569 -14.545502 9.698166 -11.10762 11.637802c3.4378815 1.9396362 27.415573 1.4107666 31.73491 0c4.319336 -1.4107666 -4.3202057 -1.4120789 -5.8188934 -8.464569c-1.4986877 -7.05249 -0.44050598 -28.296585 -3.173233 -33.850395c-2.7327118 -5.5538025 -11.283905 -4.5852966 -13.223099 0.527565z" fill-rule="evenodd"/><path fill="#cfe2f3" d="m-184.48032 117.13256l29.32283 -26.173233l29.322838 26.173233z" fill-rule="evenodd"/><path stroke="#cfe2f3" stroke-width="4.0" stroke-linejoin="round" stroke-linecap="butt" d="m-184.48032 117.13256l29.32283 -26.173233l29.322838 26.173233z" fill-rule="evenodd"/><path fill="#cfe2f3" d="m-181.97638 99.21234l26.818893 -26.173233l26.818909 26.173233z" fill-rule="evenodd"/><path stroke="#cfe2f3" stroke-width="4.0" stroke-linejoin="round" stroke-linecap="butt" d="m-181.97638 99.21234l26.818893 -26.173233l26.818909 26.173233z" fill-rule="evenodd"/><path fill="#cfe2f3" d="m-181.97638 82.40132l26.818893 -26.173225l26.818909 26.173225z" fill-rule="evenodd"/><path stroke="#cfe2f3" stroke-width="4.0" stroke-linejoin="round" stroke-linecap="butt" d="m-181.97638 82.40132l26.818893 -26.173225l26.818909 26.173225z" fill-rule="evenodd"/><path fill="#cfe2f3" d="m-179.48819 63.220474l24.330704 -23.149609l24.330719 23.149609z" fill-rule="evenodd"/><path stroke="#cfe2f3" stroke-width="4.0" stroke-linejoin="round" stroke-linecap="butt" d="m-179.48819 63.220474l24.330704 -23.149609l24.330719 23.149609z" fill-rule="evenodd"/><path fill="#cccccc" d="m104.064545 412.8737c-1.9391937 5.112854 3.1745377 23.185028 1.5879288 30.149597c-1.5866165 6.964569 -14.545494 9.698181 -11.107613 11.637817c3.4378815 1.9396057 27.415573 1.4107361 31.73491 0c4.319336 -1.4107666 -4.3202133 -1.4120789 -5.818901 -8.464569c-1.4986877 -7.05249 -0.44050598 -28.2966 -3.1732254 -33.850403c-2.7327194 -5.5538025 -11.283905 -4.5852966 -13.223099 0.5275574z" fill-rule="evenodd"/><path fill="#cfe2f3" d="m81.45407 416.17456l29.32283 -26.173248l29.32283 26.173248z" fill-rule="evenodd"/><path stroke="#cfe2f3" stroke-width="4.0" stroke-linejoin="round" stroke-linecap="butt" d="m81.45407 416.17456l29.32283 -26.173248l29.32283 26.173248z" fill-rule="evenodd"/><path fill="#cfe2f3" d="m83.95801 398.25433l26.818893 -26.173218l26.818893 26.173218z" fill-rule="evenodd"/><path stroke="#cfe2f3" stroke-width="4.0" stroke-linejoin="round" stroke-linecap="butt" d="m83.95801 398.25433l26.818893 -26.173218l26.818893 26.173218z" fill-rule="evenodd"/><path fill="#cfe2f3" d="m83.95801 381.44333l26.818893 -26.173248l26.818893 26.173248z" fill-rule="evenodd"/><path stroke="#cfe2f3" stroke-width="4.0" stroke-linejoin="round" stroke-linecap="butt" d="m83.95801 381.44333l26.818893 -26.173248l26.818893 26.173248z" fill-rule="evenodd"/><path fill="#cfe2f3" d="m86.4462 362.26248l24.330704 -23.149628l24.330704 23.149628z" fill-rule="evenodd"/><path stroke="#cfe2f3" stroke-width="4.0" stroke-linejoin="round" stroke-linecap="butt" d="m86.4462 362.26248l24.330704 -23.149628l24.330704 23.149628z" fill-rule="evenodd"/><path fill="#cccccc" d="m360.85043 397.02917c-1.3716125 3.616333 2.2453308 16.398773 1.1231384 21.32483c-1.1222229 4.9260254 -10.288025 6.859497 -7.856415 8.231415c2.43161 1.3718872 19.391022 0.99783325 22.446106 0c3.0550537 -0.99783325 -3.0556946 -0.9987793 -4.1157227 -5.9869995c-1.0600281 -4.98822 -0.31155396 -20.01419 -2.2444153 -23.942383c-1.9328613 -3.9282227 -7.9811096 -3.2431946 -9.352692 0.37313843z" fill-rule="evenodd"/><path fill="#cfe2f3" d="m344.85803 399.3639l20.740051 -18.51233l20.74002 18.51233z" fill-rule="evenodd"/><path stroke="#cfe2f3" stroke-width="4.0" stroke-linejoin="round" stroke-linecap="butt" d="m344.85803 399.3639l20.740051 -18.51233l20.74002 18.51233z" fill-rule="evenodd"/><path fill="#cfe2f3" d="m346.62906 386.6889l18.969025 -18.51233l18.968994 18.51233z" fill-rule="evenodd"/><path stroke="#cfe2f3" stroke-width="4.0" stroke-linejoin="round" stroke-linecap="butt" d="m346.62906 386.6889l18.969025 -18.51233l18.968994 18.51233z" fill-rule="evenodd"/><path fill="#cfe2f3" d="m346.62906 374.7985l18.969025 -18.51233l18.968994 18.51233z" fill-rule="evenodd"/><path stroke="#cfe2f3" stroke-width="4.0" stroke-linejoin="round" stroke-linecap="butt" d="m346.62906 374.7985l18.969025 -18.51233l18.968994 18.51233z" fill-rule="evenodd"/><path fill="#cfe2f3" d="m348.38898 361.23187l17.209106 -16.373718l17.209106 16.373718z" fill-rule="evenodd"/><path stroke="#cfe2f3" stroke-width="4.0" stroke-linejoin="round" stroke-linecap="butt" d="m348.38898 361.23187l17.209106 -16.373718l17.209106 16.373718z" fill-rule="evenodd"/><path fill="#cccccc" d="m811.89655 429.3199c-1.939148 5.112854 3.1745605 23.185028 1.5879517 30.149597c-1.5866089 6.964569 -14.545471 9.698181 -11.107605 11.637787c3.4378662 1.9396362 27.415588 1.4107666 31.734924 0c4.319336 -1.4107361 -4.3202515 -1.4120483 -5.8189087 -8.464539c-1.4987183 -7.0525208 -0.44055176 -28.2966 -3.1732178 -33.850403c-2.732727 -5.5538025 -11.283936 -4.5852966 -13.223145 0.5275574z" fill-rule="evenodd"/><path fill="#cfe2f3" d="m789.2861 432.62076l29.322876 -26.173248l29.322815 26.173248z" fill-rule="evenodd"/><path stroke="#cfe2f3" stroke-width="4.0" stroke-linejoin="round" stroke-linecap="butt" d="m789.2861 432.62076l29.322876 -26.173248l29.322815 26.173248z" fill-rule="evenodd"/><path fill="#cfe2f3" d="m791.79004 414.70053l26.818909 -26.173218l26.818848 26.173218z" fill-rule="evenodd"/><path stroke="#cfe2f3" stroke-width="4.0" stroke-linejoin="round" stroke-linecap="butt" d="m791.79004 414.70053l26.818909 -26.173218l26.818848 26.173218z" fill-rule="evenodd"/><path fill="#cfe2f3" d="m791.79004 397.88953l26.818909 -26.173248l26.818848 26.173248z" fill-rule="evenodd"/><path stroke="#cfe2f3" stroke-width="4.0" stroke-linejoin="round" stroke-linecap="butt" d="m791.79004 397.88953l26.818909 -26.173248l26.818848 26.173248z" fill-rule="evenodd"/><path fill="#cfe2f3" d="m794.2782 378.70865l24.33075 -23.149597l24.330688 23.149597z" fill-rule="evenodd"/><path stroke="#cfe2f3" stroke-width="4.0" stroke-linejoin="round" stroke-linecap="butt" d="m794.2782 378.70865l24.33075 -23.149597l24.330688 23.149597z" fill-rule="evenodd"/><path fill="#cccccc" d="m557.7001 449.81885c-1.0162964 2.679657 1.6638184 12.151276 0.8322754 15.801422c-0.83154297 3.650116 -7.623291 5.082794 -5.821533 6.099365c1.8018188 1.016571 14.36853 0.7393799 16.632263 0c2.263794 -0.7393799 -2.2642212 -0.7400818 -3.0496826 -4.4362793c-0.7854614 -3.696228 -0.23083496 -14.830231 -1.6630859 -17.740997c-1.43219 -2.910736 -5.9138794 -2.4031372 -6.930237 0.27648926z" fill-rule="evenodd"/><path fill="#cfe2f3" d="m545.8499 451.54883l15.368103 -13.717377l15.368103 13.717377z" fill-rule="evenodd"/><path stroke="#cfe2f3" stroke-width="4.0" stroke-linejoin="round" stroke-linecap="butt" d="m545.8499 451.54883l15.368103 -13.717377l15.368103 13.717377z" fill-rule="evenodd"/><path fill="#cfe2f3" d="m547.16223 442.15686l14.055786 -13.717407l14.055786 13.717407z" fill-rule="evenodd"/><path stroke="#cfe2f3" stroke-width="4.0" stroke-linejoin="round" stroke-linecap="butt" d="m547.16223 442.15686l14.055786 -13.717407l14.055786 13.717407z" fill-rule="evenodd"/><path fill="#cfe2f3" d="m547.16223 433.3462l14.055786 -13.717377l14.055786 13.717377z" fill-rule="evenodd"/><path stroke="#cfe2f3" stroke-width="4.0" stroke-linejoin="round" stroke-linecap="butt" d="m547.16223 433.3462l14.055786 -13.717377l14.055786 13.717377z" fill-rule="evenodd"/><path fill="#cfe2f3" d="m548.4663 423.29352l12.751709 -12.132721l12.75177 12.132721z" fill-rule="evenodd"/><path stroke="#cfe2f3" stroke-width="4.0" stroke-linejoin="round" stroke-linecap="butt" d="m548.4663 423.29352l12.751709 -12.132721l12.75177 12.132721z" fill-rule="evenodd"/><path fill="#cccccc" d="m757.75616 130.51312c-1.6967773 4.473236 2.77771 20.284592 1.3894653 26.377884c-1.3883057 6.0933075 -12.727295 8.484924 -9.719177 10.181915c3.0081177 1.6969757 23.988647 1.2342682 27.768066 0c3.779419 -1.2342834 -3.7802124 -1.2354279 -5.0915527 -7.405655c-1.3113403 -6.170227 -0.385437 -24.756683 -2.7765503 -29.615707c-2.3911743 -4.859024 -9.873474 -4.0116806 -11.570251 0.4615631z" fill-rule="evenodd"/><path fill="#cfe2f3" d="m737.972 133.40105l25.657532 -22.898956l25.65747 22.898956z" fill-rule="evenodd"/><path stroke="#cfe2f3" stroke-width="4.0" stroke-linejoin="round" stroke-linecap="butt" d="m737.972 133.40105l25.657532 -22.898956l25.65747 22.898956z" fill-rule="evenodd"/><path fill="#cfe2f3" d="m740.16296 117.72265l23.466553 -22.898956l23.466492 22.898956z" fill-rule="evenodd"/><path stroke="#cfe2f3" stroke-width="4.0" stroke-linejoin="round" stroke-linecap="butt" d="m740.16296 117.72265l23.466553 -22.898956l23.466492 22.898956z" fill-rule="evenodd"/><path fill="#cfe2f3" d="m740.16296 103.014694l23.466553 -22.898964l23.466492 22.898964z" fill-rule="evenodd"/><path stroke="#cfe2f3" stroke-width="4.0" stroke-linejoin="round" stroke-linecap="butt" d="m740.16296 103.014694l23.466553 -22.898964l23.466492 22.898964z" fill-rule="evenodd"/><path fill="#cfe2f3" d="m742.34015 86.23336l21.289368 -20.253586l21.289368 20.253586z" fill-rule="evenodd"/><path stroke="#cfe2f3" stroke-width="4.0" stroke-linejoin="round" stroke-linecap="butt" d="m742.34015 86.23336l21.289368 -20.253586l21.289368 20.253586z" fill-rule="evenodd"/><path fill="#cccccc" d="m389.08154 92.24269c-1.371582 3.6163254 2.2453613 16.398773 1.1231384 21.324814c-1.1221924 4.9260406 -10.288025 6.8595123 -7.856415 8.231415c2.43161 1.3719025 19.391052 0.9978256 22.446106 0c3.0550842 -0.99783325 -3.055664 -0.99876404 -4.115692 -5.986992c-1.0600281 -4.988228 -0.31158447 -20.014175 -2.2444458 -23.942383c-1.9328308 -3.9282074 -7.981079 -3.243187 -9.352692 0.37314606z" fill-rule="evenodd"/><path fill="#cfe2f3" d="m373.08917 94.57739l20.74002 -18.51233l20.740051 18.51233z" fill-rule="evenodd"/><path stroke="#cfe2f3" stroke-width="4.0" stroke-linejoin="round" stroke-linecap="butt" d="m373.08917 94.57739l20.74002 -18.51233l20.740051 18.51233z" fill-rule="evenodd"/><path fill="#cfe2f3" d="m374.8602 81.90242l18.968994 -18.512325l18.969025 18.512325z" fill-rule="evenodd"/><path stroke="#cfe2f3" stroke-width="4.0" stroke-linejoin="round" stroke-linecap="butt" d="m374.8602 81.90242l18.968994 -18.512325l18.969025 18.512325z" fill-rule="evenodd"/><path fill="#cfe2f3" d="m374.8602 70.011986l18.968994 -18.512321l18.969025 18.512321z" fill-rule="evenodd"/><path stroke="#cfe2f3" stroke-width="4.0" stroke-linejoin="round" stroke-linecap="butt" d="m374.8602 70.011986l18.968994 -18.512321l18.969025 18.512321z" fill-rule="evenodd"/><path fill="#cfe2f3" d="m376.6201 56.44537l17.209106 -16.373714l17.209106 16.373714z" fill-rule="evenodd"/><path stroke="#cfe2f3" stroke-width="4.0" stroke-linejoin="round" stroke-linecap="butt" d="m376.6201 56.44537l17.209106 -16.373714l17.209106 16.373714z" fill-rule="evenodd"/><path fill="#cccccc" d="m126.47 109.34111c-1.3715897 3.616333 2.245346 16.39878 1.1231384 21.324814c-1.1222076 4.9260406 -10.288025 6.8595123 -7.856407 8.231415c2.43161 1.3719025 19.39103 0.99783325 22.446098 0c3.055069 -0.99783325 -3.0556793 -0.9987488 -4.1157074 -5.9869843c-1.0600281 -4.988228 -0.3115692 -20.014175 -2.2444305 -23.942383c-1.9328461 -3.9282074 -7.9810944 -3.243187 -9.352692 0.37313843z" fill-rule="evenodd"/><path fill="#cfe2f3" d="m110.477615 111.67581l20.740036 -18.512321l20.740036 18.512321z" fill-rule="evenodd"/><path stroke="#cfe2f3" stroke-width="4.0" stroke-linejoin="round" stroke-linecap="butt" d="m110.477615 111.67581l20.740036 -18.512321l20.740036 18.512321z" fill-rule="evenodd"/><path fill="#cfe2f3" d="m112.24865 99.00085l18.969002 -18.51233l18.96901 18.51233z" fill-rule="evenodd"/><path stroke="#cfe2f3" stroke-width="4.0" stroke-linejoin="round" stroke-linecap="butt" d="m112.24865 99.00085l18.969002 -18.51233l18.96901 18.51233z" fill-rule="evenodd"/><path fill="#cfe2f3" d="m112.24865 87.11041l18.969002 -18.512321l18.96901 18.512321z" fill-rule="evenodd"/><path stroke="#cfe2f3" stroke-width="4.0" stroke-linejoin="round" stroke-linecap="butt" d="m112.24865 87.11041l18.969002 -18.512321l18.96901 18.512321z" fill-rule="evenodd"/><path fill="#cfe2f3" d="m114.008545 73.5438l17.209106 -16.373718l17.209106 16.373718z" fill-rule="evenodd"/><path stroke="#cfe2f3" stroke-width="4.0" stroke-linejoin="round" stroke-linecap="butt" d="m114.008545 73.5438l17.209106 -16.373718l17.209106 16.373718z" fill-rule="evenodd"/><path fill="#efefef" d="m54.253963 45.37491c1.8757706 -0.43157578 0.11656952 -9.842941 0.89682007 -11.851475c0.78025436 -2.0085335 3.1373367 -2.15839 3.7847023 -0.19972229c0.64736176 1.9586678 -1.1288071 11.553307 0.099472046 11.951721c1.2282829 0.39841843 5.5937653 -8.2332115 7.2702026 -9.561222c1.6764297 -1.3280144 3.5353699 -0.38209534 2.7883987 1.5931511c-0.7469635 1.9752464 -8.212517 8.724934 -7.270199 10.258324c0.94231796 1.53339 10.711102 -1.4714432 12.924114 -1.0579872c2.2130127 0.41345215 2.6841736 2.8603706 0.3539505 3.5387077c-2.330223 0.6783371 -13.951904 -0.85518265 -14.335281 0.5313072c-0.3833809 1.3864899 10.294563 6.0473213 12.035004 7.787628c1.7404404 1.7403107 0.5904312 3.4212418 -1.5923843 2.6542244c-2.182808 -0.76701736 -9.675476 -8.20031 -11.504463 -7.256321c-1.8289909 0.9439926 0.9730339 10.766884 0.53053665 12.920258c-0.44250107 2.1533813 -2.387928 2.2734222 -3.1855316 0c-0.7976074 -2.2734146 0.051662445 -13.404526 -1.6000938 -13.6404915c-1.6517563 -0.23596573 -6.3683662 10.481823 -8.3104515 12.224705c-1.9420891 1.7428741 -4.12965 0.53554535 -3.3420715 -1.7674294c0.7875786 -2.3029747 9.046879 -10.224651 8.067547 -12.0504265c-0.979332 -1.8257751 -11.563072 1.5066566 -13.943546 1.0957756c-2.380474 -0.41088486 -2.6963806 -2.8638458 -0.33929825 -3.5610733c2.3570824 -0.6972275 13.894066 1.0085068 14.481796 -0.6222992c0.5877266 -1.6308098 -9.594254 -7.1209908 -10.955425 -9.162552c-1.3611717 -2.041565 0.59736633 -4.116028 2.7884026 -3.0868263c2.1910324 1.0291977 8.482029 9.6936 10.3578 9.262024z" fill-rule="evenodd"/><path stroke="#efefef" stroke-width="1.0" stroke-linejoin="round" stroke-linecap="butt" d="m54.253963 45.37491c1.8757706 -0.43157578 0.11656952 -9.842941 0.89682007 -11.851475c0.78025436 -2.0085335 3.1373367 -2.15839 3.7847023 -0.19972229c0.64736176 1.9586678 -1.1288071 11.553307 0.099472046 11.951721c1.2282829 0.39841843 5.5937653 -8.2332115 7.2702026 -9.561222c1.6764297 -1.3280144 3.5353699 -0.38209534 2.7883987 1.5931511c-0.7469635 1.9752464 -8.212517 8.724934 -7.270199 10.258324c0.94231796 1.53339 10.711102 -1.4714432 12.924114 -1.0579872c2.2130127 0.41345215 2.6841736 2.8603706 0.3539505 3.5387077c-2.330223 0.6783371 -13.951904 -0.85518265 -14.335281 0.5313072c-0.3833809 1.3864899 10.294563 6.0473213 12.035004 7.787628c1.7404404 1.7403107 0.5904312 3.4212418 -1.5923843 2.6542244c-2.182808 -0.76701736 -9.675476 -8.20031 -11.504463 -7.256321c-1.8289909 0.9439926 0.9730339 10.766884 0.53053665 12.920258c-0.44250107 2.1533813 -2.387928 2.2734222 -3.1855316 0c-0.7976074 -2.2734146 0.051662445 -13.404526 -1.6000938 -13.6404915c-1.6517563 -0.23596573 -6.3683662 10.481823 -8.3104515 12.224705c-1.9420891 1.7428741 -4.12965 0.53554535 -3.3420715 -1.7674294c0.7875786 -2.3029747 9.046879 -10.224651 8.067547 -12.0504265c-0.979332 -1.8257751 -11.563072 1.5066566 -13.943546 1.0957756c-2.380474 -0.41088486 -2.6963806 -2.8638458 -0.33929825 -3.5610733c2.3570824 -0.6972275 13.894066 1.0085068 14.481796 -0.6222992c0.5877266 -1.6308098 -9.594254 -7.1209908 -10.955425 -9.162552c-1.3611717 -2.041565 0.59736633 -4.116028 2.7884026 -3.0868263c2.1910324 1.0291977 8.482029 9.6936 10.3578 9.262024z" fill-rule="evenodd"/><path fill="#efefef" d="m32.50593 385.3408c1.8757706 -0.4315796 0.11656952 -9.842957 0.89682007 -11.851471c0.78025436 -2.008545 3.1373367 -2.1583862 3.7847023 -0.19973755c0.64736176 1.9586792 -1.1288071 11.553314 0.099472046 11.951721c1.2282829 0.3984375 5.593769 -8.233215 7.2702026 -9.561218c1.6764336 -1.3280029 3.535366 -0.38208008 2.7884026 1.5931702c-0.7469673 1.9752197 -8.212521 8.724915 -7.2702026 10.258301c0.94231796 1.5333862 10.711105 -1.4714355 12.924114 -1.0579834c2.2130127 0.41345215 2.6841736 2.860382 0.3539505 3.5387268c-2.330223 0.6783142 -13.9519005 -0.8551941 -14.335281 0.5312805c-0.3833809 1.3865051 10.294567 6.047333 12.035004 7.787628c1.7404366 1.7403259 0.5904274 3.4212646 -1.5923805 2.6542358c-2.182808 -0.7670288 -9.67548 -8.200317 -11.504467 -7.256317c-1.8289909 0.94400024 0.9730339 10.766876 0.53053665 12.920258c-0.44250107 2.1533813 -2.387928 2.273407 -3.1855316 0c-0.7976036 -2.273407 0.051662445 -13.404541 -1.6000938 -13.640503c-1.6517563 -0.23596191 -6.3683643 10.481842 -8.310453 12.224701c-1.9420872 1.7428894 -4.12965 0.535553 -3.3420696 -1.7674255c0.7875786 -2.3029785 9.046881 -10.22464 8.067547 -12.050415c-0.9793339 -1.8257751 -11.563074 1.5066528 -13.943548 1.0957642c-2.3804731 -0.41088867 -2.6963787 -2.8638306 -0.33929634 -3.5610657c2.3570843 -0.6972351 13.894068 1.0085144 14.481796 -0.62231445c0.5877285 -1.6307983 -9.594254 -7.1209717 -10.955425 -9.162537c-1.3611698 -2.041565 0.59736824 -4.116028 2.7884007 -3.0868225c2.1910343 1.0292053 8.482031 9.6936035 10.357801 9.262024z" fill-rule="evenodd"/><path stroke="#efefef" stroke-width="1.0" stroke-linejoin="round" stroke-linecap="butt" d="m32.50593 385.3408c1.8757706 -0.4315796 0.11656952 -9.842957 0.89682007 -11.851471c0.78025436 -2.008545 3.1373367 -2.1583862 3.7847023 -0.19973755c0.64736176 1.9586792 -1.1288071 11.553314 0.099472046 11.951721c1.2282829 0.3984375 5.593769 -8.233215 7.2702026 -9.561218c1.6764336 -1.3280029 3.535366 -0.38208008 2.7884026 1.5931702c-0.7469673 1.9752197 -8.212521 8.724915 -7.2702026 10.258301c0.94231796 1.5333862 10.711105 -1.4714355 12.924114 -1.0579834c2.2130127 0.41345215 2.6841736 2.860382 0.3539505 3.5387268c-2.330223 0.6783142 -13.9519005 -0.8551941 -14.335281 0.5312805c-0.3833809 1.3865051 10.294567 6.047333 12.035004 7.787628c1.7404366 1.7403259 0.5904274 3.4212646 -1.5923805 2.6542358c-2.182808 -0.7670288 -9.67548 -8.200317 -11.504467 -7.256317c-1.8289909 0.94400024 0.9730339 10.766876 0.53053665 12.920258c-0.44250107 2.1533813 -2.387928 2.273407 -3.1855316 0c-0.7976036 -2.273407 0.051662445 -13.404541 -1.6000938 -13.640503c-1.6517563 -0.23596191 -6.3683643 10.481842 -8.310453 12.224701c-1.9420872 1.7428894 -4.12965 0.535553 -3.3420696 -1.7674255c0.7875786 -2.3029785 9.046881 -10.22464 8.067547 -12.050415c-0.9793339 -1.8257751 -11.563074 1.5066528 -13.943548 1.0957642c-2.3804731 -0.41088867 -2.6963787 -2.8638306 -0.33929634 -3.5610657c2.3570843 -0.6972351 13.894068 1.0085144 14.481796 -0.62231445c0.5877285 -1.6307983 -9.594254 -7.1209717 -10.955425 -9.162537c-1.3611698 -2.041565 0.59736824 -4.116028 2.7884007 -3.0868225c2.1910343 1.0292053 8.482031 9.6936035 10.357801 9.262024z" fill-rule="evenodd"/><path fill="#efefef" d="m482.2251 399.556c1.8757629 -0.43154907 0.11657715 -9.842926 0.89682007 -11.851471c0.7802429 -2.0085144 3.137329 -2.1583862 3.7846985 -0.19970703c0.6473694 1.9586487 -1.1288147 11.553284 0.09945679 11.951721c1.228302 0.39840698 5.5937805 -8.233215 7.2702026 -9.561218c1.6764526 -1.3280334 3.5353699 -0.3821106 2.7884216 1.5931396c-0.74697876 1.9752502 -8.212524 8.724945 -7.2702026 10.258331c0.9423218 1.5333862 10.71109 -1.4714355 12.924103 -1.0579834c2.2130127 0.41345215 2.6841736 2.8603516 0.35394287 3.5386963c-2.3302002 0.6783447 -13.951874 -0.8551941 -14.335266 0.53131104c-0.38339233 1.3864746 10.294556 6.0473022 12.035004 7.787628c1.740448 1.7402954 0.5904236 3.4212341 -1.5923767 2.6542053c-2.1828003 -0.7669983 -9.675476 -8.200287 -11.504486 -7.256317c-1.8289795 0.94400024 0.973053 10.766907 0.5305481 12.920258c-0.44250488 2.1533813 -2.3879395 2.2734375 -3.1855164 0c-0.7976074 -2.273407 0.051635742 -13.4045105 -1.6000977 -13.640472c-1.6517639 -0.23596191 -6.3683777 10.481812 -8.310455 12.224701c-1.9421082 1.7428589 -4.129669 0.535553 -3.3420715 -1.7674255c0.78756714 -2.3029785 9.046875 -10.22467 8.067535 -12.050446c-0.9793396 -1.8257751 -11.56308 1.5066528 -13.9435425 1.0957947c-2.3804626 -0.41088867 -2.6963806 -2.863861 -0.33929443 -3.5610962c2.3570862 -0.6972046 13.8940735 1.0085144 14.481781 -0.62228394c0.58773804 -1.6307983 -9.594238 -7.121002 -10.955414 -9.162567c-1.3611755 -2.0415344 0.5973816 -4.116028 2.788391 -3.0868225c2.19104 1.0292053 8.482056 9.6936035 10.357819 9.262024z" fill-rule="evenodd"/><path stroke="#efefef" stroke-width="1.0" stroke-linejoin="round" stroke-linecap="butt" d="m482.2251 399.556c1.8757629 -0.43154907 0.11657715 -9.842926 0.89682007 -11.851471c0.7802429 -2.0085144 3.137329 -2.1583862 3.7846985 -0.19970703c0.6473694 1.9586487 -1.1288147 11.553284 0.09945679 11.951721c1.228302 0.39840698 5.5937805 -8.233215 7.2702026 -9.561218c1.6764526 -1.3280334 3.5353699 -0.3821106 2.7884216 1.5931396c-0.74697876 1.9752502 -8.212524 8.724945 -7.2702026 10.258331c0.9423218 1.5333862 10.71109 -1.4714355 12.924103 -1.0579834c2.2130127 0.41345215 2.6841736 2.8603516 0.35394287 3.5386963c-2.3302002 0.6783447 -13.951874 -0.8551941 -14.335266 0.53131104c-0.38339233 1.3864746 10.294556 6.0473022 12.035004 7.787628c1.740448 1.7402954 0.5904236 3.4212341 -1.5923767 2.6542053c-2.1828003 -0.7669983 -9.675476 -8.200287 -11.504486 -7.256317c-1.8289795 0.94400024 0.973053 10.766907 0.5305481 12.920258c-0.44250488 2.1533813 -2.3879395 2.2734375 -3.1855164 0c-0.7976074 -2.273407 0.051635742 -13.4045105 -1.6000977 -13.640472c-1.6517639 -0.23596191 -6.3683777 10.481812 -8.310455 12.224701c-1.9421082 1.7428589 -4.129669 0.535553 -3.3420715 -1.7674255c0.78756714 -2.3029785 9.046875 -10.22467 8.067535 -12.050446c-0.9793396 -1.8257751 -11.56308 1.5066528 -13.9435425 1.0957947c-2.3804626 -0.41088867 -2.6963806 -2.863861 -0.33929443 -3.5610962c2.3570862 -0.6972046 13.8940735 1.0085144 14.481781 -0.62228394c0.58773804 -1.6307983 -9.594238 -7.121002 -10.955414 -9.162567c-1.3611755 -2.0415344 0.5973816 -4.116028 2.788391 -3.0868225c2.19104 1.0292053 8.482056 9.6936035 10.357819 9.262024z" fill-rule="evenodd"/><path fill="#efefef" d="m575.30646 45.37491c1.8757935 -0.43157578 0.11657715 -9.842941 0.8968506 -11.851475c0.7802124 -2.0085335 3.137329 -2.15839 3.784668 -0.19972229c0.64733887 1.9586678 -1.1287842 11.553307 0.099487305 11.951721c1.2282715 0.39841843 5.59375 -8.2332115 7.2702026 -9.561222c1.6763916 -1.3280144 3.5353394 -0.38209534 2.788391 1.5931511c-0.74694824 1.9752464 -8.212524 8.724934 -7.2702026 10.258324c0.9423218 1.53339 10.711121 -1.4714432 12.924133 -1.0579872c2.2130127 0.41345215 2.684143 2.8603706 0.35394287 3.5387077c-2.3302612 0.6783371 -13.951904 -0.85518265 -14.335266 0.5313072c-0.38342285 1.3864899 10.294556 6.0473213 12.034973 7.787628c1.7404175 1.7403107 0.5904541 3.4212418 -1.5924072 2.6542244c-2.1828003 -0.76701736 -9.675476 -8.20031 -11.504456 -7.256321c-1.8289795 0.9439926 0.9730835 10.766884 0.5305786 12.920258c-0.44250488 2.1533813 -2.3879395 2.2734222 -3.1855469 0c-0.7976074 -2.2734146 0.051635742 -13.404526 -1.6000977 -13.6404915c-1.6517334 -0.23596573 -6.368347 10.481823 -8.310486 12.224705c-1.9420776 1.7428741 -4.1296387 0.53554535 -3.342041 -1.7674294c0.78759766 -2.3029747 9.046875 -10.224651 8.067566 -12.0504265c-0.9793701 -1.8257751 -11.56311 1.5066566 -13.9435425 1.0957756c-2.3804932 -0.41088486 -2.6964111 -2.8638458 -0.33929443 -3.5610733c2.3570557 -0.6972275 13.894043 1.0085068 14.4817505 -0.6222992c0.58776855 -1.6308098 -9.594238 -7.1209908 -10.955383 -9.162552c-1.361206 -2.041565 0.5973511 -4.116028 2.788391 -3.0868263c2.19104 1.0291977 8.481995 9.6936 10.357788 9.262024z" fill-rule="evenodd"/><path stroke="#efefef" stroke-width="1.0" stroke-linejoin="round" stroke-linecap="butt" d="m575.30646 45.37491c1.8757935 -0.43157578 0.11657715 -9.842941 0.8968506 -11.851475c0.7802124 -2.0085335 3.137329 -2.15839 3.784668 -0.19972229c0.64733887 1.9586678 -1.1287842 11.553307 0.099487305 11.951721c1.2282715 0.39841843 5.59375 -8.2332115 7.2702026 -9.561222c1.6763916 -1.3280144 3.5353394 -0.38209534 2.788391 1.5931511c-0.74694824 1.9752464 -8.212524 8.724934 -7.2702026 10.258324c0.9423218 1.53339 10.711121 -1.4714432 12.924133 -1.0579872c2.2130127 0.41345215 2.684143 2.8603706 0.35394287 3.5387077c-2.3302612 0.6783371 -13.951904 -0.85518265 -14.335266 0.5313072c-0.38342285 1.3864899 10.294556 6.0473213 12.034973 7.787628c1.7404175 1.7403107 0.5904541 3.4212418 -1.5924072 2.6542244c-2.1828003 -0.76701736 -9.675476 -8.20031 -11.504456 -7.256321c-1.8289795 0.9439926 0.9730835 10.766884 0.5305786 12.920258c-0.44250488 2.1533813 -2.3879395 2.2734222 -3.1855469 0c-0.7976074 -2.2734146 0.051635742 -13.404526 -1.6000977 -13.6404915c-1.6517334 -0.23596573 -6.368347 10.481823 -8.310486 12.224705c-1.9420776 1.7428741 -4.1296387 0.53554535 -3.342041 -1.7674294c0.78759766 -2.3029747 9.046875 -10.224651 8.067566 -12.0504265c-0.9793701 -1.8257751 -11.56311 1.5066566 -13.9435425 1.0957756c-2.3804932 -0.41088486 -2.6964111 -2.8638458 -0.33929443 -3.5610733c2.3570557 -0.6972275 13.894043 1.0085068 14.4817505 -0.6222992c0.58776855 -1.6308098 -9.594238 -7.1209908 -10.955383 -9.162552c-1.361206 -2.041565 0.5973511 -4.116028 2.788391 -3.0868263c2.19104 1.0291977 8.481995 9.6936 10.357788 9.262024z" fill-rule="evenodd"/><path fill="#efefef" d="m977.42194 188.31717c1.8757935 -0.4315796 0.11657715 -9.842941 0.8968506 -11.851486c0.7802124 -2.0085297 3.137329 -2.1583862 3.784668 -0.19972229c0.6473999 1.9586792 -1.1287842 11.553314 0.099487305 11.951736c1.2282715 0.39840698 5.59375 -8.233215 7.2702026 -9.5612335c1.6764526 -1.3280029 3.5353394 -0.38209534 2.788391 1.5931549c-0.74694824 1.9752502 -8.212524 8.72493 -7.2702026 10.258331c0.9423218 1.5333862 10.711121 -1.4714508 12.924133 -1.0579987c2.2130127 0.41345215 2.684143 2.860382 0.35394287 3.5387115c-2.3302002 0.67832947 -13.951904 -0.85517883 -14.335266 0.53131104c-0.38342285 1.3864899 10.294556 6.0473175 12.034973 7.787628c1.7404175 1.7403107 0.5904541 3.4212341 -1.5923462 2.6542206c-2.1828613 -0.76701355 -9.675476 -8.200302 -11.504517 -7.256317c-1.8289795 0.943985 0.9730835 10.766876 0.5305786 12.920258c-0.44250488 2.1533813 -2.3879395 2.2734222 -3.1855469 0c-0.7976074 -2.2734222 0.051635742 -13.404526 -1.6000977 -13.640488c-1.6517334 -0.23597717 -6.368347 10.481812 -8.310425 12.224701c-1.9421387 1.7428741 -4.1296997 0.5355377 -3.342102 -1.7674255c0.78759766 -2.3029785 9.046875 -10.224655 8.067566 -12.05043c-0.9793701 -1.8257751 -11.56311 1.5066528 -13.9435425 1.0957642c-2.3804932 -0.4108734 -2.6964111 -2.8638306 -0.33929443 -3.5610657c2.3570557 -0.6972351 13.894043 1.0085144 14.4817505 -0.6222992c0.58776855 -1.6308136 -9.594238 -7.120987 -10.955383 -9.162552c-1.361206 -2.041565 0.5973511 -4.116028 2.788391 -3.0868225c2.19104 1.0291901 8.481995 9.693588 10.357788 9.262024z" fill-rule="evenodd"/><path stroke="#efefef" stroke-width="1.0" stroke-linejoin="round" stroke-linecap="butt" d="m977.42194 188.31717c1.8757935 -0.4315796 0.11657715 -9.842941 0.8968506 -11.851486c0.7802124 -2.0085297 3.137329 -2.1583862 3.784668 -0.19972229c0.6473999 1.9586792 -1.1287842 11.553314 0.099487305 11.951736c1.2282715 0.39840698 5.59375 -8.233215 7.2702026 -9.5612335c1.6764526 -1.3280029 3.5353394 -0.38209534 2.788391 1.5931549c-0.74694824 1.9752502 -8.212524 8.72493 -7.2702026 10.258331c0.9423218 1.5333862 10.711121 -1.4714508 12.924133 -1.0579987c2.2130127 0.41345215 2.684143 2.860382 0.35394287 3.5387115c-2.3302002 0.67832947 -13.951904 -0.85517883 -14.335266 0.53131104c-0.38342285 1.3864899 10.294556 6.0473175 12.034973 7.787628c1.7404175 1.7403107 0.5904541 3.4212341 -1.5923462 2.6542206c-2.1828613 -0.76701355 -9.675476 -8.200302 -11.504517 -7.256317c-1.8289795 0.943985 0.9730835 10.766876 0.5305786 12.920258c-0.44250488 2.1533813 -2.3879395 2.2734222 -3.1855469 0c-0.7976074 -2.2734222 0.051635742 -13.404526 -1.6000977 -13.640488c-1.6517334 -0.23597717 -6.368347 10.481812 -8.310425 12.224701c-1.9421387 1.7428741 -4.1296997 0.5355377 -3.342102 -1.7674255c0.78759766 -2.3029785 9.046875 -10.224655 8.067566 -12.05043c-0.9793701 -1.8257751 -11.56311 1.5066528 -13.9435425 1.0957642c-2.3804932 -0.4108734 -2.6964111 -2.8638306 -0.33929443 -3.5610657c2.3570557 -0.6972351 13.894043 1.0085144 14.4817505 -0.6222992c0.58776855 -1.6308136 -9.594238 -7.120987 -10.955383 -9.162552c-1.361206 -2.041565 0.5973511 -4.116028 2.788391 -3.0868225c2.19104 1.0291901 8.481995 9.693588 10.357788 9.262024z" fill-rule="evenodd"/><path fill="#efefef" d="m665.2146 409.2135c1.8757324 -0.4315796 0.11657715 -9.842957 0.89678955 -11.851471c0.78027344 -2.008545 3.1373901 -2.1584167 3.784729 -0.19973755c0.64733887 1.9586792 -1.1287842 11.553314 0.099487305 11.951721c1.2282715 0.39840698 5.59375 -8.233215 7.2702026 -9.561218c1.6763916 -1.3280029 3.5353394 -0.3821106 2.788391 1.5931396c-0.74694824 1.9752502 -8.212524 8.724945 -7.2702026 10.258331c0.9423218 1.5333862 10.711121 -1.4714355 12.924133 -1.0579834c2.2130127 0.41345215 2.684143 2.860382 0.35394287 3.5386963c-2.3302612 0.6783447 -13.951904 -0.8551636 -14.335327 0.53131104c-0.38336182 1.3865051 10.294617 6.047333 12.035034 7.787628c1.7404175 1.7403259 0.5904541 3.4212341 -1.5924072 2.6542358c-2.1828003 -0.7670288 -9.675476 -8.200317 -11.504456 -7.256317c-1.8289795 0.9439697 0.97302246 10.766876 0.5305786 12.920258c-0.44250488 2.1533813 -2.3879395 2.273407 -3.1855469 0c-0.7976074 -2.273407 0.051635742 -13.404541 -1.6000977 -13.640503c-1.6517944 -0.23596191 -6.368347 10.481812 -8.310486 12.224701c-1.9420776 1.7428894 -4.1296387 0.535553 -3.342041 -1.7674255c0.78759766 -2.3029785 9.046875 -10.22464 8.067566 -12.050415c-0.9793701 -1.8257751 -11.56311 1.5066528 -13.9436035 1.0957642c-2.3804321 -0.41088867 -2.69635 -2.8638306 -0.33929443 -3.5610657c2.3571167 -0.6972351 13.894104 1.0085144 14.481812 -0.62231445c0.58776855 -1.6307983 -9.594238 -7.1209717 -10.955383 -9.162537c-1.361206 -2.041565 0.5973511 -4.116028 2.788391 -3.0868225c2.19104 1.0291748 8.481995 9.6936035 10.357788 9.262024z" fill-rule="evenodd"/><path stroke="#efefef" stroke-width="1.0" stroke-linejoin="round" stroke-linecap="butt" d="m665.2146 409.2135c1.8757324 -0.4315796 0.11657715 -9.842957 0.89678955 -11.851471c0.78027344 -2.008545 3.1373901 -2.1584167 3.784729 -0.19973755c0.64733887 1.9586792 -1.1287842 11.553314 0.099487305 11.951721c1.2282715 0.39840698 5.59375 -8.233215 7.2702026 -9.561218c1.6763916 -1.3280029 3.5353394 -0.3821106 2.788391 1.5931396c-0.74694824 1.9752502 -8.212524 8.724945 -7.2702026 10.258331c0.9423218 1.5333862 10.711121 -1.4714355 12.924133 -1.0579834c2.2130127 0.41345215 2.684143 2.860382 0.35394287 3.5386963c-2.3302612 0.6783447 -13.951904 -0.8551636 -14.335327 0.53131104c-0.38336182 1.3865051 10.294617 6.047333 12.035034 7.787628c1.7404175 1.7403259 0.5904541 3.4212341 -1.5924072 2.6542358c-2.1828003 -0.7670288 -9.675476 -8.200317 -11.504456 -7.256317c-1.8289795 0.9439697 0.97302246 10.766876 0.5305786 12.920258c-0.44250488 2.1533813 -2.3879395 2.273407 -3.1855469 0c-0.7976074 -2.273407 0.051635742 -13.404541 -1.6000977 -13.640503c-1.6517944 -0.23596191 -6.368347 10.481812 -8.310486 12.224701c-1.9420776 1.7428894 -4.1296387 0.535553 -3.342041 -1.7674255c0.78759766 -2.3029785 9.046875 -10.22464 8.067566 -12.050415c-0.9793701 -1.8257751 -11.56311 1.5066528 -13.9436035 1.0957642c-2.3804321 -0.41088867 -2.69635 -2.8638306 -0.33929443 -3.5610657c2.3571167 -0.6972351 13.894104 1.0085144 14.481812 -0.62231445c0.58776855 -1.6307983 -9.594238 -7.1209717 -10.955383 -9.162537c-1.361206 -2.041565 0.5973511 -4.116028 2.788391 -3.0868225c2.19104 1.0291748 8.481995 9.6936035 10.357788 9.262024z" fill-rule="evenodd"/><path fill="#efefef" d="m302.5033 358.3001c1.8757935 -0.4315796 0.11657715 -9.842957 0.89682007 -11.851471c0.78027344 -2.008545 3.1373596 -2.1583862 3.7846985 -0.19973755c0.6473694 1.9586792 -1.1287842 11.553314 0.099487305 11.951721c1.2282715 0.3984375 5.5937805 -8.233215 7.2702026 -9.561218c1.6764221 -1.3280029 3.5353699 -0.38208008 2.788391 1.5931396c-0.74694824 1.9752502 -8.212524 8.724945 -7.2702026 10.258331c0.9423218 1.5333862 10.711121 -1.4714355 12.924133 -1.0579834c2.2130127 0.41345215 2.6841736 2.860382 0.35394287 3.5386963c-2.3302307 0.6783447 -13.951904 -0.8551636 -14.335297 0.53131104c-0.38336182 1.3865051 10.294586 6.047333 12.035034 7.787628c1.7404175 1.7403259 0.5904236 3.4212646 -1.5924072 2.6542358c-2.1828003 -0.7670288 -9.675476 -8.200317 -11.504456 -7.256317c-1.8289795 0.94400024 0.97302246 10.766876 0.5305481 12.920258c-0.44250488 2.1533813 -2.3879395 2.273407 -3.1855469 0c-0.7976074 -2.273407 0.05166626 -13.404541 -1.6000977 -13.640503c-1.6517639 -0.23596191 -6.368347 10.481842 -8.310455 12.224701c-1.9420776 1.7428894 -4.1296387 0.535553 -3.3420715 -1.7674255c0.78759766 -2.3029785 9.0469055 -10.22464 8.067566 -12.050415c-0.9793396 -1.8257751 -11.56308 1.5066528 -13.9435425 1.0957642c-2.3804932 -0.41088867 -2.6963806 -2.8638306 -0.33929443 -3.5610657c2.3570557 -0.6972351 13.894043 1.0085144 14.481781 -0.62231445c0.58773804 -1.6307983 -9.594269 -7.1209717 -10.955414 -9.162537c-1.3611755 -2.041565 0.5973511 -4.116028 2.788391 -3.0868225c2.19104 1.0292053 8.482025 9.6936035 10.357788 9.262024z" fill-rule="evenodd"/><path stroke="#efefef" stroke-width="1.0" stroke-linejoin="round" stroke-linecap="butt" d="m302.5033 358.3001c1.8757935 -0.4315796 0.11657715 -9.842957 0.89682007 -11.851471c0.78027344 -2.008545 3.1373596 -2.1583862 3.7846985 -0.19973755c0.6473694 1.9586792 -1.1287842 11.553314 0.099487305 11.951721c1.2282715 0.3984375 5.5937805 -8.233215 7.2702026 -9.561218c1.6764221 -1.3280029 3.5353699 -0.38208008 2.788391 1.5931396c-0.74694824 1.9752502 -8.212524 8.724945 -7.2702026 10.258331c0.9423218 1.5333862 10.711121 -1.4714355 12.924133 -1.0579834c2.2130127 0.41345215 2.6841736 2.860382 0.35394287 3.5386963c-2.3302307 0.6783447 -13.951904 -0.8551636 -14.335297 0.53131104c-0.38336182 1.3865051 10.294586 6.047333 12.035034 7.787628c1.7404175 1.7403259 0.5904236 3.4212646 -1.5924072 2.6542358c-2.1828003 -0.7670288 -9.675476 -8.200317 -11.504456 -7.256317c-1.8289795 0.94400024 0.97302246 10.766876 0.5305481 12.920258c-0.44250488 2.1533813 -2.3879395 2.273407 -3.1855469 0c-0.7976074 -2.273407 0.05166626 -13.404541 -1.6000977 -13.640503c-1.6517639 -0.23596191 -6.368347 10.481842 -8.310455 12.224701c-1.9420776 1.7428894 -4.1296387 0.535553 -3.3420715 -1.7674255c0.78759766 -2.3029785 9.0469055 -10.22464 8.067566 -12.050415c-0.9793396 -1.8257751 -11.56308 1.5066528 -13.9435425 1.0957642c-2.3804932 -0.41088867 -2.6963806 -2.8638306 -0.33929443 -3.5610657c2.3570557 -0.6972351 13.894043 1.0085144 14.481781 -0.62231445c0.58773804 -1.6307983 -9.594269 -7.1209717 -10.955414 -9.162537c-1.3611755 -2.041565 0.5973511 -4.116028 2.788391 -3.0868225c2.19104 1.0292053 8.482025 9.6936035 10.357788 9.262024z" fill-rule="evenodd"/><path fill="#efefef" d="m569.10175 251.2358c1.8757324 -0.43156433 0.11657715 -9.842941 0.89678955 -11.851471c0.78027344 -2.0085297 3.137329 -2.1583862 3.784729 -0.19972229c0.64733887 1.958664 -1.1288452 11.553314 0.099487305 11.951721c1.2282715 0.39842224 5.59375 -8.233215 7.2702026 -9.561218c1.6763916 -1.3280182 3.5353394 -0.38209534 2.788391 1.5931549c-0.7470093 1.975235 -8.212524 8.72493 -7.2702026 10.258316c0.9423218 1.5333862 10.711121 -1.4714355 12.924072 -1.0579834c2.2130127 0.41345215 2.684204 2.8603668 0.3540039 3.5387115c-2.3302612 0.67832947 -13.951904 -0.85517883 -14.335327 0.5312958c-0.38336182 1.3865051 10.294617 6.047333 12.035034 7.787628c1.7404175 1.7403259 0.59039307 3.4212341 -1.5924072 2.6542358c-2.1828003 -0.7670288 -9.675476 -8.200317 -11.504456 -7.256317c-1.8289795 0.9439697 0.97302246 10.766876 0.5305176 12.920258c-0.44250488 2.1533813 -2.3878784 2.273407 -3.1854858 0c-0.7976074 -2.273407 0.051635742 -13.404541 -1.6000977 -13.640503c-1.6517944 -0.23596191 -6.368408 10.481812 -8.310486 12.224701c-1.9420776 1.7428894 -4.1296387 0.535553 -3.342041 -1.7674255c0.7875366 -2.3029785 9.046875 -10.22464 8.067505 -12.050415c-0.9793091 -1.8257904 -11.563049 1.5066528 -13.9435425 1.0957642c-2.3804321 -0.41088867 -2.69635 -2.8638458 -0.33929443 -3.5610657c2.3571167 -0.6972351 13.894104 1.0084991 14.481812 -0.6222992c0.5877075 -1.6308136 -9.594238 -7.120987 -10.955444 -9.162552c-1.361145 -2.041565 0.5974121 -4.116028 2.7884521 -3.0868378c2.190979 1.0292053 8.481995 9.6936035 10.357788 9.262024z" fill-rule="evenodd"/><path stroke="#efefef" stroke-width="1.0" stroke-linejoin="round" stroke-linecap="butt" d="m569.10175 251.2358c1.8757324 -0.43156433 0.11657715 -9.842941 0.89678955 -11.851471c0.78027344 -2.0085297 3.137329 -2.1583862 3.784729 -0.19972229c0.64733887 1.958664 -1.1288452 11.553314 0.099487305 11.951721c1.2282715 0.39842224 5.59375 -8.233215 7.2702026 -9.561218c1.6763916 -1.3280182 3.5353394 -0.38209534 2.788391 1.5931549c-0.7470093 1.975235 -8.212524 8.72493 -7.2702026 10.258316c0.9423218 1.5333862 10.711121 -1.4714355 12.924072 -1.0579834c2.2130127 0.41345215 2.684204 2.8603668 0.3540039 3.5387115c-2.3302612 0.67832947 -13.951904 -0.85517883 -14.335327 0.5312958c-0.38336182 1.3865051 10.294617 6.047333 12.035034 7.787628c1.7404175 1.7403259 0.59039307 3.4212341 -1.5924072 2.6542358c-2.1828003 -0.7670288 -9.675476 -8.200317 -11.504456 -7.256317c-1.8289795 0.9439697 0.97302246 10.766876 0.5305176 12.920258c-0.44250488 2.1533813 -2.3878784 2.273407 -3.1854858 0c-0.7976074 -2.273407 0.051635742 -13.404541 -1.6000977 -13.640503c-1.6517944 -0.23596191 -6.368408 10.481812 -8.310486 12.224701c-1.9420776 1.7428894 -4.1296387 0.535553 -3.342041 -1.7674255c0.7875366 -2.3029785 9.046875 -10.22464 8.067505 -12.050415c-0.9793091 -1.8257904 -11.563049 1.5066528 -13.9435425 1.0957642c-2.3804321 -0.41088867 -2.69635 -2.8638458 -0.33929443 -3.5610657c2.3571167 -0.6972351 13.894104 1.0084991 14.481812 -0.6222992c0.5877075 -1.6308136 -9.594238 -7.120987 -10.955444 -9.162552c-1.361145 -2.041565 0.5974121 -4.116028 2.7884521 -3.0868378c2.190979 1.0292053 8.481995 9.6936035 10.357788 9.262024z" fill-rule="evenodd"/><path fill="#efefef" d="m761.5781 224.72661c1.8757324 -0.43156433 0.11657715 -9.842941 0.89678955 -11.851471c0.78027344 -2.0085297 3.137329 -2.1583862 3.784729 -0.19972229c0.64733887 1.958664 -1.1288452 11.553314 0.099487305 11.951721c1.2282715 0.39842224 5.59375 -8.233215 7.2702026 -9.561218c1.6763916 -1.3280182 3.5353394 -0.38209534 2.788391 1.5931549c-0.7470093 1.975235 -8.212524 8.72493 -7.2702026 10.258316c0.9423218 1.5333862 10.711121 -1.4714355 12.924072 -1.0579834c2.2130127 0.41345215 2.684204 2.8603668 0.3540039 3.5387115c-2.3302612 0.67832947 -13.951904 -0.8551941 -14.335327 0.5312958c-0.38336182 1.3864899 10.294617 6.047333 12.035034 7.787628c1.7404175 1.7403107 0.59039307 3.4212494 -1.5924072 2.6542358c-2.1828003 -0.76701355 -9.675476 -8.200317 -11.504456 -7.2563324c-1.8289795 0.94400024 0.97302246 10.7668915 0.5305176 12.920273c-0.44250488 2.153366 -2.3878784 2.273407 -3.1854858 0c-0.7976074 -2.2734222 0.051635742 -13.404541 -1.6000977 -13.640503c-1.6517944 -0.23596191 -6.368408 10.481827 -8.310486 12.224701c-1.9420776 1.7428894 -4.1296387 0.535553 -3.342041 -1.7674255c0.7875366 -2.3029785 9.046875 -10.224655 8.067505 -12.05043c-0.9793091 -1.8257751 -11.563049 1.5066681 -13.9435425 1.0957794c-2.3804321 -0.41088867 -2.69635 -2.8638458 -0.33929443 -3.5610657c2.3571167 -0.6972351 13.894104 1.0084991 14.481812 -0.6222992c0.5877075 -1.6308136 -9.594238 -7.120987 -10.955444 -9.162552c-1.361145 -2.041565 0.5974121 -4.116028 2.7884521 -3.0868378c2.190979 1.0292053 8.481995 9.6936035 10.357788 9.262024z" fill-rule="evenodd"/><path stroke="#efefef" stroke-width="1.0" stroke-linejoin="round" stroke-linecap="butt" d="m761.5781 224.72661c1.8757324 -0.43156433 0.11657715 -9.842941 0.89678955 -11.851471c0.78027344 -2.0085297 3.137329 -2.1583862 3.784729 -0.19972229c0.64733887 1.958664 -1.1288452 11.553314 0.099487305 11.951721c1.2282715 0.39842224 5.59375 -8.233215 7.2702026 -9.561218c1.6763916 -1.3280182 3.5353394 -0.38209534 2.788391 1.5931549c-0.7470093 1.975235 -8.212524 8.72493 -7.2702026 10.258316c0.9423218 1.5333862 10.711121 -1.4714355 12.924072 -1.0579834c2.2130127 0.41345215 2.684204 2.8603668 0.3540039 3.5387115c-2.3302612 0.67832947 -13.951904 -0.8551941 -14.335327 0.5312958c-0.38336182 1.3864899 10.294617 6.047333 12.035034 7.787628c1.7404175 1.7403107 0.59039307 3.4212494 -1.5924072 2.6542358c-2.1828003 -0.76701355 -9.675476 -8.200317 -11.504456 -7.2563324c-1.8289795 0.94400024 0.97302246 10.7668915 0.5305176 12.920273c-0.44250488 2.153366 -2.3878784 2.273407 -3.1854858 0c-0.7976074 -2.2734222 0.051635742 -13.404541 -1.6000977 -13.640503c-1.6517944 -0.23596191 -6.368408 10.481827 -8.310486 12.224701c-1.9420776 1.7428894 -4.1296387 0.535553 -3.342041 -1.7674255c0.7875366 -2.3029785 9.046875 -10.224655 8.067505 -12.05043c-0.9793091 -1.8257751 -11.563049 1.5066681 -13.9435425 1.0957794c-2.3804321 -0.41088867 -2.69635 -2.8638458 -0.33929443 -3.5610657c2.3571167 -0.6972351 13.894104 1.0084991 14.481812 -0.6222992c0.5877075 -1.6308136 -9.594238 -7.120987 -10.955444 -9.162552c-1.361145 -2.041565 0.5974121 -4.116028 2.7884521 -3.0868378c2.190979 1.0292053 8.481995 9.6936035 10.357788 9.262024z" fill-rule="evenodd"/><path fill="#efefef" d="m820.9482 34.20168c1.8757935 -0.43157578 0.11657715 -9.842941 0.8968506 -11.851475c0.7802124 -2.0085335 3.137329 -2.1583881 3.784668 -0.19972229c0.6473999 1.9586678 -1.1287842 11.553307 0.099487305 11.951721c1.2282715 0.39841843 5.59375 -8.23321 7.2702026 -9.561222c1.6764526 -1.3280125 3.5353394 -0.38209534 2.788391 1.5931511c-0.74694824 1.9752464 -8.212524 8.724934 -7.2702026 10.258324c0.9423218 1.53339 10.711121 -1.4714432 12.924133 -1.0579872c2.2130127 0.41345215 2.684143 2.8603706 0.35394287 3.5387077c-2.3302002 0.6783371 -13.951904 -0.85518265 -14.335266 0.5313072c-0.38342285 1.3864899 10.294556 6.0473213 12.034973 7.787628c1.7404785 1.7403107 0.5904541 3.4212418 -1.5923462 2.6542244c-2.1828003 -0.76701355 -9.675476 -8.20031 -11.504517 -7.256317c-1.8289795 0.9439888 0.9730835 10.76688 0.5305786 12.920258c-0.44250488 2.1533775 -2.3879395 2.2734146 -3.1855469 0c-0.7976074 -2.2734146 0.051635742 -13.40453 -1.6000977 -13.640495c-1.6517334 -0.23596191 -6.368347 10.481823 -8.310425 12.224705c-1.9421387 1.742878 -4.1296997 0.53554916 -3.342102 -1.7674294c0.78759766 -2.3029747 9.046875 -10.224651 8.067566 -12.0504265c-0.9793701 -1.8257751 -11.56311 1.5066566 -13.9435425 1.0957756c-2.3804932 -0.41088486 -2.6964111 -2.863842 -0.33929443 -3.5610733c2.3570557 -0.6972275 13.894043 1.0085068 14.4817505 -0.6222992c0.58776855 -1.6308098 -9.594238 -7.120989 -10.955383 -9.162552c-1.361206 -2.041563 0.5973511 -4.116026 2.788391 -3.0868263c2.19104 1.0291996 8.481995 9.6936 10.357788 9.262024z" fill-rule="evenodd"/><path stroke="#efefef" stroke-width="1.0" stroke-linejoin="round" stroke-linecap="butt" d="m820.9482 34.20168c1.8757935 -0.43157578 0.11657715 -9.842941 0.8968506 -11.851475c0.7802124 -2.0085335 3.137329 -2.1583881 3.784668 -0.19972229c0.6473999 1.9586678 -1.1287842 11.553307 0.099487305 11.951721c1.2282715 0.39841843 5.59375 -8.23321 7.2702026 -9.561222c1.6764526 -1.3280125 3.5353394 -0.38209534 2.788391 1.5931511c-0.74694824 1.9752464 -8.212524 8.724934 -7.2702026 10.258324c0.9423218 1.53339 10.711121 -1.4714432 12.924133 -1.0579872c2.2130127 0.41345215 2.684143 2.8603706 0.35394287 3.5387077c-2.3302002 0.6783371 -13.951904 -0.85518265 -14.335266 0.5313072c-0.38342285 1.3864899 10.294556 6.0473213 12.034973 7.787628c1.7404785 1.7403107 0.5904541 3.4212418 -1.5923462 2.6542244c-2.1828003 -0.76701355 -9.675476 -8.20031 -11.504517 -7.256317c-1.8289795 0.9439888 0.9730835 10.76688 0.5305786 12.920258c-0.44250488 2.1533775 -2.3879395 2.2734146 -3.1855469 0c-0.7976074 -2.2734146 0.051635742 -13.40453 -1.6000977 -13.640495c-1.6517334 -0.23596191 -6.368347 10.481823 -8.310425 12.224705c-1.9421387 1.742878 -4.1296997 0.53554916 -3.342102 -1.7674294c0.78759766 -2.3029747 9.046875 -10.224651 8.067566 -12.0504265c-0.9793701 -1.8257751 -11.56311 1.5066566 -13.9435425 1.0957756c-2.3804932 -0.41088486 -2.6964111 -2.863842 -0.33929443 -3.5610733c2.3570557 -0.6972275 13.894043 1.0085068 14.4817505 -0.6222992c0.58776855 -1.6308098 -9.594238 -7.120989 -10.955383 -9.162552c-1.361206 -2.041563 0.5973511 -4.116026 2.788391 -3.0868263c2.19104 1.0291996 8.481995 9.6936 10.357788 9.262024z" fill-rule="evenodd"/><path fill="#efefef" d="m82.70147 281.87097c1.8757706 -0.4315796 0.11656952 -9.842957 0.89682007 -11.851471c0.7802582 -2.008545 3.1373367 -2.1583862 3.7846985 -0.19973755c0.64736176 1.9586792 -1.1287994 11.553314 0.099479675 11.951721c1.2282791 0.3984375 5.5937653 -8.233185 7.2702026 -9.561218c1.6764297 -1.3280029 3.5353622 -0.38208008 2.7883987 1.5931702c-0.74697113 1.9752197 -8.212524 8.724915 -7.2702026 10.258301c0.9423218 1.5333862 10.711105 -1.4714355 12.924118 -1.0579834c2.213005 0.41345215 2.684166 2.860382 0.35394287 3.5387268c-2.3302155 0.6783142 -13.951897 -0.8551941 -14.335274 0.53131104c-0.3833847 1.3864746 10.294563 6.0473022 12.035004 7.7875977c1.7404327 1.7403259 0.5904236 3.4212646 -1.5923843 2.6542358c-2.182808 -0.7669983 -9.675476 -8.200317 -11.504471 -7.256317c-1.8289871 0.94400024 0.9730377 10.766876 0.53054047 12.920258c-0.44249725 2.1533813 -2.3879318 2.273407 -3.1855316 0c-0.7976074 -2.273407 0.05166626 -13.4045105 -1.60009 -13.640503c-1.6517639 -0.23596191 -6.36837 10.481842 -8.310455 12.224701c-1.9420853 1.7428894 -4.129654 0.535553 -3.3420715 -1.7674255c0.7875824 -2.3029785 9.046883 -10.22464 8.067551 -12.050415c-0.9793396 -1.8257751 -11.56308 1.5066528 -13.94355 1.0957642c-2.380474 -0.41088867 -2.6963806 -2.8638306 -0.33929443 -3.5610657c2.3570786 -0.6972351 13.894066 1.0085144 14.481789 -0.62228394c0.5877304 -1.6308289 -9.594254 -7.121002 -10.955421 -9.162567c-1.3611679 -2.041565 0.59736633 -4.116028 2.7883987 -3.0868225c2.19104 1.0292053 8.482033 9.6936035 10.357803 9.262024z" fill-rule="evenodd"/><path stroke="#efefef" stroke-width="1.0" stroke-linejoin="round" stroke-linecap="butt" d="m82.70147 281.87097c1.8757706 -0.4315796 0.11656952 -9.842957 0.89682007 -11.851471c0.7802582 -2.008545 3.1373367 -2.1583862 3.7846985 -0.19973755c0.64736176 1.9586792 -1.1287994 11.553314 0.099479675 11.951721c1.2282791 0.3984375 5.5937653 -8.233185 7.2702026 -9.561218c1.6764297 -1.3280029 3.5353622 -0.38208008 2.7883987 1.5931702c-0.74697113 1.9752197 -8.212524 8.724915 -7.2702026 10.258301c0.9423218 1.5333862 10.711105 -1.4714355 12.924118 -1.0579834c2.213005 0.41345215 2.684166 2.860382 0.35394287 3.5387268c-2.3302155 0.6783142 -13.951897 -0.8551941 -14.335274 0.53131104c-0.3833847 1.3864746 10.294563 6.0473022 12.035004 7.7875977c1.7404327 1.7403259 0.5904236 3.4212646 -1.5923843 2.6542358c-2.182808 -0.7669983 -9.675476 -8.200317 -11.504471 -7.256317c-1.8289871 0.94400024 0.9730377 10.766876 0.53054047 12.920258c-0.44249725 2.1533813 -2.3879318 2.273407 -3.1855316 0c-0.7976074 -2.273407 0.05166626 -13.4045105 -1.60009 -13.640503c-1.6517639 -0.23596191 -6.36837 10.481842 -8.310455 12.224701c-1.9420853 1.7428894 -4.129654 0.535553 -3.3420715 -1.7674255c0.7875824 -2.3029785 9.046883 -10.22464 8.067551 -12.050415c-0.9793396 -1.8257751 -11.56308 1.5066528 -13.94355 1.0957642c-2.380474 -0.41088867 -2.6963806 -2.8638306 -0.33929443 -3.5610657c2.3570786 -0.6972351 13.894066 1.0085144 14.481789 -0.62228394c0.5877304 -1.6308289 -9.594254 -7.121002 -10.955421 -9.162567c-1.3611679 -2.041565 0.59736633 -4.116028 2.7883987 -3.0868225c2.19104 1.0292053 8.482033 9.6936035 10.357803 9.262024z" fill-rule="evenodd"/><path fill="#efefef" d="m213.54268 45.37491c1.8757629 -0.43157578 0.11656189 -9.842941 0.89682007 -11.851475c0.7802582 -2.0085335 3.137329 -2.15839 3.7846985 -0.19972229c0.6473694 1.9586678 -1.1287994 11.553307 0.099472046 11.951721c1.2282867 0.39841843 5.5937653 -8.2332115 7.2702026 -9.561222c1.6764374 -1.3280144 3.5353699 -0.38209534 2.7884064 1.5931511c-0.7469635 1.9752464 -8.212524 8.724934 -7.2702026 10.258324c0.9423218 1.53339 10.711105 -1.4714432 12.924118 -1.0579872c2.2130127 0.41345215 2.6841736 2.8603706 0.35394287 3.5387077c-2.3302155 0.6783371 -13.951904 -0.85518265 -14.335281 0.5313072c-0.38337708 1.3864899 10.294571 6.0473213 12.035004 7.787628c1.7404327 1.7403107 0.5904236 3.4212418 -1.5923767 2.6542244c-2.1828156 -0.76701736 -9.675476 -8.20031 -11.504471 -7.256321c-1.8289795 0.9439926 0.9730377 10.766884 0.53053284 12.920258c-0.44248962 2.1533813 -2.3879242 2.2734222 -3.1855316 0c-0.79759216 -2.2734146 0.05166626 -13.404526 -1.6000824 -13.6404915c-1.6517639 -0.23596573 -6.3683777 10.481823 -8.310455 12.224705c-1.9420929 1.7428741 -4.129654 0.53554535 -3.3420715 -1.7674294c0.7875824 -2.3029747 9.046875 -10.224651 8.067551 -12.0504265c-0.9793396 -1.8257751 -11.56308 1.5066566 -13.943558 1.0957756c-2.3804626 -0.41088486 -2.6963806 -2.8638458 -0.33929443 -3.5610733c2.3570862 -0.6972275 13.8940735 1.0085068 14.481796 -0.6222992c0.5877228 -1.6308098 -9.594254 -7.1209908 -10.955429 -9.162552c-1.3611603 -2.041565 0.5973816 -4.116028 2.7884064 -3.0868263c2.19104 1.0291977 8.482025 9.6936 10.357803 9.262024z" fill-rule="evenodd"/><path stroke="#efefef" stroke-width="1.0" stroke-linejoin="round" stroke-linecap="butt" d="m213.54268 45.37491c1.8757629 -0.43157578 0.11656189 -9.842941 0.89682007 -11.851475c0.7802582 -2.0085335 3.137329 -2.15839 3.7846985 -0.19972229c0.6473694 1.9586678 -1.1287994 11.553307 0.099472046 11.951721c1.2282867 0.39841843 5.5937653 -8.2332115 7.2702026 -9.561222c1.6764374 -1.3280144 3.5353699 -0.38209534 2.7884064 1.5931511c-0.7469635 1.9752464 -8.212524 8.724934 -7.2702026 10.258324c0.9423218 1.53339 10.711105 -1.4714432 12.924118 -1.0579872c2.2130127 0.41345215 2.6841736 2.8603706 0.35394287 3.5387077c-2.3302155 0.6783371 -13.951904 -0.85518265 -14.335281 0.5313072c-0.38337708 1.3864899 10.294571 6.0473213 12.035004 7.787628c1.7404327 1.7403107 0.5904236 3.4212418 -1.5923767 2.6542244c-2.1828156 -0.76701736 -9.675476 -8.20031 -11.504471 -7.256321c-1.8289795 0.9439926 0.9730377 10.766884 0.53053284 12.920258c-0.44248962 2.1533813 -2.3879242 2.2734222 -3.1855316 0c-0.79759216 -2.2734146 0.05166626 -13.404526 -1.6000824 -13.6404915c-1.6517639 -0.23596573 -6.3683777 10.481823 -8.310455 12.224705c-1.9420929 1.7428741 -4.129654 0.53554535 -3.3420715 -1.7674294c0.7875824 -2.3029747 9.046875 -10.224651 8.067551 -12.0504265c-0.9793396 -1.8257751 -11.56308 1.5066566 -13.943558 1.0957756c-2.3804626 -0.41088486 -2.6963806 -2.8638458 -0.33929443 -3.5610733c2.3570862 -0.6972275 13.8940735 1.0085068 14.481796 -0.6222992c0.5877228 -1.6308098 -9.594254 -7.1209908 -10.955429 -9.162552c-1.3611603 -2.041565 0.5973816 -4.116028 2.7884064 -3.0868263c2.19104 1.0291977 8.482025 9.6936 10.357803 9.262024z" fill-rule="evenodd"/><path fill="#efefef" d="m378.70016 464.92215c1.8757629 -0.4315796 0.11654663 -9.842926 0.89682007 -11.851471c0.7802429 -2.008545 3.137329 -2.1583862 3.7846985 -0.19973755c0.6473694 1.9586792 -1.1288147 11.553314 0.09945679 11.951721c1.228302 0.3984375 5.5937805 -8.233185 7.2702026 -9.561218c1.6764526 -1.3280029 3.5353699 -0.38208008 2.7884216 1.5931702c-0.74697876 1.9752502 -8.212524 8.724915 -7.2702026 10.258301c0.9423218 1.5334167 10.71109 -1.4714355 12.924103 -1.0579834c2.2130127 0.41345215 2.6841736 2.860382 0.35394287 3.5387268c-2.3302002 0.6783142 -13.951904 -0.8551941 -14.335266 0.53131104c-0.38339233 1.3864746 10.294556 6.0473022 12.035004 7.787628c1.740448 1.7402954 0.5904236 3.4212341 -1.5923767 2.6542053c-2.1828003 -0.7669983 -9.675476 -8.200317 -11.504486 -7.256317c-1.8289795 0.94400024 0.973053 10.766876 0.5305481 12.920258c-0.44250488 2.1533813 -2.3879395 2.273407 -3.1855469 0c-0.7975769 -2.273407 0.05166626 -13.4045105 -1.6000671 -13.640503c-1.6517639 -0.23596191 -6.3683777 10.481842 -8.310455 12.224731c-1.9421082 1.7428589 -4.129669 0.53552246 -3.3420715 -1.767456c0.78756714 -2.302948 9.046875 -10.22464 8.067535 -12.050415c-0.9793396 -1.8257751 -11.56308 1.5066528 -13.9435425 1.0957642c-2.3804626 -0.41085815 -2.6963806 -2.8638306 -0.33929443 -3.5610657c2.3570862 -0.6972351 13.8940735 1.0085144 14.481781 -0.62228394c0.58773804 -1.6308289 -9.594238 -7.121002 -10.955414 -9.162567c-1.3611755 -2.041565 0.5973816 -4.116028 2.788391 -3.0868225c2.19104 1.0292053 8.482025 9.6936035 10.357819 9.262024z" fill-rule="evenodd"/><path stroke="#efefef" stroke-width="1.0" stroke-linejoin="round" stroke-linecap="butt" d="m378.70016 464.92215c1.8757629 -0.4315796 0.11654663 -9.842926 0.89682007 -11.851471c0.7802429 -2.008545 3.137329 -2.1583862 3.7846985 -0.19973755c0.6473694 1.9586792 -1.1288147 11.553314 0.09945679 11.951721c1.228302 0.3984375 5.5937805 -8.233185 7.2702026 -9.561218c1.6764526 -1.3280029 3.5353699 -0.38208008 2.7884216 1.5931702c-0.74697876 1.9752502 -8.212524 8.724915 -7.2702026 10.258301c0.9423218 1.5334167 10.71109 -1.4714355 12.924103 -1.0579834c2.2130127 0.41345215 2.6841736 2.860382 0.35394287 3.5387268c-2.3302002 0.6783142 -13.951904 -0.8551941 -14.335266 0.53131104c-0.38339233 1.3864746 10.294556 6.0473022 12.035004 7.787628c1.740448 1.7402954 0.5904236 3.4212341 -1.5923767 2.6542053c-2.1828003 -0.7669983 -9.675476 -8.200317 -11.504486 -7.256317c-1.8289795 0.94400024 0.973053 10.766876 0.5305481 12.920258c-0.44250488 2.1533813 -2.3879395 2.273407 -3.1855469 0c-0.7975769 -2.273407 0.05166626 -13.4045105 -1.6000671 -13.640503c-1.6517639 -0.23596191 -6.3683777 10.481842 -8.310455 12.224731c-1.9421082 1.7428589 -4.129669 0.53552246 -3.3420715 -1.767456c0.78756714 -2.302948 9.046875 -10.22464 8.067535 -12.050415c-0.9793396 -1.8257751 -11.56308 1.5066528 -13.9435425 1.0957642c-2.3804626 -0.41085815 -2.6963806 -2.8638306 -0.33929443 -3.5610657c2.3570862 -0.6972351 13.8940735 1.0085144 14.481781 -0.62228394c0.58773804 -1.6308289 -9.594238 -7.121002 -10.955414 -9.162567c-1.3611755 -2.041565 0.5973816 -4.116028 2.788391 -3.0868225c2.19104 1.0292053 8.482025 9.6936035 10.357819 9.262024z" fill-rule="evenodd"/></g></svg>