<svg version="1.1" viewBox="0.0 0.0 256.0 256.0" fill="none" stroke="none" stroke-linecap="square" stroke-miterlimit="10" xmlns:xlink="http://www.w3.org/1999/xlink" xmlns="http://www.w3.org/2000/svg"><clipPath id="p.0"><path d="m0 0l256.0 0l0 256.0l-256.0 0l0 -256.0z" clip-rule="nonzero"/></clipPath><g clip-path="url(#p.0)"><path fill="#000000" fill-opacity="0.0" d="m0 0l256.0 0l0 256.0l-256.0 0z" fill-rule="evenodd"/><path fill="#bf9000" d="m-1066.6713 403.26282l119.433105 0l0 100.53543l-119.433105 0z" fill-rule="evenodd"/><path stroke="#bf9000" stroke-width="1.0" stroke-linejoin="round" stroke-linecap="butt" d="m-1066.6713 403.26282l119.433105 0l0 100.53543l-119.433105 0z" fill-rule="evenodd"/><path fill="#bf9000" d="m-1066.6713 403.26904l59.716553 -42.078766l59.716553 42.078766z" fill-rule="evenodd"/><path stroke="#bf9000" stroke-width="1.0" stroke-linejoin="round" stroke-linecap="butt" d="m-1066.6713 403.26904l59.716553 -42.078766l59.716553 42.078766z" fill-rule="evenodd"/><path fill="#7f6000" d="m-1007.03345 264.0328l-80.66138 37.188934l0 115.72446l80.66138 -37.188965z" fill-rule="evenodd"/><path stroke="#7f6000" stroke-width="3.0" stroke-linejoin="round" stroke-linecap="butt" d="m-1007.03345 264.0328l-80.66138 37.188934l0 115.72446l80.66138 -37.188965z" fill-rule="evenodd"/><path fill="#7f6000" d="m-1006.9547 264.0328l80.66138 37.188934l0 115.72446l-80.66138 -37.188965z" fill-rule="evenodd"/><path stroke="#7f6000" stroke-width="3.0" stroke-linejoin="round" stroke-linecap="butt" d="m-1006.9547 264.0328l80.66138 37.188934l0 115.72446l-80.66138 -37.188965z" fill-rule="evenodd"/><path fill="#9a7917" fill-opacity="0.75" d="m-1021.8837 444.72833l29.857971 0l0 0c1.9797974 0 3.878479 0.7864685 5.2783813 2.1863708c1.3999023 1.3999023 2.1863403 3.298584 2.1863403 5.278351l0 51.621918c0 1.8310547E-4 -1.8310547E-4 3.6621094E-4 -3.6621094E-4 3.6621094E-4l-44.786987 -3.6621094E-4l0 0c-2.4414062E-4 0 -3.6621094E-4 -1.8310547E-4 -3.6621094E-4 -3.9672852E-4l3.6621094E-4 -51.62152l0 0c0 -4.12265 3.342041 -7.4647217 7.4646606 -7.4647217z" fill-rule="evenodd"/><path fill="#d0a213" fill-opacity="0.6" d="m-1029.3484 503.79922l5.173218 -20.692932l34.440918 0l5.173218 20.692932z" fill-rule="evenodd"/><path fill="#785a00" d="m-1007.0046 369.08887l-80.66144 34.440613l0 7.6381226l80.66144 -34.440613z" fill-rule="evenodd"/><path stroke="#785a00" stroke-width="3.0" stroke-linejoin="round" stroke-linecap="butt" d="m-1007.0046 369.08887l-80.66144 34.440613l0 7.6381226l80.66144 -34.440613z" fill-rule="evenodd"/><path fill="#785a00" d="m-1006.9652 369.08755l80.66138 34.440613l0 7.6381226l-80.66138 -34.440613z" fill-rule="evenodd"/><path stroke="#785a00" stroke-width="3.0" stroke-linejoin="round" stroke-linecap="butt" d="m-1006.9652 369.08755l80.66138 34.440613l0 7.6381226l-80.66138 -34.440613z" fill-rule="evenodd"/><path fill="#7b5e06" fill-opacity="0.15" d="m-1067.0735 409.07874l60.0 -27.73227l6.795288 26.855621l-33.87146 4.666687l-7.918579 15.97113l10.695557 11.388428l-1.2493896 10.834656l-13.194214 1.5275574l-6.086548 9.839905l-8.244141 -0.8661499l2.1679688 -4.771637l-2.005249 -9.341217l-4.2834473 -10.834656l1.3018799 -12.362183z" fill-rule="evenodd"/><path fill="#a28017" d="m-1036.2933 414.8947l0 0c0 -1.620636 1.3138428 -2.9344482 2.9344482 -2.9344482l52.80829 0c0.7782593 0 1.5246582 0.30917358 2.0749512 0.8594971c0.550354 0.55029297 0.8594971 1.2966919 0.8594971 2.0749512l0 11.737427c0 1.620636 -1.3137817 2.9344177 -2.9344482 2.9344177l-52.80829 0c-1.6206055 0 -2.9344482 -1.3137817 -2.9344482 -2.9344177z" fill-rule="evenodd"/><path fill="#7b5e06" fill-opacity="0.15" d="m-946.7898 504.1181l-8.472473 -40.1391l-5.9711304 -1.2493591l-2.3621826 13.750671l-11.527588 -9.307098l-4.4435425 14.585327l6.1102295 17.637787l14.167969 4.165344z" fill-rule="evenodd"/><path fill="#7b5e06" fill-opacity="0.15" d="m-1066.9291 503.979l5.973755 -18.055115l5.553711 0.27819824l8.750732 6.9448853l12.362183 0.83203125l0 6.3884583l-9.860962 1.3910828l-9.863525 -1.8057861z" fill-rule="evenodd"/><path fill="#7b5e06" fill-opacity="0.15" d="m-946.79004 409.1181l-6.9448853 25.695557l-6.3884277 -0.83465576l-10.417358 6.112854l-0.6928711 -9.167969l-4.0288696 -13.8897705l3.0551147 -8.887146l7.3621826 -1.6666565l3.4724731 11.1102295l4.7217407 -6.2493286z" fill-rule="evenodd"/><path fill="#8c6d10" fill-opacity="0.45" d="m-1076.0447 334.07086l29.13916 -45.03412l32.451477 25.826782l-16.556458 13.908142l5.296631 25.826752l-23.839966 27.816284l-11.257202 -13.246735l3.973755 -21.19159z" fill-rule="evenodd"/><path fill="#8c6d10" fill-opacity="0.45" d="m-995.2493 322.1496l14.569519 -29.803131l21.19165 32.451447l18.543274 -12.582703l8.608948 32.451447l-19.204773 23.839905l-25.826721 4.6351624l9.270325 -26.48819l-19.204712 -7.286072z" fill-rule="evenodd"/><path fill="#b7b7b7" d="m-1006.9744 337.19196l-80.66144 34.440582l0 7.638153l80.66144 -34.440613z" fill-rule="evenodd"/><path stroke="#b7b7b7" stroke-width="3.0" stroke-linejoin="round" stroke-linecap="butt" d="m-1006.9744 337.19196l-80.66144 34.440582l0 7.638153l80.66144 -34.440613z" fill-rule="evenodd"/><path fill="#b7b7b7" d="m-1006.93506 337.19064l80.66144 34.440582l0 7.638153l-80.66144 -34.440613z" fill-rule="evenodd"/><path stroke="#b7b7b7" stroke-width="3.0" stroke-linejoin="round" stroke-linecap="butt" d="m-1006.93506 337.19064l80.66144 34.440582l0 7.638153l-80.66144 -34.440613z" fill-rule="evenodd"/><path fill="#b7b7b7" d="m-1006.9941 286.1762l-80.66144 34.440582l0 7.638153l80.66144 -34.440613z" fill-rule="evenodd"/><path stroke="#b7b7b7" stroke-width="3.0" stroke-linejoin="round" stroke-linecap="butt" d="m-1006.9941 286.1762l-80.66144 34.440582l0 7.638153l80.66144 -34.440613z" fill-rule="evenodd"/><path fill="#b7b7b7" d="m-1006.9547 286.1749l80.66138 34.440582l0 7.638153l-80.66138 -34.440613z" fill-rule="evenodd"/><path stroke="#b7b7b7" stroke-width="3.0" stroke-linejoin="round" stroke-linecap="butt" d="m-1006.9547 286.1749l80.66138 34.440582l0 7.638153l-80.66138 -34.440613z" fill-rule="evenodd"/><path fill="#000000" fill-opacity="0.0" d="m-1088.3754 418.63516l80.50922 -36.863495l82.20471 36.863495l0.42260742 -117.79526l-81.35437 -38.55905l-82.834656 38.921234z" fill-rule="evenodd"/><path stroke="#666666" stroke-width="2.0" stroke-linejoin="round" stroke-linecap="butt" d="m-1088.3754 418.63516l80.50922 -36.863495l82.20471 36.863495l0.42260742 -117.79526l-81.35437 -38.55905l-82.834656 38.921234z" fill-rule="evenodd"/><path fill="#8c6d10" fill-opacity="0.45" d="m-1022.9685 475.15485l3.2545776 -19.086609l6.7244263 0.8661499l7.8084106 8.026245l7.590515 -4.989502l6.076111 18.005249l0.65093994 5.855652l-31.23883 -0.8661499l-2.3858032 -5.2073364z" fill-rule="evenodd"/><path fill="#bf9000" d="m-207.34973 148.06335l119.43307 0l0 100.53543l-119.43307 0z" fill-rule="evenodd"/><path stroke="#bf9000" stroke-width="1.0" stroke-linejoin="round" stroke-linecap="butt" d="m-207.34973 148.06335l119.43307 0l0 100.53543l-119.43307 0z" fill-rule="evenodd"/><path fill="#bf9000" d="m-207.34973 148.06955l59.716522 -42.078735l59.716545 42.078735z" fill-rule="evenodd"/><path stroke="#bf9000" stroke-width="1.0" stroke-linejoin="round" stroke-linecap="butt" d="m-207.34973 148.06955l59.716522 -42.078735l59.716545 42.078735z" fill-rule="evenodd"/><path fill="#7f6000" d="m-147.71194 8.833333l-80.66141 37.18895l0 115.72444l80.66141 -37.18895z" fill-rule="evenodd"/><path stroke="#7f6000" stroke-width="3.0" stroke-linejoin="round" stroke-linecap="butt" d="m-147.71194 8.833333l-80.66141 37.18895l0 115.72444l80.66141 -37.18895z" fill-rule="evenodd"/><path fill="#7f6000" d="m-147.63321 8.833333l80.66142 37.18895l0 115.72444l-80.66142 -37.18895z" fill-rule="evenodd"/><path stroke="#7f6000" stroke-width="3.0" stroke-linejoin="round" stroke-linecap="butt" d="m-147.63321 8.833333l80.66142 37.18895l0 115.72444l-80.66142 -37.18895z" fill-rule="evenodd"/><path fill="#9a7917" fill-opacity="0.75" d="m-162.56218 189.52887l29.857956 0l0 0c1.9797668 0 3.8784485 0.78645325 5.2783585 2.1863708c1.3999023 1.3999023 2.1863632 3.298584 2.1863632 5.278351l0 51.621887c0 2.1362305E-4 -1.6784668E-4 3.8146973E-4 -3.7384033E-4 3.8146973E-4l-44.787025 -3.8146973E-4l0 0c-2.1362305E-4 0 -3.8146973E-4 -1.5258789E-4 -3.8146973E-4 -3.6621094E-4l3.8146973E-4 -51.62152l0 0c0 -4.12265 3.3420715 -7.4647217 7.4647217 -7.4647217z" fill-rule="evenodd"/><path fill="#d0a213" fill-opacity="0.6" d="m-170.0269 248.59973l5.173233 -20.692902l34.440933 0l5.173233 20.692902z" fill-rule="evenodd"/><path fill="#785a00" d="m-147.68307 113.88939l-80.66141 34.440613l0 7.6381226l80.66141 -34.440598z" fill-rule="evenodd"/><path stroke="#785a00" stroke-width="3.0" stroke-linejoin="round" stroke-linecap="butt" d="m-147.68307 113.88939l-80.66141 34.440613l0 7.6381226l80.66141 -34.440598z" fill-rule="evenodd"/><path fill="#785a00" d="m-147.6437 113.88808l80.66142 34.440613l0 7.6381226l-80.66142 -34.440598z" fill-rule="evenodd"/><path stroke="#785a00" stroke-width="3.0" stroke-linejoin="round" stroke-linecap="butt" d="m-147.6437 113.88808l80.66142 34.440613l0 7.6381226l-80.66142 -34.440598z" fill-rule="evenodd"/><path fill="#7b5e06" fill-opacity="0.15" d="m-207.75197 153.87927l60.0 -27.732292l6.795273 26.855644l-33.871384 4.6666718l-7.91864 15.97113l10.695541 11.388443l-1.2493439 10.8346405l-13.194229 1.5275726l-6.086609 9.83989l-8.244095 -0.8661499l2.1679688 -4.771652l-2.005249 -9.341202l-4.2834625 -10.8346405l1.3018341 -12.362213z" fill-rule="evenodd"/><path fill="#a28017" d="m-165.17343 154.89885l4.506836 -7.8052216l7.8052216 -4.506836l9.013672 0l7.8052216 4.506836l4.506836 7.8052216l0 9.013687l-4.506836 7.8052063l-7.8052216 4.506851l-9.013672 0l-7.8052216 -4.506851l-4.506836 -7.8052063z" fill-rule="evenodd"/><path fill="#7b5e06" fill-opacity="0.15" d="m-87.468285 248.91864l-8.472443 -40.139114l-5.9711304 -1.2493439l-2.3622055 13.750656l-11.527557 -9.307083l-4.4435654 14.585297l6.110237 17.637802l14.167976 4.165344z" fill-rule="evenodd"/><path fill="#7b5e06" fill-opacity="0.15" d="m-207.6076 248.77953l5.9737396 -18.055115l5.5538177 0.2782135l8.750656 6.9448853l12.362198 0.832016l0 6.3884583l-9.860886 1.3910675l-9.863525 -1.8057709z" fill-rule="evenodd"/><path fill="#7b5e06" fill-opacity="0.15" d="m-87.468506 153.91864l-6.9448776 25.695526l-6.3884506 -0.8346405l-10.417328 6.1128693l-0.69290924 -9.167984l-4.0288773 -13.8897705l3.0551224 -8.887131l7.3622055 -1.6666718l3.4724426 11.110245l4.721779 -6.249344z" fill-rule="evenodd"/><path fill="#8c6d10" fill-opacity="0.45" d="m-216.7231 78.87139l29.139114 -45.034122l32.45143 25.826775l-16.556427 13.908138l5.296585 25.826767l-23.83989 27.816277l-11.257217 -13.246719l3.973755 -21.191605z" fill-rule="evenodd"/><path fill="#8c6d10" fill-opacity="0.45" d="m-135.92783 66.950134l14.569557 -29.803154l21.191605 32.451447l18.543304 -12.58268l8.608925 32.451447l-19.204727 23.83989l-25.826767 4.6351776l9.27034 -26.48819l-19.204727 -7.2860947z" fill-rule="evenodd"/><path fill="#b7b7b7" d="m-147.6529 81.99247l-80.66141 34.440605l0 7.63813l80.66141 -34.440605z" fill-rule="evenodd"/><path stroke="#b7b7b7" stroke-width="3.0" stroke-linejoin="round" stroke-linecap="butt" d="m-147.6529 81.99247l-80.66141 34.440605l0 7.63813l80.66141 -34.440605z" fill-rule="evenodd"/><path fill="#b7b7b7" d="m-147.61351 81.99116l80.66141 34.440605l0 7.63813l-80.66141 -34.440605z" fill-rule="evenodd"/><path stroke="#b7b7b7" stroke-width="3.0" stroke-linejoin="round" stroke-linecap="butt" d="m-147.61351 81.99116l80.66141 34.440605l0 7.63813l-80.66141 -34.440605z" fill-rule="evenodd"/><path fill="#b7b7b7" d="m-147.67258 30.976719l-80.66141 34.44061l0 7.63813l80.66141 -34.440605z" fill-rule="evenodd"/><path stroke="#b7b7b7" stroke-width="3.0" stroke-linejoin="round" stroke-linecap="butt" d="m-147.67258 30.976719l-80.66141 34.44061l0 7.63813l80.66141 -34.440605z" fill-rule="evenodd"/><path fill="#b7b7b7" d="m-147.63321 30.975407l80.66142 34.44061l0 7.63813l-80.66142 -34.440605z" fill-rule="evenodd"/><path stroke="#b7b7b7" stroke-width="3.0" stroke-linejoin="round" stroke-linecap="butt" d="m-147.63321 30.975407l80.66142 34.44061l0 7.63813l-80.66142 -34.440605z" fill-rule="evenodd"/><path fill="#000000" fill-opacity="0.0" d="m-229.0538 163.4357l80.509186 -36.863518l82.20472 36.863518l0.4225769 -117.79528l-81.35433 -38.559055l-82.83464 38.92126z" fill-rule="evenodd"/><path fill="#8c6d10" fill-opacity="0.45" d="m-163.64699 219.95538l3.254593 -19.086624l6.724411 0.8661499l7.8084106 8.026245l7.5905457 -4.989502l6.076111 18.005249l0.6509247 5.855652l-31.238846 -0.8661499l-2.3858337 -5.2073517z" fill-rule="evenodd"/><path fill="#bf9000" d="m68.81173 148.0627l119.43307 0l0 100.53543l-119.43307 0z" fill-rule="evenodd"/><path stroke="#bf9000" stroke-width="1.0" stroke-linejoin="round" stroke-linecap="butt" d="m68.81173 148.0627l119.43307 0l0 100.53543l-119.43307 0z" fill-rule="evenodd"/><path fill="#bf9000" d="m68.81173 148.0689l59.71653 -42.078735l59.716537 42.078735z" fill-rule="evenodd"/><path stroke="#bf9000" stroke-width="1.0" stroke-linejoin="round" stroke-linecap="butt" d="m68.81173 148.0689l59.71653 -42.078735l59.716537 42.078735z" fill-rule="evenodd"/><path fill="#9a7917" fill-opacity="0.75" d="m113.59928 189.52821l29.857964 0l0 0c1.9797668 0 3.8784485 0.78645325 5.278351 2.1863708c1.3999176 1.3999023 2.1863708 3.298584 2.1863708 5.278351l0 51.621887c0 2.1362305E-4 -1.6784668E-4 3.8146973E-4 -3.8146973E-4 3.8146973E-4l-44.787018 -3.8146973E-4l0 0c-2.1362305E-4 0 -3.7384033E-4 -1.5258789E-4 -3.7384033E-4 -3.6621094E-4l3.7384033E-4 -51.62152l0 0c0 -4.12265 3.342064 -7.4647217 7.464714 -7.4647217z" fill-rule="evenodd"/><path fill="#d0a213" fill-opacity="0.6" d="m106.13457 248.59908l5.1732254 -20.692902l34.44094 0l5.173233 20.692902z" fill-rule="evenodd"/><path fill="#7b5e06" fill-opacity="0.15" d="m68.4095 153.87862l60.0 -27.732292l6.795273 26.855644l-33.87139 4.6666718l-7.9186325 15.97113l10.695534 11.388443l-1.2493439 10.8346405l-13.1942215 1.5275726l-6.0866165 9.83989l-8.244095 -0.8661499l2.1679764 -4.771652l-2.005249 -9.341202l-4.2834625 -10.8346405l1.3018417 -12.362213z" fill-rule="evenodd"/><path fill="#a28017" d="m113.76403 164.15521l3.8147812 -6.606659l6.606659 -3.8147736l7.6295624 0l6.606659 3.8147736l3.8147888 6.606659l0 7.6295624l-3.8147888 6.606659l-6.606659 3.8147888l-7.6295624 0l-6.606659 -3.8147888l-3.8147812 -6.606659z" fill-rule="evenodd"/><path fill="#7b5e06" fill-opacity="0.15" d="m188.69318 248.91798l-8.472443 -40.139114l-5.971115 -1.2493439l-2.3622131 13.750656l-11.527557 -9.307083l-4.443573 14.585297l6.1102448 17.637802l14.167969 4.165344z" fill-rule="evenodd"/><path fill="#7b5e06" fill-opacity="0.15" d="m68.553856 248.77887l5.973755 -18.055115l5.5538025 0.2782135l8.750656 6.9448853l12.3622055 0.832016l0 6.3884583l-9.860893 1.3910675l-9.863518 -1.8057709z" fill-rule="evenodd"/><path fill="#7b5e06" fill-opacity="0.15" d="m188.69296 153.91798l-6.9448853 25.695526l-6.388443 -0.8346405l-10.417328 6.1128693l-0.69291687 -9.167984l-4.0288696 -13.8897705l3.0551147 -8.887131l7.362213 -1.6666718l3.4724426 11.110245l4.7217865 -6.249344z" fill-rule="evenodd"/><path fill="#8c6d10" fill-opacity="0.45" d="m112.51449 219.95473l3.254593 -19.086624l6.7244034 0.8661499l7.8083954 8.026245l7.590561 -4.989502l6.076111 18.005249l0.6509247 5.855652l-31.238853 -0.8661499l-2.385826 -5.2073517z" fill-rule="evenodd"/><path fill="#7f6000" d="m47.60635 178.66208l79.66142 -36.608932l0.86351776 -116.18897l-41.879272 20.595798l-28.813644 9.490814l-5.7637787 21.695538l12.881889 24.068245l-17.288715 23.38845z" fill-rule="evenodd"/><path fill="#8c6d10" fill-opacity="0.45" d="m71.81125 96.58326l23.28798 -35.986767l25.935188 20.638172l-13.231895 11.113991l4.233032 20.638176l-19.052841 22.227982l-8.996773 -10.585449l3.175827 -16.934212z" fill-rule="evenodd"/><path fill="#7f6000" d="m127.55643 25.84252l41.081375 22.580053l10.845139 17.351704l20.391068 5.2073517l6.5065765 29.068237l-5.855652 27.981628l8.24147 50.97638l-83.12861 -36.997375z" fill-rule="evenodd"/><path fill="#8c6d10" fill-opacity="0.45" d="m140.23364 82.94948l14.56955 -29.803154l21.191605 32.451447l18.543304 -12.58268l8.6089325 32.451447l-19.204727 23.83989l-25.826767 4.6351776l9.27034 -26.48819l-19.204727 -7.2860947z" fill-rule="evenodd"/><path fill="#b7b7b7" d="m47.233597 134.46982l0.13910675 11.942261l79.5538 -34.10762l76.25985 32.01837l-1.7454071 -10.669281l-73.49606 -31.858276z" fill-rule="evenodd"/><path fill="#b7b7b7" d="m52.013172 77.98491l4.9081383 9.296585l70.685036 -31.328083l76.53544 32.19685l-2.4304504 -11.459312l-73.08661 -31.246723z" fill-rule="evenodd"/><path fill="#785a00" d="m47.666668 161.31496l0.13910675 11.942261l79.5538 -34.107605l80.580055 34.561676l-1.8425293 -11.737534l-77.71915 -33.33333z" fill-rule="evenodd"/><path fill="#bf9000" d="m-604.54785 148.0627l119.433075 0l0 100.53543l-119.433075 0z" fill-rule="evenodd"/><path stroke="#bf9000" stroke-width="1.0" stroke-linejoin="round" stroke-linecap="butt" d="m-604.54785 148.0627l119.433075 0l0 100.53543l-119.433075 0z" fill-rule="evenodd"/><path fill="#bf9000" d="m-604.54785 148.0689l59.716553 -42.078735l59.716522 42.078735z" fill-rule="evenodd"/><path stroke="#bf9000" stroke-width="1.0" stroke-linejoin="round" stroke-linecap="butt" d="m-604.54785 148.0689l59.716553 -42.078735l59.716522 42.078735z" fill-rule="evenodd"/><path fill="#9a7917" fill-opacity="0.75" d="m-559.7603 189.52821l29.857971 0l0 0c1.9797974 0 3.878479 0.78645325 5.2783813 2.1863708c1.3999023 1.3999023 2.1863403 3.298584 2.1863403 5.278351l0 51.621887c0 2.1362305E-4 -1.8310547E-4 3.8146973E-4 -3.6621094E-4 3.8146973E-4l-44.78705 -3.8146973E-4l0 0c-1.8310547E-4 0 -3.6621094E-4 -1.5258789E-4 -3.6621094E-4 -3.6621094E-4l3.6621094E-4 -51.62152l0 0c0 -4.12265 3.342102 -7.4647217 7.4647217 -7.4647217z" fill-rule="evenodd"/><path fill="#d0a213" fill-opacity="0.6" d="m-567.22504 248.59908l5.173279 -20.692902l34.440918 0l5.173218 20.692902z" fill-rule="evenodd"/><path fill="#7b5e06" fill-opacity="0.15" d="m-604.9501 153.87862l60.0 -27.732292l6.795288 26.855644l-33.8714 4.6666718l-7.91864 15.97113l10.695557 11.388443l-1.2493896 10.8346405l-13.194214 1.5275726l-6.086609 9.83989l-8.24408 -0.8661499l2.1679688 -4.771652l-2.005249 -9.341202l-4.2834473 -10.8346405l1.3018188 -12.362213z" fill-rule="evenodd"/><path fill="#7b5e06" fill-opacity="0.15" d="m-484.6664 248.91798l-8.472443 -40.139114l-5.9711 -1.2493439l-2.3622131 13.750656l-11.527588 -9.307083l-4.4435425 14.585297l6.1102295 17.637802l14.167969 4.165344z" fill-rule="evenodd"/><path fill="#7b5e06" fill-opacity="0.15" d="m-604.8057 248.77887l5.973755 -18.055115l5.553833 0.2782135l8.75061 6.9448853l12.362244 0.832016l0 6.3884583l-9.860901 1.3910675l-9.863525 -1.8057709z" fill-rule="evenodd"/><path fill="#7b5e06" fill-opacity="0.15" d="m-484.66663 153.91798l-6.9448853 25.695526l-6.3884277 -0.8346405l-10.417328 6.1128693l-0.6929321 -9.167984l-4.028839 -13.8897705l3.0550842 -8.887131l7.362213 -1.6666718l3.4724426 11.110245l4.7218018 -6.249344z" fill-rule="evenodd"/><path fill="#8c6d10" fill-opacity="0.45" d="m-560.8451 219.95473l3.2545776 -19.086624l6.7244263 0.8661499l7.8084106 8.026245l7.590515 -4.989502l6.076111 18.005249l0.65093994 5.855652l-31.23883 -0.8661499l-2.3858643 -5.2073517z" fill-rule="evenodd"/><path fill="#7f6000" d="m-625.75323 202.66208l79.66144 -36.608932l0.8635254 -116.18897l-41.879272 20.595802l-28.81366 9.490814l-5.763794 21.695534l12.881897 24.068245l-17.288696 23.388443z" fill-rule="evenodd"/><path fill="#8c6d10" fill-opacity="0.45" d="m-601.54834 120.58326l23.287964 -35.986763l25.935242 20.638168l-13.231934 11.113991l4.233032 20.638176l-19.052856 22.227982l-8.996765 -10.585449l3.1758423 -16.934204z" fill-rule="evenodd"/><path fill="#7f6000" d="m-545.8032 49.843174l41.08139 22.580051l10.845154 17.351707l20.391052 5.2073517l6.5065613 29.068237l-5.8556213 27.981628l8.241455 50.97638l-82.212616 -36.876633z" fill-rule="evenodd"/><path fill="#8c6d10" fill-opacity="0.45" d="m-533.1259 106.94948l14.569519 -29.803154l21.19162 32.451447l18.543304 -12.58268l8.608917 32.451447l-19.204712 23.83989l-25.826752 4.6351776l9.270325 -26.48819l-19.204712 -7.2860947z" fill-rule="evenodd"/><path fill="#b7b7b7" d="m-626.126 158.46982l0.13909912 11.942261l79.55383 -34.10762l76.20996 32.123367l-1.7454224 -10.960632l-73.44617 -31.67192z" fill-rule="evenodd"/><path fill="#b7b7b7" d="m-621.34644 101.98491l4.908142 9.296585l70.68506 -31.32808l76.53543 32.196846l-2.4304504 -11.459312l-73.08661 -31.24672z" fill-rule="evenodd"/><path fill="#785a00" d="m-625.69293 185.31496l0.13909912 11.942261l79.55383 -34.107605l80.53018 34.56955l-1.9396362 -11.8346405l-77.572174 -33.244095z" fill-rule="evenodd"/></g></svg>