<svg version="1.1" viewBox="0.0 0.0 256.0 256.0" fill="none" stroke="none" stroke-linecap="square" stroke-miterlimit="10" xmlns:xlink="http://www.w3.org/1999/xlink" xmlns="http://www.w3.org/2000/svg"><clipPath id="p.0"><path d="m0 0l256.0 0l0 256.0l-256.0 0l0 -256.0z" clip-rule="nonzero"/></clipPath><g clip-path="url(#p.0)"><path fill="#efefef" d="m0 0l256.0 0l0 256.0l-256.0 0z" fill-rule="evenodd"/><path fill="#cfe2f3" d="m312.791 230.67754c-5.9943237 -5.55336 -13.044617 -32.08748 -12.16272 -33.850388c0.88186646 -1.7629089 13.839874 23.62555 17.454071 23.272964c3.6141663 -0.35258484 2.1154785 -25.123795 4.230957 -25.388458c2.1154785 -0.26464844 5.376648 22.919083 8.461945 23.800537c3.0852966 0.88145447 9.080048 -20.451004 10.049866 -18.51181c0.9698181 1.9391937 0.44137573 25.034119 -4.230957 30.146973c-4.6723633 5.1128693 -17.808838 6.083557 -23.803162 0.5301819z" fill-rule="evenodd"/><path fill="#cfe2f3" d="m399.20306 219.1736c-5.9943237 -5.55336 -13.044617 -32.08748 -12.16275 -33.850388c0.881897 -1.7629089 13.839905 23.62555 17.454071 23.272964c3.6141968 -0.35258484 2.115509 -25.123795 4.2309875 -25.388458c2.1154785 -0.26464844 5.376648 22.919083 8.461945 23.800537c3.0852966 0.88145447 9.080048 -20.451004 10.049866 -18.51181c0.9698181 1.9391937 0.44137573 25.034119 -4.2309875 30.146973c-4.672333 5.1128693 -17.808838 6.083557 -23.803131 0.5301819z" fill-rule="evenodd"/><path fill="#cfe2f3" d="m475.3684 234.5778c-5.9943237 -5.5533752 -13.044617 -32.087494 -12.16272 -33.850388c0.881897 -1.7629089 13.839874 23.625534 17.454071 23.272964c3.6141663 -0.35258484 2.1154785 -25.12381 4.230957 -25.388458c2.1154785 -0.26464844 5.376648 22.919067 8.461945 23.800522c3.0852966 0.88145447 9.080048 -20.451004 10.049866 -18.51181c0.9698181 1.9391937 0.44137573 25.034119 -4.230957 30.146988c-4.6723633 5.112854 -17.808838 6.083557 -23.803162 0.5301819z" fill-rule="evenodd"/><path fill="#cfe2f3" d="m293.88284 152.26285c-5.994293 -5.5533752 -13.044617 -32.087494 -12.16272 -33.850395c0.881897 -1.7629089 13.839905 23.625542 17.454071 23.272957c3.6141663 -0.35256958 2.1154785 -25.123795 4.230957 -25.388443c2.1154785 -0.26465607 5.376648 22.919067 8.461945 23.800522c3.0852966 0.88145447 9.080048 -20.451004 10.049866 -18.51181c0.9698181 1.9391937 0.44137573 25.034119 -4.230957 30.146988c-4.6723633 5.112854 -17.808838 6.083542 -23.803162 0.5301819z" fill-rule="evenodd"/><path fill="#cfe2f3" d="m370.6414 153.78516c-5.9943237 -5.5533752 -13.044617 -32.087494 -12.16275 -33.850395c0.881897 -1.7629089 13.839905 23.625542 17.454071 23.272957c3.6141663 -0.35256958 2.1154785 -25.123787 4.2309875 -25.388443c2.1154785 -0.26465607 5.3766174 22.919067 8.461945 23.800522c3.0852966 0.88145447 9.080048 -20.451004 10.049866 -18.51181c0.9698181 1.9391937 0.44137573 25.034119 -4.2309875 30.146988c-4.672333 5.112854 -17.808838 6.083542 -23.803131 0.5301819z" fill-rule="evenodd"/><path fill="#cfe2f3" d="m295.93008 39.073868c-5.994293 -5.5533676 -13.044617 -32.08749 -12.16272 -33.850395c0.881897 -1.7629044 13.839905 23.625547 17.454071 23.272966c3.6141663 -0.35258102 2.1154785 -25.123796 4.230957 -25.38845c2.115509 -0.2646544 5.376648 22.919071 8.461945 23.800524c3.0852966 0.88145256 9.080048 -20.451006 10.049866 -18.51181c0.9698181 1.9391947 0.44140625 25.034119 -4.230957 30.14698c-4.6723633 5.1128616 -17.808838 6.0835533 -23.803162 0.5301857z" fill-rule="evenodd"/><path fill="#cfe2f3" d="m397.25555 40.3967c-5.9943237 -5.5533676 -13.044617 -32.08749 -12.16272 -33.850395c0.88186646 -1.7629046 13.839874 23.625546 17.45404 23.272964c3.6141968 -0.35258102 2.115509 -25.123796 4.2309875 -25.38845c2.1154785 -0.26465464 5.376648 22.919073 8.461945 23.800526c3.0852966 0.88145065 9.080048 -20.451008 10.049866 -18.511812c0.9698181 1.9391956 0.44137573 25.034122 -4.230957 30.14698c-4.6723633 5.1128616 -17.808838 6.0835533 -23.803162 0.5301857z" fill-rule="evenodd"/><path fill="#cfe2f3" d="m469.25555 42.709038c-5.9943237 -5.5533676 -13.044617 -32.08749 -12.16272 -33.850395c0.88186646 -1.7629042 13.839874 23.62555 17.45404 23.272968c3.6141968 -0.35258293 2.115509 -25.123798 4.2309875 -25.388453c2.1154785 -0.26465464 5.376648 22.919073 8.461945 23.800526c3.0852966 0.88145065 9.080048 -20.451008 10.049866 -18.511812c0.9698181 1.9391956 0.44137573 25.034122 -4.230957 30.14698c-4.6723633 5.1128616 -17.808838 6.0835533 -23.803162 0.5301857z" fill-rule="evenodd"/><path fill="#cfe2f3" d="m467.3684 111.00825c-5.9943237 -5.5533676 -13.044617 -32.087486 -12.16272 -33.850388c0.881897 -1.7629089 13.839874 23.625542 17.454071 23.272964c3.6141663 -0.35258484 2.1154785 -25.123802 4.230957 -25.38845c2.1154785 -0.26465607 5.376648 22.919067 8.461945 23.800522c3.0852966 0.88145447 9.080048 -20.451004 10.049866 -18.51181c0.9698181 1.9391937 0.44137573 25.034119 -4.230957 30.14698c-4.6723633 5.1128616 -17.808838 6.0835495 -23.803162 0.5301819z" fill-rule="evenodd"/><path fill="#cfe2f3" d="m456.1952 170.71165c-5.9943237 -5.55336 -13.044617 -32.08748 -12.16275 -33.850388c0.881897 -1.7629089 13.839905 23.62555 17.454071 23.272964c3.6141968 -0.35258484 2.115509 -25.123795 4.2309875 -25.388443c2.1154785 -0.2646637 5.376648 22.919067 8.461945 23.800522c3.0852966 0.88145447 9.080048 -20.451004 10.049866 -18.51181c0.9698181 1.9391937 0.44137573 25.034119 -4.2309875 30.146973c-4.672333 5.1128693 -17.808838 6.083557 -23.803131 0.5301819z" fill-rule="evenodd"/><path fill="#cfe2f3" d="m347.0062 87.60405c-5.994293 -5.5533676 -13.044617 -32.087486 -12.16272 -33.85039c0.881897 -1.7629051 13.839905 23.625546 17.454071 23.272968c3.6141663 -0.35258484 2.1154785 -25.123802 4.230957 -25.388454c2.115509 -0.26465607 5.376648 22.919071 8.461945 23.800526c3.0853271 0.88145447 9.080078 -20.451008 10.049866 -18.511814c0.9698181 1.9391975 0.44140625 25.034122 -4.230957 30.146984c-4.6723633 5.1128616 -17.808838 6.0835495 -23.803162 0.5301819z" fill-rule="evenodd"/><path fill="#cfe2f3" d="m39.029205 40.351257c2.6993713 -0.62107086 0.16775131 -14.164726 1.290596 -17.055155c1.1228409 -2.8904266 4.5148582 -3.106081 5.4464607 -0.28741455c0.9316025 2.8186665 -1.6244316 16.626066 0.14315414 17.199415c1.7675858 0.5733528 8.049847 -11.848202 10.462357 -13.75931c2.4125137 -1.911108 5.087658 -0.5498619 4.012718 2.2926636c-1.0749397 2.8425255 -11.818428 12.555826 -10.46236 14.762487c1.3560677 2.2066612 15.414074 -2.1175117 18.598759 -1.522522c3.1846924 0.5949898 3.8627243 4.116287 0.50936127 5.0924644c-3.353363 0.9761772 -20.07782 -1.2306709 -20.629532 0.7645912c-0.55171204 1.9952621 14.814644 8.702541 17.31926 11.206974c2.5046234 2.5044327 0.8496704 4.92342 -2.2915497 3.8196259c-3.141224 -1.1037903 -13.923733 -11.800854 -16.555782 -10.442383c-2.6320496 1.3584709 1.4002686 15.494343 0.76348114 18.593212c-0.6367912 3.0988693 -3.4364052 3.271614 -4.584217 0c-1.1478119 -3.271614 0.07434845 -19.290112 -2.3026505 -19.62968c-2.3770027 -0.3395729 -9.164553 15.084118 -11.95936 17.59225c-2.7948074 2.508133 -5.942873 0.77069855 -4.8094883 -2.543457c1.1333847 -3.3141518 13.019131 -14.714031 11.609798 -17.341457c-1.4093323 -2.6274261 -16.64012 2.16819 -20.0658 1.5768967c-3.4256792 -0.5912895 -3.880291 -4.1212807 -0.48827267 -5.124645c3.3920174 -1.0033646 19.994593 1.4513168 20.840376 -0.89553833c0.84578705 -2.3468513 -13.806841 -10.247627 -15.765667 -13.185589c-1.9588242 -2.9379597 0.8596573 -5.9232674 4.0127163 -4.442173c3.153059 1.4810944 12.20627 13.94981 14.905642 13.328743z" fill-rule="evenodd"/><path fill="#cfe2f3" d="m128.03171 45.249687c2.6993713 -0.62107086 0.16773987 -14.164726 1.2905884 -17.055153c1.1228485 -2.8904285 4.514862 -3.106083 5.446457 -0.28741646c0.9316101 2.8186684 -1.6244202 16.626066 0.14315796 17.199415c1.7675934 0.5733528 8.04985 -11.848202 10.462357 -13.75931c2.4125214 -1.911108 5.0876617 -0.5498619 4.012726 2.2926655c-1.0749512 2.8425255 -11.818436 12.555828 -10.462372 14.762489c1.3560791 2.2066574 15.414078 -2.1175156 18.59877 -1.5225258c3.1846771 0.5949898 3.8627167 4.116291 0.50935364 5.0924644c-3.353363 0.9761772 -20.07782 -1.2306671 -20.629532 0.7645912c-0.55171204 1.9952621 14.8146515 8.702541 17.31926 11.206974c2.5046234 2.5044365 0.8496704 4.92342 -2.2915497 3.8196297c-3.14122 -1.1037979 -13.923737 -11.800858 -16.555786 -10.442387c-2.6320496 1.3584709 1.4002686 15.494343 0.76348877 18.593212c-0.63679504 3.0988693 -3.4364166 3.271614 -4.5842133 0c-1.1478119 -3.271614 0.07434082 -19.290112 -2.302658 -19.62968c-2.376999 -0.3395729 -9.164551 15.084118 -11.959358 17.59225c-2.7948074 2.508133 -5.942871 0.77069855 -4.8094864 -2.543457c1.1333847 -3.3141556 13.019127 -14.714031 11.609795 -17.341457c-1.4093323 -2.6274261 -16.640121 2.16819 -20.065796 1.5769005c-3.425682 -0.59129333 -3.8802948 -4.1212845 -0.48827362 -5.124649c3.3920135 -1.0033646 19.99459 1.4513168 20.840378 -0.8955345c0.84578705 -2.3468552 -13.806847 -10.247631 -15.765671 -13.185593c-1.9588242 -2.9379578 0.8596573 -5.9232674 4.012718 -4.442173c3.153061 1.4810944 12.206268 13.94981 14.905647 13.328743z" fill-rule="evenodd"/><path fill="#cfe2f3" d="m217.31056 27.671112c2.0462494 -0.47079659 0.12716675 -10.737452 0.9783325 -12.928516c0.8511658 -2.1910648 3.4224548 -2.3545399 4.128647 -0.21787262c0.706192 2.1366673 -1.2313843 12.603249 0.10850525 13.037872c1.3399048 0.43462372 6.102127 -8.98143 7.930908 -10.43013c1.8287811 -1.448699 3.856659 -0.41681862 3.041809 1.7379341c-0.81484985 2.1547527 -8.958862 9.517841 -7.930908 11.190582c1.0279541 1.6727409 11.684509 -1.6051636 14.098633 -1.1541367c2.4141235 0.45102692 2.9281006 3.1203194 0.38612366 3.860302c-2.5419922 0.7399788 -15.219833 -0.9329014 -15.638046 0.57958984c-0.41822815 1.5124893 11.230118 6.5968895 13.128723 8.495354c1.8986053 1.8984642 0.64408875 3.7321548 -1.7370911 2.8954353c-2.3811798 -0.8367195 -10.554779 -8.945538 -12.549973 -7.91576c-1.9952087 1.0297775 1.0614624 11.7453575 0.5787506 14.094429c-0.4827118 2.3490715 -2.60495 2.4800186 -3.4750366 0c-0.87008667 -2.4800186 0.056365967 -14.622707 -1.7454987 -14.880119c-1.8018646 -0.25740814 -6.947113 11.434391 -9.065689 13.335663c-2.1185913 1.901268 -4.504944 0.5842171 -3.6457977 -1.9280472c0.8591461 -2.512268 9.869049 -11.153851 8.800705 -13.14555c-1.0683289 -1.9916954 -12.613892 1.6435814 -15.210709 1.1953583c-2.5968018 -0.4482231 -2.9414215 -3.1241035 -0.37013245 -3.884697c2.571289 -0.7605915 15.156738 1.1001587 15.797882 -0.678854c0.6411438 -1.7790127 -10.466171 -7.7681293 -11.951035 -9.995226c-1.4848785 -2.2270966 0.6516571 -4.4900837 3.041809 -3.3673534c2.390152 1.1227322 9.252853 10.574537 11.299088 10.103743z" fill-rule="evenodd"/><path fill="#cfe2f3" d="m37.32007 129.84393c2.424202 -0.5577545 0.15065384 -12.720779 1.1590347 -15.316559c1.0083809 -2.5957794 4.054615 -2.7894516 4.8912506 -0.25811768c0.8366356 2.531334 -1.4588356 14.931213 0.12856293 15.446121c1.5873985 0.5148926 7.229248 -10.640411 9.395828 -12.356697c2.166584 -1.7162933 4.569023 -0.49381256 3.6036644 2.0589523c-0.96536255 2.5527573 -10.613663 11.275894 -9.395832 13.257599c1.2178307 1.98172 13.842773 -1.9016418 16.702812 -1.3673096c2.8600464 0.5343323 3.468956 3.6966705 0.4574356 4.5733337c-3.0115242 0.87667847 -18.031101 -1.1052094 -18.52657 0.68666077c-0.49547195 1.7918549 13.304447 7.815399 15.553749 10.064529c2.249298 2.2491455 0.7630539 4.4215393 -2.0579567 3.4302673c-2.8210068 -0.991272 -12.504353 -10.597885 -14.868095 -9.377899c-2.363739 1.219986 1.2575302 13.914856 0.6856537 16.69783c-0.5718765 2.7829742 -3.0861015 2.9381104 -4.116905 0c-1.0308037 -2.9381104 0.06677246 -17.323685 -2.0679207 -17.628647c-2.1346893 -0.3049469 -8.23032 13.546463 -10.740227 15.79892c-2.5099068 2.2524414 -5.337061 0.6921234 -4.319212 -2.2841797c1.0178471 -2.9763184 11.691969 -13.214096 10.426302 -15.573685c-1.265667 -2.3595886 -14.943836 1.9471588 -18.020302 1.416153c-3.0764675 -0.5310211 -3.4847364 -3.7011566 -0.43849945 -4.602249c3.046238 -0.9010773 17.956356 1.3033752 18.71592 -0.804245c0.75956726 -2.1076202 -12.39938 -9.202988 -14.158524 -11.841454c-1.7591438 -2.638466 0.77202415 -5.319458 3.6036625 -3.9893417c2.8316383 1.3301086 10.961969 12.527771 13.386168 11.9700165z" fill-rule="evenodd"/><path fill="#cfe2f3" d="m203.59618 117.443115c2.6993713 -0.62106323 0.16773987 -14.164726 1.2905884 -17.055153c1.1228485 -2.8904266 4.514862 -3.106079 5.446457 -0.28741455c0.9316101 2.8186646 -1.6244202 16.626068 0.14315796 17.199417c1.7675934 0.573349 8.04985 -11.848206 10.462357 -13.759308c2.4125214 -1.9111099 5.0876617 -0.5498657 4.012726 2.2926636c-1.0749512 2.8425217 -11.818436 12.555824 -10.462357 14.762489c1.3560638 2.2066574 15.4140625 -2.1175156 18.598755 -1.5225296c3.1846924 0.5949936 3.8627167 4.116295 0.50935364 5.0924683c-3.353363 0.9761734 -20.07782 -1.2306671 -20.629532 0.7645874c-0.55171204 1.9952621 14.8146515 8.702538 17.31926 11.206978c2.5046234 2.5044403 0.8496704 4.923416 -2.2915497 3.8196259c-3.14122 -1.1037903 -13.923737 -11.800858 -16.555786 -10.442383c-2.6320496 1.3584747 1.4002686 15.494339 0.76348877 18.593216c-0.63679504 3.0988617 -3.4364014 3.2716064 -4.5842133 0c-1.1478119 -3.2716217 0.07434082 -19.290115 -2.302658 -19.629684c-2.376999 -0.3395691 -9.164551 15.084122 -11.959351 17.592255c-2.794815 2.508133 -5.9428864 0.7706909 -4.809494 -2.543457c1.1333771 -3.3141632 13.0191345 -14.714035 11.609802 -17.341461c-1.4093323 -2.6274261 -16.640121 2.1681824 -20.065811 1.5768967c-3.4256744 -0.59129333 -3.8802795 -4.1212845 -0.488266 -5.124649c3.3920135 -1.0033569 19.994598 1.4513245 20.840378 -0.8955307c0.8457794 -2.3468552 -13.806839 -10.247635 -15.765671 -13.185593c-1.9588165 -2.9379578 0.8596649 -5.923271 4.012726 -4.442177c3.1530457 1.4810944 12.206268 13.949814 14.90564 13.328743z" fill-rule="evenodd"/><path fill="#cfe2f3" d="m45.32007 213.3085c2.424202 -0.5577545 0.15065384 -12.720779 1.1590347 -15.316559c1.0083809 -2.5957794 4.054615 -2.7894592 4.8912506 -0.25811768c0.8366356 2.5313263 -1.4588356 14.931213 0.12856293 15.446121c1.5873985 0.5148926 7.229248 -10.640411 9.395828 -12.356705c2.166584 -1.7162933 4.569023 -0.49380493 3.6036606 2.05896c-0.96535873 2.5527496 -10.613659 11.275894 -9.395828 13.257599c1.2178307 1.98172 13.842773 -1.9016571 16.702812 -1.3673096c2.8600464 0.5343323 3.468956 3.6966705 0.4574356 4.5733337c-3.0115204 0.8766632 -18.031101 -1.1052094 -18.52657 0.6866455c-0.49547195 1.7918701 13.304447 7.8154144 15.553745 10.064545c2.249298 2.2491302 0.7630539 4.4215393 -2.057953 3.430252c-2.8210068 -0.991272 -12.504353 -10.59787 -14.868095 -9.377884c-2.363739 1.219986 1.2575302 13.914856 0.6856537 16.69783c-0.5718765 2.7829742 -3.0861015 2.9381104 -4.116905 0c-1.0308037 -2.9381104 0.06677246 -17.323685 -2.0679207 -17.628647c-2.1346893 -0.3049469 -8.23032 13.546463 -10.740227 15.798904c-2.5099068 2.2524567 -5.337061 0.6921387 -4.319212 -2.2841797c1.0178471 -2.976303 11.691969 -13.214081 10.426302 -15.573669c-1.265667 -2.3595886 -14.943836 1.9471588 -18.020302 1.416153c-3.0764675 -0.5310211 -3.4847355 -3.7011719 -0.43849945 -4.602249c3.046238 -0.9010773 17.956356 1.3033752 18.71592 -0.804245c0.75956726 -2.1076202 -12.39938 -9.202988 -14.158524 -11.841461c-1.7591438 -2.6384583 0.77202415 -5.319458 3.6036625 -3.989334c2.8316402 1.3301086 10.961969 12.527771 13.386168 11.9700165z" fill-rule="evenodd"/><path fill="#cfe2f3" d="m134.19388 203.36395c2.1835175 -0.5023804 0.13569641 -11.457748 1.0439606 -13.795807c0.90826416 -2.3380432 3.6520386 -2.5124817 4.405609 -0.23248291c0.75357056 2.2799988 -1.3139954 13.448715 0.11579895 13.912491c1.429779 0.46377563 6.5114594 -9.583939 8.462921 -11.129822c1.9514618 -1.5458679 4.1153717 -0.44477844 3.2458649 1.8545227c-0.8695221 2.2993011 -9.559845 10.156326 -8.462936 11.941284c1.0969086 1.7849426 12.468338 -1.7128448 15.044418 -1.2315674c2.576065 0.48129272 3.124527 3.3296356 0.41200256 4.1192627c-2.7125092 0.7896271 -16.240799 -0.9954834 -16.687088 0.61846924c-0.4462738 1.6139526 11.983475 7.0394287 14.009445 9.065247c2.0259705 2.0258179 0.6872864 3.9825287 -1.8536224 3.089676c-2.540924 -0.8928528 -11.262817 -9.545639 -13.391861 -8.446777c-2.1290436 1.0988617 1.1326752 12.533264 0.61756897 15.039917c-0.51509094 2.5066528 -2.7796783 2.6463928 -3.70813 0c-0.9284668 -2.6463776 0.060134888 -15.603638 -1.8626099 -15.878311c-1.9227295 -0.27467346 -7.4131317 12.201447 -9.673836 14.230255c-2.260704 2.0288086 -4.807152 0.6234131 -3.8903656 -2.0573883c0.9167862 -2.6808014 10.53109 -11.902084 9.39109 -14.02739c-1.1399994 -2.1253052 -13.460083 1.7538452 -16.231087 1.2755432c-2.7710114 -0.47828674 -3.1387405 -3.3336792 -0.39496613 -4.145294c2.743782 -0.81159973 16.173492 1.1739655 16.857635 -0.7243805c0.6841583 -1.8983612 -11.168259 -8.289246 -12.752739 -10.665741c-1.5844803 -2.3764954 0.69537354 -4.7912903 3.2458649 -3.5932465c2.5504837 1.1980591 9.873558 11.283905 12.05706 10.78154z" fill-rule="evenodd"/><path fill="#cfe2f3" d="m219.95918 212.34656c2.4241943 -0.5577545 0.15065002 -12.720779 1.1590271 -15.316559c1.0083771 -2.5957794 4.054611 -2.789444 4.8912506 -0.25811768c0.8366394 2.5313263 -1.4588318 14.931213 0.1285553 15.446121c1.5874023 0.5148926 7.2292633 -10.640411 9.3958435 -12.356705c2.1665802 -1.7162781 4.5690155 -0.49380493 3.603653 2.05896c-0.96536255 2.5527496 -10.613663 11.275894 -9.395828 13.257599c1.2178345 1.98172 13.842773 -1.9016418 16.70282 -1.3673096c2.8600311 0.5343323 3.4689484 3.6966705 0.45742798 4.5733337c-3.0115204 0.87667847 -18.031097 -1.1052094 -18.526566 0.68666077c-0.49546814 1.7918549 13.304443 7.815399 15.553741 10.064529c2.249298 2.2491455 0.7630615 4.4215393 -2.057953 3.4302673c-2.8209991 -0.991272 -12.504349 -10.597885 -14.868088 -9.377899c-2.363739 1.219986 1.2575226 13.914856 0.6856537 16.69783c-0.57188416 2.7829742 -3.0861053 2.9381104 -4.116913 0c-1.0308075 -2.9381104 0.06677246 -17.323685 -2.0679169 -17.628647c-2.1346893 -0.3049469 -8.230316 13.546463 -10.740234 15.79892c-2.509903 2.2524414 -5.3370514 0.6921234 -4.319214 -2.2841797c1.0178528 -2.9763184 11.691971 -13.214096 10.426315 -15.573685c-1.2656708 -2.3595886 -14.943848 1.9471588 -18.02031 1.416153c-3.0764618 -0.5310211 -3.4847412 -3.7011566 -0.43849182 -4.602249c3.0462341 -0.9010773 17.956345 1.3033752 18.715912 -0.804245c0.75956726 -2.1076202 -12.399384 -9.202988 -14.158524 -11.841461c-1.75914 -2.6384583 0.77201843 -5.3194427 3.6036682 -3.989334c2.8316345 1.3301086 10.96196 12.527771 13.386169 11.9700165z" fill-rule="evenodd"/><path fill="#cfe2f3" d="m119.78654 123.81591c2.6993713 -0.62107086 0.1677475 -14.164726 1.290596 -17.055153c1.1228409 -2.8904266 4.5148544 -3.1060867 5.446457 -0.28741455c0.9316025 2.8186646 -1.6244278 16.62606 0.14315796 17.19941c1.7675781 0.5733566 8.04985 -11.848198 10.462357 -13.759308c2.412506 -1.9111099 5.0876617 -0.5498581 4.0127106 2.2926636c-1.0749359 2.8425293 -11.81842 12.555832 -10.462357 14.762489c1.3560638 2.206665 15.414078 -2.1175156 18.59877 -1.522522c3.1846771 0.59498596 3.8627167 4.116287 0.50935364 5.0924683c-3.353363 0.9761658 -20.07782 -1.2306671 -20.629532 0.7645874c-0.55171204 1.9952545 14.814636 8.702545 17.31926 11.20697c2.5046234 2.5044403 0.8496704 4.923416 -2.2915497 3.8196259c-3.14122 -1.1037903 -13.923737 -11.800858 -16.555786 -10.442383c-2.6320496 1.3584747 1.4002686 15.494354 0.76348877 18.593216c-0.63679504 3.0988617 -3.436409 3.2716217 -4.584221 0c-1.1478119 -3.2716064 0.07434845 -19.290115 -2.3026505 -19.629684c-2.3770065 -0.3395691 -9.164551 15.084122 -11.959358 17.592255c-2.794815 2.508133 -5.9428787 0.7706909 -4.809494 -2.543457c1.1333847 -3.314148 13.0191345 -14.714035 11.609802 -17.341461c-1.4093323 -2.6274261 -16.640121 2.1681976 -20.065804 1.5769043c-3.4256744 -0.59129333 -3.8802872 -4.121292 -0.48827362 -5.124649c3.3920212 -1.0033569 19.994598 1.4513245 20.840378 -0.89553833c0.84578705 -2.3468552 -13.806839 -10.247627 -15.765663 -13.185585c-1.9588242 -2.9379654 0.8596573 -5.923271 4.012718 -4.442177c3.1530533 1.4810944 12.206268 13.949806 14.90564 13.328743z" fill-rule="evenodd"/></g></svg>