<svg version="1.1" viewBox="0.0 0.0 256.0 256.0" fill="none" stroke="none" stroke-linecap="square" stroke-miterlimit="10" xmlns:xlink="http://www.w3.org/1999/xlink" xmlns="http://www.w3.org/2000/svg"><clipPath id="p.0"><path d="m0 0l256.0 0l0 256.0l-256.0 0l0 -256.0z" clip-rule="nonzero"/></clipPath><g clip-path="url(#p.0)"><path fill="#000000" fill-opacity="0.0" d="m0 0l256.0 0l0 256.0l-256.0 0z" fill-rule="evenodd"/><path fill="#7f6000" d="m0 65.05728l0 0c0 -35.930145 29.127136 -65.05728 65.05728 -65.05728l125.88544 0l0 0c17.254272 0 33.801834 6.8542295 46.00244 19.054836c12.200607 12.200607 19.05484 28.74818 19.05484 46.002445l0 125.88544c0 35.930145 -29.127136 65.05728 -65.05728 65.05728l-125.88544 0l0 0c-35.930145 0 -65.05728 -29.127136 -65.05728 -65.05728z" fill-rule="evenodd"/><path fill="#bf9000" d="m113.577805 191.06178l0 0c7.979271 7.9792633 20.91623 7.9792633 28.895508 0l4.931259 -4.9312744l0 0c3.831787 -3.8317719 5.9844513 -9.028793 5.9844513 -14.447754c0 -5.4189453 -2.1526642 -10.615967 -5.9844513 -14.447754l-92.301346 -92.30134c-7.9792747 -7.9792747 -20.916233 -7.9792747 -28.895504 0l-4.931267 4.931267c-7.979274 7.979271 -7.979274 20.91623 0 28.895508z" fill-rule="evenodd"/><path fill="#bf9000" d="m108.59543 157.23956l0 0c-7.9792786 7.9792786 -7.9792786 20.91623 0 28.895508l4.931267 4.931259l0 0c3.8317795 3.831787 9.028793 5.9844666 14.447746 5.9844666c5.4189606 0 10.615967 -2.1526794 14.447754 -5.9844666l92.301346 -92.30134c7.9792786 -7.979271 7.9792786 -20.91623 0 -28.895508l-4.931259 -4.931267c-7.9792786 -7.979271 -20.916245 -7.979271 -28.895508 0z" fill-rule="evenodd"/></g></svg>