<svg version="1.1" viewBox="0.0 0.0 256.0 256.0" fill="none" stroke="none" stroke-linecap="square" stroke-miterlimit="10" xmlns:xlink="http://www.w3.org/1999/xlink" xmlns="http://www.w3.org/2000/svg"><clipPath id="p.0"><path d="m0 0l256.0 0l0 256.0l-256.0 0l0 -256.0z" clip-rule="nonzero"/></clipPath><g clip-path="url(#p.0)"><path fill="#000000" fill-opacity="0.0" d="m0 0l256.0 0l0 256.0l-256.0 0z" fill-rule="evenodd"/><path fill="#bf9000" d="m-1296.2146 341.90063l119.433105 0l0 100.53543l-119.433105 0z" fill-rule="evenodd"/><path stroke="#bf9000" stroke-width="1.0" stroke-linejoin="round" stroke-linecap="butt" d="m-1296.2146 341.90063l119.433105 0l0 100.53543l-119.433105 0z" fill-rule="evenodd"/><path fill="#bf9000" d="m-1296.2146 341.90683l59.716553 -42.078735l59.716553 42.078735z" fill-rule="evenodd"/><path stroke="#bf9000" stroke-width="1.0" stroke-linejoin="round" stroke-linecap="butt" d="m-1296.2146 341.90683l59.716553 -42.078735l59.716553 42.078735z" fill-rule="evenodd"/><path fill="#7f6000" d="m-1236.5768 202.67061l-80.66138 37.188934l0 115.72444l80.66138 -37.188934z" fill-rule="evenodd"/><path stroke="#7f6000" stroke-width="3.0" stroke-linejoin="round" stroke-linecap="butt" d="m-1236.5768 202.67061l-80.66138 37.188934l0 115.72444l80.66138 -37.188934z" fill-rule="evenodd"/><path fill="#7f6000" d="m-1236.498 202.67061l80.66138 37.188934l0 115.72444l-80.66138 -37.188934z" fill-rule="evenodd"/><path stroke="#7f6000" stroke-width="3.0" stroke-linejoin="round" stroke-linecap="butt" d="m-1236.498 202.67061l80.66138 37.188934l0 115.72444l-80.66138 -37.188934z" fill-rule="evenodd"/><path fill="#9a7917" fill-opacity="0.75" d="m-1251.427 383.36615l29.85791 0l0 0c1.9798584 0 3.87854 0.786438 5.2784424 2.1863708c1.3999023 1.3999023 2.1862793 3.298584 2.1862793 5.278351l0 51.621887c0 2.1362305E-4 -1.2207031E-4 3.6621094E-4 -3.6621094E-4 3.6621094E-4l-44.786987 -3.6621094E-4l0 0c-2.4414062E-4 0 -3.6621094E-4 -1.8310547E-4 -3.6621094E-4 -3.6621094E-4l3.6621094E-4 -51.62152l0 0c0 -4.12265 3.342041 -7.4647217 7.4647217 -7.4647217z" fill-rule="evenodd"/><path fill="#d0a213" fill-opacity="0.6" d="m-1258.8917 442.437l5.173218 -20.692932l34.440918 0l5.173218 20.692932z" fill-rule="evenodd"/><path fill="#785a00" d="m-1236.5479 307.72665l-80.6615 34.440613l0 7.6381226l80.6615 -34.440582z" fill-rule="evenodd"/><path stroke="#785a00" stroke-width="3.0" stroke-linejoin="round" stroke-linecap="butt" d="m-1236.5479 307.72665l-80.6615 34.440613l0 7.6381226l80.6615 -34.440582z" fill-rule="evenodd"/><path fill="#785a00" d="m-1236.5085 307.72534l80.66138 34.440613l0 7.6381226l-80.66138 -34.440582z" fill-rule="evenodd"/><path stroke="#785a00" stroke-width="3.0" stroke-linejoin="round" stroke-linecap="butt" d="m-1236.5085 307.72534l80.66138 34.440613l0 7.6381226l-80.66138 -34.440582z" fill-rule="evenodd"/><path fill="#7b5e06" fill-opacity="0.15" d="m-1296.6168 347.71652l60.0 -27.73227l6.795288 26.855652l-33.871338 4.6666565l-7.918701 15.97113l10.695557 11.388458l-1.2493896 10.834625l-13.194214 1.5275574l-6.086548 9.839905l-8.244141 -0.8661499l2.1679688 -4.771637l-2.005249 -9.341217l-4.2834473 -10.834625l1.3018799 -12.362213z" fill-rule="evenodd"/><path fill="#a28017" d="m-1265.8367 353.5325l0 0c0 -1.620636 1.3138428 -2.9344177 2.9344482 -2.9344177l52.80835 0c0.77819824 0 1.5246582 0.30914307 2.0749512 0.85946655c0.55029297 0.5503235 0.8594971 1.2966919 0.8594971 2.0749512l0 11.737427c0 1.620636 -1.3138428 2.9344482 -2.9344482 2.9344482l-52.80835 0c-1.6206055 0 -2.9344482 -1.3138123 -2.9344482 -2.9344482z" fill-rule="evenodd"/><path fill="#7b5e06" fill-opacity="0.15" d="m-1176.3331 442.75592l-8.472412 -40.13913l-5.9711914 -1.2493286l-2.3621826 13.750641l-11.527588 -9.307068l-4.4434814 14.585297l6.1102295 17.637787l14.167969 4.165344z" fill-rule="evenodd"/><path fill="#7b5e06" fill-opacity="0.15" d="m-1296.4724 442.6168l5.973755 -18.055115l5.553833 0.27822876l8.75061 6.9448853l12.362183 0.83200073l0 6.3884583l-9.86084 1.3910828l-9.863525 -1.8057861z" fill-rule="evenodd"/><path fill="#7b5e06" fill-opacity="0.15" d="m-1176.3334 347.75592l-6.944824 25.695526l-6.3884277 -0.83465576l-10.417358 6.112854l-0.6928711 -9.167969l-4.0289307 -13.8897705l3.0551758 -8.8871155l7.3621826 -1.666687l3.472412 11.1102295l4.7218018 -6.2493286z" fill-rule="evenodd"/><path fill="#8c6d10" fill-opacity="0.45" d="m-1305.5879 272.70865l29.139038 -45.034103l32.451538 25.826767l-16.556519 13.908142l5.296631 25.826752l-23.839966 27.816284l-11.257202 -13.246704l3.973755 -21.19162z" fill-rule="evenodd"/><path fill="#8c6d10" fill-opacity="0.45" d="m-1224.7926 260.7874l14.569458 -29.803162l21.19165 32.451447l18.543335 -12.582687l8.608887 32.45146l-19.204712 23.839874l-25.826782 4.635193l9.270386 -26.48819l-19.204712 -7.2861023z" fill-rule="evenodd"/><path fill="#b7b7b7" d="m-1236.5177 275.82974l-80.66138 34.440613l0 7.6381226l80.66138 -34.440613z" fill-rule="evenodd"/><path stroke="#b7b7b7" stroke-width="3.0" stroke-linejoin="round" stroke-linecap="butt" d="m-1236.5177 275.82974l-80.66138 34.440613l0 7.6381226l80.66138 -34.440613z" fill-rule="evenodd"/><path fill="#b7b7b7" d="m-1236.4784 275.82843l80.6615 34.440613l0 7.6381226l-80.6615 -34.440613z" fill-rule="evenodd"/><path stroke="#b7b7b7" stroke-width="3.0" stroke-linejoin="round" stroke-linecap="butt" d="m-1236.4784 275.82843l80.6615 34.440613l0 7.6381226l-80.6615 -34.440613z" fill-rule="evenodd"/><path fill="#b7b7b7" d="m-1236.5374 224.814l-80.6615 34.440613l0 7.6381226l80.6615 -34.440613z" fill-rule="evenodd"/><path stroke="#b7b7b7" stroke-width="3.0" stroke-linejoin="round" stroke-linecap="butt" d="m-1236.5374 224.814l-80.6615 34.440613l0 7.6381226l80.6615 -34.440613z" fill-rule="evenodd"/><path fill="#b7b7b7" d="m-1236.498 224.81268l80.66138 34.440613l0 7.6381226l-80.66138 -34.440613z" fill-rule="evenodd"/><path stroke="#b7b7b7" stroke-width="3.0" stroke-linejoin="round" stroke-linecap="butt" d="m-1236.498 224.81268l80.66138 34.440613l0 7.6381226l-80.66138 -34.440613z" fill-rule="evenodd"/><path fill="#000000" fill-opacity="0.0" d="m-1317.9186 357.27298l80.509155 -36.863525l82.20471 36.863525l0.42260742 -117.79529l-81.35437 -38.55905l-82.834595 38.92125z" fill-rule="evenodd"/><path stroke="#666666" stroke-width="2.0" stroke-linejoin="round" stroke-linecap="butt" d="m-1317.9186 357.27298l80.509155 -36.863525l82.20471 36.863525l0.42260742 -117.79529l-81.35437 -38.55905l-82.834595 38.92125z" fill-rule="evenodd"/><path fill="#8c6d10" fill-opacity="0.45" d="m-1252.5118 413.79266l3.2546387 -19.08664l6.724365 0.8661499l7.8084717 8.026245l7.590454 -4.989502l6.076172 18.005249l0.6508789 5.855652l-31.23877 -0.8661499l-2.3858643 -5.2073364z" fill-rule="evenodd"/><path fill="#bf9000" d="m-207.34973 148.06335l119.43307 0l0 100.53543l-119.43307 0z" fill-rule="evenodd"/><path stroke="#bf9000" stroke-width="1.0" stroke-linejoin="round" stroke-linecap="butt" d="m-207.34973 148.06335l119.43307 0l0 100.53543l-119.43307 0z" fill-rule="evenodd"/><path fill="#bf9000" d="m-207.34973 148.06955l59.716522 -42.078735l59.716545 42.078735z" fill-rule="evenodd"/><path stroke="#bf9000" stroke-width="1.0" stroke-linejoin="round" stroke-linecap="butt" d="m-207.34973 148.06955l59.716522 -42.078735l59.716545 42.078735z" fill-rule="evenodd"/><path fill="#7f6000" d="m-147.71194 8.833333l-80.66141 37.18895l0 115.72444l80.66141 -37.18895z" fill-rule="evenodd"/><path stroke="#7f6000" stroke-width="3.0" stroke-linejoin="round" stroke-linecap="butt" d="m-147.71194 8.833333l-80.66141 37.18895l0 115.72444l80.66141 -37.18895z" fill-rule="evenodd"/><path fill="#7f6000" d="m-147.63321 8.833333l80.66142 37.18895l0 115.72444l-80.66142 -37.18895z" fill-rule="evenodd"/><path stroke="#7f6000" stroke-width="3.0" stroke-linejoin="round" stroke-linecap="butt" d="m-147.63321 8.833333l80.66142 37.18895l0 115.72444l-80.66142 -37.18895z" fill-rule="evenodd"/><path fill="#9a7917" fill-opacity="0.75" d="m-162.56218 189.52887l29.857956 0l0 0c1.9797668 0 3.8784485 0.78645325 5.2783585 2.1863708c1.3999023 1.3999023 2.1863632 3.298584 2.1863632 5.278351l0 51.621887c0 2.1362305E-4 -1.6784668E-4 3.8146973E-4 -3.7384033E-4 3.8146973E-4l-44.787025 -3.8146973E-4l0 0c-2.1362305E-4 0 -3.8146973E-4 -1.5258789E-4 -3.8146973E-4 -3.6621094E-4l3.8146973E-4 -51.62152l0 0c0 -4.12265 3.3420715 -7.4647217 7.4647217 -7.4647217z" fill-rule="evenodd"/><path fill="#d0a213" fill-opacity="0.6" d="m-170.0269 248.59973l5.173233 -20.692902l34.440933 0l5.173233 20.692902z" fill-rule="evenodd"/><path fill="#785a00" d="m-147.68307 113.88939l-80.66141 34.440613l0 7.6381226l80.66141 -34.440598z" fill-rule="evenodd"/><path stroke="#785a00" stroke-width="3.0" stroke-linejoin="round" stroke-linecap="butt" d="m-147.68307 113.88939l-80.66141 34.440613l0 7.6381226l80.66141 -34.440598z" fill-rule="evenodd"/><path fill="#785a00" d="m-147.6437 113.88808l80.66142 34.440613l0 7.6381226l-80.66142 -34.440598z" fill-rule="evenodd"/><path stroke="#785a00" stroke-width="3.0" stroke-linejoin="round" stroke-linecap="butt" d="m-147.6437 113.88808l80.66142 34.440613l0 7.6381226l-80.66142 -34.440598z" fill-rule="evenodd"/><path fill="#7b5e06" fill-opacity="0.15" d="m-207.75197 153.87927l60.0 -27.732292l6.795273 26.855644l-33.871384 4.6666718l-7.91864 15.97113l10.695541 11.388443l-1.2493439 10.8346405l-13.194229 1.5275726l-6.086609 9.83989l-8.244095 -0.8661499l2.1679688 -4.771652l-2.005249 -9.341202l-4.2834625 -10.8346405l1.3018341 -12.362213z" fill-rule="evenodd"/><path fill="#a28017" d="m-165.17343 154.89885l4.506836 -7.8052216l7.8052216 -4.506836l9.013672 0l7.8052216 4.506836l4.506836 7.8052216l0 9.013687l-4.506836 7.8052063l-7.8052216 4.506851l-9.013672 0l-7.8052216 -4.506851l-4.506836 -7.8052063z" fill-rule="evenodd"/><path fill="#7b5e06" fill-opacity="0.15" d="m-87.468285 248.91864l-8.472443 -40.139114l-5.9711304 -1.2493439l-2.3622055 13.750656l-11.527557 -9.307083l-4.4435654 14.585297l6.110237 17.637802l14.167976 4.165344z" fill-rule="evenodd"/><path fill="#7b5e06" fill-opacity="0.15" d="m-207.6076 248.77953l5.9737396 -18.055115l5.5538177 0.2782135l8.750656 6.9448853l12.362198 0.832016l0 6.3884583l-9.860886 1.3910675l-9.863525 -1.8057709z" fill-rule="evenodd"/><path fill="#7b5e06" fill-opacity="0.15" d="m-87.468506 153.91864l-6.9448776 25.695526l-6.3884506 -0.8346405l-10.417328 6.1128693l-0.69290924 -9.167984l-4.0288773 -13.8897705l3.0551224 -8.887131l7.3622055 -1.6666718l3.4724426 11.110245l4.721779 -6.249344z" fill-rule="evenodd"/><path fill="#8c6d10" fill-opacity="0.45" d="m-216.7231 78.87139l29.139114 -45.034122l32.45143 25.826775l-16.556427 13.908138l5.296585 25.826767l-23.83989 27.816277l-11.257217 -13.246719l3.973755 -21.191605z" fill-rule="evenodd"/><path fill="#8c6d10" fill-opacity="0.45" d="m-135.92783 66.950134l14.569557 -29.803154l21.191605 32.451447l18.543304 -12.58268l8.608925 32.451447l-19.204727 23.83989l-25.826767 4.6351776l9.27034 -26.48819l-19.204727 -7.2860947z" fill-rule="evenodd"/><path fill="#b7b7b7" d="m-147.6529 81.99247l-80.66141 34.440605l0 7.63813l80.66141 -34.440605z" fill-rule="evenodd"/><path stroke="#b7b7b7" stroke-width="3.0" stroke-linejoin="round" stroke-linecap="butt" d="m-147.6529 81.99247l-80.66141 34.440605l0 7.63813l80.66141 -34.440605z" fill-rule="evenodd"/><path fill="#b7b7b7" d="m-147.61351 81.99116l80.66141 34.440605l0 7.63813l-80.66141 -34.440605z" fill-rule="evenodd"/><path stroke="#b7b7b7" stroke-width="3.0" stroke-linejoin="round" stroke-linecap="butt" d="m-147.61351 81.99116l80.66141 34.440605l0 7.63813l-80.66141 -34.440605z" fill-rule="evenodd"/><path fill="#b7b7b7" d="m-147.67258 30.976719l-80.66141 34.44061l0 7.63813l80.66141 -34.440605z" fill-rule="evenodd"/><path stroke="#b7b7b7" stroke-width="3.0" stroke-linejoin="round" stroke-linecap="butt" d="m-147.67258 30.976719l-80.66141 34.44061l0 7.63813l80.66141 -34.440605z" fill-rule="evenodd"/><path fill="#b7b7b7" d="m-147.63321 30.975407l80.66142 34.44061l0 7.63813l-80.66142 -34.440605z" fill-rule="evenodd"/><path stroke="#b7b7b7" stroke-width="3.0" stroke-linejoin="round" stroke-linecap="butt" d="m-147.63321 30.975407l80.66142 34.44061l0 7.63813l-80.66142 -34.440605z" fill-rule="evenodd"/><path fill="#000000" fill-opacity="0.0" d="m-229.0538 163.4357l80.509186 -36.863518l82.20472 36.863518l0.4225769 -117.79528l-81.35433 -38.559055l-82.83464 38.92126z" fill-rule="evenodd"/><path fill="#8c6d10" fill-opacity="0.45" d="m-163.64699 219.95538l3.254593 -19.086624l6.724411 0.8661499l7.8084106 8.026245l7.5905457 -4.989502l6.076111 18.005249l0.6509247 5.855652l-31.238846 -0.8661499l-2.3858337 -5.2073517z" fill-rule="evenodd"/><path fill="#bf9000" d="m-406.53735 148.0627l119.433075 0l0 100.53543l-119.433075 0z" fill-rule="evenodd"/><path stroke="#bf9000" stroke-width="1.0" stroke-linejoin="round" stroke-linecap="butt" d="m-406.53735 148.0627l119.433075 0l0 100.53543l-119.433075 0z" fill-rule="evenodd"/><path fill="#bf9000" d="m-406.53735 148.0689l59.716522 -42.078735l59.716553 42.078735z" fill-rule="evenodd"/><path stroke="#bf9000" stroke-width="1.0" stroke-linejoin="round" stroke-linecap="butt" d="m-406.53735 148.0689l59.716522 -42.078735l59.716553 42.078735z" fill-rule="evenodd"/><path fill="#9a7917" fill-opacity="0.75" d="m-361.7498 189.52821l29.85794 0l0 0c1.9797668 0 3.8784485 0.78645325 5.278351 2.1863708c1.3999329 1.3999023 2.1863708 3.298584 2.1863708 5.278351l0 51.621887c0 2.1362305E-4 -1.5258789E-4 3.8146973E-4 -3.6621094E-4 3.8146973E-4l-44.787018 -3.8146973E-4l0 0c-2.1362305E-4 0 -3.9672852E-4 -1.5258789E-4 -3.9672852E-4 -3.6621094E-4l3.9672852E-4 -51.62152l0 0c0 -4.12265 3.3420715 -7.4647217 7.4647217 -7.4647217z" fill-rule="evenodd"/><path fill="#d0a213" fill-opacity="0.6" d="m-369.2145 248.59908l5.173218 -20.692902l34.44095 0l5.173218 20.692902z" fill-rule="evenodd"/><path fill="#7b5e06" fill-opacity="0.15" d="m-406.93958 153.87862l60.0 -27.732292l6.7952576 26.855644l-33.87137 4.6666718l-7.91864 15.97113l10.695526 11.388443l-1.2493286 10.8346405l-13.194244 1.5275726l-6.086609 9.83989l-8.24408 -0.8661499l2.1679688 -4.771652l-2.005249 -9.341202l-4.283478 -10.8346405l1.3018494 -12.362213z" fill-rule="evenodd"/><path fill="#a28017" d="m-361.58505 164.15521l3.8147888 -6.606659l6.606659 -3.8147736l7.629547 0l6.606659 3.8147736l3.8147888 6.606659l0 7.6295624l-3.8147888 6.606659l-6.606659 3.8147888l-7.629547 0l-6.606659 -3.8147888l-3.8147888 -6.606659z" fill-rule="evenodd"/><path fill="#7b5e06" fill-opacity="0.15" d="m-286.6559 248.91798l-8.472412 -40.139114l-5.9711304 -1.2493439l-2.3622131 13.750656l-11.527557 -9.307083l-4.443573 14.585297l6.1102295 17.637802l14.167969 4.165344z" fill-rule="evenodd"/><path fill="#7b5e06" fill-opacity="0.15" d="m-406.79523 248.77887l5.973755 -18.055115l5.5538025 0.2782135l8.750671 6.9448853l12.362183 0.832016l0 6.3884583l-9.86087 1.3910675l-9.863525 -1.8057709z" fill-rule="evenodd"/><path fill="#7b5e06" fill-opacity="0.15" d="m-286.65613 153.91798l-6.9448853 25.695526l-6.3884277 -0.8346405l-10.417328 6.1128693l-0.6929321 -9.167984l-4.0288696 -13.8897705l3.0551147 -8.887131l7.362213 -1.6666718l3.4724426 11.110245l4.7218018 -6.249344z" fill-rule="evenodd"/><path fill="#8c6d10" fill-opacity="0.45" d="m-362.8346 219.95473l3.2545776 -19.086624l6.7244263 0.8661499l7.8084106 8.026245l7.5905457 -4.989502l6.076111 18.005249l0.6509094 5.855652l-31.23883 -0.8661499l-2.3858337 -5.2073517z" fill-rule="evenodd"/><path fill="#7f6000" d="m-427.74274 178.66208l79.66141 -36.608932l0.8635254 -116.18897l-41.879272 20.595798l-28.81363 9.490814l-5.763794 21.695538l12.881897 24.068245l-17.288727 23.38845z" fill-rule="evenodd"/><path fill="#8c6d10" fill-opacity="0.45" d="m-403.53784 96.58326l23.287994 -35.986767l25.93518 20.638172l-13.231903 11.113991l4.233032 20.638176l-19.052826 22.227982l-8.996765 -10.585449l3.1758118 -16.934212z" fill-rule="evenodd"/><path fill="#7f6000" d="m-347.79266 25.84252l41.08139 22.580053l10.845123 17.351704l20.391083 5.2073517l6.5065613 29.068237l-5.855652 27.981628l8.241486 50.97638l-83.1286 -36.997375z" fill-rule="evenodd"/><path fill="#8c6d10" fill-opacity="0.45" d="m-335.11545 82.94948l14.56958 -29.803154l21.19159 32.451447l18.543304 -12.58268l8.608917 32.451447l-19.204712 23.83989l-25.826782 4.6351776l9.270355 -26.48819l-19.204742 -7.2860947z" fill-rule="evenodd"/><path fill="#b7b7b7" d="m-428.11548 134.46982l0.13909912 11.942261l79.5538 -34.10762l76.25986 32.01837l-1.7454224 -10.669281l-73.49606 -31.858276z" fill-rule="evenodd"/><path fill="#b7b7b7" d="m-423.3359 77.98491l4.908142 9.296585l70.68503 -31.328083l76.53543 32.19685l-2.4304504 -11.459312l-73.08661 -31.246723z" fill-rule="evenodd"/><path fill="#785a00" d="m-427.6824 161.31496l0.13909912 11.942261l79.5538 -34.107605l80.58005 34.561676l-1.8425293 -11.737534l-77.71915 -33.33333z" fill-rule="evenodd"/><path fill="#bf9000" d="m-604.54785 148.0627l119.433075 0l0 100.53543l-119.433075 0z" fill-rule="evenodd"/><path stroke="#bf9000" stroke-width="1.0" stroke-linejoin="round" stroke-linecap="butt" d="m-604.54785 148.0627l119.433075 0l0 100.53543l-119.433075 0z" fill-rule="evenodd"/><path fill="#bf9000" d="m-604.54785 148.0689l59.716553 -42.078735l59.716522 42.078735z" fill-rule="evenodd"/><path stroke="#bf9000" stroke-width="1.0" stroke-linejoin="round" stroke-linecap="butt" d="m-604.54785 148.0689l59.716553 -42.078735l59.716522 42.078735z" fill-rule="evenodd"/><path fill="#9a7917" fill-opacity="0.75" d="m-559.7603 189.52821l29.857971 0l0 0c1.9797974 0 3.878479 0.78645325 5.2783813 2.1863708c1.3999023 1.3999023 2.1863403 3.298584 2.1863403 5.278351l0 51.621887c0 2.1362305E-4 -1.8310547E-4 3.8146973E-4 -3.6621094E-4 3.8146973E-4l-44.78705 -3.8146973E-4l0 0c-1.8310547E-4 0 -3.6621094E-4 -1.5258789E-4 -3.6621094E-4 -3.6621094E-4l3.6621094E-4 -51.62152l0 0c0 -4.12265 3.342102 -7.4647217 7.4647217 -7.4647217z" fill-rule="evenodd"/><path fill="#d0a213" fill-opacity="0.6" d="m-567.22504 248.59908l5.173279 -20.692902l34.440918 0l5.173218 20.692902z" fill-rule="evenodd"/><path fill="#7b5e06" fill-opacity="0.15" d="m-604.9501 153.87862l60.0 -27.732292l6.795288 26.855644l-33.8714 4.6666718l-7.91864 15.97113l10.695557 11.388443l-1.2493896 10.8346405l-13.194214 1.5275726l-6.086609 9.83989l-8.24408 -0.8661499l2.1679688 -4.771652l-2.005249 -9.341202l-4.2834473 -10.8346405l1.3018188 -12.362213z" fill-rule="evenodd"/><path fill="#7b5e06" fill-opacity="0.15" d="m-484.6664 248.91798l-8.472443 -40.139114l-5.9711 -1.2493439l-2.3622131 13.750656l-11.527588 -9.307083l-4.4435425 14.585297l6.1102295 17.637802l14.167969 4.165344z" fill-rule="evenodd"/><path fill="#7b5e06" fill-opacity="0.15" d="m-604.8057 248.77887l5.973755 -18.055115l5.553833 0.2782135l8.75061 6.9448853l12.362244 0.832016l0 6.3884583l-9.860901 1.3910675l-9.863525 -1.8057709z" fill-rule="evenodd"/><path fill="#7b5e06" fill-opacity="0.15" d="m-484.66663 153.91798l-6.9448853 25.695526l-6.3884277 -0.8346405l-10.417328 6.1128693l-0.6929321 -9.167984l-4.028839 -13.8897705l3.0550842 -8.887131l7.362213 -1.6666718l3.4724426 11.110245l4.7218018 -6.249344z" fill-rule="evenodd"/><path fill="#8c6d10" fill-opacity="0.45" d="m-560.8451 219.95473l3.2545776 -19.086624l6.7244263 0.8661499l7.8084106 8.026245l7.590515 -4.989502l6.076111 18.005249l0.65093994 5.855652l-31.23883 -0.8661499l-2.3858643 -5.2073517z" fill-rule="evenodd"/><path fill="#7f6000" d="m-625.75323 202.66208l79.66144 -36.608932l0.8635254 -116.18897l-41.879272 20.595802l-28.81366 9.490814l-5.763794 21.695534l12.881897 24.068245l-17.288696 23.388443z" fill-rule="evenodd"/><path fill="#8c6d10" fill-opacity="0.45" d="m-601.54834 120.58326l23.287964 -35.986763l25.935242 20.638168l-13.231934 11.113991l4.233032 20.638176l-19.052856 22.227982l-8.996765 -10.585449l3.1758423 -16.934204z" fill-rule="evenodd"/><path fill="#7f6000" d="m-545.8032 49.843174l41.08139 22.580051l10.845154 17.351707l20.391052 5.2073517l6.5065613 29.068237l-5.8556213 27.981628l8.241455 50.97638l-82.212616 -36.876633z" fill-rule="evenodd"/><path fill="#8c6d10" fill-opacity="0.45" d="m-533.1259 106.94948l14.569519 -29.803154l21.19162 32.451447l18.543304 -12.58268l8.608917 32.451447l-19.204712 23.83989l-25.826752 4.6351776l9.270325 -26.48819l-19.204712 -7.2860947z" fill-rule="evenodd"/><path fill="#b7b7b7" d="m-626.126 158.46982l0.13909912 11.942261l79.55383 -34.10762l76.20996 32.123367l-1.7454224 -10.960632l-73.44617 -31.67192z" fill-rule="evenodd"/><path fill="#b7b7b7" d="m-621.34644 101.98491l4.908142 9.296585l70.68506 -31.32808l76.53543 32.196846l-2.4304504 -11.459312l-73.08661 -31.24672z" fill-rule="evenodd"/><path fill="#785a00" d="m-625.69293 185.31496l0.13909912 11.942261l79.55383 -34.107605l80.53018 34.56955l-1.9396362 -11.8346405l-77.572174 -33.244095z" fill-rule="evenodd"/><path fill="#bf9000" d="m44.750824 148.0627l119.433075 0l0 100.53543l-119.433075 0z" fill-rule="evenodd"/><path stroke="#bf9000" stroke-width="1.0" stroke-linejoin="round" stroke-linecap="butt" d="m44.750824 148.0627l119.433075 0l0 100.53543l-119.433075 0z" fill-rule="evenodd"/><path fill="#bf9000" d="m44.750824 148.0689l59.716537 -42.078735l59.716537 42.078735z" fill-rule="evenodd"/><path stroke="#bf9000" stroke-width="1.0" stroke-linejoin="round" stroke-linecap="butt" d="m44.750824 148.0689l59.716537 -42.078735l59.716537 42.078735z" fill-rule="evenodd"/><path fill="#9a7917" fill-opacity="0.75" d="m89.538376 189.52821l29.857971 0l0 0c1.9797592 0 3.8784409 0.78645325 5.278351 2.1863708c1.3999023 1.3999023 2.1863632 3.298584 2.1863632 5.278351l0 51.621887c0 2.1362305E-4 -1.6784668E-4 3.8146973E-4 -3.7384033E-4 3.8146973E-4l-44.787025 -3.8146973E-4l0 0c-2.0599365E-4 0 -3.7384033E-4 -1.5258789E-4 -3.7384033E-4 -3.6621094E-4l3.7384033E-4 -51.62152l0 0c0 -4.12265 3.342064 -7.4647217 7.464714 -7.4647217z" fill-rule="evenodd"/><path fill="#d0a213" fill-opacity="0.6" d="m82.07366 248.59908l5.1732254 -20.692902l34.44094 0l5.173233 20.692902z" fill-rule="evenodd"/><path fill="#7b5e06" fill-opacity="0.15" d="m44.34859 153.87862l60.000004 -27.732292l6.795273 26.855644l-33.87139 4.6666718l-7.9186325 15.97113l10.695534 11.388443l-1.2493439 10.8346405l-13.1942215 1.5275726l-6.0866165 9.83989l-8.244095 -0.8661499l2.1679802 -4.771652l-2.005249 -9.341202l-4.2834663 -10.8346405l1.3018379 -12.362213z" fill-rule="evenodd"/><path fill="#7b5e06" fill-opacity="0.15" d="m164.63228 248.91798l-8.472443 -40.139114l-5.9711304 -1.2493439l-2.3621979 13.750656l-11.527573 -9.307083l-4.4435577 14.585297l6.1102295 17.637802l14.167984 4.165344z" fill-rule="evenodd"/><path fill="#7b5e06" fill-opacity="0.15" d="m44.49295 248.77887l5.973751 -18.055115l5.5538063 0.2782135l8.750656 6.9448853l12.3622055 0.832016l0 6.3884583l-9.860893 1.3910675l-9.863518 -1.8057709z" fill-rule="evenodd"/><path fill="#7b5e06" fill-opacity="0.15" d="m164.63206 153.91798l-6.9448853 25.695526l-6.3884583 -0.8346405l-10.417328 6.1128693l-0.6929016 -9.167984l-4.0288696 -13.8897705l3.0551147 -8.887131l7.362198 -1.6666718l3.4724426 11.110245l4.7217865 -6.249344z" fill-rule="evenodd"/><path fill="#8c6d10" fill-opacity="0.45" d="m88.45358 219.95473l3.254593 -19.086624l6.7244034 0.8661499l7.808403 8.026245l7.5905533 -4.989502l6.076111 18.005249l0.65091705 5.855652l-31.238838 -0.8661499l-2.3858337 -5.2073517z" fill-rule="evenodd"/><path fill="#7f6000" d="m20.209742 168.22713l87.288246 8.123917l58.836456 -100.18624l-46.563698 -3.1018677l-29.697128 -6.18647l-15.838028 15.906418l-0.877388 27.283043l-26.664825 11.610565z" fill-rule="evenodd"/><path fill="#8c6d10" fill-opacity="0.45" d="m82.205475 109.252846l38.16062 -19.523949l12.143227 30.839333l-17.016136 3.0102615l-6.6521454 19.989838l-27.613945 9.725449l-2.499466 -13.665222l11.216835 -13.078148z" fill-rule="evenodd"/><path fill="#7f6000" d="m165.84868 75.86119l24.286957 40.092613l0.7167511 20.448357l15.054962 14.703995l-8.898071 28.425629l-19.060318 21.304153l-18.348633 48.26512l-52.75844 -73.036804z" fill-rule="evenodd"/><path fill="#999999" fill-opacity="0.65" d="m148.2763 131.65329l27.51709 -18.52504l2.127533 38.697205l22.348938 -1.6256866l-8.76889 32.40651l-28.549774 11.043594l-24.682953 -8.898102l21.270752 -18.303665l-12.988342 -15.9110565z" fill-rule="evenodd"/><path fill="#999999" d="m41.97895 129.77243l-5.8500633 10.411377l85.94452 10.236221l49.93666 65.919525l3.9682617 -10.364365l-47.76895 -64.146835z" fill-rule="evenodd"/><path fill="#b7b7b7" d="m74.35912 83.24587l-0.3974533 10.504532l76.87468 8.209312l50.181763 66.145874l3.6243439 -11.138702l-47.67015 -63.59884z" fill-rule="evenodd"/><path fill="#785a00" d="m28.932093 153.237l-5.8500633 10.411362l85.94453 10.236221l52.454918 70.197784l4.23703 -11.218353l-50.555992 -67.57109z" fill-rule="evenodd"/><path fill="#bf9000" fill-opacity="0.75" d="m73.58452 121.826614l0 0c1.3454361 -1.3472824 3.5272598 -1.3477249 4.8732376 -9.841919E-4l26.546783 26.56173c0.6463623 0.6467285 1.0095901 1.5239868 1.0097733 2.4387817c1.8310547E-4 0.9147949 -0.36268616 1.7921906 -1.0087891 2.4391785l-9.744202 9.757614c-1.3454361 1.34729 -3.5272598 1.3477325 -4.8732376 9.918213E-4l-26.54678 -26.561737c-1.3459816 -1.3467407 -1.3464241 -3.5306854 -9.918213E-4 -4.87796z" fill-rule="evenodd"/><path fill="#d0a213" fill-opacity="0.6" d="m71.63949 135.66531l5.59317 8.8485565l9.31179 5.252899l3.4024048 6.7318115l9.072876 -1.8567505l-2.3702698 -8.2920685l-8.798264 -6.0337067l-2.9854965 -6.006027l-5.622925 1.5556793l-0.18202972 -6.175995l-5.870323 -0.95880127z" fill-rule="evenodd"/><path fill="#bf9000" d="m187.41447 118.05483l0 0c1.0293121 0.59413147 1.3820496 1.9101639 0.78790283 2.9394531l-11.703232 20.273888c-0.2853241 0.49427795 -0.7553253 0.85498047 -1.3065948 1.0027466c-0.5512543 0.14775085 -1.1386566 0.07048035 -1.6329346 -0.21482849l-7.4546204 -4.302948c-1.0293121 -0.59413147 -1.3820496 -1.9101715 -0.78790283 -2.9394531l11.703232 -20.273895c0.594162 -1.0292816 1.9102325 -1.3820419 2.9395294 -0.78791046z" fill-rule="evenodd"/><path fill="#d0a213" fill-opacity="0.6" d="m178.76662 119.11866l-4.427109 4.796707l-1.6613464 6.456291l-3.505661 3.1355896l2.5823822 5.165146l4.6119843 -2.765686l2.2144928 -6.2729797l3.135788 -2.7673721l-1.8443451 -3.1357574l3.6905518 -1.1062241l-0.36976624 -3.6905136z" fill-rule="evenodd"/><path fill="#999999" fill-opacity="0.75" d="m100.01256 81.480316l3.703415 25.46457l13.427818 4.165352l-1.8530121 -28.238846z" fill-rule="evenodd"/><path fill="#999999" fill-opacity="0.65" d="m50.01256 223.61154l17.593174 -14.3517l8.333336 6.9448853l15.2782135 -7.871399l21.296585 10.6483l11.110237 -1.3884583l8.333336 15.740158l-17.593178 7.40683l-14.813644 -8.333328l-26.38845 10.18634l9.291336 6.346466l-38.028873 0.15222168l-0.15222931 -21.97113z" fill-rule="evenodd"/></g></svg>