<svg version="1.1" viewBox="0.0 0.0 256.0 256.0" fill="none" stroke="none" stroke-linecap="square" stroke-miterlimit="10" xmlns:xlink="http://www.w3.org/1999/xlink" xmlns="http://www.w3.org/2000/svg"><clipPath id="p.0"><path d="m0 0l256.0 0l0 256.0l-256.0 0l0 -256.0z" clip-rule="nonzero"/></clipPath><g clip-path="url(#p.0)"><path fill="#000000" fill-opacity="0.0" d="m0 0l256.0 0l0 256.0l-256.0 0z" fill-rule="evenodd"/><path fill="#7f6000" d="m0 65.05728l0 0c0 -35.930145 29.127136 -65.05728 65.05728 -65.05728l125.88544 0l0 0c17.254272 0 33.801834 6.8542295 46.00244 19.054836c12.200607 12.200607 19.05484 28.74818 19.05484 46.002445l0 125.88544c0 35.930145 -29.127136 65.05728 -65.05728 65.05728l-125.88544 0l0 0c-35.930145 0 -65.05728 -29.127136 -65.05728 -65.05728z" fill-rule="evenodd"/><path fill="#bf9000" d="m102.614174 58.708702l0 0c0 -11.976337 9.70874 -21.685081 21.685081 -21.685081l7.4014893 0l0 0c5.751236 0 11.266922 2.2846718 15.333664 6.3514137c4.066742 4.066742 6.351425 9.582428 6.351425 15.333668l0 138.58258c0 11.976349 -9.7087555 21.68509 -21.68509 21.68509l-7.4014893 0c-11.976341 0 -21.685081 -9.70874 -21.685081 -21.68509z" fill-rule="evenodd"/><path fill="#bf9000" d="m197.29129 102.614174l0 0c11.976349 0 21.68509 9.70874 21.68509 21.685081l0 7.4014893l0 0c0 5.751236 -2.284668 11.266922 -6.35141 15.333664c-4.066742 4.066742 -9.582428 6.351425 -15.333679 6.351425l-138.58258 0c-11.976337 0 -21.685081 -9.7087555 -21.685081 -21.68509l0 -7.4014893c0 -11.976341 9.708744 -21.685081 21.685081 -21.685081z" fill-rule="evenodd"/></g></svg>