<svg version="1.1" viewBox="0.0 0.0 1024.0 512.0" fill="none" stroke="none" stroke-linecap="square" stroke-miterlimit="10" xmlns:xlink="http://www.w3.org/1999/xlink" xmlns="http://www.w3.org/2000/svg"><clipPath id="p.0"><path d="m0 0l1024.0 0l0 512.0l-1024.0 0l0 -512.0z" clip-rule="nonzero"/></clipPath><g clip-path="url(#p.0)"><path fill="#8e6d08" d="m0 0l1024.0 0l0 512.0l-1024.0 0z" fill-rule="evenodd"/><path fill="#856607" d="m25.257217 129.65092l96.26509 -80.39633l81.45407 30.677162l92.03412 -44.42782l57.123352 28.561684l116.36484 -8.464569l59.23886 46.54593l-3.1732178 66.64567l-77.223114 47.603683l59.23883 103.66928l-95.20734 25.388458l-98.380585 -19.041992l-98.37796 45.48819l-85.68765 -42.314972l34.91075 -41.254578l-90.97637 -45.488205l10.580055 -56.065613l-64.53019 -21.157486z" fill-rule="evenodd"/><path fill="#856607" d="m687.6037 303.9008l53.3161 -17.77301l47.38983 -11.846741l41.46936 -28.435059l61.608826 -23.696365l59.239502 21.327026l33.173706 61.60881l0 43.838745l-30.804382 29.619751l27.250366 73.455536l-58.05475 36.727753l-58.05481 -34.35843l-66.347534 21.327057l-77.01251 -30.804413l51.48181 -36.886505l-49.327026 -24.663513l0.21459961 -29.678558l-29.466919 -12.190643z" fill-rule="evenodd"/><path fill="#856607" d="m677.7533 99.63517l81.45404 -47.601048l96.26245 21.154858l66.64569 -41.254597l58.18109 24.330708l-10.577393 58.181107l-53.950134 19.041992l-53.950134 21.157486l-60.299194 -9.522324l-13.750671 32.795288l-69.81891 -14.811035l-33.850403 39.139114l-40.199463 -17.981628l24.330688 -32.795273l-33.850403 -29.619423l-7.404175 -44.427826z" fill-rule="evenodd"/><path fill="#856607" d="m60.29659 464.39633l46.545933 -25.388458l55.007866 15.868774l31.737534 -22.21524l46.54332 13.750671l15.868759 -7.4042053l25.388458 16.926514l63.46982 3.1732178l-1.0577393 26.446198l-61.35434 13.753296l-66.645676 -4.233612l-42.312332 11.637787l-77.2231 -12.695526l-60.299213 7.40683z" fill-rule="evenodd"/><path fill="#b09133" d="m64.27198 426.21097c-0.5171852 -3.1888733 -1.5852089 -15.674652 -0.21164703 -19.491425c1.373558 -3.8167725 5.8681564 -4.0425415 8.453011 -3.4092102c2.5848541 0.6333313 6.048332 5.7102356 7.056114 7.209137c1.0077896 1.4989319 -0.41516113 2.0812378 -1.009407 1.7843933c-0.59425354 -0.29684448 -1.1087265 -2.3118896 -2.5560913 -3.5655212c-1.4473724 -1.2536011 -4.473976 -4.0588074 -6.128113 -3.9562378c-1.654129 0.10256958 -3.3446274 1.059906 -3.796692 4.5716553c-0.4520645 3.5117798 1.385498 13.689484 1.0843048 16.499023c-0.30119324 2.8095093 -2.3742905 3.547058 -2.8914795 0.3581848z" fill-rule="evenodd"/><path fill="#c3a13b" d="m35.969124 457.22906l0 0c0 -17.393463 14.100189 -31.493652 31.49366 -31.493652l0 0c8.352631 0 16.363167 3.3180847 22.269371 9.224274c5.906212 5.9062195 9.224281 13.916748 9.224281 22.269379l0 0c0 17.393494 -14.100189 31.493683 -31.493652 31.493683l0 0c-17.39347 0 -31.49366 -14.100189 -31.49366 -31.493683z" fill-rule="evenodd"/><path fill="#c3a13b" d="m54.92002 419.26874l0 0c0 -1.8271484 1.4811897 -3.308319 3.3083344 -3.308319l18.46885 0c0.87742615 0 1.7189102 0.34854126 2.3393478 0.9689636c0.62043 0.6204529 0.9689865 1.4619446 0.9689865 2.3393555l0 13.232941c0 1.8271484 -1.4811935 3.308319 -3.3083344 3.308319l-18.46885 0l0 0c-1.8271446 0 -3.3083344 -1.4811707 -3.3083344 -3.308319z" fill-rule="evenodd"/><path fill="#cfac43" d="m54.53462 464.24802l0 0c0 -9.593231 7.776848 -17.370087 17.370075 -17.370087l0 0c4.6068344 0 9.024979 1.8300476 12.282501 5.0875854c3.2575226 3.2575073 5.087578 7.675659 5.087578 12.282501l0 0c0 9.593231 -7.776848 17.370056 -17.370079 17.370056l0 0c-9.593227 0 -17.370075 -7.776825 -17.370075 -17.370056z" fill-rule="evenodd"/><path fill="#b09133" d="m973.09875 433.7464c-0.5172119 -3.1888733 -1.5852051 -15.674652 -0.21166992 -19.491425c1.3735962 -3.8167725 5.868164 -4.0425415 8.453003 -3.4092102c2.5849 0.6333313 6.04834 5.7102356 7.0561523 7.209137c1.0077515 1.4989319 -0.41516113 2.0812378 -1.0093994 1.7843933c-0.5942993 -0.29684448 -1.1087646 -2.3118896 -2.5560913 -3.5654907c-1.4473877 -1.2536316 -4.473999 -4.058838 -6.128113 -3.9562683c-1.6541748 0.10256958 -3.3446655 1.059906 -3.796692 4.571686c-0.4520874 3.5117493 1.385498 13.689453 1.0842896 16.498993c-0.3012085 2.8095398 -2.3742676 3.547058 -2.8914795 0.3581848z" fill-rule="evenodd"/><path fill="#c3a13b" d="m944.7959 464.7645l0 0c0 -17.393463 14.100159 -31.493652 31.493652 -31.493652l0 0c8.352661 0 16.36316 3.3180847 22.26941 9.224274c5.906189 5.9062195 9.224243 13.916748 9.224243 22.269379l0 0c0 17.393494 -14.100159 31.493683 -31.493652 31.493683l0 0c-17.393494 0 -31.493652 -14.100189 -31.493652 -31.493683z" fill-rule="evenodd"/><path fill="#c3a13b" d="m963.74677 426.80417l0 0c0 -1.8271484 1.4812012 -3.308319 3.3083496 -3.308319l18.468872 0c0.8774414 0 1.7189331 0.34854126 2.3393555 0.9689636c0.62042236 0.6204529 0.96899414 1.4619446 0.96899414 2.3393555l0 13.232941c0 1.8271484 -1.4812012 3.308319 -3.3083496 3.308319l-18.468872 0l0 0c-1.8271484 0 -3.3083496 -1.4811707 -3.3083496 -3.308319z" fill-rule="evenodd"/><path fill="#cfac43" d="m963.3614 471.78345l0 0c0 -9.593231 7.7768555 -17.370087 17.370056 -17.370087l0 0c4.6068726 0 9.025024 1.8300476 12.282532 5.0875854c3.2575073 3.2575073 5.0875854 7.675659 5.0875854 12.282501l0 0c0 9.593231 -7.7768555 17.370087 -17.370117 17.370087l0 0c-9.593201 0 -17.370056 -7.7768555 -17.370056 -17.370087z" fill-rule="evenodd"/><path fill="#b09133" d="m913.9956 392.64127c-0.736145 -4.5388794 -2.2563477 -22.310425 -0.30126953 -27.743011c1.9550171 -5.432556 8.352417 -5.7539062 12.031555 -4.852478c3.6791382 0.90145874 8.608826 8.1276245 10.043274 10.261108c1.4343872 2.133484 -0.5909424 2.9623108 -1.4367676 2.539795c-0.8458252 -0.42251587 -1.578064 -3.2905884 -3.6381836 -5.0749207c-2.0601196 -1.7843628 -6.367981 -5.7770996 -8.722412 -5.6311035c-2.35437 0.1459961 -4.760559 1.5085754 -5.4039917 6.5070496c-0.6434326 4.9984436 1.9720459 19.484802 1.543335 23.483734c-0.42871094 3.998932 -3.3794556 5.0486755 -4.1155396 0.50982666z" fill-rule="evenodd"/><path fill="#c3a13b" d="m873.7109 436.7907l0 0c0 -24.756897 20.069397 -44.826294 44.826294 -44.826294l0 0c11.888672 0 23.290405 4.722748 31.69696 13.129303c8.406616 8.406555 13.1293335 19.80832 13.1293335 31.696991l0 0c0 24.756866 -20.069397 44.826294 -44.826294 44.826294l0 0c-24.756897 0 -44.826294 -20.069427 -44.826294 -44.826294z" fill-rule="evenodd"/><path fill="#c3a13b" d="m900.6845 382.7601l0 0c0 -2.600647 2.1082764 -4.708893 4.7089233 -4.708893l26.287537 0c1.2488403 0 2.4465942 0.49609375 3.3296509 1.3791809c0.8831177 0.88308716 1.3792114 2.080841 1.3792114 3.329712l0 18.834991c0 2.6006775 -2.1082153 4.708893 -4.7088623 4.708893l-26.287537 0l0 0c-2.600647 0 -4.7089233 -2.1082153 -4.7089233 -4.708893z" fill-rule="evenodd"/><path fill="#cfac43" d="m900.13824 446.77756l0 0c0 -13.654938 11.069458 -24.724426 24.724426 -24.724426l0 0c6.557312 0 12.846069 2.604889 17.482788 7.2416077c4.6367188 4.6367493 7.241577 10.925476 7.241577 17.482819l0 0c0 13.654907 -11.069458 24.724396 -24.724365 24.724396l0 0c-13.654968 0 -24.724426 -11.069489 -24.724426 -24.724396z" fill-rule="evenodd"/><path fill="#b09133" d="m861.7452 423.81473c-0.5802002 -3.5772705 -1.7783203 -17.583801 -0.23742676 -21.865479c1.5408325 -4.2816467 6.5828857 -4.534912 9.482544 -3.8244324c2.8997192 0.7104492 6.785034 6.405731 7.9155884 8.087219c1.1304932 1.681488 -0.46575928 2.3347473 -1.1323853 2.0017395c-0.666626 -0.33303833 -1.2437744 -2.5934753 -2.8674316 -3.9997864c-1.6236572 -1.406311 -5.018921 -4.553192 -6.8745117 -4.4381104c-1.8555908 0.11505127 -3.7520142 1.1889648 -4.259094 5.128479c-0.5071411 3.9395142 1.5542603 15.356842 1.2163696 18.508575c-0.33789062 3.1517334 -2.6635132 3.9790955 -3.2436523 0.40179443z" fill-rule="evenodd"/><path fill="#c3a13b" d="m829.995 458.61087l0 0c0 -19.511993 15.817627 -35.32959 35.32959 -35.32959l0 0c9.369995 0 18.356201 3.722229 24.981812 10.347809c6.6255493 6.62558 10.347778 15.611786 10.347778 24.981781l0 0c0 19.511993 -15.817566 35.32959 -35.32959 35.32959l0 0c-19.511963 0 -35.32959 -15.817596 -35.32959 -35.32959z" fill-rule="evenodd"/><path fill="#c3a13b" d="m851.25415 416.02695l0 0c0 -2.0496826 1.66156 -3.7112732 3.7112427 -3.7112732l20.718384 0c0.98431396 0 1.9282837 0.39102173 2.6242676 1.0870056c0.6959839 0.6960144 1.0870361 1.6399841 1.0870361 2.6242676l0 14.844727c0 2.0496826 -1.6616211 3.7112732 -3.7113037 3.7112732l-20.718384 0l0 0c-2.0496826 0 -3.7112427 -1.6615906 -3.7112427 -3.7112732z" fill-rule="evenodd"/><path fill="#cfac43" d="m850.8218 466.4847l0 0c0 -10.761688 8.72406 -19.485748 19.485779 -19.485748l0 0c5.1679077 0 10.124207 2.052948 13.778503 5.707245c3.6542969 3.6542664 5.7072144 8.610565 5.7072144 13.778503l0 0c0 10.761688 -8.72406 19.485748 -19.485718 19.485748l0 0c-10.761719 0 -19.485779 -8.72406 -19.485779 -19.485748z" fill-rule="evenodd"/><path fill="#b09133" d="m108.108475 455.78485c-0.36554718 -2.2535706 -1.12043 -11.0772705 -0.14959717 -13.774567c0.9708328 -2.6973267 4.1476135 -2.8568726 5.974594 -2.4093018c1.826973 0.4475708 4.2749557 4.035431 4.987259 5.094696c0.71230316 1.0592957 -0.29343414 1.4708252 -0.7134476 1.2610474c-0.42002106 -0.20980835 -0.78365326 -1.6338196 -1.8066483 -2.5197449c-1.0230026 -0.8859558 -3.1622086 -2.8683777 -4.3313446 -2.7958984c-1.1691437 0.072509766 -2.3639832 0.74902344 -2.6835022 3.2308044c-0.31951904 2.481781 0.97927094 9.674347 0.7663803 11.659851c-0.212883 1.9855042 -1.6781464 2.5066833 -2.0436935 0.2531128z" fill-rule="evenodd"/><path fill="#c3a13b" d="m88.10401 477.70535l0 0c0 -12.291962 9.966019 -22.256561 22.25972 -22.256561l0 0c5.9036407 0 11.565491 2.3448792 15.739998 6.518799c4.1744995 4.1739197 6.5197144 9.834961 6.5197144 15.737762l0 0c0 12.291962 -9.966011 22.256592 -22.259712 22.256592l0 0c-12.293701 0 -22.25972 -9.96463 -22.25972 -22.256592z" fill-rule="evenodd"/><path fill="#c3a13b" d="m101.498505 450.87878l0 0c0 -1.2912292 1.0467606 -2.3379822 2.338005 -2.3379822l13.054443 0c0.62007904 0 1.2147522 0.24630737 1.6532135 0.68478394c0.4384613 0.43844604 0.68478394 1.0331421 0.68478394 1.6531982l0 9.351715c0 1.2912598 -1.0467529 2.3380127 -2.3379974 2.3380127l-13.054443 0l0 0c-1.2912445 0 -2.338005 -1.0467529 -2.338005 -2.3380127z" fill-rule="evenodd"/><path fill="#cfac43" d="m101.226105 482.66565l0 0c0 -6.779541 5.496681 -12.275452 12.277176 -12.275452l0 0c3.2561035 0 6.378853 1.2933044 8.681267 3.595398c2.302414 2.3020935 3.5959015 5.424408 3.5959015 8.680054l0 0c0 6.779541 -5.4966736 12.275421 -12.277168 12.275421l0 0c-6.7804947 0 -12.277176 -5.49588 -12.277176 -12.275421z" fill-rule="evenodd"/><path fill="#b09133" d="m466.6811 445.95352c-0.447052 -2.756134 -1.3702698 -13.547607 -0.18295288 -16.846436c1.1872864 -3.2988281 5.072418 -3.4939575 7.3067627 -2.9465637c2.234375 0.5473633 5.22818 4.9353333 6.0993347 6.2308655c0.87112427 1.2955322 -0.35888672 1.7987976 -0.8725586 1.5422363c-0.5136719 -0.25656128 -0.958374 -1.998169 -2.2094727 -3.081665c-1.2510986 -1.0834961 -3.8673096 -3.5080261 -5.2971497 -3.4193726c-1.4298096 0.088653564 -2.8910828 0.91604614 -3.2818604 3.951294c-0.39074707 3.0352173 1.1976318 11.831787 0.9372864 14.260071c-0.26034546 2.4282837 -2.0523376 3.0657349 -2.4993896 0.3095703z" fill-rule="evenodd"/><path fill="#c3a13b" d="m442.2161 472.76248l0 0c0 -15.033173 12.188202 -27.21997 27.223114 -27.21997l0 0c7.2200317 0 14.144318 2.8678284 19.249634 7.9725647c5.1053467 5.1047363 7.97348 12.028229 7.97348 19.247406l0 0c0 15.033173 -12.188202 27.21997 -27.223114 27.21997l0 0c-15.034912 0 -27.223114 -12.186798 -27.223114 -27.21997z" fill-rule="evenodd"/><path fill="#c3a13b" d="m458.59726 439.95337l0 0c0 -1.5791931 1.2801819 -2.8594055 2.859375 -2.8594055l15.965149 0c0.7583618 0 1.4856567 0.30126953 2.021881 0.8375244c0.5362549 0.53622437 0.8374939 1.2635193 0.8374939 2.021881l0 11.437225c0 1.5791931 -1.2801819 2.8594055 -2.859375 2.8594055l-15.965149 0l0 0c-1.5791931 0 -2.859375 -1.2802124 -2.859375 -2.8594055z" fill-rule="evenodd"/><path fill="#cfac43" d="m458.2641 478.82895l0 0c0 -8.291412 6.7223206 -15.012939 15.014709 -15.012939l0 0c3.9821472 0 7.801178 1.5816956 10.616974 4.3971863c2.8158264 2.8154602 4.397705 6.6340637 4.397705 10.615753l0 0c0 8.291443 -6.72229 15.01297 -15.014679 15.01297l0 0c-8.292389 0 -15.014709 -6.721527 -15.014709 -15.01297z" fill-rule="evenodd"/><path fill="#b09133" d="m513.0109 428.41586c-0.44702148 -2.7557983 -1.3702393 -13.5460205 -0.18292236 -16.844482c1.1873169 -3.2984314 5.0724487 -3.4935608 7.3067627 -2.946228c2.234375 0.54733276 5.2282104 4.934784 6.099304 6.2301636c0.8711548 1.2953491 -0.35888672 1.798584 -0.87249756 1.5420532c-0.5136719 -0.25653076 -0.95843506 -1.9979248 -2.2095337 -3.0812988c-1.2510986 -1.0834045 -3.8673096 -3.5076294 -5.297119 -3.4190063c-1.4298096 0.088653564 -2.8911133 0.9159546 -3.2818604 3.9508362c-0.39074707 3.0348816 1.1976318 11.830444 0.93725586 14.258453c-0.26031494 2.4279785 -2.0523071 3.0653381 -2.4993896 0.30950928z" fill-rule="evenodd"/><path fill="#c3a13b" d="m488.54596 455.22174l0 0c0 -15.031433 12.188202 -27.216827 27.223083 -27.216827l0 0c7.2200317 0 14.144348 2.8674927 19.249695 7.9716187c5.1052856 5.1041565 7.9734497 12.026855 7.9734497 19.245209l0 0c0 15.031433 -12.188232 27.216827 -27.223145 27.216827l0 0c-15.034882 0 -27.223083 -12.185394 -27.223083 -27.216827z" fill-rule="evenodd"/><path fill="#c3a13b" d="m504.9271 422.4164l0 0c0 -1.57901 1.2800598 -2.8590698 2.8590698 -2.8590698l15.96579 0c0.7583008 0 1.4854736 0.301239 2.0216675 0.83740234c0.53619385 0.53619385 0.83740234 1.2633972 0.83740234 2.0216675l0 11.435913c0 1.57901 -1.2800293 2.8590393 -2.8590698 2.8590393l-15.96579 0l0 0c-1.57901 0 -2.8590698 -1.2800293 -2.8590698 -2.8590393z" fill-rule="evenodd"/><path fill="#cfac43" d="m504.59396 461.2875l0 0c0 -8.290466 6.72229 -15.01123 15.014679 -15.01123l0 0c3.9821777 0 7.8012085 1.581543 10.617004 4.396698c2.815796 2.8151245 4.397705 6.633301 4.397705 10.614532l0 0c0 8.290466 -6.72229 15.01123 -15.014709 15.01123l0 0c-8.292389 0 -15.014679 -6.720764 -15.014679 -15.01123z" fill-rule="evenodd"/></g></svg>