<svg version="1.1" viewBox="0.0 0.0 256.0 256.0" fill="none" stroke="none" stroke-linecap="square" stroke-miterlimit="10" xmlns:xlink="http://www.w3.org/1999/xlink" xmlns="http://www.w3.org/2000/svg"><clipPath id="p.0"><path d="m0 0l256.0 0l0 256.0l-256.0 0l0 -256.0z" clip-rule="nonzero"/></clipPath><g clip-path="url(#p.0)"><path fill="#6aa84f" d="m0 0l256.0 0l0 256.0l-256.0 0z" fill-rule="evenodd"/><path fill="#83b26e" d="m332.2293 237.95969c-5.9943237 -5.55336 -13.044617 -32.08748 -12.16272 -33.850388c0.88186646 -1.7629089 13.839874 23.62555 17.45404 23.272964c3.6141968 -0.35258484 2.115509 -25.123795 4.2309875 -25.388443c2.1154785 -0.2646637 5.376648 22.919067 8.461945 23.800522c3.0852966 0.88145447 9.080048 -20.451004 10.049866 -18.51181c0.9698181 1.9391937 0.44137573 25.034119 -4.2309875 30.146973c-4.672333 5.1128693 -17.808807 6.083557 -23.803131 0.5301819z" fill-rule="evenodd"/><path fill="#83b26e" d="m418.6414 226.45575c-5.9943237 -5.55336 -13.044617 -32.08748 -12.16275 -33.850388c0.881897 -1.7629089 13.839905 23.62555 17.454071 23.272964c3.6141663 -0.35258484 2.1154785 -25.123795 4.2309875 -25.388443c2.1154785 -0.2646637 5.3766174 22.919067 8.461945 23.800522c3.0852966 0.88145447 9.080048 -20.451004 10.049866 -18.51181c0.9698181 1.9391937 0.44137573 25.034119 -4.2309875 30.146973c-4.672333 5.1128693 -17.808838 6.083557 -23.803131 0.5301819z" fill-rule="evenodd"/><path fill="#83b26e" d="m494.80673 241.85995c-5.9943237 -5.55336 -13.044617 -32.087494 -12.16272 -33.850388c0.88186646 -1.7629089 13.839874 23.62555 17.454071 23.272964c3.6141663 -0.35258484 2.1154785 -25.123795 4.230957 -25.388458c2.1154785 -0.26464844 5.376648 22.919083 8.461914 23.800522c3.0853271 0.88145447 9.080078 -20.451004 10.049927 -18.51181c0.9697876 1.9391937 0.4413452 25.034134 -4.231018 30.146988c-4.6723633 5.112854 -17.808807 6.083557 -23.803131 0.5301819z" fill-rule="evenodd"/><path fill="#83b26e" d="m313.32117 159.545c-5.9943237 -5.5533752 -13.044617 -32.087494 -12.16272 -33.850395c0.88186646 -1.7629089 13.839874 23.625542 17.454071 23.272972c3.6141663 -0.35258484 2.1154785 -25.123802 4.230957 -25.388458c2.1154785 -0.26465607 5.376648 22.919067 8.461945 23.800522c3.0852966 0.88145447 9.080048 -20.451004 10.049866 -18.51181c0.9698181 1.9391937 0.44137573 25.034119 -4.230957 30.146988c-4.6723633 5.112854 -17.808838 6.083542 -23.803162 0.5301819z" fill-rule="evenodd"/><path fill="#83b26e" d="m390.0797 161.0673c-5.9943237 -5.5533752 -13.044647 -32.087494 -12.16275 -33.850395c0.881897 -1.7629013 13.839905 23.625542 17.454071 23.272972c3.6141663 -0.35258484 2.1154785 -25.123802 4.2309875 -25.388458c2.1154785 -0.26465607 5.3766174 22.919067 8.461945 23.800522c3.0852966 0.88145447 9.080048 -20.451004 10.049866 -18.51181c0.9698181 1.9391937 0.44137573 25.034119 -4.2309875 30.146988c-4.6723633 5.112854 -17.808838 6.083542 -23.803131 0.5301819z" fill-rule="evenodd"/><path fill="#83b26e" d="m316.9537 35.967567c-5.994293 -5.5533676 -13.044617 -32.08749 -12.16272 -33.850395c0.881897 -1.7629045 13.839905 23.625547 17.454071 23.272966c3.6141663 -0.35258102 2.1154785 -25.123798 4.230957 -25.388453c2.115509 -0.26465443 5.376648 22.919073 8.461945 23.800526c3.0852966 0.88145256 9.080048 -20.451006 10.049866 -18.51181c0.9698181 1.9391952 0.44140625 25.034122 -4.230957 30.146984c-4.6723633 5.112858 -17.808838 6.0835495 -23.803162 0.5301819z" fill-rule="evenodd"/><path fill="#83b26e" d="m416.69388 47.678852c-5.9943237 -5.5533676 -13.044617 -32.087486 -12.16275 -33.85039c0.881897 -1.7629042 13.839905 23.625546 17.454071 23.272964c3.6141968 -0.35258102 2.115509 -25.123796 4.2309875 -25.38845c2.1154785 -0.26465416 5.376648 22.919071 8.461945 23.800526c3.0852966 0.88145065 9.080048 -20.451008 10.049866 -18.511812c0.9698181 1.9391956 0.44137573 25.03412 -4.2309875 30.146982c-4.672333 5.1128616 -17.808838 6.0835533 -23.803131 0.5301819z" fill-rule="evenodd"/><path fill="#83b26e" d="m488.69388 49.991188c-5.9943237 -5.5533676 -13.044617 -32.087486 -12.16275 -33.85039c0.881897 -1.7629051 13.839905 23.625546 17.454071 23.272964c3.6141968 -0.35258102 2.115509 -25.123796 4.2309875 -25.38845c2.1154785 -0.26465416 5.376648 22.919071 8.461945 23.800526c3.0852966 0.88145065 9.080048 -20.451006 10.049835 -18.511812c0.96984863 1.9391956 0.44140625 25.03412 -4.230957 30.146982c-4.672333 5.1128616 -17.808838 6.0835533 -23.803131 0.5301819z" fill-rule="evenodd"/><path fill="#83b26e" d="m486.80673 118.290405c-5.9943237 -5.5533676 -13.044617 -32.087494 -12.16272 -33.850395c0.88186646 -1.7629089 13.839874 23.625542 17.454071 23.272964c3.6141663 -0.3525772 2.1154785 -25.123795 4.230957 -25.38845c2.1154785 -0.26465607 5.376648 22.919075 8.461945 23.800522c3.0852966 0.88145447 9.080048 -20.451004 10.049896 -18.51181c0.9697876 1.9391937 0.4413452 25.034119 -4.2309875 30.14698c-4.6723633 5.1128616 -17.808838 6.083557 -23.803162 0.5301895z" fill-rule="evenodd"/><path fill="#83b26e" d="m475.6335 177.99382c-5.9943237 -5.5533752 -13.044617 -32.087494 -12.16275 -33.850403c0.881897 -1.7628937 13.839905 23.62555 17.454071 23.272964c3.6141663 -0.35256958 2.1154785 -25.123795 4.2309875 -25.388443c2.1154785 -0.2646637 5.3766174 22.919067 8.461945 23.800522c3.0852966 0.88145447 9.080048 -20.451004 10.049866 -18.51181c0.9698181 1.9391937 0.44137573 25.034119 -4.2309875 30.146988c-4.672333 5.112854 -17.808838 6.083542 -23.803131 0.5301819z" fill-rule="evenodd"/><path fill="#83b26e" d="m366.44452 94.8862c-5.994293 -5.5533676 -13.044617 -32.087486 -12.16272 -33.85039c0.881897 -1.7629051 13.839905 23.625546 17.454071 23.272968c3.6141663 -0.35258484 2.1154785 -25.123798 4.230957 -25.388454c2.115509 -0.26465225 5.376648 22.919071 8.461945 23.800526c3.0852966 0.88145447 9.080048 -20.451004 10.049866 -18.51181c0.9698181 1.9391937 0.44140625 25.034119 -4.230957 30.14698c-4.6723633 5.1128616 -17.808838 6.0835495 -23.803162 0.5301819z" fill-rule="evenodd"/><path fill="#38761d" d="m-156.5611 59.31921c3.526245 1.0577431 7.1404266 3.1745415 12.1653595 -0.5275574c5.024933 -3.7021027 16.485558 -16.2196 17.984245 -21.68504c1.4986877 -5.4654427 -5.37751 -11.5481205 -8.992119 -11.107613c-3.6146088 0.44050598 -11.284775 16.39545 -12.695541 13.750656c-1.4107666 -2.6447945 6.082245 -23.62511 4.2309723 -29.619423c-1.8512726 -5.9943132 -12.517944 -10.313211 -15.338577 -6.3464565c-2.8206482 3.9667542 1.5 27.590551 -1.5853119 30.146982c-3.0852966 2.5564308 -13.400253 -14.896765 -16.926514 -14.808399c-3.526245 0.08836365 -6.2585297 9.784777 -4.230957 15.338581c2.0275574 5.5538063 12.164917 13.841209 16.396317 17.984253c4.231415 4.1430435 5.4658813 5.8162727 8.992126 6.874016z" fill-rule="evenodd"/><path fill="#38761d" d="m-95.73491 167.67061l29.322838 -26.173218l29.322834 26.173218z" fill-rule="evenodd"/><path stroke="#38761d" stroke-width="4.0" stroke-linejoin="round" stroke-linecap="butt" d="m-95.73491 167.67061l29.322838 -26.173218l29.322834 26.173218z" fill-rule="evenodd"/><path fill="#38761d" d="m-93.23097 149.7504l26.818901 -26.173225l26.818897 26.173225z" fill-rule="evenodd"/><path stroke="#38761d" stroke-width="4.0" stroke-linejoin="round" stroke-linecap="butt" d="m-93.23097 149.7504l26.818901 -26.173225l26.818897 26.173225z" fill-rule="evenodd"/><path fill="#38761d" d="m-93.23097 132.93938l26.818901 -26.173225l26.818897 26.173225z" fill-rule="evenodd"/><path stroke="#38761d" stroke-width="4.0" stroke-linejoin="round" stroke-linecap="butt" d="m-93.23097 132.93938l26.818901 -26.173225l26.818897 26.173225z" fill-rule="evenodd"/><path fill="#38761d" d="m-90.74278 113.75853l24.330711 -23.149605l24.330708 23.149605z" fill-rule="evenodd"/><path stroke="#38761d" stroke-width="4.0" stroke-linejoin="round" stroke-linecap="butt" d="m-90.74278 113.75853l24.330711 -23.149605l24.330708 23.149605z" fill-rule="evenodd"/><path fill="#38761d" d="m-84.49344 72.41471l29.322834 -26.17323l29.322836 26.17323z" fill-rule="evenodd"/><path stroke="#38761d" stroke-width="1.0" stroke-linejoin="round" stroke-linecap="butt" d="m-84.49344 72.41471l29.322834 -26.17323l29.322836 26.17323z" fill-rule="evenodd"/><path fill="#38761d" d="m-81.9895 54.49449l26.818897 -26.17323l26.8189 26.17323z" fill-rule="evenodd"/><path stroke="#38761d" stroke-width="1.0" stroke-linejoin="round" stroke-linecap="butt" d="m-81.9895 54.49449l26.818897 -26.17323l26.8189 26.17323z" fill-rule="evenodd"/><path fill="#38761d" d="m-81.9895 37.683475l26.818897 -26.173227l26.8189 26.173227z" fill-rule="evenodd"/><path stroke="#38761d" stroke-width="1.0" stroke-linejoin="round" stroke-linecap="butt" d="m-81.9895 37.683475l26.818897 -26.173227l26.8189 26.173227z" fill-rule="evenodd"/><path fill="#38761d" d="m-79.50131 18.502625l24.330708 -23.149607l24.33071 23.149607z" fill-rule="evenodd"/><path stroke="#38761d" stroke-width="1.0" stroke-linejoin="round" stroke-linecap="butt" d="m-79.50131 18.502625l24.330708 -23.149607l24.33071 23.149607z" fill-rule="evenodd"/><path fill="#bf9000" d="m42.295517 85.27001c-1.9391975 5.1128616 3.1745377 23.185043 1.587925 30.149605c-1.5866127 6.964569 -14.545494 9.698166 -11.107613 11.6377945c3.4378853 1.9396286 27.415573 1.410759 31.734913 0c4.3193283 -1.410759 -4.3202133 -1.4120712 -5.818901 -8.464561c-1.4986877 -7.052498 -0.44050598 -28.296593 -3.1732292 -33.850395c-2.7327194 -5.5538025 -11.283901 -4.5853043 -13.223095 0.5275574z" fill-rule="evenodd"/><path fill="#38761d" d="m19.68504 88.57088l29.322834 -26.17323l29.322838 26.17323z" fill-rule="evenodd"/><path stroke="#38761d" stroke-width="4.0" stroke-linejoin="round" stroke-linecap="butt" d="m19.68504 88.57088l29.322834 -26.17323l29.322838 26.17323z" fill-rule="evenodd"/><path fill="#38761d" d="m22.188976 70.65066l26.818897 -26.173225l26.818901 26.173225z" fill-rule="evenodd"/><path stroke="#38761d" stroke-width="4.0" stroke-linejoin="round" stroke-linecap="butt" d="m22.188976 70.65066l26.818897 -26.173225l26.818901 26.173225z" fill-rule="evenodd"/><path fill="#38761d" d="m22.188976 53.839645l26.818897 -26.17323l26.818901 26.17323z" fill-rule="evenodd"/><path stroke="#38761d" stroke-width="4.0" stroke-linejoin="round" stroke-linecap="butt" d="m22.188976 53.839645l26.818897 -26.17323l26.818901 26.17323z" fill-rule="evenodd"/><path fill="#38761d" d="m24.677166 34.658794l24.330708 -23.149609l24.330711 23.149609z" fill-rule="evenodd"/><path stroke="#38761d" stroke-width="4.0" stroke-linejoin="round" stroke-linecap="butt" d="m24.677166 34.658794l24.330708 -23.149609l24.330711 23.149609z" fill-rule="evenodd"/><path fill="#bf9000" d="m207.99683 89.73445c-1.7735901 4.6762238 2.9034271 21.205032 1.4523163 27.57483c-1.4511261 6.369789 -13.303314 8.869942 -10.159027 10.643929c3.144287 1.7739792 25.07428 1.2902756 29.02475 0c3.9504547 -1.2902832 -3.9512634 -1.291481 -5.3219604 -7.7416916c-1.3707123 -6.4502106 -0.40289307 -25.880058 -2.902237 -30.959572c-2.4993439 -5.0795135 -10.320267 -4.193718 -12.093842 0.4825058z" fill-rule="evenodd"/><path fill="#38761d" d="m187.31728 92.75342l26.818665 -23.938034l26.818665 23.938034z" fill-rule="evenodd"/><path stroke="#38761d" stroke-width="4.0" stroke-linejoin="round" stroke-linecap="butt" d="m187.31728 92.75342l26.818665 -23.938034l26.818665 23.938034z" fill-rule="evenodd"/><path fill="#38761d" d="m189.60738 76.36359l24.528564 -23.93803l24.528564 23.93803z" fill-rule="evenodd"/><path stroke="#38761d" stroke-width="4.0" stroke-linejoin="round" stroke-linecap="butt" d="m189.60738 76.36359l24.528564 -23.93803l24.528564 23.93803z" fill-rule="evenodd"/><path fill="#38761d" d="m189.60738 60.988235l24.528564 -23.938034l24.528564 23.938034z" fill-rule="evenodd"/><path stroke="#38761d" stroke-width="4.0" stroke-linejoin="round" stroke-linecap="butt" d="m189.60738 60.988235l24.528564 -23.938034l24.528564 23.938034z" fill-rule="evenodd"/><path fill="#38761d" d="m191.88307 43.445427l22.252869 -21.172628l22.252869 21.172628z" fill-rule="evenodd"/><path stroke="#38761d" stroke-width="4.0" stroke-linejoin="round" stroke-linecap="butt" d="m191.88307 43.445427l22.252869 -21.172628l22.252869 21.172628z" fill-rule="evenodd"/><path fill="#bf9000" d="m129.38564 104.676216c-1.7735901 4.6762238 2.9034271 21.20504 1.4523163 27.574837c-1.4511261 6.3697815 -13.303314 8.869934 -10.159019 10.643921c3.144287 1.7739868 25.074272 1.2902832 29.024742 0c3.95047 -1.2902832 -3.9512634 -1.2914734 -5.3219604 -7.741684c-1.370697 -6.4502106 -0.40289307 -25.880066 -2.902237 -30.95958c-2.4993439 -5.079506 -10.320251 -4.193718 -12.093842 0.4825058z" fill-rule="evenodd"/><path fill="#38761d" d="m108.70609 107.69519l26.818657 -23.938034l26.818665 23.938034z" fill-rule="evenodd"/><path stroke="#38761d" stroke-width="4.0" stroke-linejoin="round" stroke-linecap="butt" d="m108.70609 107.69519l26.818657 -23.938034l26.818665 23.938034z" fill-rule="evenodd"/><path fill="#38761d" d="m110.99619 91.30536l24.528557 -23.938034l24.528564 23.938034z" fill-rule="evenodd"/><path stroke="#38761d" stroke-width="4.0" stroke-linejoin="round" stroke-linecap="butt" d="m110.99619 91.30536l24.528557 -23.938034l24.528564 23.938034z" fill-rule="evenodd"/><path fill="#38761d" d="m110.99619 75.93l24.528557 -23.938034l24.528564 23.938034z" fill-rule="evenodd"/><path stroke="#38761d" stroke-width="4.0" stroke-linejoin="round" stroke-linecap="butt" d="m110.99619 75.93l24.528557 -23.938034l24.528564 23.938034z" fill-rule="evenodd"/><path fill="#38761d" d="m113.27189 58.387196l22.252861 -21.17263l22.252869 21.17263z" fill-rule="evenodd"/><path stroke="#38761d" stroke-width="4.0" stroke-linejoin="round" stroke-linecap="butt" d="m113.27189 58.387196l22.252861 -21.17263l22.252869 21.17263z" fill-rule="evenodd"/><path fill="#bf9000" d="m32.98746 219.20569c-1.1862049 3.127533 1.9418678 14.1822815 0.97133636 18.44252c-0.97053146 4.2602234 -8.89748 5.932358 -6.794527 7.1188354c2.102953 1.1864777 16.770105 0.8629608 19.412245 0c2.6421356 -0.8629608 -2.6426735 -0.86376953 -3.5594215 -5.17778c-0.91674805 -4.3140106 -0.26945877 -17.309021 -1.9410629 -20.706284c-1.6716042 -3.3972626 -6.902363 -2.8048248 -8.08857 0.32270813z" fill-rule="evenodd"/><path fill="#38761d" d="m19.156633 221.22482l17.936777 -16.010162l17.936779 16.010162z" fill-rule="evenodd"/><path stroke="#38761d" stroke-width="4.0" stroke-linejoin="round" stroke-linecap="butt" d="m19.156633 221.22482l17.936777 -16.010162l17.936779 16.010162z" fill-rule="evenodd"/><path fill="#38761d" d="m20.688292 210.26303l16.405119 -16.010162l16.40512 16.010162z" fill-rule="evenodd"/><path stroke="#38761d" stroke-width="4.0" stroke-linejoin="round" stroke-linecap="butt" d="m20.688292 210.26303l16.405119 -16.010162l16.40512 16.010162z" fill-rule="evenodd"/><path fill="#38761d" d="m20.688292 199.97974l16.405119 -16.010162l16.40512 16.010162z" fill-rule="evenodd"/><path stroke="#38761d" stroke-width="4.0" stroke-linejoin="round" stroke-linecap="butt" d="m20.688292 199.97974l16.405119 -16.010162l16.40512 16.010162z" fill-rule="evenodd"/><path fill="#38761d" d="m22.210318 188.24681l14.883093 -14.160614l14.883095 14.160614z" fill-rule="evenodd"/><path stroke="#38761d" stroke-width="4.0" stroke-linejoin="round" stroke-linecap="butt" d="m22.210318 188.24681l14.883093 -14.160614l14.883095 14.160614z" fill-rule="evenodd"/><path fill="#bf9000" d="m168.60689 205.85074c-1.186203 3.127533 1.941864 14.1822815 0.97132874 18.442505c-0.9705353 4.2602234 -8.897476 5.932373 -6.794525 7.1188507c2.102951 1.1864624 16.770111 0.8629608 19.412247 0c2.6421356 -0.8629761 -2.6426697 -0.86376953 -3.5594177 -5.17778c-0.91674805 -4.3140106 -0.26945496 -17.309021 -1.9410706 -20.706284c-1.6716003 -3.3972626 -6.902359 -2.80484 -8.088562 0.32270813z" fill-rule="evenodd"/><path fill="#38761d" d="m154.77606 207.86987l17.936768 -16.010162l17.936783 16.010162z" fill-rule="evenodd"/><path stroke="#38761d" stroke-width="4.0" stroke-linejoin="round" stroke-linecap="butt" d="m154.77606 207.86987l17.936768 -16.010162l17.936783 16.010162z" fill-rule="evenodd"/><path fill="#38761d" d="m156.30771 196.90808l16.40512 -16.010178l16.40512 16.010178z" fill-rule="evenodd"/><path stroke="#38761d" stroke-width="4.0" stroke-linejoin="round" stroke-linecap="butt" d="m156.30771 196.90808l16.40512 -16.010178l16.40512 16.010178z" fill-rule="evenodd"/><path fill="#38761d" d="m156.30771 186.62477l16.40512 -16.010162l16.40512 16.010162z" fill-rule="evenodd"/><path stroke="#38761d" stroke-width="4.0" stroke-linejoin="round" stroke-linecap="butt" d="m156.30771 186.62477l16.40512 -16.010162l16.40512 16.010162z" fill-rule="evenodd"/><path fill="#38761d" d="m157.82974 174.89185l14.883087 -14.160614l14.883102 14.160614z" fill-rule="evenodd"/><path stroke="#38761d" stroke-width="4.0" stroke-linejoin="round" stroke-linecap="butt" d="m157.82974 174.89185l14.883087 -14.160614l14.883102 14.160614z" fill-rule="evenodd"/><path fill="#bf9000" d="m227.67621 219.73479c-1.186203 3.127533 1.941864 14.182297 0.97132874 18.44252c-0.97052 4.2602234 -8.897476 5.932358 -6.794525 7.1188354c2.1029663 1.1864777 16.770111 0.8629608 19.412247 0c2.6421356 -0.8629608 -2.6426697 -0.86376953 -3.5594177 -5.17778c-0.91674805 -4.3140106 -0.26945496 -17.309021 -1.9410706 -20.706284c-1.6716003 -3.3972626 -6.902359 -2.8048248 -8.088562 0.32270813z" fill-rule="evenodd"/><path fill="#38761d" d="m213.84538 221.75392l17.936783 -16.010162l17.936768 16.010162z" fill-rule="evenodd"/><path stroke="#38761d" stroke-width="4.0" stroke-linejoin="round" stroke-linecap="butt" d="m213.84538 221.75392l17.936783 -16.010162l17.936768 16.010162z" fill-rule="evenodd"/><path fill="#38761d" d="m215.37704 210.79213l16.40512 -16.010162l16.405106 16.010162z" fill-rule="evenodd"/><path stroke="#38761d" stroke-width="4.0" stroke-linejoin="round" stroke-linecap="butt" d="m215.37704 210.79213l16.40512 -16.010162l16.405106 16.010162z" fill-rule="evenodd"/><path fill="#38761d" d="m215.37704 200.50883l16.40512 -16.010162l16.405106 16.010162z" fill-rule="evenodd"/><path stroke="#38761d" stroke-width="4.0" stroke-linejoin="round" stroke-linecap="butt" d="m215.37704 200.50883l16.40512 -16.010162l16.405106 16.010162z" fill-rule="evenodd"/><path fill="#38761d" d="m216.89906 188.77591l14.883102 -14.160614l14.883087 14.160614z" fill-rule="evenodd"/><path stroke="#38761d" stroke-width="4.0" stroke-linejoin="round" stroke-linecap="butt" d="m216.89906 188.77591l14.883102 -14.160614l14.883087 14.160614z" fill-rule="evenodd"/><path fill="#bf9000" d="m102.11902 210.77391c-1.3450241 3.54628 2.2018585 16.081131 1.101387 20.911758c-1.1004791 4.8306274 -10.088753 6.726654 -7.704239 8.071976c2.3845139 1.3453369 19.015442 0.97850037 22.01133 0c2.9958954 -0.97850037 -2.996498 -0.9794159 -4.035988 -5.8710175c-1.0394897 -4.891617 -0.30553436 -19.62651 -2.2009506 -23.478638c-1.8954163 -3.8521118 -7.826515 -3.180359 -9.171539 0.36592102z" fill-rule="evenodd"/><path fill="#38761d" d="m86.43639 213.06339l20.338318 -18.153748l20.338318 18.153748z" fill-rule="evenodd"/><path stroke="#38761d" stroke-width="4.0" stroke-linejoin="round" stroke-linecap="butt" d="m86.43639 213.06339l20.338318 -18.153748l20.338318 18.153748z" fill-rule="evenodd"/><path fill="#38761d" d="m88.17313 200.63393l18.601585 -18.153763l18.601585 18.153763z" fill-rule="evenodd"/><path stroke="#38761d" stroke-width="4.0" stroke-linejoin="round" stroke-linecap="butt" d="m88.17313 200.63393l18.601585 -18.153763l18.601585 18.153763z" fill-rule="evenodd"/><path fill="#38761d" d="m88.17313 188.9738l18.601585 -18.153748l18.601585 18.153748z" fill-rule="evenodd"/><path stroke="#38761d" stroke-width="4.0" stroke-linejoin="round" stroke-linecap="butt" d="m88.17313 188.9738l18.601585 -18.153748l18.601585 18.153748z" fill-rule="evenodd"/><path fill="#38761d" d="m89.89893 175.66997l16.875778 -16.05658l16.875778 16.05658z" fill-rule="evenodd"/><path stroke="#38761d" stroke-width="4.0" stroke-linejoin="round" stroke-linecap="butt" d="m89.89893 175.66997l16.875778 -16.05658l16.875778 16.05658z" fill-rule="evenodd"/></g></svg>