<svg version="1.1" viewBox="0.0 0.0 256.0 256.0" fill="none" stroke="none" stroke-linecap="square" stroke-miterlimit="10" xmlns:xlink="http://www.w3.org/1999/xlink" xmlns="http://www.w3.org/2000/svg"><clipPath id="p.0"><path d="m0 0l256.0 0l0 256.0l-256.0 0l0 -256.0z" clip-rule="nonzero"/></clipPath><g clip-path="url(#p.0)"><path fill="#8ec4eb" d="m0 0l256.0 0l0 256.0l-256.0 0z" fill-rule="evenodd"/><path fill="#a8ceea" d="m28.0331 31.733923c-17.190289 -2.7327194 69.64043 -13.751968 104.19685 -13.223097c34.556427 0.52887154 120.50787 14.192478 103.14174 16.396328c-17.36615 2.203846 -190.1483 -0.4405098 -207.3386 -3.1732311z" fill-rule="evenodd"/><path fill="#a8ceea" d="m24.33002 240.13177c19.569992 3.526245 114.68767 10.93132 149.68504 11.10762c34.997375 0.17628479 79.8692 -6.5236206 60.29921 -10.049866c-19.569992 -3.5262604 -142.72177 -10.93132 -177.71916 -11.10762c-34.997375 -0.17628479 -51.835083 6.5236206 -32.26509 10.049866z" fill-rule="evenodd"/><path fill="#a8ceea" d="m25.388178 52.365925c9.696852 0.35258102 39.315834 3.0835495 47.073494 4.7585297c7.7576523 1.6749763 8.023186 5.026684 -0.5275574 5.291336c-8.550747 0.26465607 -41.167984 -2.4689407 -50.776905 -3.703411c-9.608925 -1.2344704 -7.5818033 -2.645668 -6.8766413 -3.703411c0.70516205 -1.0577431 1.4107609 -2.9956245 11.107612 -2.6430435z" fill-rule="evenodd"/><path fill="#a8ceea" d="m195.83437 216.99323c9.696854 0.35256958 39.31584 3.0835419 47.0735 4.7585297c7.7576447 1.6749725 8.023178 5.0266724 -0.5275574 5.291336c-8.550751 0.26464844 -41.167984 -2.4689484 -50.776917 -3.703415c-9.608917 -1.2344666 -7.5818024 -2.6456757 -6.8766327 -3.703415c0.7051544 -1.0577393 1.4107666 -2.9956207 11.107605 -2.643036z" fill-rule="evenodd"/></g></svg>