<svg version="1.1" viewBox="0.0 0.0 256.0 256.0" fill="none" stroke="none" stroke-linecap="square" stroke-miterlimit="10" xmlns:xlink="http://www.w3.org/1999/xlink" xmlns="http://www.w3.org/2000/svg"><clipPath id="p.0"><path d="m0 0l256.0 0l0 256.0l-256.0 0l0 -256.0z" clip-rule="nonzero"/></clipPath><g clip-path="url(#p.0)"><path fill="#000000" fill-opacity="0.0" d="m0 0l256.0 0l0 256.0l-256.0 0z" fill-rule="evenodd"/><path fill="#7f6000" d="m0 65.05728l0 0c0 -35.930145 29.127136 -65.05728 65.05728 -65.05728l125.88544 0l0 0c17.254272 0 33.801834 6.8542295 46.00244 19.054836c12.200607 12.200607 19.05484 28.74818 19.05484 46.002445l0 125.88544c0 35.930145 -29.127136 65.05728 -65.05728 65.05728l-125.88544 0l0 0c-35.930145 0 -65.05728 -29.127136 -65.05728 -65.05728z" fill-rule="evenodd"/><path fill="#bf9000" d="m-87.270386 50.779526l0 0c11.976341 0 21.685081 9.708744 21.685081 21.685081l0 7.4014893l0 0c0 5.7512436 -2.284668 11.26693 -6.35141 15.333672c-4.066742 4.066742 -9.582428 6.35141 -15.333672 6.35141l-138.5826 0c-11.976334 0 -21.685074 -9.70874 -21.685074 -21.685081l0 -7.4014893c0 -11.976337 9.70874 -21.685081 21.685074 -21.685081z" fill-rule="evenodd"/><path fill="#7d9636" d="m134.69711 73.95062l0 9.023613l0 0c0 1.7270432 -0.6860657 3.3833466 -1.9072723 4.6045456c-1.2212067 1.2212067 -2.8775024 1.9072723 -4.604553 1.9072723l-13.267708 0c-9.918213E-5 0 -1.8310547E-4 -8.392334E-5 -1.8310547E-4 -1.8310547E-4l1.8310547E-4 -22.047066l0 0c0 -9.918213E-5 8.392334E-5 -1.8310547E-4 1.8310547E-4 -1.8310547E-4l13.267525 1.8310547E-4l0 0c3.5963898 0 6.5118256 2.9154434 6.5118256 6.511818z" fill-rule="evenodd"/><path fill="#809a39" d="m49.972702 98.09925l9.818897 -39.275593l59.19685 0l9.818893 39.275593z" fill-rule="evenodd"/><path fill="#697f2b" d="m15.311283 127.61204l12.070866 48.28347l194.8504 0l12.070862 -48.28347z" fill-rule="evenodd"/><path stroke="#697f2b" stroke-width="1.0" stroke-linejoin="round" stroke-linecap="butt" d="m15.311283 127.61204l12.070866 48.28347l194.8504 0l12.070862 -48.28347z" fill-rule="evenodd"/><path fill="#434343" d="m11.160364 170.53067l0 0c0 -14.020203 11.365622 -25.385818 25.385828 -25.385818l0 0c6.7327385 0 13.189724 2.6745605 17.950489 7.4353333c4.760765 4.7607574 7.435337 11.217743 7.435337 17.950485l0 0c0 14.020203 -11.365623 25.385834 -25.385826 25.385834l0 0c-14.020206 0 -25.385828 -11.365631 -25.385828 -25.385834z" fill-rule="evenodd"/><path stroke="#434343" stroke-width="1.0" stroke-linejoin="round" stroke-linecap="butt" d="m11.160364 170.53067l0 0c0 -14.020203 11.365622 -25.385818 25.385828 -25.385818l0 0c6.7327385 0 13.189724 2.6745605 17.950489 7.4353333c4.760765 4.7607574 7.435337 11.217743 7.435337 17.950485l0 0c0 14.020203 -11.365623 25.385834 -25.385826 25.385834l0 0c-14.020206 0 -25.385828 -11.365631 -25.385828 -25.385834z" fill-rule="evenodd"/><path fill="#666666" d="m25.412333 170.53067l0 0c0 -6.149063 4.9847984 -11.13385 11.13386 -11.13385l0 0c2.9528809 0 5.7848206 1.1730194 7.8728256 3.2610168c2.088005 2.0880127 3.261032 4.9199524 3.261032 7.8728333l0 0c0 6.149063 -4.9847984 11.133865 -11.133858 11.133865l0 0c-6.149061 0 -11.13386 -4.9848022 -11.13386 -11.133865z" fill-rule="evenodd"/><path fill="#434343" d="m69.932014 170.53067l0 0c0 -14.020203 11.365623 -25.385818 25.385834 -25.385818l0 0c6.7327347 0 13.18972 2.6745605 17.950485 7.4353333c4.760765 4.7607574 7.435341 11.217743 7.435341 17.950485l0 0c0 14.020203 -11.365623 25.385834 -25.385826 25.385834l0 0c-14.02021 0 -25.385834 -11.365631 -25.385834 -25.385834z" fill-rule="evenodd"/><path stroke="#434343" stroke-width="1.0" stroke-linejoin="round" stroke-linecap="butt" d="m69.932014 170.53067l0 0c0 -14.020203 11.365623 -25.385818 25.385834 -25.385818l0 0c6.7327347 0 13.18972 2.6745605 17.950485 7.4353333c4.760765 4.7607574 7.435341 11.217743 7.435341 17.950485l0 0c0 14.020203 -11.365623 25.385834 -25.385826 25.385834l0 0c-14.02021 0 -25.385834 -11.365631 -25.385834 -25.385834z" fill-rule="evenodd"/><path fill="#666666" d="m84.18398 170.53067l0 0c0 -6.149063 4.9848022 -11.13385 11.133865 -11.13385l0 0c2.9528809 0 5.7848206 1.1730194 7.8728256 3.2610168c2.0879974 2.0880127 3.261032 4.9199524 3.261032 7.8728333l0 0c0 6.149063 -4.9848022 11.133865 -11.133858 11.133865l0 0c-6.149063 0 -11.133865 -4.9848022 -11.133865 -11.133865z" fill-rule="evenodd"/><path fill="#434343" d="m128.80734 170.53067l0 0c0 -14.020203 11.365631 -25.385818 25.385834 -25.385818l0 0c6.7327423 0 13.189728 2.6745605 17.950485 7.4353333c4.7607727 4.7607574 7.4353333 11.217743 7.4353333 17.950485l0 0c0 14.020203 -11.365616 25.385834 -25.385818 25.385834l0 0c-14.020203 0 -25.385834 -11.365631 -25.385834 -25.385834z" fill-rule="evenodd"/><path stroke="#434343" stroke-width="1.0" stroke-linejoin="round" stroke-linecap="butt" d="m128.80734 170.53067l0 0c0 -14.020203 11.365631 -25.385818 25.385834 -25.385818l0 0c6.7327423 0 13.189728 2.6745605 17.950485 7.4353333c4.7607727 4.7607574 7.4353333 11.217743 7.4353333 17.950485l0 0c0 14.020203 -11.365616 25.385834 -25.385818 25.385834l0 0c-14.020203 0 -25.385834 -11.365631 -25.385834 -25.385834z" fill-rule="evenodd"/><path fill="#666666" d="m143.05931 170.53067l0 0c0 -6.149063 4.9848022 -11.13385 11.133865 -11.13385l0 0c2.9528809 0 5.7848206 1.1730194 7.872818 3.2610168c2.0880127 2.0880127 3.261032 4.9199524 3.261032 7.8728333l0 0c0 6.149063 -4.984787 11.133865 -11.13385 11.133865l0 0c-6.149063 0 -11.133865 -4.9848022 -11.133865 -11.133865z" fill-rule="evenodd"/><path fill="#434343" d="m187.68005 170.53067l0 0c0 -14.020203 11.365616 -25.385818 25.385818 -25.385818l0 0c6.7327423 0 13.189728 2.6745605 17.9505 7.4353333c4.7607574 4.7607574 7.4353333 11.217743 7.4353333 17.950485l0 0c0 14.020203 -11.365631 25.385834 -25.385834 25.385834l0 0c-14.020203 0 -25.385818 -11.365631 -25.385818 -25.385834z" fill-rule="evenodd"/><path stroke="#434343" stroke-width="1.0" stroke-linejoin="round" stroke-linecap="butt" d="m187.68005 170.53067l0 0c0 -14.020203 11.365616 -25.385818 25.385818 -25.385818l0 0c6.7327423 0 13.189728 2.6745605 17.9505 7.4353333c4.7607574 4.7607574 7.4353333 11.217743 7.4353333 17.950485l0 0c0 14.020203 -11.365631 25.385834 -25.385834 25.385834l0 0c-14.020203 0 -25.385818 -11.365631 -25.385818 -25.385834z" fill-rule="evenodd"/><path fill="#666666" d="m201.93202 170.53067l0 0c0 -6.149063 4.984787 -11.13385 11.13385 -11.13385l0 0c2.9528809 0 5.7848206 1.1730194 7.8728333 3.2610168c2.0879974 2.0880127 3.261032 4.9199524 3.261032 7.8728333l0 0c0 6.149063 -4.9848022 11.133865 -11.133865 11.133865l0 0c-6.149063 0 -11.13385 -4.9848022 -11.13385 -11.133865z" fill-rule="evenodd"/><path fill="#7d9636" d="m33.752228 127.61729l7.5118103 -30.047249l167.08661 0l7.5118103 30.047249z" fill-rule="evenodd"/><path fill="#000000" fill-opacity="0.0" d="m11.153803 170.53067l0 0c0 -14.716003 11.929672 -26.645676 26.64567 -26.645676l174.01575 0c7.0668793 0 13.844299 2.807312 18.84134 7.8043365c4.9970245 4.99704 7.8043365 11.774475 7.8043365 18.84134l0 0l0 0c0 14.716003 -11.929672 26.645676 -26.645676 26.645676l-174.01575 0c-14.715998 0 -26.64567 -11.929672 -26.64567 -26.645676z" fill-rule="evenodd"/><path stroke="#2f2f2f" stroke-width="4.0" stroke-linejoin="round" stroke-linecap="butt" d="m11.153803 170.53067l0 0c0 -14.716003 11.929672 -26.645676 26.64567 -26.645676l174.01575 0c7.0668793 0 13.844299 2.807312 18.84134 7.8043365c4.9970245 4.99704 7.8043365 11.774475 7.8043365 18.84134l0 0l0 0c0 14.716003 -11.929672 26.645676 -26.645676 26.645676l-174.01575 0c-14.715998 0 -26.64567 -11.929672 -26.64567 -26.645676z" fill-rule="evenodd"/><path fill="#000000" fill-opacity="0.0" d="m11.153803 170.53067l0 0c0 -14.716003 11.929672 -26.645676 26.64567 -26.645676l174.01575 0c7.0668793 0 13.844299 2.807312 18.84134 7.8043365c4.9970245 4.99704 7.8043365 11.774475 7.8043365 18.84134l0 0l0 0c0 14.716003 -11.929672 26.645676 -26.645676 26.645676l-174.01575 0c-14.715998 0 -26.64567 -11.929672 -26.64567 -26.645676z" fill-rule="evenodd"/><path stroke="#000000" stroke-width="4.0" stroke-linejoin="round" stroke-linecap="butt" stroke-dasharray="32.0,12.0" d="m11.153803 170.53067l0 0c0 -14.716003 11.929672 -26.645676 26.64567 -26.645676l174.01575 0c7.0668793 0 13.844299 2.807312 18.84134 7.8043365c4.9970245 4.99704 7.8043365 11.774475 7.8043365 18.84134l0 0l0 0c0 14.716003 -11.929672 26.645676 -26.645676 26.645676l-174.01575 0c-14.715998 0 -26.64567 -11.929672 -26.64567 -26.645676z" fill-rule="evenodd"/><path fill="#90a94a" d="m67.232544 71.68987l0 0c0 -2.026535 1.6428299 -3.669365 3.669365 -3.669365l36.976227 0c0.9731827 0 1.9064941 0.38658905 2.594635 1.0747299c0.68814087 0.68814087 1.0747299 1.62146 1.0747299 2.594635l0 14.677017c0 2.026535 -1.6428299 3.669365 -3.669365 3.669365l-36.976227 0c-2.026535 0 -3.669365 -1.6428299 -3.669365 -3.669365z" fill-rule="evenodd"/><path fill="#666666" d="m58.53963 105.69077l0 0c0 -1.2524261 1.0152893 -2.2677155 2.2677155 -2.2677155l0 0l0 0c0.6014366 0 1.1782379 0.23892212 1.6035194 0.6641998c0.4252777 0.4252777 0.664196 1.0020828 0.664196 1.6035156l0 14.330711c0 1.2524261 -1.0152893 2.2677155 -2.2677155 2.2677155l0 0l0 0c-1.2524261 0 -2.2677155 -1.0152893 -2.2677155 -2.2677155z" fill-rule="evenodd"/><path fill="#666666" d="m74.53963 105.69077l0 0c0 -1.2524261 1.0152969 -2.2677155 2.2677155 -2.2677155l0 0l0 0c0.6014404 0 1.1782455 0.23892212 1.6035233 0.6641998c0.4252777 0.4252777 0.6641998 1.0020828 0.6641998 1.6035156l0 14.330711c0 1.2524261 -1.0152969 2.2677155 -2.267723 2.2677155l0 0l0 0c-1.2524185 0 -2.2677155 -1.0152893 -2.2677155 -2.2677155z" fill-rule="evenodd"/><path fill="#666666" d="m90.53963 105.69077l0 0c0 -1.2524261 1.0152969 -2.2677155 2.2677155 -2.2677155l0 0l0 0c0.6014404 0 1.1782455 0.23892212 1.6035233 0.6641998c0.4252777 0.4252777 0.6641998 1.0020828 0.6641998 1.6035156l0 14.330711c0 1.2524261 -1.0152969 2.2677155 -2.267723 2.2677155l0 0l0 0c-1.2524185 0 -2.2677155 -1.0152893 -2.2677155 -2.2677155z" fill-rule="evenodd"/><path fill="#666666" d="m106.53963 105.69077l0 0c0 -1.2524261 1.0152969 -2.2677155 2.2677155 -2.2677155l0 0l0 0c0.6014404 0 1.1782455 0.23892212 1.6035233 0.6641998c0.4252777 0.4252777 0.6641998 1.0020828 0.6641998 1.6035156l0 14.330711c0 1.2524261 -1.0152969 2.2677155 -2.267723 2.2677155l0 0l0 0c-1.2524185 0 -2.2677155 -1.0152893 -2.2677155 -2.2677155z" fill-rule="evenodd"/><path fill="#666666" d="m122.53963 105.69077l0 0c0 -1.2524261 1.0152969 -2.2677155 2.2677155 -2.2677155l0 0l0 0c0.6014404 0 1.1782455 0.23892212 1.6035233 0.6641998c0.4252777 0.4252777 0.6641998 1.0020828 0.6641998 1.6035156l0 14.330711c0 1.2524261 -1.0152969 2.2677155 -2.267723 2.2677155l0 0l0 0c-1.2524185 0 -2.2677155 -1.0152893 -2.2677155 -2.2677155z" fill-rule="evenodd"/><path fill="#666666" d="m138.53963 105.69077l0 0c0 -1.2524261 1.0152893 -2.2677155 2.2677155 -2.2677155l0 0l0 0c0.6014404 0 1.1782379 0.23892212 1.6035156 0.6641998c0.4252777 0.4252777 0.6641998 1.0020828 0.6641998 1.6035156l0 14.330711c0 1.2524261 -1.0152893 2.2677155 -2.2677155 2.2677155l0 0l0 0c-1.2524261 0 -2.2677155 -1.0152893 -2.2677155 -2.2677155z" fill-rule="evenodd"/><path fill="#666666" d="m154.53963 105.69077l0 0c0 -1.2524261 1.0152893 -2.2677155 2.2677155 -2.2677155l0 0l0 0c0.6014404 0 1.1782379 0.23892212 1.6035156 0.6641998c0.4252777 0.4252777 0.6641998 1.0020828 0.6641998 1.6035156l0 14.330711c0 1.2524261 -1.0152893 2.2677155 -2.2677155 2.2677155l0 0l0 0c-1.2524261 0 -2.2677155 -1.0152893 -2.2677155 -2.2677155z" fill-rule="evenodd"/><path fill="#666666" d="m170.53963 105.69077l0 0c0 -1.2524261 1.0152893 -2.2677155 2.2677155 -2.2677155l0 0l0 0c0.6014404 0 1.1782379 0.23892212 1.6035156 0.6641998c0.4252777 0.4252777 0.6641998 1.0020828 0.6641998 1.6035156l0 14.330711c0 1.2524261 -1.0152893 2.2677155 -2.2677155 2.2677155l0 0l0 0c-1.2524261 0 -2.2677155 -1.0152893 -2.2677155 -2.2677155z" fill-rule="evenodd"/><path fill="#666666" d="m186.53963 105.69077l0 0c0 -1.2524261 1.0152893 -2.2677155 2.2677155 -2.2677155l0 0l0 0c0.6014404 0 1.1782379 0.23892212 1.6035156 0.6641998c0.4252777 0.4252777 0.6641998 1.0020828 0.6641998 1.6035156l0 14.330711c0 1.2524261 -1.0152893 2.2677155 -2.2677155 2.2677155l0 0l0 0c-1.2524261 0 -2.2677155 -1.0152893 -2.2677155 -2.2677155z" fill-rule="evenodd"/><path fill="#71892f" d="m228.67087 74.73015l0 8.598419l-94.299225 0l0 -8.598419z" fill-rule="evenodd"/><path fill="#7d9636" d="m242.07974 70.52542l0 0c1.5278625 0 2.766449 1.2385864 2.766449 2.7664566l0 11.47496l0 0c0 0.73371124 -0.29145813 1.4373703 -0.8102722 1.9561768c-0.5188141 0.5188141 -1.2224731 0.81027985 -1.9561768 0.81027985l-11.065506 0c-1.5278778 0 -2.7664642 -1.2385864 -2.7664642 -2.7664566l0 -11.47496l0 0c0 -1.5278702 1.2385864 -2.7664566 2.7664642 -2.7664566z" fill-rule="evenodd"/><path fill="#7f6000" fill-opacity="0.6" d="m0 65.05728l0 0c0 -35.930145 29.127136 -65.05728 65.05728 -65.05728l125.88544 0l0 0c17.254272 0 33.801834 6.8542295 46.00244 19.054836c12.200607 12.200607 19.05484 28.74818 19.05484 46.002445l0 125.88544c0 35.930145 -29.127136 65.05728 -65.05728 65.05728l-125.88544 0l0 0c-35.930145 0 -65.05728 -29.127136 -65.05728 -65.05728z" fill-rule="evenodd"/></g></svg>