<svg version="1.1" viewBox="0.0 0.0 256.0 256.0" fill="none" stroke="none" stroke-linecap="square" stroke-miterlimit="10" xmlns:xlink="http://www.w3.org/1999/xlink" xmlns="http://www.w3.org/2000/svg"><clipPath id="p.0"><path d="m0 0l256.0 0l0 256.0l-256.0 0l0 -256.0z" clip-rule="nonzero"/></clipPath><g clip-path="url(#p.0)"><path fill="#000000" fill-opacity="0.0" d="m0 0l256.0 0l0 256.0l-256.0 0z" fill-rule="evenodd"/><path fill="#9a7608" d="m191.80641 62.223255l0 0c-0.64941406 -0.6494179 -1.7018738 -0.6489525 -2.350708 0.0010375977l-68.894424 69.01625c-0.31158447 0.3121338 -0.4865265 0.7353821 -0.48632812 1.1766205c1.9073486E-4 0.44122314 0.17550659 0.86431885 0.48736572 1.176178l4.703369 4.703354c0.64941406 0.6494293 1.7018661 0.6489563 2.350708 -0.0010375977l68.894424 -69.01624l0 0c0.6488495 -0.6499939 0.64837646 -1.7033691 -0.0010375977 -2.3527908z" fill-rule="evenodd"/><path stroke="#9a7608" stroke-width="1.0" stroke-linejoin="round" stroke-linecap="butt" d="m191.80641 62.223255l0 0c-0.64941406 -0.6494179 -1.7018738 -0.6489525 -2.350708 0.0010375977l-68.894424 69.01625c-0.31158447 0.3121338 -0.4865265 0.7353821 -0.48632812 1.1766205c1.9073486E-4 0.44122314 0.17550659 0.86431885 0.48736572 1.176178l4.703369 4.703354c0.64941406 0.6494293 1.7018661 0.6489563 2.350708 -0.0010375977l68.894424 -69.01624l0 0c0.6488495 -0.6499939 0.64837646 -1.7033691 -0.0010375977 -2.3527908z" fill-rule="evenodd"/><path fill="#f1c232" d="m115.01793 130.83792l0 0c-0.80307007 -0.80307007 -2.104538 -0.80249023 -2.9069061 0.0012969971l-68.33847 68.459305c-0.38531113 0.3860016 -0.6016388 0.90937805 -0.60139847 1.4550018c2.4032593E-4 0.54563904 0.21703339 1.0688324 0.602684 1.454483l5.8162155 5.816208c0.8030739 0.8030853 2.1045418 0.8025055 2.9069061 -0.0012817383l68.33847 -68.45932c0.80236053 -0.803772 0.80178833 -2.1063995 -0.0012893677 -2.9094696z" fill-rule="evenodd"/><path stroke="#f1c232" stroke-width="1.0" stroke-linejoin="round" stroke-linecap="butt" d="m115.01793 130.83792l0 0c-0.80307007 -0.80307007 -2.104538 -0.80249023 -2.9069061 0.0012969971l-68.33847 68.459305c-0.38531113 0.3860016 -0.6016388 0.90937805 -0.60139847 1.4550018c2.4032593E-4 0.54563904 0.21703339 1.0688324 0.602684 1.454483l5.8162155 5.816208c0.8030739 0.8030853 2.1045418 0.8025055 2.9069061 -0.0012817383l68.33847 -68.45932c0.80236053 -0.803772 0.80178833 -2.1063995 -0.0012893677 -2.9094696z" fill-rule="evenodd"/><path fill="#f1c232" d="m212.23111 202.19235l0 0c0.80307007 -0.8030853 0.80307007 -2.1051178 0 -2.9082031l-68.776855 -68.77684c-0.38565063 -0.38565063 -0.9086914 -0.6023102 -1.4540863 -0.6023102c-0.5453949 0 -1.0684509 0.21665955 -1.4541016 0.6023102l-5.816208 5.816208c-0.8030853 0.8030853 -0.8030853 2.1051178 0 2.9082031l68.77684 68.77684c0.80307007 0.80307007 2.1051178 0.80307007 2.9081879 0z" fill-rule="evenodd"/><path stroke="#f1c232" stroke-width="1.0" stroke-linejoin="round" stroke-linecap="butt" d="m212.23111 202.19235l0 0c0.80307007 -0.8030853 0.80307007 -2.1051178 0 -2.9082031l-68.776855 -68.77684c-0.38565063 -0.38565063 -0.9086914 -0.6023102 -1.4540863 -0.6023102c-0.5453949 0 -1.0684509 0.21665955 -1.4541016 0.6023102l-5.816208 5.816208c-0.8030853 0.8030853 -0.8030853 2.1051178 0 2.9082031l68.77684 68.77684c0.80307007 0.80307007 2.1051178 0.80307007 2.9081879 0z" fill-rule="evenodd"/><path fill="#bf9000" d="m213.68504 196.08202l0 0c0 -1.142273 -0.92601013 -2.068283 -2.068283 -2.068283l-167.23352 0c-0.548542 0 -1.0746193 0.21791077 -1.4624977 0.6057892c-0.38787842 0.38787842 -0.60578537 0.9139557 -0.60578537 1.4624939l0 8.272888c0 1.1422882 0.9260025 2.068283 2.068283 2.068283l167.23352 0c1.142273 0 2.068283 -0.9259949 2.068283 -2.068283z" fill-rule="evenodd"/><path stroke="#bf9000" stroke-width="1.0" stroke-linejoin="round" stroke-linecap="butt" d="m213.68504 196.08202l0 0c0 -1.142273 -0.92601013 -2.068283 -2.068283 -2.068283l-167.23352 0c-0.548542 0 -1.0746193 0.21791077 -1.4624977 0.6057892c-0.38787842 0.38787842 -0.60578537 0.9139557 -0.60578537 1.4624939l0 8.272888c0 1.1422882 0.9260025 2.068283 2.068283 2.068283l167.23352 0c1.142273 0 2.068283 -0.9259949 2.068283 -2.068283z" fill-rule="evenodd"/><path fill="#666666" d="m231.20473 200.21846l0 0c0 -14.020203 -11.365631 -25.385818 -25.385834 -25.385818l0 0c-6.7327423 0 -13.189713 2.6745605 -17.950485 7.4353333c-4.7607727 4.7607574 -7.4353333 11.217743 -7.4353333 17.950485l0 0c0 14.020203 11.365616 25.385834 25.385818 25.385834l0 0c14.020203 0 25.385834 -11.365631 25.385834 -25.385834z" fill-rule="evenodd"/><path stroke="#666666" stroke-width="1.0" stroke-linejoin="round" stroke-linecap="butt" d="m231.20473 200.21846l0 0c0 -14.020203 -11.365631 -25.385818 -25.385834 -25.385818l0 0c-6.7327423 0 -13.189713 2.6745605 -17.950485 7.4353333c-4.7607727 4.7607574 -7.4353333 11.217743 -7.4353333 17.950485l0 0c0 14.020203 11.365616 25.385834 25.385818 25.385834l0 0c14.020203 0 25.385834 -11.365631 25.385834 -25.385834z" fill-rule="evenodd"/><path fill="#434343" d="m219.48819 200.21846l0 0c0 -7.5493317 -6.1199493 -13.669281 -13.669296 -13.669281l0 0c-3.6253204 0 -7.1021576 1.4401398 -9.665649 4.0036316c-2.5634918 2.5634918 -4.0036316 6.040329 -4.0036316 9.665649l0 0c0 7.549347 6.1199493 13.669296 13.669281 13.669296l0 0c7.549347 0 13.669296 -6.1199493 13.669296 -13.669296z" fill-rule="evenodd"/><path stroke="#000000" stroke-width="3.0" stroke-linejoin="round" stroke-linecap="butt" d="m219.48819 200.21846l0 0c0 -7.5493317 -6.1199493 -13.669281 -13.669296 -13.669281l0 0c-3.6253204 0 -7.1021576 1.4401398 -9.665649 4.0036316c-2.5634918 2.5634918 -4.0036316 6.040329 -4.0036316 9.665649l0 0c0 7.549347 6.1199493 13.669296 13.669281 13.669296l0 0c7.549347 0 13.669296 -6.1199493 13.669296 -13.669296z" fill-rule="evenodd"/><path fill="#666666" d="m75.56693 200.21846l0 0c0 -14.020203 -11.365623 -25.385818 -25.38583 -25.385818l0 0c-6.7327385 0 -13.189724 2.6745605 -17.950489 7.4353333c-4.760767 4.7607574 -7.435339 11.217743 -7.435339 17.950485l0 0c0 14.020203 11.365622 25.385834 25.385828 25.385834l0 0c14.020206 0 25.38583 -11.365631 25.38583 -25.385834z" fill-rule="evenodd"/><path stroke="#666666" stroke-width="1.0" stroke-linejoin="round" stroke-linecap="butt" d="m75.56693 200.21846l0 0c0 -14.020203 -11.365623 -25.385818 -25.38583 -25.385818l0 0c-6.7327385 0 -13.189724 2.6745605 -17.950489 7.4353333c-4.760767 4.7607574 -7.435339 11.217743 -7.435339 17.950485l0 0c0 14.020203 11.365622 25.385834 25.385828 25.385834l0 0c14.020206 0 25.38583 -11.365631 25.38583 -25.385834z" fill-rule="evenodd"/><path fill="#434343" d="m63.850395 200.21846l0 0c0 -7.5493317 -6.119953 -13.669281 -13.669292 -13.669281l0 0c-3.6253204 0 -7.1021614 1.4401398 -9.665649 4.0036316c-2.563488 2.5634918 -4.003643 6.040329 -4.003643 9.665649l0 0c0 7.549347 6.1199493 13.669296 13.669292 13.669296l0 0c7.5493393 0 13.669292 -6.1199493 13.669292 -13.669296z" fill-rule="evenodd"/><path stroke="#000000" stroke-width="3.0" stroke-linejoin="round" stroke-linecap="butt" d="m63.850395 200.21846l0 0c0 -7.5493317 -6.119953 -13.669281 -13.669292 -13.669281l0 0c-3.6253204 0 -7.1021614 1.4401398 -9.665649 4.0036316c-2.563488 2.5634918 -4.003643 6.040329 -4.003643 9.665649l0 0c0 7.549347 6.1199493 13.669296 13.669292 13.669296l0 0c7.5493393 0 13.669292 -6.1199493 13.669292 -13.669296z" fill-rule="evenodd"/><path fill="#bf9000" d="m133.44882 126.940285l0 0c0 -1.0089188 -0.81788635 -1.8268051 -1.8268127 -1.8268051l-7.3070145 0l0 0c-0.48449707 0 -0.9491501 0.19246674 -1.291748 0.53505707c-0.34259033 0.34259033 -0.53505707 0.807251 -0.53505707 1.291748l0 86.64559c0 1.0089264 0.81788635 1.8268127 1.8268051 1.8268127l7.3070145 0c1.0089264 0 1.8268127 -0.81788635 1.8268127 -1.8268127z" fill-rule="evenodd"/><path stroke="#bf9000" stroke-width="1.0" stroke-linejoin="round" stroke-linecap="butt" d="m133.44882 126.940285l0 0c0 -1.0089188 -0.81788635 -1.8268051 -1.8268127 -1.8268051l-7.3070145 0l0 0c-0.48449707 0 -0.9491501 0.19246674 -1.291748 0.53505707c-0.34259033 0.34259033 -0.53505707 0.807251 -0.53505707 1.291748l0 86.64559c0 1.0089264 0.81788635 1.8268127 1.8268051 1.8268127l7.3070145 0c1.0089264 0 1.8268127 -0.81788635 1.8268127 -1.8268127z" fill-rule="evenodd"/><path fill="#999999" d="m139.68504 206.93239l0 0c0 -0.28121948 -0.22798157 -0.50920105 -0.50920105 -0.50920105l-22.41468 0c-0.13504028 0 -0.26455688 0.053649902 -0.36005402 0.1491394c-0.0954895 0.0954895 -0.1491394 0.2250061 -0.1491394 0.36006165l0 2.036728c0 0.28121948 0.22797394 0.5091858 0.5091934 0.5091858l22.41468 0c0.28121948 0 0.50920105 -0.22796631 0.50920105 -0.5091858z" fill-rule="evenodd"/><path stroke="#999999" stroke-width="1.0" stroke-linejoin="round" stroke-linecap="butt" d="m139.68504 206.93239l0 0c0 -0.28121948 -0.22798157 -0.50920105 -0.50920105 -0.50920105l-22.41468 0c-0.13504028 0 -0.26455688 0.053649902 -0.36005402 0.1491394c-0.0954895 0.0954895 -0.1491394 0.2250061 -0.1491394 0.36006165l0 2.036728c0 0.28121948 0.22797394 0.5091858 0.5091934 0.5091858l22.41468 0c0.28121948 0 0.50920105 -0.22796631 0.50920105 -0.5091858z" fill-rule="evenodd"/><path fill="#bf9000" d="m141.85826 130.85889l0 0c0 -7.671112 -6.2186584 -13.8897705 -13.889755 -13.8897705l0 0c-3.6837997 0 -7.216713 1.4633865 -9.821548 4.068222c-2.6048355 2.6048355 -4.0682144 6.1377487 -4.0682144 9.821548l0 0c0 7.671097 6.2186584 13.889755 13.889763 13.889755l0 0c7.671097 0 13.889755 -6.2186584 13.889755 -13.889755z" fill-rule="evenodd"/><path stroke="#bf9000" stroke-width="1.0" stroke-linejoin="round" stroke-linecap="butt" d="m141.85826 130.85889l0 0c0 -7.671112 -6.2186584 -13.8897705 -13.889755 -13.8897705l0 0c-3.6837997 0 -7.216713 1.4633865 -9.821548 4.068222c-2.6048355 2.6048355 -4.0682144 6.1377487 -4.0682144 9.821548l0 0c0 7.671097 6.2186584 13.889755 13.889763 13.889755l0 0c7.671097 0 13.889755 -6.2186584 13.889755 -13.889755z" fill-rule="evenodd"/><path fill="#b7b7b7" d="m136.61417 130.85889l0 0c0 -4.757477 -3.8566895 -8.614174 -8.614166 -8.614174l0 0c-2.2846222 0 -4.47567 0.90756226 -6.0911407 2.5230331c-1.6154709 1.6154709 -2.5230331 3.8065186 -2.5230331 6.0911407l0 0c0 4.757477 3.856697 8.614166 8.614174 8.614166l0 0c4.757477 0 8.614166 -3.8566895 8.614166 -8.614166z" fill-rule="evenodd"/><path stroke="#b7b7b7" stroke-width="1.0" stroke-linejoin="round" stroke-linecap="butt" d="m136.61417 130.85889l0 0c0 -4.757477 -3.8566895 -8.614174 -8.614166 -8.614174l0 0c-2.2846222 0 -4.47567 0.90756226 -6.0911407 2.5230331c-1.6154709 1.6154709 -2.5230331 3.8065186 -2.5230331 6.0911407l0 0c0 4.757477 3.856697 8.614166 8.614174 8.614166l0 0c4.757477 0 8.614166 -3.8566895 8.614166 -8.614166z" fill-rule="evenodd"/><path fill="#5d5555" d="m178.0478 73.58127l0 0c7.9510193 7.9460907 20.837845 7.9431 28.785172 -0.0066833496c7.9473114 -7.9497833 7.9463196 -20.836624 -0.0022277832 -28.785175l-14.393707 14.393703z" fill-rule="evenodd"/><path stroke="#5d5555" stroke-width="1.0" stroke-linejoin="round" stroke-linecap="butt" d="m178.0478 73.58127l0 0c7.9510193 7.9460907 20.837845 7.9431 28.785172 -0.0066833496c7.9473114 -7.9497833 7.9463196 -20.836624 -0.0022277832 -28.785175l-14.393707 14.393703z" fill-rule="evenodd"/><path fill="#746767" d="m201.03937 64.63841l0 0c0 -1.9830093 -1.607544 -3.5905533 -3.5905457 -3.5905533l0 0c-0.9522705 0 -1.8655548 0.37828827 -2.53891 1.0516472c-0.6733551 0.6733589 -1.051651 1.5866318 -1.051651 2.538906l0 0c0 1.9830017 1.607544 3.5905457 3.590561 3.5905457l0 0c1.9830017 0 3.5905457 -1.607544 3.5905457 -3.5905457z" fill-rule="evenodd"/><path fill="#746767" d="m192.97638 69.75652l0 0c0 -0.8436508 -0.6839142 -1.527565 -1.5275574 -1.527565l0 0c-0.4051361 0 -0.79367065 0.16094208 -1.0801544 0.4474182c-0.2864685 0.2864685 -0.44740295 0.6750107 -0.44740295 1.0801468l0 0c0 0.8436432 0.6839142 1.5275574 1.5275574 1.5275574l0 0c0.8436432 0 1.5275574 -0.6839142 1.5275574 -1.5275574z" fill-rule="evenodd"/><path fill="#9f7a0a" d="m171.8198 199.82162l-13.13385 -2.984253l-8.656174 2.984253l-11.640411 -2.388443l-11.343834 2.0892334l-16.716537 -3.2834625l-17.61155 3.8818817l-8.955383 -3.582672l-2.6876602 3.2834625l5.076111 3.881897l11.640419 0l17.015755 -1.7926483l11.044617 2.0892334l14.923882 0l16.716537 -1.7900238l4.7769012 1.7900238l14.02887 -1.7900238z" fill-rule="evenodd"/><path fill="#9f7a0a" d="m129.13387 147.5833l1.7926483 13.13385l-1.4934387 8.656174l1.4934387 5.6719055l-1.7926483 10.448822l-3.5826874 2.3884583l-1.1942215 -14.031494l2.6876602 -11.044617l-3.2834625 -10.4461975z" fill-rule="evenodd"/><path fill="#9f7a0a" d="m178.68767 81.31295l-8.359589 11.6430435l-9.850388 6.5669327l-7.1653595 12.238846l-8.955383 2.0892334l3.5826874 -6.8661346l14.031494 -12.834648l6.86351 -10.448822z" fill-rule="evenodd"/><path fill="#cda52b" d="m184.35695 179.52292l-6.86351 -11.343826l-7.761154 -1.1942291l-8.658798 -17.013123l-11.044617 -4.7769012l0.59843445 6.566925l9.551178 7.1653595l7.464569 11.939636l7.761154 2.0892334l5.0734863 8.656174z" fill-rule="evenodd"/><path fill="#cda52b" d="m110.6273 141.91138l-12.238846 17.910767l-9.254593 7.1627197l-4.7769012 7.1653595l-5.073494 0.8950043l-1.7900238 6.5669403l-5.0761185 -3.8792725l3.2834702 -7.761154l7.165352 -2.388443l4.7769012 -8.955383l9.251968 -5.076111l5.671921 -10.146988z" fill-rule="evenodd"/><path fill="#666666" d="m211.82152 198.02948l-5.9711304 -4.4776764l-7.761154 5.076111l-0.5957947 5.671921l4.7742767 1.7900238l5.3753357 -2.984253l2.984253 4.4776917z" fill-rule="evenodd"/><path fill="#666666" d="m55.700787 198.62791l-4.7742767 -2.984253l-6.8661423 0.5957947l-1.4934387 5.9711304l3.8818893 4.7742767l6.8635178 -2.685028l3.6430435 3.2834625z" fill-rule="evenodd"/><path fill="#a4a4a4" d="m131.2231 128.4783l1.1942291 5.372711l-4.4776917 2.6876526l-4.7742844 -2.0892334l0.8950119 -4.1811066l3.8792725 -4.477684z" fill-rule="evenodd"/><path fill="#9f7a0a" d="m130.8084 213.54129l-2.5957947 -1.9842377l-3.2047272 1.5275574l1.3727036 1.832016l2.5958023 -0.9160156z" fill-rule="evenodd"/></g></svg>