<svg version="1.1" viewBox="0.0 0.0 256.0 64.0" fill="none" stroke="none" stroke-linecap="square" stroke-miterlimit="10" xmlns:xlink="http://www.w3.org/1999/xlink" xmlns="http://www.w3.org/2000/svg"><clipPath id="p.0"><path d="m0 0l256.0 0l0 64.0l-256.0 0l0 -64.0z" clip-rule="nonzero"/></clipPath><g clip-path="url(#p.0)"><path fill="#666666" d="m0 0l256.0 0l0 64.0l-256.0 0z" fill-rule="evenodd"/><path fill="#848484" d="m3.937008E-6 2.66672l0 0c0 -1.4727887 1.1939312 -2.66672 2.66672 -2.66672l10.66656 0l0 0c0.7072573 0 1.3855486 0.2809572 1.8856554 0.7810642c0.5001068 0.500107 0.78106403 1.1783977 0.78106403 1.8856556l0 10.666559c0 1.4727888 -1.1939306 2.6667204 -2.6667194 2.6667204l-10.66656 0c-1.4727888 0 -2.66672 -1.1939316 -2.66672 -2.6667204z" fill-rule="evenodd"/><path stroke="#666666" stroke-width="1.0" stroke-linejoin="round" stroke-linecap="butt" d="m3.937008E-6 2.66672l0 0c0 -1.4727887 1.1939312 -2.66672 2.66672 -2.66672l10.66656 0l0 0c0.7072573 0 1.3855486 0.2809572 1.8856554 0.7810642c0.5001068 0.500107 0.78106403 1.1783977 0.78106403 1.8856556l0 10.666559c0 1.4727888 -1.1939306 2.6667204 -2.6667194 2.6667204l-10.66656 0c-1.4727888 0 -2.66672 -1.1939316 -2.66672 -2.6667204z" fill-rule="evenodd"/><path fill="#999999" d="m16.00088 2.66672l0 0c0 -1.4727887 1.1939316 -2.66672 2.6667194 -2.66672l10.666559 0l0 0c0.7072582 0 1.3855495 0.2809572 1.8856564 0.7810642c0.5001068 0.500107 0.7810631 1.1783977 0.7810631 1.8856556l0 10.666559c0 1.4727888 -1.1939297 2.6667204 -2.6667194 2.6667204l-10.666559 0c-1.4727879 0 -2.6667194 -1.1939316 -2.6667194 -2.6667204z" fill-rule="evenodd"/><path stroke="#666666" stroke-width="1.0" stroke-linejoin="round" stroke-linecap="butt" d="m16.00088 2.66672l0 0c0 -1.4727887 1.1939316 -2.66672 2.6667194 -2.66672l10.666559 0l0 0c0.7072582 0 1.3855495 0.2809572 1.8856564 0.7810642c0.5001068 0.500107 0.7810631 1.1783977 0.7810631 1.8856556l0 10.666559c0 1.4727888 -1.1939297 2.6667204 -2.6667194 2.6667204l-10.666559 0c-1.4727879 0 -2.6667194 -1.1939316 -2.6667194 -2.6667204z" fill-rule="evenodd"/><path fill="#b7b7b7" d="m32.001755 2.66672l0 0c0 -1.4727887 1.1939316 -2.66672 2.6667175 -2.66672l10.666561 0l0 0c0.7072563 0 1.3855476 0.2809572 1.8856544 0.7810642c0.5001068 0.500107 0.7810669 1.1783977 0.7810669 1.8856556l0 10.666559c0 1.4727888 -1.1939316 2.6667204 -2.6667213 2.6667204l-10.666561 0c-1.472786 0 -2.6667175 -1.1939316 -2.6667175 -2.6667204z" fill-rule="evenodd"/><path stroke="#666666" stroke-width="1.0" stroke-linejoin="round" stroke-linecap="butt" d="m32.001755 2.66672l0 0c0 -1.4727887 1.1939316 -2.66672 2.6667175 -2.66672l10.666561 0l0 0c0.7072563 0 1.3855476 0.2809572 1.8856544 0.7810642c0.5001068 0.500107 0.7810669 1.1783977 0.7810669 1.8856556l0 10.666559c0 1.4727888 -1.1939316 2.6667204 -2.6667213 2.6667204l-10.666561 0c-1.472786 0 -2.6667175 -1.1939316 -2.6667175 -2.6667204z" fill-rule="evenodd"/><path fill="#999999" d="m48.00263 2.66672l0 0c0 -1.4727887 1.1939316 -2.66672 2.6667213 -2.66672l10.666557 0l0 0c0.70726013 0 1.3855515 0.2809572 1.8856583 0.7810642c0.5001068 0.500107 0.78105927 1.1783977 0.78105927 1.8856556l0 10.666559c0 1.4727888 -1.1939278 2.6667204 -2.6667175 2.6667204l-10.666557 0c-1.4727898 0 -2.6667213 -1.1939316 -2.6667213 -2.6667204z" fill-rule="evenodd"/><path stroke="#666666" stroke-width="1.0" stroke-linejoin="round" stroke-linecap="butt" d="m48.00263 2.66672l0 0c0 -1.4727887 1.1939316 -2.66672 2.6667213 -2.66672l10.666557 0l0 0c0.70726013 0 1.3855515 0.2809572 1.8856583 0.7810642c0.5001068 0.500107 0.78105927 1.1783977 0.78105927 1.8856556l0 10.666559c0 1.4727888 -1.1939278 2.6667204 -2.6667175 2.6667204l-10.666557 0c-1.4727898 0 -2.6667213 -1.1939316 -2.6667213 -2.6667204z" fill-rule="evenodd"/><path fill="#999999" d="m3.937008E-6 18.66672l0 0c0 -1.4727879 1.1939312 -2.6667194 2.66672 -2.6667194l10.66656 0l0 0c0.7072573 0 1.3855486 0.28095627 1.8856554 0.781065c0.5001068 0.5001068 0.78106403 1.1783962 0.78106403 1.8856544l0 10.666561c0 1.4727879 -1.1939306 2.6667194 -2.6667194 2.6667194l-10.66656 0c-1.4727888 0 -2.66672 -1.1939316 -2.66672 -2.6667194z" fill-rule="evenodd"/><path stroke="#666666" stroke-width="1.0" stroke-linejoin="round" stroke-linecap="butt" d="m3.937008E-6 18.66672l0 0c0 -1.4727879 1.1939312 -2.6667194 2.66672 -2.6667194l10.66656 0l0 0c0.7072573 0 1.3855486 0.28095627 1.8856554 0.781065c0.5001068 0.5001068 0.78106403 1.1783962 0.78106403 1.8856544l0 10.666561c0 1.4727879 -1.1939306 2.6667194 -2.6667194 2.6667194l-10.66656 0c-1.4727888 0 -2.66672 -1.1939316 -2.66672 -2.6667194z" fill-rule="evenodd"/><path fill="#999999" d="m16.00088 18.66672l0 0c0 -1.4727879 1.1939316 -2.6667194 2.6667194 -2.6667194l10.666559 0l0 0c0.7072582 0 1.3855495 0.28095627 1.8856564 0.781065c0.5001068 0.5001068 0.7810631 1.1783962 0.7810631 1.8856544l0 10.666561c0 1.4727879 -1.1939297 2.6667194 -2.6667194 2.6667194l-10.666559 0c-1.4727879 0 -2.6667194 -1.1939316 -2.6667194 -2.6667194z" fill-rule="evenodd"/><path stroke="#666666" stroke-width="1.0" stroke-linejoin="round" stroke-linecap="butt" d="m16.00088 18.66672l0 0c0 -1.4727879 1.1939316 -2.6667194 2.6667194 -2.6667194l10.666559 0l0 0c0.7072582 0 1.3855495 0.28095627 1.8856564 0.781065c0.5001068 0.5001068 0.7810631 1.1783962 0.7810631 1.8856544l0 10.666561c0 1.4727879 -1.1939297 2.6667194 -2.6667194 2.6667194l-10.666559 0c-1.4727879 0 -2.6667194 -1.1939316 -2.6667194 -2.6667194z" fill-rule="evenodd"/><path fill="#b7b7b7" d="m32.001755 18.66672l0 0c0 -1.4727879 1.1939316 -2.6667194 2.6667175 -2.6667194l10.666561 0l0 0c0.7072563 0 1.3855476 0.28095627 1.8856544 0.781065c0.5001068 0.5001068 0.7810669 1.1783962 0.7810669 1.8856544l0 10.666561c0 1.4727879 -1.1939316 2.6667194 -2.6667213 2.6667194l-10.666561 0c-1.472786 0 -2.6667175 -1.1939316 -2.6667175 -2.6667194z" fill-rule="evenodd"/><path stroke="#666666" stroke-width="1.0" stroke-linejoin="round" stroke-linecap="butt" d="m32.001755 18.66672l0 0c0 -1.4727879 1.1939316 -2.6667194 2.6667175 -2.6667194l10.666561 0l0 0c0.7072563 0 1.3855476 0.28095627 1.8856544 0.781065c0.5001068 0.5001068 0.7810669 1.1783962 0.7810669 1.8856544l0 10.666561c0 1.4727879 -1.1939316 2.6667194 -2.6667213 2.6667194l-10.666561 0c-1.472786 0 -2.6667175 -1.1939316 -2.6667175 -2.6667194z" fill-rule="evenodd"/><path fill="#b7b7b7" d="m48.00263 18.66672l0 0c0 -1.4727879 1.1939316 -2.6667194 2.6667213 -2.6667194l10.666557 0l0 0c0.70726013 0 1.3855515 0.28095627 1.8856583 0.781065c0.5001068 0.5001068 0.78105927 1.1783962 0.78105927 1.8856544l0 10.666561c0 1.4727879 -1.1939278 2.6667194 -2.6667175 2.6667194l-10.666557 0c-1.4727898 0 -2.6667213 -1.1939316 -2.6667213 -2.6667194z" fill-rule="evenodd"/><path stroke="#666666" stroke-width="1.0" stroke-linejoin="round" stroke-linecap="butt" d="m48.00263 18.66672l0 0c0 -1.4727879 1.1939316 -2.6667194 2.6667213 -2.6667194l10.666557 0l0 0c0.70726013 0 1.3855515 0.28095627 1.8856583 0.781065c0.5001068 0.5001068 0.78105927 1.1783962 0.78105927 1.8856544l0 10.666561c0 1.4727879 -1.1939278 2.6667194 -2.6667175 2.6667194l-10.666557 0c-1.4727898 0 -2.6667213 -1.1939316 -2.6667213 -2.6667194z" fill-rule="evenodd"/><path fill="#cccccc" d="m3.937008E-6 34.66672l0 0c0 -1.4727898 1.1939312 -2.6667213 2.66672 -2.6667213l10.66656 0l0 0c0.7072573 0 1.3855486 0.28095627 1.8856554 0.7810631c0.5001068 0.5001068 0.78106403 1.1783981 0.78106403 1.8856583l0 10.666557c0 1.4727898 -1.1939306 2.6667213 -2.6667194 2.6667213l-10.66656 0c-1.4727888 0 -2.66672 -1.1939316 -2.66672 -2.6667213z" fill-rule="evenodd"/><path stroke="#666666" stroke-width="1.0" stroke-linejoin="round" stroke-linecap="butt" d="m3.937008E-6 34.66672l0 0c0 -1.4727898 1.1939312 -2.6667213 2.66672 -2.6667213l10.66656 0l0 0c0.7072573 0 1.3855486 0.28095627 1.8856554 0.7810631c0.5001068 0.5001068 0.78106403 1.1783981 0.78106403 1.8856583l0 10.666557c0 1.4727898 -1.1939306 2.6667213 -2.6667194 2.6667213l-10.66656 0c-1.4727888 0 -2.66672 -1.1939316 -2.66672 -2.6667213z" fill-rule="evenodd"/><path fill="#b7b7b7" d="m16.00088 34.66672l0 0c0 -1.4727898 1.1939316 -2.6667213 2.6667194 -2.6667213l10.666559 0l0 0c0.7072582 0 1.3855495 0.28095627 1.8856564 0.7810631c0.5001068 0.5001068 0.7810631 1.1783981 0.7810631 1.8856583l0 10.666557c0 1.4727898 -1.1939297 2.6667213 -2.6667194 2.6667213l-10.666559 0c-1.4727879 0 -2.6667194 -1.1939316 -2.6667194 -2.6667213z" fill-rule="evenodd"/><path stroke="#666666" stroke-width="1.0" stroke-linejoin="round" stroke-linecap="butt" d="m16.00088 34.66672l0 0c0 -1.4727898 1.1939316 -2.6667213 2.6667194 -2.6667213l10.666559 0l0 0c0.7072582 0 1.3855495 0.28095627 1.8856564 0.7810631c0.5001068 0.5001068 0.7810631 1.1783981 0.7810631 1.8856583l0 10.666557c0 1.4727898 -1.1939297 2.6667213 -2.6667194 2.6667213l-10.666559 0c-1.4727879 0 -2.6667194 -1.1939316 -2.6667194 -2.6667213z" fill-rule="evenodd"/><path fill="#848484" d="m32.001755 34.66672l0 0c0 -1.4727898 1.1939316 -2.6667213 2.6667175 -2.6667213l10.666561 0l0 0c0.7072563 0 1.3855476 0.28095627 1.8856544 0.7810631c0.5001068 0.5001068 0.7810669 1.1783981 0.7810669 1.8856583l0 10.666557c0 1.4727898 -1.1939316 2.6667213 -2.6667213 2.6667213l-10.666561 0c-1.472786 0 -2.6667175 -1.1939316 -2.6667175 -2.6667213z" fill-rule="evenodd"/><path stroke="#666666" stroke-width="1.0" stroke-linejoin="round" stroke-linecap="butt" d="m32.001755 34.66672l0 0c0 -1.4727898 1.1939316 -2.6667213 2.6667175 -2.6667213l10.666561 0l0 0c0.7072563 0 1.3855476 0.28095627 1.8856544 0.7810631c0.5001068 0.5001068 0.7810669 1.1783981 0.7810669 1.8856583l0 10.666557c0 1.4727898 -1.1939316 2.6667213 -2.6667213 2.6667213l-10.666561 0c-1.472786 0 -2.6667175 -1.1939316 -2.6667175 -2.6667213z" fill-rule="evenodd"/><path fill="#d9d9d9" d="m48.00263 34.66672l0 0c0 -1.4727898 1.1939316 -2.6667213 2.6667213 -2.6667213l10.666557 0l0 0c0.70726013 0 1.3855515 0.28095627 1.8856583 0.7810631c0.5001068 0.5001068 0.78105927 1.1783981 0.78105927 1.8856583l0 10.666557c0 1.4727898 -1.1939278 2.6667213 -2.6667175 2.6667213l-10.666557 0c-1.4727898 0 -2.6667213 -1.1939316 -2.6667213 -2.6667213z" fill-rule="evenodd"/><path stroke="#666666" stroke-width="1.0" stroke-linejoin="round" stroke-linecap="butt" d="m48.00263 34.66672l0 0c0 -1.4727898 1.1939316 -2.6667213 2.6667213 -2.6667213l10.666557 0l0 0c0.70726013 0 1.3855515 0.28095627 1.8856583 0.7810631c0.5001068 0.5001068 0.78105927 1.1783981 0.78105927 1.8856583l0 10.666557c0 1.4727898 -1.1939278 2.6667213 -2.6667175 2.6667213l-10.666557 0c-1.4727898 0 -2.6667213 -1.1939316 -2.6667213 -2.6667213z" fill-rule="evenodd"/><path fill="#d9d9d9" d="m3.937008E-6 50.66672l0 0c0 -1.4727898 1.1939312 -2.6667213 2.66672 -2.6667213l10.66656 0l0 0c0.7072573 0 1.3855486 0.28095627 1.8856554 0.7810631c0.5001068 0.5001068 0.78106403 1.1783981 0.78106403 1.8856583l0 10.666557c0 1.4727898 -1.1939306 2.6667213 -2.6667194 2.6667213l-10.66656 0c-1.4727888 0 -2.66672 -1.1939316 -2.66672 -2.6667213z" fill-rule="evenodd"/><path stroke="#666666" stroke-width="1.0" stroke-linejoin="round" stroke-linecap="butt" d="m3.937008E-6 50.66672l0 0c0 -1.4727898 1.1939312 -2.6667213 2.66672 -2.6667213l10.66656 0l0 0c0.7072573 0 1.3855486 0.28095627 1.8856554 0.7810631c0.5001068 0.5001068 0.78106403 1.1783981 0.78106403 1.8856583l0 10.666557c0 1.4727898 -1.1939306 2.6667213 -2.6667194 2.6667213l-10.66656 0c-1.4727888 0 -2.66672 -1.1939316 -2.66672 -2.6667213z" fill-rule="evenodd"/><path fill="#cccccc" d="m16.00088 50.66672l0 0c0 -1.4727898 1.1939316 -2.6667213 2.6667194 -2.6667213l10.666559 0l0 0c0.7072582 0 1.3855495 0.28095627 1.8856564 0.7810631c0.5001068 0.5001068 0.7810631 1.1783981 0.7810631 1.8856583l0 10.666557c0 1.4727898 -1.1939297 2.6667213 -2.6667194 2.6667213l-10.666559 0c-1.4727879 0 -2.6667194 -1.1939316 -2.6667194 -2.6667213z" fill-rule="evenodd"/><path stroke="#666666" stroke-width="1.0" stroke-linejoin="round" stroke-linecap="butt" d="m16.00088 50.66672l0 0c0 -1.4727898 1.1939316 -2.6667213 2.6667194 -2.6667213l10.666559 0l0 0c0.7072582 0 1.3855495 0.28095627 1.8856564 0.7810631c0.5001068 0.5001068 0.7810631 1.1783981 0.7810631 1.8856583l0 10.666557c0 1.4727898 -1.1939297 2.6667213 -2.6667194 2.6667213l-10.666559 0c-1.4727879 0 -2.6667194 -1.1939316 -2.6667194 -2.6667213z" fill-rule="evenodd"/><path fill="#cccccc" d="m32.001755 50.66672l0 0c0 -1.4727898 1.1939316 -2.6667213 2.6667175 -2.6667213l10.666561 0l0 0c0.7072563 0 1.3855476 0.28095627 1.8856544 0.7810631c0.5001068 0.5001068 0.7810669 1.1783981 0.7810669 1.8856583l0 10.666557c0 1.4727898 -1.1939316 2.6667213 -2.6667213 2.6667213l-10.666561 0c-1.472786 0 -2.6667175 -1.1939316 -2.6667175 -2.6667213z" fill-rule="evenodd"/><path stroke="#666666" stroke-width="1.0" stroke-linejoin="round" stroke-linecap="butt" d="m32.001755 50.66672l0 0c0 -1.4727898 1.1939316 -2.6667213 2.6667175 -2.6667213l10.666561 0l0 0c0.7072563 0 1.3855476 0.28095627 1.8856544 0.7810631c0.5001068 0.5001068 0.7810669 1.1783981 0.7810669 1.8856583l0 10.666557c0 1.4727898 -1.1939316 2.6667213 -2.6667213 2.6667213l-10.666561 0c-1.472786 0 -2.6667175 -1.1939316 -2.6667175 -2.6667213z" fill-rule="evenodd"/><path fill="#b7b7b7" d="m48.00263 50.66672l0 0c0 -1.4727898 1.1939316 -2.6667213 2.6667213 -2.6667213l10.666557 0l0 0c0.70726013 0 1.3855515 0.28095627 1.8856583 0.7810631c0.5001068 0.5001068 0.78105927 1.1783981 0.78105927 1.8856583l0 10.666557c0 1.4727898 -1.1939278 2.6667213 -2.6667175 2.6667213l-10.666557 0c-1.4727898 0 -2.6667213 -1.1939316 -2.6667213 -2.6667213z" fill-rule="evenodd"/><path stroke="#666666" stroke-width="1.0" stroke-linejoin="round" stroke-linecap="butt" d="m48.00263 50.66672l0 0c0 -1.4727898 1.1939316 -2.6667213 2.6667213 -2.6667213l10.666557 0l0 0c0.70726013 0 1.3855515 0.28095627 1.8856583 0.7810631c0.5001068 0.5001068 0.78105927 1.1783981 0.78105927 1.8856583l0 10.666557c0 1.4727898 -1.1939278 2.6667213 -2.6667175 2.6667213l-10.666557 0c-1.4727898 0 -2.6667213 -1.1939316 -2.6667213 -2.6667213z" fill-rule="evenodd"/><path fill="#848484" d="m64.00526 2.66672l0 0c0 -1.4727887 1.1939316 -2.66672 2.6667175 -2.66672l10.666557 0l0 0c0.70726013 0 1.3855515 0.2809572 1.8856583 0.7810642c0.5001068 0.500107 0.7810669 1.1783977 0.7810669 1.8856556l0 10.666559c0 1.4727888 -1.1939316 2.6667204 -2.6667252 2.6667204l-10.666557 0c-1.472786 0 -2.6667175 -1.1939316 -2.6667175 -2.6667204z" fill-rule="evenodd"/><path stroke="#666666" stroke-width="1.0" stroke-linejoin="round" stroke-linecap="butt" d="m64.00526 2.66672l0 0c0 -1.4727887 1.1939316 -2.66672 2.6667175 -2.66672l10.666557 0l0 0c0.70726013 0 1.3855515 0.2809572 1.8856583 0.7810642c0.5001068 0.500107 0.7810669 1.1783977 0.7810669 1.8856556l0 10.666559c0 1.4727888 -1.1939316 2.6667204 -2.6667252 2.6667204l-10.666557 0c-1.472786 0 -2.6667175 -1.1939316 -2.6667175 -2.6667204z" fill-rule="evenodd"/><path fill="#999999" d="m80.00613 2.66672l0 0c0 -1.4727887 1.1939316 -2.66672 2.6667252 -2.66672l10.666557 0l0 0c0.70726013 0 1.3855515 0.2809572 1.8856583 0.7810642c0.5001068 0.500107 0.78105927 1.1783977 0.78105927 1.8856556l0 10.666559c0 1.4727888 -1.1939316 2.6667204 -2.6667175 2.6667204l-10.666557 0c-1.4727936 0 -2.6667252 -1.1939316 -2.6667252 -2.6667204z" fill-rule="evenodd"/><path stroke="#666666" stroke-width="1.0" stroke-linejoin="round" stroke-linecap="butt" d="m80.00613 2.66672l0 0c0 -1.4727887 1.1939316 -2.66672 2.6667252 -2.66672l10.666557 0l0 0c0.70726013 0 1.3855515 0.2809572 1.8856583 0.7810642c0.5001068 0.500107 0.78105927 1.1783977 0.78105927 1.8856556l0 10.666559c0 1.4727888 -1.1939316 2.6667204 -2.6667175 2.6667204l-10.666557 0c-1.4727936 0 -2.6667252 -1.1939316 -2.6667252 -2.6667204z" fill-rule="evenodd"/><path fill="#b7b7b7" d="m96.007 2.66672l0 0c0 -1.4727887 1.1939316 -2.66672 2.6667175 -2.66672l10.666565 0l0 0c0.7072525 0 1.3855438 0.2809572 1.8856506 0.7810642c0.5001068 0.500107 0.7810669 1.1783977 0.7810669 1.8856556l0 10.666559c0 1.4727888 -1.1939316 2.6667204 -2.6667175 2.6667204l-10.666565 0c-1.472786 0 -2.6667175 -1.1939316 -2.6667175 -2.6667204z" fill-rule="evenodd"/><path stroke="#666666" stroke-width="1.0" stroke-linejoin="round" stroke-linecap="butt" d="m96.007 2.66672l0 0c0 -1.4727887 1.1939316 -2.66672 2.6667175 -2.66672l10.666565 0l0 0c0.7072525 0 1.3855438 0.2809572 1.8856506 0.7810642c0.5001068 0.500107 0.7810669 1.1783977 0.7810669 1.8856556l0 10.666559c0 1.4727888 -1.1939316 2.6667204 -2.6667175 2.6667204l-10.666565 0c-1.472786 0 -2.6667175 -1.1939316 -2.6667175 -2.6667204z" fill-rule="evenodd"/><path fill="#999999" d="m112.00788 2.66672l0 0c0 -1.4727887 1.193924 -2.66672 2.6667175 -2.66672l10.666557 0l0 0c0.70726013 0 1.3855515 0.2809572 1.8856583 0.7810642c0.5001068 0.500107 0.78105927 1.1783977 0.78105927 1.8856556l0 10.666559c0 1.4727888 -1.193924 2.6667204 -2.6667175 2.6667204l-10.666557 0c-1.4727936 0 -2.6667175 -1.1939316 -2.6667175 -2.6667204z" fill-rule="evenodd"/><path stroke="#666666" stroke-width="1.0" stroke-linejoin="round" stroke-linecap="butt" d="m112.00788 2.66672l0 0c0 -1.4727887 1.193924 -2.66672 2.6667175 -2.66672l10.666557 0l0 0c0.70726013 0 1.3855515 0.2809572 1.8856583 0.7810642c0.5001068 0.500107 0.78105927 1.1783977 0.78105927 1.8856556l0 10.666559c0 1.4727888 -1.193924 2.6667204 -2.6667175 2.6667204l-10.666557 0c-1.4727936 0 -2.6667175 -1.1939316 -2.6667175 -2.6667204z" fill-rule="evenodd"/><path fill="#999999" d="m64.00526 18.66672l0 0c0 -1.4727879 1.1939316 -2.6667194 2.6667175 -2.6667194l10.666557 0l0 0c0.70726013 0 1.3855515 0.28095627 1.8856583 0.781065c0.5001068 0.5001068 0.7810669 1.1783962 0.7810669 1.8856544l0 10.666561c0 1.4727879 -1.1939316 2.6667194 -2.6667252 2.6667194l-10.666557 0c-1.472786 0 -2.6667175 -1.1939316 -2.6667175 -2.6667194z" fill-rule="evenodd"/><path stroke="#666666" stroke-width="1.0" stroke-linejoin="round" stroke-linecap="butt" d="m64.00526 18.66672l0 0c0 -1.4727879 1.1939316 -2.6667194 2.6667175 -2.6667194l10.666557 0l0 0c0.70726013 0 1.3855515 0.28095627 1.8856583 0.781065c0.5001068 0.5001068 0.7810669 1.1783962 0.7810669 1.8856544l0 10.666561c0 1.4727879 -1.1939316 2.6667194 -2.6667252 2.6667194l-10.666557 0c-1.472786 0 -2.6667175 -1.1939316 -2.6667175 -2.6667194z" fill-rule="evenodd"/><path fill="#999999" d="m80.00613 18.66672l0 0c0 -1.4727879 1.1939316 -2.6667194 2.6667252 -2.6667194l10.666557 0l0 0c0.70726013 0 1.3855515 0.28095627 1.8856583 0.781065c0.5001068 0.5001068 0.78105927 1.1783962 0.78105927 1.8856544l0 10.666561c0 1.4727879 -1.1939316 2.6667194 -2.6667175 2.6667194l-10.666557 0c-1.4727936 0 -2.6667252 -1.1939316 -2.6667252 -2.6667194z" fill-rule="evenodd"/><path stroke="#666666" stroke-width="1.0" stroke-linejoin="round" stroke-linecap="butt" d="m80.00613 18.66672l0 0c0 -1.4727879 1.1939316 -2.6667194 2.6667252 -2.6667194l10.666557 0l0 0c0.70726013 0 1.3855515 0.28095627 1.8856583 0.781065c0.5001068 0.5001068 0.78105927 1.1783962 0.78105927 1.8856544l0 10.666561c0 1.4727879 -1.1939316 2.6667194 -2.6667175 2.6667194l-10.666557 0c-1.4727936 0 -2.6667252 -1.1939316 -2.6667252 -2.6667194z" fill-rule="evenodd"/><path fill="#b7b7b7" d="m96.007 18.66672l0 0c0 -1.4727879 1.1939316 -2.6667194 2.6667175 -2.6667194l10.666565 0l0 0c0.7072525 0 1.3855438 0.28095627 1.8856506 0.781065c0.5001068 0.5001068 0.7810669 1.1783962 0.7810669 1.8856544l0 10.666561c0 1.4727879 -1.1939316 2.6667194 -2.6667175 2.6667194l-10.666565 0c-1.472786 0 -2.6667175 -1.1939316 -2.6667175 -2.6667194z" fill-rule="evenodd"/><path stroke="#666666" stroke-width="1.0" stroke-linejoin="round" stroke-linecap="butt" d="m96.007 18.66672l0 0c0 -1.4727879 1.1939316 -2.6667194 2.6667175 -2.6667194l10.666565 0l0 0c0.7072525 0 1.3855438 0.28095627 1.8856506 0.781065c0.5001068 0.5001068 0.7810669 1.1783962 0.7810669 1.8856544l0 10.666561c0 1.4727879 -1.1939316 2.6667194 -2.6667175 2.6667194l-10.666565 0c-1.472786 0 -2.6667175 -1.1939316 -2.6667175 -2.6667194z" fill-rule="evenodd"/><path fill="#b7b7b7" d="m112.00788 18.66672l0 0c0 -1.4727879 1.193924 -2.6667194 2.6667175 -2.6667194l10.666557 0l0 0c0.70726013 0 1.3855515 0.28095627 1.8856583 0.781065c0.5001068 0.5001068 0.78105927 1.1783962 0.78105927 1.8856544l0 10.666561c0 1.4727879 -1.193924 2.6667194 -2.6667175 2.6667194l-10.666557 0c-1.4727936 0 -2.6667175 -1.1939316 -2.6667175 -2.6667194z" fill-rule="evenodd"/><path stroke="#666666" stroke-width="1.0" stroke-linejoin="round" stroke-linecap="butt" d="m112.00788 18.66672l0 0c0 -1.4727879 1.193924 -2.6667194 2.6667175 -2.6667194l10.666557 0l0 0c0.70726013 0 1.3855515 0.28095627 1.8856583 0.781065c0.5001068 0.5001068 0.78105927 1.1783962 0.78105927 1.8856544l0 10.666561c0 1.4727879 -1.193924 2.6667194 -2.6667175 2.6667194l-10.666557 0c-1.4727936 0 -2.6667175 -1.1939316 -2.6667175 -2.6667194z" fill-rule="evenodd"/><path fill="#cccccc" d="m64.00526 34.66672l0 0c0 -1.4727898 1.1939316 -2.6667213 2.6667175 -2.6667213l10.666557 0l0 0c0.70726013 0 1.3855515 0.28095627 1.8856583 0.7810631c0.5001068 0.5001068 0.7810669 1.1783981 0.7810669 1.8856583l0 10.666557c0 1.4727898 -1.1939316 2.6667213 -2.6667252 2.6667213l-10.666557 0c-1.472786 0 -2.6667175 -1.1939316 -2.6667175 -2.6667213z" fill-rule="evenodd"/><path stroke="#666666" stroke-width="1.0" stroke-linejoin="round" stroke-linecap="butt" d="m64.00526 34.66672l0 0c0 -1.4727898 1.1939316 -2.6667213 2.6667175 -2.6667213l10.666557 0l0 0c0.70726013 0 1.3855515 0.28095627 1.8856583 0.7810631c0.5001068 0.5001068 0.7810669 1.1783981 0.7810669 1.8856583l0 10.666557c0 1.4727898 -1.1939316 2.6667213 -2.6667252 2.6667213l-10.666557 0c-1.472786 0 -2.6667175 -1.1939316 -2.6667175 -2.6667213z" fill-rule="evenodd"/><path fill="#b7b7b7" d="m80.00613 34.66672l0 0c0 -1.4727898 1.1939316 -2.6667213 2.6667252 -2.6667213l10.666557 0l0 0c0.70726013 0 1.3855515 0.28095627 1.8856583 0.7810631c0.5001068 0.5001068 0.78105927 1.1783981 0.78105927 1.8856583l0 10.666557c0 1.4727898 -1.1939316 2.6667213 -2.6667175 2.6667213l-10.666557 0c-1.4727936 0 -2.6667252 -1.1939316 -2.6667252 -2.6667213z" fill-rule="evenodd"/><path stroke="#666666" stroke-width="1.0" stroke-linejoin="round" stroke-linecap="butt" d="m80.00613 34.66672l0 0c0 -1.4727898 1.1939316 -2.6667213 2.6667252 -2.6667213l10.666557 0l0 0c0.70726013 0 1.3855515 0.28095627 1.8856583 0.7810631c0.5001068 0.5001068 0.78105927 1.1783981 0.78105927 1.8856583l0 10.666557c0 1.4727898 -1.1939316 2.6667213 -2.6667175 2.6667213l-10.666557 0c-1.4727936 0 -2.6667252 -1.1939316 -2.6667252 -2.6667213z" fill-rule="evenodd"/><path fill="#848484" d="m96.007 34.66672l0 0c0 -1.4727898 1.1939316 -2.6667213 2.6667175 -2.6667213l10.666565 0l0 0c0.7072525 0 1.3855438 0.28095627 1.8856506 0.7810631c0.5001068 0.5001068 0.7810669 1.1783981 0.7810669 1.8856583l0 10.666557c0 1.4727898 -1.1939316 2.6667213 -2.6667175 2.6667213l-10.666565 0c-1.472786 0 -2.6667175 -1.1939316 -2.6667175 -2.6667213z" fill-rule="evenodd"/><path stroke="#666666" stroke-width="1.0" stroke-linejoin="round" stroke-linecap="butt" d="m96.007 34.66672l0 0c0 -1.4727898 1.1939316 -2.6667213 2.6667175 -2.6667213l10.666565 0l0 0c0.7072525 0 1.3855438 0.28095627 1.8856506 0.7810631c0.5001068 0.5001068 0.7810669 1.1783981 0.7810669 1.8856583l0 10.666557c0 1.4727898 -1.1939316 2.6667213 -2.6667175 2.6667213l-10.666565 0c-1.472786 0 -2.6667175 -1.1939316 -2.6667175 -2.6667213z" fill-rule="evenodd"/><path fill="#d9d9d9" d="m112.00788 34.66672l0 0c0 -1.4727898 1.193924 -2.6667213 2.6667175 -2.6667213l10.666557 0l0 0c0.70726013 0 1.3855515 0.28095627 1.8856583 0.7810631c0.5001068 0.5001068 0.78105927 1.1783981 0.78105927 1.8856583l0 10.666557c0 1.4727898 -1.193924 2.6667213 -2.6667175 2.6667213l-10.666557 0c-1.4727936 0 -2.6667175 -1.1939316 -2.6667175 -2.6667213z" fill-rule="evenodd"/><path stroke="#666666" stroke-width="1.0" stroke-linejoin="round" stroke-linecap="butt" d="m112.00788 34.66672l0 0c0 -1.4727898 1.193924 -2.6667213 2.6667175 -2.6667213l10.666557 0l0 0c0.70726013 0 1.3855515 0.28095627 1.8856583 0.7810631c0.5001068 0.5001068 0.78105927 1.1783981 0.78105927 1.8856583l0 10.666557c0 1.4727898 -1.193924 2.6667213 -2.6667175 2.6667213l-10.666557 0c-1.4727936 0 -2.6667175 -1.1939316 -2.6667175 -2.6667213z" fill-rule="evenodd"/><path fill="#d9d9d9" d="m64.00526 50.66672l0 0c0 -1.4727898 1.1939316 -2.6667213 2.6667175 -2.6667213l10.666557 0l0 0c0.70726013 0 1.3855515 0.28095627 1.8856583 0.7810631c0.5001068 0.5001068 0.7810669 1.1783981 0.7810669 1.8856583l0 10.666557c0 1.4727898 -1.1939316 2.6667213 -2.6667252 2.6667213l-10.666557 0c-1.472786 0 -2.6667175 -1.1939316 -2.6667175 -2.6667213z" fill-rule="evenodd"/><path stroke="#666666" stroke-width="1.0" stroke-linejoin="round" stroke-linecap="butt" d="m64.00526 50.66672l0 0c0 -1.4727898 1.1939316 -2.6667213 2.6667175 -2.6667213l10.666557 0l0 0c0.70726013 0 1.3855515 0.28095627 1.8856583 0.7810631c0.5001068 0.5001068 0.7810669 1.1783981 0.7810669 1.8856583l0 10.666557c0 1.4727898 -1.1939316 2.6667213 -2.6667252 2.6667213l-10.666557 0c-1.472786 0 -2.6667175 -1.1939316 -2.6667175 -2.6667213z" fill-rule="evenodd"/><path fill="#cccccc" d="m80.00613 50.66672l0 0c0 -1.4727898 1.1939316 -2.6667213 2.6667252 -2.6667213l10.666557 0l0 0c0.70726013 0 1.3855515 0.28095627 1.8856583 0.7810631c0.5001068 0.5001068 0.78105927 1.1783981 0.78105927 1.8856583l0 10.666557c0 1.4727898 -1.1939316 2.6667213 -2.6667175 2.6667213l-10.666557 0c-1.4727936 0 -2.6667252 -1.1939316 -2.6667252 -2.6667213z" fill-rule="evenodd"/><path stroke="#666666" stroke-width="1.0" stroke-linejoin="round" stroke-linecap="butt" d="m80.00613 50.66672l0 0c0 -1.4727898 1.1939316 -2.6667213 2.6667252 -2.6667213l10.666557 0l0 0c0.70726013 0 1.3855515 0.28095627 1.8856583 0.7810631c0.5001068 0.5001068 0.78105927 1.1783981 0.78105927 1.8856583l0 10.666557c0 1.4727898 -1.1939316 2.6667213 -2.6667175 2.6667213l-10.666557 0c-1.4727936 0 -2.6667252 -1.1939316 -2.6667252 -2.6667213z" fill-rule="evenodd"/><path fill="#cccccc" d="m96.007 50.66672l0 0c0 -1.4727898 1.1939316 -2.6667213 2.6667175 -2.6667213l10.666565 0l0 0c0.7072525 0 1.3855438 0.28095627 1.8856506 0.7810631c0.5001068 0.5001068 0.7810669 1.1783981 0.7810669 1.8856583l0 10.666557c0 1.4727898 -1.1939316 2.6667213 -2.6667175 2.6667213l-10.666565 0c-1.472786 0 -2.6667175 -1.1939316 -2.6667175 -2.6667213z" fill-rule="evenodd"/><path stroke="#666666" stroke-width="1.0" stroke-linejoin="round" stroke-linecap="butt" d="m96.007 50.66672l0 0c0 -1.4727898 1.1939316 -2.6667213 2.6667175 -2.6667213l10.666565 0l0 0c0.7072525 0 1.3855438 0.28095627 1.8856506 0.7810631c0.5001068 0.5001068 0.7810669 1.1783981 0.7810669 1.8856583l0 10.666557c0 1.4727898 -1.1939316 2.6667213 -2.6667175 2.6667213l-10.666565 0c-1.472786 0 -2.6667175 -1.1939316 -2.6667175 -2.6667213z" fill-rule="evenodd"/><path fill="#b7b7b7" d="m112.00788 50.66672l0 0c0 -1.4727898 1.193924 -2.6667213 2.6667175 -2.6667213l10.666557 0l0 0c0.70726013 0 1.3855515 0.28095627 1.8856583 0.7810631c0.5001068 0.5001068 0.78105927 1.1783981 0.78105927 1.8856583l0 10.666557c0 1.4727898 -1.193924 2.6667213 -2.6667175 2.6667213l-10.666557 0c-1.4727936 0 -2.6667175 -1.1939316 -2.6667175 -2.6667213z" fill-rule="evenodd"/><path stroke="#666666" stroke-width="1.0" stroke-linejoin="round" stroke-linecap="butt" d="m112.00788 50.66672l0 0c0 -1.4727898 1.193924 -2.6667213 2.6667175 -2.6667213l10.666557 0l0 0c0.70726013 0 1.3855515 0.28095627 1.8856583 0.7810631c0.5001068 0.5001068 0.78105927 1.1783981 0.78105927 1.8856583l0 10.666557c0 1.4727898 -1.193924 2.6667213 -2.6667175 2.6667213l-10.666557 0c-1.4727936 0 -2.6667175 -1.1939316 -2.6667175 -2.6667213z" fill-rule="evenodd"/><path fill="#848484" d="m128.0105 2.66672l0 0c0 -1.4727887 1.1939392 -2.66672 2.6667175 -2.66672l10.666565 0l0 0c0.70726013 0 1.3855438 0.2809572 1.8856506 0.7810642c0.5001068 0.500107 0.7810669 1.1783977 0.7810669 1.8856556l0 10.666559c0 1.4727888 -1.193924 2.6667204 -2.6667175 2.6667204l-10.666565 0c-1.4727783 0 -2.6667175 -1.1939316 -2.6667175 -2.6667204z" fill-rule="evenodd"/><path stroke="#666666" stroke-width="1.0" stroke-linejoin="round" stroke-linecap="butt" d="m128.0105 2.66672l0 0c0 -1.4727887 1.1939392 -2.66672 2.6667175 -2.66672l10.666565 0l0 0c0.70726013 0 1.3855438 0.2809572 1.8856506 0.7810642c0.5001068 0.500107 0.7810669 1.1783977 0.7810669 1.8856556l0 10.666559c0 1.4727888 -1.193924 2.6667204 -2.6667175 2.6667204l-10.666565 0c-1.4727783 0 -2.6667175 -1.1939316 -2.6667175 -2.6667204z" fill-rule="evenodd"/><path fill="#999999" d="m144.01138 2.66672l0 0c0 -1.4727887 1.193924 -2.66672 2.6667175 -2.66672l10.66655 0l0 0c0.70726013 0 1.3855591 0.2809572 1.8856659 0.7810642c0.5001068 0.500107 0.7810669 1.1783977 0.7810669 1.8856556l0 10.666559c0 1.4727888 -1.1939392 2.6667204 -2.6667328 2.6667204l-10.66655 0c-1.4727936 0 -2.6667175 -1.1939316 -2.6667175 -2.6667204z" fill-rule="evenodd"/><path stroke="#666666" stroke-width="1.0" stroke-linejoin="round" stroke-linecap="butt" d="m144.01138 2.66672l0 0c0 -1.4727887 1.193924 -2.66672 2.6667175 -2.66672l10.66655 0l0 0c0.70726013 0 1.3855591 0.2809572 1.8856659 0.7810642c0.5001068 0.500107 0.7810669 1.1783977 0.7810669 1.8856556l0 10.666559c0 1.4727888 -1.1939392 2.6667204 -2.6667328 2.6667204l-10.66655 0c-1.4727936 0 -2.6667175 -1.1939316 -2.6667175 -2.6667204z" fill-rule="evenodd"/><path fill="#b7b7b7" d="m160.01225 2.66672l0 0c0 -1.4727887 1.193924 -2.66672 2.6667175 -2.66672l10.666565 0l0 0c0.70726013 0 1.3855438 0.2809572 1.8856506 0.7810642c0.5001068 0.500107 0.7810669 1.1783977 0.7810669 1.8856556l0 10.666559c0 1.4727888 -1.1939392 2.6667204 -2.6667175 2.6667204l-10.666565 0c-1.4727936 0 -2.6667175 -1.1939316 -2.6667175 -2.6667204z" fill-rule="evenodd"/><path stroke="#666666" stroke-width="1.0" stroke-linejoin="round" stroke-linecap="butt" d="m160.01225 2.66672l0 0c0 -1.4727887 1.193924 -2.66672 2.6667175 -2.66672l10.666565 0l0 0c0.70726013 0 1.3855438 0.2809572 1.8856506 0.7810642c0.5001068 0.500107 0.7810669 1.1783977 0.7810669 1.8856556l0 10.666559c0 1.4727888 -1.1939392 2.6667204 -2.6667175 2.6667204l-10.666565 0c-1.4727936 0 -2.6667175 -1.1939316 -2.6667175 -2.6667204z" fill-rule="evenodd"/><path fill="#999999" d="m176.01312 2.66672l0 0c0 -1.4727887 1.1939392 -2.66672 2.6667175 -2.66672l10.666565 0l0 0c0.70726013 0 1.3855438 0.2809572 1.8856506 0.7810642c0.5001068 0.500107 0.7810669 1.1783977 0.7810669 1.8856556l0 10.666559c0 1.4727888 -1.193924 2.6667204 -2.6667175 2.6667204l-10.666565 0c-1.4727783 0 -2.6667175 -1.1939316 -2.6667175 -2.6667204z" fill-rule="evenodd"/><path stroke="#666666" stroke-width="1.0" stroke-linejoin="round" stroke-linecap="butt" d="m176.01312 2.66672l0 0c0 -1.4727887 1.1939392 -2.66672 2.6667175 -2.66672l10.666565 0l0 0c0.70726013 0 1.3855438 0.2809572 1.8856506 0.7810642c0.5001068 0.500107 0.7810669 1.1783977 0.7810669 1.8856556l0 10.666559c0 1.4727888 -1.193924 2.6667204 -2.6667175 2.6667204l-10.666565 0c-1.4727783 0 -2.6667175 -1.1939316 -2.6667175 -2.6667204z" fill-rule="evenodd"/><path fill="#999999" d="m128.0105 18.66672l0 0c0 -1.4727879 1.1939392 -2.6667194 2.6667175 -2.6667194l10.666565 0l0 0c0.70726013 0 1.3855438 0.28095627 1.8856506 0.781065c0.5001068 0.5001068 0.7810669 1.1783962 0.7810669 1.8856544l0 10.666561c0 1.4727879 -1.193924 2.6667194 -2.6667175 2.6667194l-10.666565 0c-1.4727783 0 -2.6667175 -1.1939316 -2.6667175 -2.6667194z" fill-rule="evenodd"/><path stroke="#666666" stroke-width="1.0" stroke-linejoin="round" stroke-linecap="butt" d="m128.0105 18.66672l0 0c0 -1.4727879 1.1939392 -2.6667194 2.6667175 -2.6667194l10.666565 0l0 0c0.70726013 0 1.3855438 0.28095627 1.8856506 0.781065c0.5001068 0.5001068 0.7810669 1.1783962 0.7810669 1.8856544l0 10.666561c0 1.4727879 -1.193924 2.6667194 -2.6667175 2.6667194l-10.666565 0c-1.4727783 0 -2.6667175 -1.1939316 -2.6667175 -2.6667194z" fill-rule="evenodd"/><path fill="#999999" d="m144.01138 18.66672l0 0c0 -1.4727879 1.193924 -2.6667194 2.6667175 -2.6667194l10.66655 0l0 0c0.70726013 0 1.3855591 0.28095627 1.8856659 0.781065c0.5001068 0.5001068 0.7810669 1.1783962 0.7810669 1.8856544l0 10.666561c0 1.4727879 -1.1939392 2.6667194 -2.6667328 2.6667194l-10.66655 0c-1.4727936 0 -2.6667175 -1.1939316 -2.6667175 -2.6667194z" fill-rule="evenodd"/><path stroke="#666666" stroke-width="1.0" stroke-linejoin="round" stroke-linecap="butt" d="m144.01138 18.66672l0 0c0 -1.4727879 1.193924 -2.6667194 2.6667175 -2.6667194l10.66655 0l0 0c0.70726013 0 1.3855591 0.28095627 1.8856659 0.781065c0.5001068 0.5001068 0.7810669 1.1783962 0.7810669 1.8856544l0 10.666561c0 1.4727879 -1.1939392 2.6667194 -2.6667328 2.6667194l-10.66655 0c-1.4727936 0 -2.6667175 -1.1939316 -2.6667175 -2.6667194z" fill-rule="evenodd"/><path fill="#b7b7b7" d="m160.01225 18.66672l0 0c0 -1.4727879 1.193924 -2.6667194 2.6667175 -2.6667194l10.666565 0l0 0c0.70726013 0 1.3855438 0.28095627 1.8856506 0.781065c0.5001068 0.5001068 0.7810669 1.1783962 0.7810669 1.8856544l0 10.666561c0 1.4727879 -1.1939392 2.6667194 -2.6667175 2.6667194l-10.666565 0c-1.4727936 0 -2.6667175 -1.1939316 -2.6667175 -2.6667194z" fill-rule="evenodd"/><path stroke="#666666" stroke-width="1.0" stroke-linejoin="round" stroke-linecap="butt" d="m160.01225 18.66672l0 0c0 -1.4727879 1.193924 -2.6667194 2.6667175 -2.6667194l10.666565 0l0 0c0.70726013 0 1.3855438 0.28095627 1.8856506 0.781065c0.5001068 0.5001068 0.7810669 1.1783962 0.7810669 1.8856544l0 10.666561c0 1.4727879 -1.1939392 2.6667194 -2.6667175 2.6667194l-10.666565 0c-1.4727936 0 -2.6667175 -1.1939316 -2.6667175 -2.6667194z" fill-rule="evenodd"/><path fill="#b7b7b7" d="m176.01312 18.66672l0 0c0 -1.4727879 1.1939392 -2.6667194 2.6667175 -2.6667194l10.666565 0l0 0c0.70726013 0 1.3855438 0.28095627 1.8856506 0.781065c0.5001068 0.5001068 0.7810669 1.1783962 0.7810669 1.8856544l0 10.666561c0 1.4727879 -1.193924 2.6667194 -2.6667175 2.6667194l-10.666565 0c-1.4727783 0 -2.6667175 -1.1939316 -2.6667175 -2.6667194z" fill-rule="evenodd"/><path stroke="#666666" stroke-width="1.0" stroke-linejoin="round" stroke-linecap="butt" d="m176.01312 18.66672l0 0c0 -1.4727879 1.1939392 -2.6667194 2.6667175 -2.6667194l10.666565 0l0 0c0.70726013 0 1.3855438 0.28095627 1.8856506 0.781065c0.5001068 0.5001068 0.7810669 1.1783962 0.7810669 1.8856544l0 10.666561c0 1.4727879 -1.193924 2.6667194 -2.6667175 2.6667194l-10.666565 0c-1.4727783 0 -2.6667175 -1.1939316 -2.6667175 -2.6667194z" fill-rule="evenodd"/><path fill="#cccccc" d="m128.0105 34.66672l0 0c0 -1.4727898 1.1939392 -2.6667213 2.6667175 -2.6667213l10.666565 0l0 0c0.70726013 0 1.3855438 0.28095627 1.8856506 0.7810631c0.5001068 0.5001068 0.7810669 1.1783981 0.7810669 1.8856583l0 10.666557c0 1.4727898 -1.193924 2.6667213 -2.6667175 2.6667213l-10.666565 0c-1.4727783 0 -2.6667175 -1.1939316 -2.6667175 -2.6667213z" fill-rule="evenodd"/><path stroke="#666666" stroke-width="1.0" stroke-linejoin="round" stroke-linecap="butt" d="m128.0105 34.66672l0 0c0 -1.4727898 1.1939392 -2.6667213 2.6667175 -2.6667213l10.666565 0l0 0c0.70726013 0 1.3855438 0.28095627 1.8856506 0.7810631c0.5001068 0.5001068 0.7810669 1.1783981 0.7810669 1.8856583l0 10.666557c0 1.4727898 -1.193924 2.6667213 -2.6667175 2.6667213l-10.666565 0c-1.4727783 0 -2.6667175 -1.1939316 -2.6667175 -2.6667213z" fill-rule="evenodd"/><path fill="#b7b7b7" d="m144.01138 34.66672l0 0c0 -1.4727898 1.193924 -2.6667213 2.6667175 -2.6667213l10.66655 0l0 0c0.70726013 0 1.3855591 0.28095627 1.8856659 0.7810631c0.5001068 0.5001068 0.7810669 1.1783981 0.7810669 1.8856583l0 10.666557c0 1.4727898 -1.1939392 2.6667213 -2.6667328 2.6667213l-10.66655 0c-1.4727936 0 -2.6667175 -1.1939316 -2.6667175 -2.6667213z" fill-rule="evenodd"/><path stroke="#666666" stroke-width="1.0" stroke-linejoin="round" stroke-linecap="butt" d="m144.01138 34.66672l0 0c0 -1.4727898 1.193924 -2.6667213 2.6667175 -2.6667213l10.66655 0l0 0c0.70726013 0 1.3855591 0.28095627 1.8856659 0.7810631c0.5001068 0.5001068 0.7810669 1.1783981 0.7810669 1.8856583l0 10.666557c0 1.4727898 -1.1939392 2.6667213 -2.6667328 2.6667213l-10.66655 0c-1.4727936 0 -2.6667175 -1.1939316 -2.6667175 -2.6667213z" fill-rule="evenodd"/><path fill="#848484" d="m160.01225 34.66672l0 0c0 -1.4727898 1.193924 -2.6667213 2.6667175 -2.6667213l10.666565 0l0 0c0.70726013 0 1.3855438 0.28095627 1.8856506 0.7810631c0.5001068 0.5001068 0.7810669 1.1783981 0.7810669 1.8856583l0 10.666557c0 1.4727898 -1.1939392 2.6667213 -2.6667175 2.6667213l-10.666565 0c-1.4727936 0 -2.6667175 -1.1939316 -2.6667175 -2.6667213z" fill-rule="evenodd"/><path stroke="#666666" stroke-width="1.0" stroke-linejoin="round" stroke-linecap="butt" d="m160.01225 34.66672l0 0c0 -1.4727898 1.193924 -2.6667213 2.6667175 -2.6667213l10.666565 0l0 0c0.70726013 0 1.3855438 0.28095627 1.8856506 0.7810631c0.5001068 0.5001068 0.7810669 1.1783981 0.7810669 1.8856583l0 10.666557c0 1.4727898 -1.1939392 2.6667213 -2.6667175 2.6667213l-10.666565 0c-1.4727936 0 -2.6667175 -1.1939316 -2.6667175 -2.6667213z" fill-rule="evenodd"/><path fill="#d9d9d9" d="m176.01312 34.66672l0 0c0 -1.4727898 1.1939392 -2.6667213 2.6667175 -2.6667213l10.666565 0l0 0c0.70726013 0 1.3855438 0.28095627 1.8856506 0.7810631c0.5001068 0.5001068 0.7810669 1.1783981 0.7810669 1.8856583l0 10.666557c0 1.4727898 -1.193924 2.6667213 -2.6667175 2.6667213l-10.666565 0c-1.4727783 0 -2.6667175 -1.1939316 -2.6667175 -2.6667213z" fill-rule="evenodd"/><path stroke="#666666" stroke-width="1.0" stroke-linejoin="round" stroke-linecap="butt" d="m176.01312 34.66672l0 0c0 -1.4727898 1.1939392 -2.6667213 2.6667175 -2.6667213l10.666565 0l0 0c0.70726013 0 1.3855438 0.28095627 1.8856506 0.7810631c0.5001068 0.5001068 0.7810669 1.1783981 0.7810669 1.8856583l0 10.666557c0 1.4727898 -1.193924 2.6667213 -2.6667175 2.6667213l-10.666565 0c-1.4727783 0 -2.6667175 -1.1939316 -2.6667175 -2.6667213z" fill-rule="evenodd"/><path fill="#d9d9d9" d="m128.0105 50.66672l0 0c0 -1.4727898 1.1939392 -2.6667213 2.6667175 -2.6667213l10.666565 0l0 0c0.70726013 0 1.3855438 0.28095627 1.8856506 0.7810631c0.5001068 0.5001068 0.7810669 1.1783981 0.7810669 1.8856583l0 10.666557c0 1.4727898 -1.193924 2.6667213 -2.6667175 2.6667213l-10.666565 0c-1.4727783 0 -2.6667175 -1.1939316 -2.6667175 -2.6667213z" fill-rule="evenodd"/><path stroke="#666666" stroke-width="1.0" stroke-linejoin="round" stroke-linecap="butt" d="m128.0105 50.66672l0 0c0 -1.4727898 1.1939392 -2.6667213 2.6667175 -2.6667213l10.666565 0l0 0c0.70726013 0 1.3855438 0.28095627 1.8856506 0.7810631c0.5001068 0.5001068 0.7810669 1.1783981 0.7810669 1.8856583l0 10.666557c0 1.4727898 -1.193924 2.6667213 -2.6667175 2.6667213l-10.666565 0c-1.4727783 0 -2.6667175 -1.1939316 -2.6667175 -2.6667213z" fill-rule="evenodd"/><path fill="#cccccc" d="m144.01138 50.66672l0 0c0 -1.4727898 1.193924 -2.6667213 2.6667175 -2.6667213l10.66655 0l0 0c0.70726013 0 1.3855591 0.28095627 1.8856659 0.7810631c0.5001068 0.5001068 0.7810669 1.1783981 0.7810669 1.8856583l0 10.666557c0 1.4727898 -1.1939392 2.6667213 -2.6667328 2.6667213l-10.66655 0c-1.4727936 0 -2.6667175 -1.1939316 -2.6667175 -2.6667213z" fill-rule="evenodd"/><path stroke="#666666" stroke-width="1.0" stroke-linejoin="round" stroke-linecap="butt" d="m144.01138 50.66672l0 0c0 -1.4727898 1.193924 -2.6667213 2.6667175 -2.6667213l10.66655 0l0 0c0.70726013 0 1.3855591 0.28095627 1.8856659 0.7810631c0.5001068 0.5001068 0.7810669 1.1783981 0.7810669 1.8856583l0 10.666557c0 1.4727898 -1.1939392 2.6667213 -2.6667328 2.6667213l-10.66655 0c-1.4727936 0 -2.6667175 -1.1939316 -2.6667175 -2.6667213z" fill-rule="evenodd"/><path fill="#cccccc" d="m160.01225 50.66672l0 0c0 -1.4727898 1.193924 -2.6667213 2.6667175 -2.6667213l10.666565 0l0 0c0.70726013 0 1.3855438 0.28095627 1.8856506 0.7810631c0.5001068 0.5001068 0.7810669 1.1783981 0.7810669 1.8856583l0 10.666557c0 1.4727898 -1.1939392 2.6667213 -2.6667175 2.6667213l-10.666565 0c-1.4727936 0 -2.6667175 -1.1939316 -2.6667175 -2.6667213z" fill-rule="evenodd"/><path stroke="#666666" stroke-width="1.0" stroke-linejoin="round" stroke-linecap="butt" d="m160.01225 50.66672l0 0c0 -1.4727898 1.193924 -2.6667213 2.6667175 -2.6667213l10.666565 0l0 0c0.70726013 0 1.3855438 0.28095627 1.8856506 0.7810631c0.5001068 0.5001068 0.7810669 1.1783981 0.7810669 1.8856583l0 10.666557c0 1.4727898 -1.1939392 2.6667213 -2.6667175 2.6667213l-10.666565 0c-1.4727936 0 -2.6667175 -1.1939316 -2.6667175 -2.6667213z" fill-rule="evenodd"/><path fill="#b7b7b7" d="m176.01312 50.66672l0 0c0 -1.4727898 1.1939392 -2.6667213 2.6667175 -2.6667213l10.666565 0l0 0c0.70726013 0 1.3855438 0.28095627 1.8856506 0.7810631c0.5001068 0.5001068 0.7810669 1.1783981 0.7810669 1.8856583l0 10.666557c0 1.4727898 -1.193924 2.6667213 -2.6667175 2.6667213l-10.666565 0c-1.4727783 0 -2.6667175 -1.1939316 -2.6667175 -2.6667213z" fill-rule="evenodd"/><path stroke="#666666" stroke-width="1.0" stroke-linejoin="round" stroke-linecap="butt" d="m176.01312 50.66672l0 0c0 -1.4727898 1.1939392 -2.6667213 2.6667175 -2.6667213l10.666565 0l0 0c0.70726013 0 1.3855438 0.28095627 1.8856506 0.7810631c0.5001068 0.5001068 0.7810669 1.1783981 0.7810669 1.8856583l0 10.666557c0 1.4727898 -1.193924 2.6667213 -2.6667175 2.6667213l-10.666565 0c-1.4727783 0 -2.6667175 -1.1939316 -2.6667175 -2.6667213z" fill-rule="evenodd"/><path fill="#848484" d="m192.01575 2.66672l0 0c0 -1.4727887 1.1939392 -2.66672 2.6667175 -2.66672l10.666565 0l0 0c0.70726013 0 1.3855438 0.2809572 1.8856506 0.7810642c0.5001221 0.500107 0.7810669 1.1783977 0.7810669 1.8856556l0 10.666559c0 1.4727888 -1.193924 2.6667204 -2.6667175 2.6667204l-10.666565 0c-1.4727783 0 -2.6667175 -1.1939316 -2.6667175 -2.6667204z" fill-rule="evenodd"/><path stroke="#666666" stroke-width="1.0" stroke-linejoin="round" stroke-linecap="butt" d="m192.01575 2.66672l0 0c0 -1.4727887 1.1939392 -2.66672 2.6667175 -2.66672l10.666565 0l0 0c0.70726013 0 1.3855438 0.2809572 1.8856506 0.7810642c0.5001221 0.500107 0.7810669 1.1783977 0.7810669 1.8856556l0 10.666559c0 1.4727888 -1.193924 2.6667204 -2.6667175 2.6667204l-10.666565 0c-1.4727783 0 -2.6667175 -1.1939316 -2.6667175 -2.6667204z" fill-rule="evenodd"/><path fill="#999999" d="m208.01663 2.66672l0 0c0 -1.4727887 1.193924 -2.66672 2.6667175 -2.66672l10.66655 0l0 0c0.70726013 0 1.3855591 0.2809572 1.8856659 0.7810642c0.5001068 0.500107 0.7810669 1.1783977 0.7810669 1.8856556l0 10.666559c0 1.4727888 -1.1939392 2.6667204 -2.6667328 2.6667204l-10.66655 0c-1.4727936 0 -2.6667175 -1.1939316 -2.6667175 -2.6667204z" fill-rule="evenodd"/><path stroke="#666666" stroke-width="1.0" stroke-linejoin="round" stroke-linecap="butt" d="m208.01663 2.66672l0 0c0 -1.4727887 1.193924 -2.66672 2.6667175 -2.66672l10.66655 0l0 0c0.70726013 0 1.3855591 0.2809572 1.8856659 0.7810642c0.5001068 0.500107 0.7810669 1.1783977 0.7810669 1.8856556l0 10.666559c0 1.4727888 -1.1939392 2.6667204 -2.6667328 2.6667204l-10.66655 0c-1.4727936 0 -2.6667175 -1.1939316 -2.6667175 -2.6667204z" fill-rule="evenodd"/><path fill="#b7b7b7" d="m224.0175 2.66672l0 0c0 -1.4727887 1.193924 -2.66672 2.6667175 -2.66672l10.666565 0l0 0c0.70726013 0 1.3855438 0.2809572 1.8856506 0.7810642c0.5001068 0.500107 0.7810669 1.1783977 0.7810669 1.8856556l0 10.666559c0 1.4727888 -1.1939392 2.6667204 -2.6667175 2.6667204l-10.666565 0c-1.4727936 0 -2.6667175 -1.1939316 -2.6667175 -2.6667204z" fill-rule="evenodd"/><path stroke="#666666" stroke-width="1.0" stroke-linejoin="round" stroke-linecap="butt" d="m224.0175 2.66672l0 0c0 -1.4727887 1.193924 -2.66672 2.6667175 -2.66672l10.666565 0l0 0c0.70726013 0 1.3855438 0.2809572 1.8856506 0.7810642c0.5001068 0.500107 0.7810669 1.1783977 0.7810669 1.8856556l0 10.666559c0 1.4727888 -1.1939392 2.6667204 -2.6667175 2.6667204l-10.666565 0c-1.4727936 0 -2.6667175 -1.1939316 -2.6667175 -2.6667204z" fill-rule="evenodd"/><path fill="#999999" d="m240.01837 2.66672l0 0c0 -1.4727887 1.1939392 -2.66672 2.6667175 -2.66672l10.666565 0l0 0c0.70726013 0 1.3855438 0.2809572 1.8856506 0.7810642c0.5001068 0.500107 0.7810669 1.1783977 0.7810669 1.8856556l0 10.666559c0 1.4727888 -1.193924 2.6667204 -2.6667175 2.6667204l-10.666565 0c-1.4727783 0 -2.6667175 -1.1939316 -2.6667175 -2.6667204z" fill-rule="evenodd"/><path stroke="#666666" stroke-width="1.0" stroke-linejoin="round" stroke-linecap="butt" d="m240.01837 2.66672l0 0c0 -1.4727887 1.1939392 -2.66672 2.6667175 -2.66672l10.666565 0l0 0c0.70726013 0 1.3855438 0.2809572 1.8856506 0.7810642c0.5001068 0.500107 0.7810669 1.1783977 0.7810669 1.8856556l0 10.666559c0 1.4727888 -1.193924 2.6667204 -2.6667175 2.6667204l-10.666565 0c-1.4727783 0 -2.6667175 -1.1939316 -2.6667175 -2.6667204z" fill-rule="evenodd"/><path fill="#999999" d="m192.01575 18.66672l0 0c0 -1.4727879 1.1939392 -2.6667194 2.6667175 -2.6667194l10.666565 0l0 0c0.70726013 0 1.3855438 0.28095627 1.8856506 0.781065c0.5001221 0.5001068 0.7810669 1.1783962 0.7810669 1.8856544l0 10.666561c0 1.4727879 -1.193924 2.6667194 -2.6667175 2.6667194l-10.666565 0c-1.4727783 0 -2.6667175 -1.1939316 -2.6667175 -2.6667194z" fill-rule="evenodd"/><path stroke="#666666" stroke-width="1.0" stroke-linejoin="round" stroke-linecap="butt" d="m192.01575 18.66672l0 0c0 -1.4727879 1.1939392 -2.6667194 2.6667175 -2.6667194l10.666565 0l0 0c0.70726013 0 1.3855438 0.28095627 1.8856506 0.781065c0.5001221 0.5001068 0.7810669 1.1783962 0.7810669 1.8856544l0 10.666561c0 1.4727879 -1.193924 2.6667194 -2.6667175 2.6667194l-10.666565 0c-1.4727783 0 -2.6667175 -1.1939316 -2.6667175 -2.6667194z" fill-rule="evenodd"/><path fill="#999999" d="m208.01663 18.66672l0 0c0 -1.4727879 1.193924 -2.6667194 2.6667175 -2.6667194l10.66655 0l0 0c0.70726013 0 1.3855591 0.28095627 1.8856659 0.781065c0.5001068 0.5001068 0.7810669 1.1783962 0.7810669 1.8856544l0 10.666561c0 1.4727879 -1.1939392 2.6667194 -2.6667328 2.6667194l-10.66655 0c-1.4727936 0 -2.6667175 -1.1939316 -2.6667175 -2.6667194z" fill-rule="evenodd"/><path stroke="#666666" stroke-width="1.0" stroke-linejoin="round" stroke-linecap="butt" d="m208.01663 18.66672l0 0c0 -1.4727879 1.193924 -2.6667194 2.6667175 -2.6667194l10.66655 0l0 0c0.70726013 0 1.3855591 0.28095627 1.8856659 0.781065c0.5001068 0.5001068 0.7810669 1.1783962 0.7810669 1.8856544l0 10.666561c0 1.4727879 -1.1939392 2.6667194 -2.6667328 2.6667194l-10.66655 0c-1.4727936 0 -2.6667175 -1.1939316 -2.6667175 -2.6667194z" fill-rule="evenodd"/><path fill="#b7b7b7" d="m224.0175 18.66672l0 0c0 -1.4727879 1.193924 -2.6667194 2.6667175 -2.6667194l10.666565 0l0 0c0.70726013 0 1.3855438 0.28095627 1.8856506 0.781065c0.5001068 0.5001068 0.7810669 1.1783962 0.7810669 1.8856544l0 10.666561c0 1.4727879 -1.1939392 2.6667194 -2.6667175 2.6667194l-10.666565 0c-1.4727936 0 -2.6667175 -1.1939316 -2.6667175 -2.6667194z" fill-rule="evenodd"/><path stroke="#666666" stroke-width="1.0" stroke-linejoin="round" stroke-linecap="butt" d="m224.0175 18.66672l0 0c0 -1.4727879 1.193924 -2.6667194 2.6667175 -2.6667194l10.666565 0l0 0c0.70726013 0 1.3855438 0.28095627 1.8856506 0.781065c0.5001068 0.5001068 0.7810669 1.1783962 0.7810669 1.8856544l0 10.666561c0 1.4727879 -1.1939392 2.6667194 -2.6667175 2.6667194l-10.666565 0c-1.4727936 0 -2.6667175 -1.1939316 -2.6667175 -2.6667194z" fill-rule="evenodd"/><path fill="#b7b7b7" d="m240.01837 18.66672l0 0c0 -1.4727879 1.1939392 -2.6667194 2.6667175 -2.6667194l10.666565 0l0 0c0.70726013 0 1.3855438 0.28095627 1.8856506 0.781065c0.5001068 0.5001068 0.7810669 1.1783962 0.7810669 1.8856544l0 10.666561c0 1.4727879 -1.193924 2.6667194 -2.6667175 2.6667194l-10.666565 0c-1.4727783 0 -2.6667175 -1.1939316 -2.6667175 -2.6667194z" fill-rule="evenodd"/><path stroke="#666666" stroke-width="1.0" stroke-linejoin="round" stroke-linecap="butt" d="m240.01837 18.66672l0 0c0 -1.4727879 1.1939392 -2.6667194 2.6667175 -2.6667194l10.666565 0l0 0c0.70726013 0 1.3855438 0.28095627 1.8856506 0.781065c0.5001068 0.5001068 0.7810669 1.1783962 0.7810669 1.8856544l0 10.666561c0 1.4727879 -1.193924 2.6667194 -2.6667175 2.6667194l-10.666565 0c-1.4727783 0 -2.6667175 -1.1939316 -2.6667175 -2.6667194z" fill-rule="evenodd"/><path fill="#cccccc" d="m192.01575 34.66672l0 0c0 -1.4727898 1.1939392 -2.6667213 2.6667175 -2.6667213l10.666565 0l0 0c0.70726013 0 1.3855438 0.28095627 1.8856506 0.7810631c0.5001221 0.5001068 0.7810669 1.1783981 0.7810669 1.8856583l0 10.666557c0 1.4727898 -1.193924 2.6667213 -2.6667175 2.6667213l-10.666565 0c-1.4727783 0 -2.6667175 -1.1939316 -2.6667175 -2.6667213z" fill-rule="evenodd"/><path stroke="#666666" stroke-width="1.0" stroke-linejoin="round" stroke-linecap="butt" d="m192.01575 34.66672l0 0c0 -1.4727898 1.1939392 -2.6667213 2.6667175 -2.6667213l10.666565 0l0 0c0.70726013 0 1.3855438 0.28095627 1.8856506 0.7810631c0.5001221 0.5001068 0.7810669 1.1783981 0.7810669 1.8856583l0 10.666557c0 1.4727898 -1.193924 2.6667213 -2.6667175 2.6667213l-10.666565 0c-1.4727783 0 -2.6667175 -1.1939316 -2.6667175 -2.6667213z" fill-rule="evenodd"/><path fill="#b7b7b7" d="m208.01663 34.66672l0 0c0 -1.4727898 1.193924 -2.6667213 2.6667175 -2.6667213l10.66655 0l0 0c0.70726013 0 1.3855591 0.28095627 1.8856659 0.7810631c0.5001068 0.5001068 0.7810669 1.1783981 0.7810669 1.8856583l0 10.666557c0 1.4727898 -1.1939392 2.6667213 -2.6667328 2.6667213l-10.66655 0c-1.4727936 0 -2.6667175 -1.1939316 -2.6667175 -2.6667213z" fill-rule="evenodd"/><path stroke="#666666" stroke-width="1.0" stroke-linejoin="round" stroke-linecap="butt" d="m208.01663 34.66672l0 0c0 -1.4727898 1.193924 -2.6667213 2.6667175 -2.6667213l10.66655 0l0 0c0.70726013 0 1.3855591 0.28095627 1.8856659 0.7810631c0.5001068 0.5001068 0.7810669 1.1783981 0.7810669 1.8856583l0 10.666557c0 1.4727898 -1.1939392 2.6667213 -2.6667328 2.6667213l-10.66655 0c-1.4727936 0 -2.6667175 -1.1939316 -2.6667175 -2.6667213z" fill-rule="evenodd"/><path fill="#848484" d="m224.0175 34.66672l0 0c0 -1.4727898 1.193924 -2.6667213 2.6667175 -2.6667213l10.666565 0l0 0c0.70726013 0 1.3855438 0.28095627 1.8856506 0.7810631c0.5001068 0.5001068 0.7810669 1.1783981 0.7810669 1.8856583l0 10.666557c0 1.4727898 -1.1939392 2.6667213 -2.6667175 2.6667213l-10.666565 0c-1.4727936 0 -2.6667175 -1.1939316 -2.6667175 -2.6667213z" fill-rule="evenodd"/><path stroke="#666666" stroke-width="1.0" stroke-linejoin="round" stroke-linecap="butt" d="m224.0175 34.66672l0 0c0 -1.4727898 1.193924 -2.6667213 2.6667175 -2.6667213l10.666565 0l0 0c0.70726013 0 1.3855438 0.28095627 1.8856506 0.7810631c0.5001068 0.5001068 0.7810669 1.1783981 0.7810669 1.8856583l0 10.666557c0 1.4727898 -1.1939392 2.6667213 -2.6667175 2.6667213l-10.666565 0c-1.4727936 0 -2.6667175 -1.1939316 -2.6667175 -2.6667213z" fill-rule="evenodd"/><path fill="#d9d9d9" d="m240.01837 34.66672l0 0c0 -1.4727898 1.1939392 -2.6667213 2.6667175 -2.6667213l10.666565 0l0 0c0.70726013 0 1.3855438 0.28095627 1.8856506 0.7810631c0.5001068 0.5001068 0.7810669 1.1783981 0.7810669 1.8856583l0 10.666557c0 1.4727898 -1.193924 2.6667213 -2.6667175 2.6667213l-10.666565 0c-1.4727783 0 -2.6667175 -1.1939316 -2.6667175 -2.6667213z" fill-rule="evenodd"/><path stroke="#666666" stroke-width="1.0" stroke-linejoin="round" stroke-linecap="butt" d="m240.01837 34.66672l0 0c0 -1.4727898 1.1939392 -2.6667213 2.6667175 -2.6667213l10.666565 0l0 0c0.70726013 0 1.3855438 0.28095627 1.8856506 0.7810631c0.5001068 0.5001068 0.7810669 1.1783981 0.7810669 1.8856583l0 10.666557c0 1.4727898 -1.193924 2.6667213 -2.6667175 2.6667213l-10.666565 0c-1.4727783 0 -2.6667175 -1.1939316 -2.6667175 -2.6667213z" fill-rule="evenodd"/><path fill="#d9d9d9" d="m192.01575 50.66672l0 0c0 -1.4727898 1.1939392 -2.6667213 2.6667175 -2.6667213l10.666565 0l0 0c0.70726013 0 1.3855438 0.28095627 1.8856506 0.7810631c0.5001221 0.5001068 0.7810669 1.1783981 0.7810669 1.8856583l0 10.666557c0 1.4727898 -1.193924 2.6667213 -2.6667175 2.6667213l-10.666565 0c-1.4727783 0 -2.6667175 -1.1939316 -2.6667175 -2.6667213z" fill-rule="evenodd"/><path stroke="#666666" stroke-width="1.0" stroke-linejoin="round" stroke-linecap="butt" d="m192.01575 50.66672l0 0c0 -1.4727898 1.1939392 -2.6667213 2.6667175 -2.6667213l10.666565 0l0 0c0.70726013 0 1.3855438 0.28095627 1.8856506 0.7810631c0.5001221 0.5001068 0.7810669 1.1783981 0.7810669 1.8856583l0 10.666557c0 1.4727898 -1.193924 2.6667213 -2.6667175 2.6667213l-10.666565 0c-1.4727783 0 -2.6667175 -1.1939316 -2.6667175 -2.6667213z" fill-rule="evenodd"/><path fill="#cccccc" d="m208.01663 50.66672l0 0c0 -1.4727898 1.193924 -2.6667213 2.6667175 -2.6667213l10.66655 0l0 0c0.70726013 0 1.3855591 0.28095627 1.8856659 0.7810631c0.5001068 0.5001068 0.7810669 1.1783981 0.7810669 1.8856583l0 10.666557c0 1.4727898 -1.1939392 2.6667213 -2.6667328 2.6667213l-10.66655 0c-1.4727936 0 -2.6667175 -1.1939316 -2.6667175 -2.6667213z" fill-rule="evenodd"/><path stroke="#666666" stroke-width="1.0" stroke-linejoin="round" stroke-linecap="butt" d="m208.01663 50.66672l0 0c0 -1.4727898 1.193924 -2.6667213 2.6667175 -2.6667213l10.66655 0l0 0c0.70726013 0 1.3855591 0.28095627 1.8856659 0.7810631c0.5001068 0.5001068 0.7810669 1.1783981 0.7810669 1.8856583l0 10.666557c0 1.4727898 -1.1939392 2.6667213 -2.6667328 2.6667213l-10.66655 0c-1.4727936 0 -2.6667175 -1.1939316 -2.6667175 -2.6667213z" fill-rule="evenodd"/><path fill="#cccccc" d="m224.0175 50.66672l0 0c0 -1.4727898 1.193924 -2.6667213 2.6667175 -2.6667213l10.666565 0l0 0c0.70726013 0 1.3855438 0.28095627 1.8856506 0.7810631c0.5001068 0.5001068 0.7810669 1.1783981 0.7810669 1.8856583l0 10.666557c0 1.4727898 -1.1939392 2.6667213 -2.6667175 2.6667213l-10.666565 0c-1.4727936 0 -2.6667175 -1.1939316 -2.6667175 -2.6667213z" fill-rule="evenodd"/><path stroke="#666666" stroke-width="1.0" stroke-linejoin="round" stroke-linecap="butt" d="m224.0175 50.66672l0 0c0 -1.4727898 1.193924 -2.6667213 2.6667175 -2.6667213l10.666565 0l0 0c0.70726013 0 1.3855438 0.28095627 1.8856506 0.7810631c0.5001068 0.5001068 0.7810669 1.1783981 0.7810669 1.8856583l0 10.666557c0 1.4727898 -1.1939392 2.6667213 -2.6667175 2.6667213l-10.666565 0c-1.4727936 0 -2.6667175 -1.1939316 -2.6667175 -2.6667213z" fill-rule="evenodd"/><path fill="#b7b7b7" d="m240.01837 50.66672l0 0c0 -1.4727898 1.1939392 -2.6667213 2.6667175 -2.6667213l10.666565 0l0 0c0.70726013 0 1.3855438 0.28095627 1.8856506 0.7810631c0.5001068 0.5001068 0.7810669 1.1783981 0.7810669 1.8856583l0 10.666557c0 1.4727898 -1.193924 2.6667213 -2.6667175 2.6667213l-10.666565 0c-1.4727783 0 -2.6667175 -1.1939316 -2.6667175 -2.6667213z" fill-rule="evenodd"/><path stroke="#666666" stroke-width="1.0" stroke-linejoin="round" stroke-linecap="butt" d="m240.01837 50.66672l0 0c0 -1.4727898 1.1939392 -2.6667213 2.6667175 -2.6667213l10.666565 0l0 0c0.70726013 0 1.3855438 0.28095627 1.8856506 0.7810631c0.5001068 0.5001068 0.7810669 1.1783981 0.7810669 1.8856583l0 10.666557c0 1.4727898 -1.193924 2.6667213 -2.6667175 2.6667213l-10.666565 0c-1.4727783 0 -2.6667175 -1.1939316 -2.6667175 -2.6667213z" fill-rule="evenodd"/><defs><linearGradient id="p.1" gradientUnits="userSpaceOnUse" gradientTransform="matrix(8.000057919657223 0.0 0.0 8.000057919657223 0.0 0.0)" spreadMethod="pad" x1="4.1933545272171695E-10" y1="-1.1583884269741365E-4" x2="-2.8959710674353413E-5" y2="7.999942080762109"><stop offset="0.0" stop-color="#f3f3f3" stop-opacity="0.3019608"/><stop offset="0.37" stop-color="#ffffff" stop-opacity="0.3019608"/><stop offset="0.41846153" stop-color="#d7d7d7" stop-opacity="0.3529412"/><stop offset="0.4669231" stop-color="#b8b8b8" stop-opacity="0.40784314"/><stop offset="0.5153846" stop-color="#a0a0a0" stop-opacity="0.4627451"/><stop offset="0.5638462" stop-color="#8e8e8e" stop-opacity="0.5137255"/><stop offset="0.61230767" stop-color="#808080" stop-opacity="0.5686275"/><stop offset="0.6607692" stop-color="#737373" stop-opacity="0.62352943"/><stop offset="0.7092308" stop-color="#696969" stop-opacity="0.6745098"/><stop offset="0.75769234" stop-color="#606060" stop-opacity="0.7294118"/><stop offset="0.80615383" stop-color="#595959" stop-opacity="0.78431374"/><stop offset="0.8546154" stop-color="#535353" stop-opacity="0.8352941"/><stop offset="0.90307695" stop-color="#4c4c4c" stop-opacity="0.8901961"/><stop offset="0.95153844" stop-color="#474747" stop-opacity="0.94509804"/><stop offset="1.0" stop-color="#434343"/></linearGradient></defs><path fill="url(#p.1)" d="m0 0l256.0 0l0 64.0l-256.0 0z" fill-rule="evenodd"/></g></svg>