<svg version="1.1" viewBox="0.0 0.0 256.0 256.0" fill="none" stroke="none" stroke-linecap="square" stroke-miterlimit="10" xmlns:xlink="http://www.w3.org/1999/xlink" xmlns="http://www.w3.org/2000/svg"><clipPath id="p.0"><path d="m0 0l256.0 0l0 256.0l-256.0 0l0 -256.0z" clip-rule="nonzero"/></clipPath><g clip-path="url(#p.0)"><path fill="#bf9000" d="m0 0l256.0 0l0 256.0l-256.0 0z" fill-rule="evenodd"/><path fill="#bf9000" d="m378.3133 237.95969c-5.9943237 -5.55336 -13.044617 -32.08748 -12.16272 -33.850388c0.88186646 -1.7629089 13.839874 23.62555 17.454071 23.272964c3.6141663 -0.35258484 2.1154785 -25.123795 4.230957 -25.388443c2.1154785 -0.2646637 5.376648 22.919067 8.461945 23.800522c3.0852966 0.88145447 9.080048 -20.451004 10.049866 -18.51181c0.9698181 1.9391937 0.44137573 25.034119 -4.230957 30.146973c-4.6723633 5.1128693 -17.808838 6.083557 -23.803162 0.5301819z" fill-rule="evenodd"/><path fill="#bf9000" d="m464.72537 226.45575c-5.9943237 -5.55336 -13.044617 -32.08748 -12.16272 -33.850388c0.88186646 -1.7629089 13.839874 23.62555 17.45404 23.272964c3.6141968 -0.35258484 2.115509 -25.123795 4.2309875 -25.388443c2.1154785 -0.2646637 5.376648 22.919067 8.461945 23.800522c3.0852966 0.88145447 9.080048 -20.451004 10.049866 -18.51181c0.9698181 1.9391937 0.44137573 25.034119 -4.2309875 30.146973c-4.672333 5.1128693 -17.808807 6.083557 -23.803131 0.5301819z" fill-rule="evenodd"/><path fill="#bf9000" d="m540.89075 241.85995c-5.9943237 -5.55336 -13.044617 -32.087494 -12.162781 -33.850388c0.881897 -1.7629089 13.839905 23.62555 17.454102 23.272964c3.6141357 -0.35258484 2.1154785 -25.123795 4.230957 -25.388458c2.1154785 -0.26464844 5.376648 22.919083 8.461975 23.800522c3.085266 0.88145447 9.080017 -20.451004 10.049866 -18.51181c0.9697876 1.9391937 0.4413452 25.034134 -4.231018 30.146988c-4.6723022 5.112854 -17.808838 6.083557 -23.8031 0.5301819z" fill-rule="evenodd"/><path fill="#bf9000" d="m359.40515 159.545c-5.994293 -5.5533752 -13.044617 -32.087494 -12.16272 -33.850395c0.881897 -1.7629089 13.839905 23.625542 17.454071 23.272972c3.6141663 -0.35258484 2.1154785 -25.123802 4.230957 -25.388458c2.1154785 -0.26465607 5.376648 22.919067 8.461945 23.800522c3.0852966 0.88145447 9.080048 -20.451004 10.049866 -18.51181c0.9698181 1.9391937 0.44137573 25.034119 -4.230957 30.146988c-4.6723633 5.112854 -17.808838 6.083542 -23.803162 0.5301819z" fill-rule="evenodd"/><path fill="#bf9000" d="m436.1637 161.0673c-5.9943237 -5.5533752 -13.044617 -32.087494 -12.16275 -33.850395c0.881897 -1.7629013 13.839905 23.625542 17.454071 23.272972c3.6141968 -0.35258484 2.115509 -25.123802 4.2309875 -25.388458c2.1154785 -0.26465607 5.376648 22.919067 8.461945 23.800522c3.0852966 0.88145447 9.080048 -20.451004 10.049866 -18.51181c0.9698181 1.9391937 0.44137573 25.034119 -4.2309875 30.146988c-4.672333 5.112854 -17.808838 6.083542 -23.803131 0.5301819z" fill-rule="evenodd"/><path fill="#bf9000" d="m361.4524 46.356018c-5.994293 -5.5533676 -13.044617 -32.087486 -12.16272 -33.85039c0.881897 -1.7629051 13.839905 23.625546 17.454071 23.272964c3.6141663 -0.35258102 2.1154785 -25.123796 4.230957 -25.38845c2.115509 -0.26465416 5.376648 22.919071 8.461945 23.800526c3.0852966 0.88145065 9.080048 -20.451008 10.049866 -18.511812c0.9698181 1.9391956 0.44140625 25.03412 -4.230957 30.146982c-4.6723633 5.1128616 -17.808838 6.0835495 -23.803162 0.5301819z" fill-rule="evenodd"/><path fill="#bf9000" d="m462.77786 47.678852c-5.9943237 -5.5533676 -13.044617 -32.087486 -12.16272 -33.85039c0.88186646 -1.7629042 13.839874 23.625546 17.454071 23.272964c3.6141663 -0.35258102 2.1154785 -25.123796 4.230957 -25.38845c2.1154785 -0.26465416 5.376648 22.919071 8.461945 23.800526c3.0852966 0.88145065 9.080048 -20.451008 10.049866 -18.511812c0.9698181 1.9391956 0.44137573 25.03412 -4.230957 30.146982c-4.6723633 5.1128616 -17.808838 6.0835533 -23.803162 0.5301819z" fill-rule="evenodd"/><path fill="#bf9000" d="m534.77783 49.991188c-5.9942627 -5.5533676 -13.044617 -32.087486 -12.16272 -33.85039c0.881897 -1.7629051 13.839905 23.625546 17.454102 23.272964c3.6141357 -0.35258102 2.1154785 -25.123796 4.230957 -25.38845c2.1154785 -0.26465416 5.376648 22.919071 8.461914 23.800526c3.0853271 0.88145065 9.080078 -20.451006 10.049927 -18.511812c0.9697876 1.9391956 0.4413452 25.03412 -4.231018 30.146982c-4.6723633 5.1128616 -17.808838 6.0835533 -23.803162 0.5301819z" fill-rule="evenodd"/><path fill="#bf9000" d="m532.89075 118.290405c-5.9943237 -5.5533676 -13.044617 -32.087494 -12.162781 -33.850395c0.881897 -1.7629089 13.839905 23.625542 17.454102 23.272964c3.6141357 -0.3525772 2.1154785 -25.123795 4.230957 -25.38845c2.1154785 -0.26465607 5.376648 22.919075 8.461975 23.800522c3.085266 0.88145447 9.080017 -20.451004 10.049866 -18.51181c0.9697876 1.9391937 0.4413452 25.034119 -4.231018 30.14698c-4.6723022 5.1128616 -17.808838 6.083557 -23.8031 0.5301895z" fill-rule="evenodd"/><path fill="#bf9000" d="m521.71747 177.99382c-5.9942627 -5.5533752 -13.044586 -32.087494 -12.162689 -33.850403c0.88186646 -1.7628937 13.839874 23.62555 17.454071 23.272964c3.6141357 -0.35256958 2.1154785 -25.123795 4.230957 -25.388443c2.1154785 -0.2646637 5.376648 22.919067 8.461914 23.800522c3.0853271 0.88145447 9.080078 -20.451004 10.049866 -18.51181c0.96984863 1.9391937 0.44140625 25.034119 -4.230957 30.146988c-4.6723633 5.112854 -17.808838 6.083542 -23.803162 0.5301819z" fill-rule="evenodd"/><path fill="#bf9000" d="m412.5285 94.8862c-5.994293 -5.5533676 -13.044617 -32.087486 -12.16272 -33.85039c0.881897 -1.7629051 13.839905 23.625546 17.454071 23.272968c3.6141663 -0.35258484 2.1154785 -25.123798 4.2309875 -25.388454c2.1154785 -0.26465225 5.3766174 22.919071 8.461914 23.800526c3.0853271 0.88145447 9.080078 -20.451004 10.049896 -18.51181c0.9697876 1.9391937 0.44137573 25.034119 -4.2309875 30.14698c-4.6723633 5.1128616 -17.808838 6.0835495 -23.803162 0.5301819z" fill-rule="evenodd"/><path fill="#7f6000" d="m0 0l186.07874 0l0 51.464565l-186.07874 0z" fill-rule="evenodd"/><path fill="#7f6000" d="m99.71129 50.7979l156.28346 0l0 51.464565l-156.28346 0z" fill-rule="evenodd"/><path fill="#7f6000" d="m0 102.267715l151.65355 0l0 51.46457l-151.65355 0z" fill-rule="evenodd"/><path fill="#7f6000" d="m88.74278 153.73228l167.2441 0l0 51.46457l-167.2441 0z" fill-rule="evenodd"/><path fill="#7f6000" d="m0 204.53543l156.28346 0l0 51.46457l-156.28346 0z" fill-rule="evenodd"/></g></svg>