<svg version="1.1" viewBox="0.0 0.0 16.0 64.0" fill="none" stroke="none" stroke-linecap="square" stroke-miterlimit="10" xmlns:xlink="http://www.w3.org/1999/xlink" xmlns="http://www.w3.org/2000/svg"><clipPath id="p.0"><path d="m0 0l16.0 0l0 64.0l-16.0 0l0 -64.0z" clip-rule="nonzero"/></clipPath><g clip-path="url(#p.0)"><path fill="#666666" d="m0 0l16.0 0l0 64.0l-16.0 0z" fill-rule="evenodd"/><path fill="#848484" d="m2.66672 64.002625l0 0c-1.4727887 0 -2.66672 -1.1939316 -2.66672 -2.6667213l0 -10.666557l0 0c0 -0.70726013 0.2809572 -1.3855515 0.7810642 -1.8856583c0.500107 -0.5001068 1.1783977 -0.7810631 1.8856556 -0.7810631l10.666559 0c1.4727888 0 2.6667204 1.1939316 2.6667204 2.6667213l0 10.666557c0 1.4727898 -1.1939316 2.6667213 -2.6667204 2.6667213z" fill-rule="evenodd"/><path stroke="#666666" stroke-width="1.0" stroke-linejoin="round" stroke-linecap="butt" d="m2.66672 64.002625l0 0c-1.4727887 0 -2.66672 -1.1939316 -2.66672 -2.6667213l0 -10.666557l0 0c0 -0.70726013 0.2809572 -1.3855515 0.7810642 -1.8856583c0.500107 -0.5001068 1.1783977 -0.7810631 1.8856556 -0.7810631l10.666559 0c1.4727888 0 2.6667204 1.1939316 2.6667204 2.6667213l0 10.666557c0 1.4727898 -1.1939316 2.6667213 -2.6667204 2.6667213z" fill-rule="evenodd"/><path fill="#999999" d="m2.66672 48.00175l0 0c-1.4727887 0 -2.66672 -1.1939316 -2.66672 -2.6667213l0 -10.666561l0 0c0 -0.7072563 0.2809572 -1.3855476 0.7810642 -1.8856544c0.500107 -0.5001068 1.1783977 -0.7810631 1.8856556 -0.7810631l10.666559 0c1.4727888 0 2.6667204 1.1939278 2.6667204 2.6667175l0 10.666561c0 1.4727898 -1.1939316 2.6667213 -2.6667204 2.6667213z" fill-rule="evenodd"/><path stroke="#666666" stroke-width="1.0" stroke-linejoin="round" stroke-linecap="butt" d="m2.66672 48.00175l0 0c-1.4727887 0 -2.66672 -1.1939316 -2.66672 -2.6667213l0 -10.666561l0 0c0 -0.7072563 0.2809572 -1.3855476 0.7810642 -1.8856544c0.500107 -0.5001068 1.1783977 -0.7810631 1.8856556 -0.7810631l10.666559 0c1.4727888 0 2.6667204 1.1939278 2.6667204 2.6667175l0 10.666561c0 1.4727898 -1.1939316 2.6667213 -2.6667204 2.6667213z" fill-rule="evenodd"/><path fill="#b7b7b7" d="m2.66672 32.000874l0 0c-1.4727887 0 -2.66672 -1.1939297 -2.66672 -2.6667194l0 -10.666559l0 0c0 -0.7072582 0.2809572 -1.3855495 0.7810642 -1.8856564c0.500107 -0.5001068 1.1783977 -0.7810631 1.8856556 -0.7810631l10.666559 0c1.4727888 0 2.6667204 1.1939297 2.6667204 2.6667194l0 10.666559c0 1.4727898 -1.1939316 2.6667194 -2.6667204 2.6667194z" fill-rule="evenodd"/><path stroke="#666666" stroke-width="1.0" stroke-linejoin="round" stroke-linecap="butt" d="m2.66672 32.000874l0 0c-1.4727887 0 -2.66672 -1.1939297 -2.66672 -2.6667194l0 -10.666559l0 0c0 -0.7072582 0.2809572 -1.3855495 0.7810642 -1.8856564c0.500107 -0.5001068 1.1783977 -0.7810631 1.8856556 -0.7810631l10.666559 0c1.4727888 0 2.6667204 1.1939297 2.6667204 2.6667194l0 10.666559c0 1.4727898 -1.1939316 2.6667194 -2.6667204 2.6667194z" fill-rule="evenodd"/><path fill="#999999" d="m2.66672 16.0l0 0c-1.4727887 0 -2.66672 -1.1939316 -2.66672 -2.6667204l0 -10.666559l0 0c0 -0.707258 0.2809572 -1.3855487 0.7810642 -1.8856556c0.500107 -0.50010705 1.1783977 -0.7810642 1.8856556 -0.7810642l10.666559 0c1.4727888 0 2.6667204 1.1939312 2.6667204 2.66672l0 10.666559c0 1.4727888 -1.1939316 2.6667204 -2.6667204 2.6667204z" fill-rule="evenodd"/><path stroke="#666666" stroke-width="1.0" stroke-linejoin="round" stroke-linecap="butt" d="m2.66672 16.0l0 0c-1.4727887 0 -2.66672 -1.1939316 -2.66672 -2.6667204l0 -10.666559l0 0c0 -0.707258 0.2809572 -1.3855487 0.7810642 -1.8856556c0.500107 -0.50010705 1.1783977 -0.7810642 1.8856556 -0.7810642l10.666559 0c1.4727888 0 2.6667204 1.1939312 2.6667204 2.66672l0 10.666559c0 1.4727888 -1.1939316 2.6667204 -2.6667204 2.6667204z" fill-rule="evenodd"/></g></svg>